M48
; DRILL file {KiCad 8.0.4} date 2025-03-26T20:34:34+0800
; FORMAT={-:-/ absolute / inch / decimal}
; #@! TF.CreationDate,2025-03-26T20:34:34+08:00
; #@! TF.GenerationSoftware,Kicad,Pcbnew,8.0.4
; #@! TF.FileFunction,Plated,1,2,PTH
FMAT,2
INCH
; #@! TA.AperFunction,Plated,PTH,ComponentDrill
T1C0.0197
; #@! TA.AperFunction,Plated,PTH,ComponentDrill
T2C0.0413
; #@! TA.AperFunction,Plated,PTH,ComponentDrill
T3C0.0728
%
G90
G05
T1
X2.7559Y-1.5972
X2.7559Y-1.6366
X2.7559Y-1.676
X2.7559Y-1.7154
X2.7614Y-2.1287
X2.7614Y-2.1681
X2.7614Y-2.2075
X2.7614Y-2.2469
X2.7614Y-2.6602
X2.7614Y-2.6996
X2.7614Y-2.739
X2.7614Y-2.7783
X2.7614Y-3.172
X2.7614Y-3.2114
X2.7614Y-3.2508
X2.7614Y-3.2902
X2.7953Y-1.9291
X2.7953Y-2.4902
X2.7953Y-2.9921
X2.7953Y-3.5138
X2.8346Y-1.9291
X2.8346Y-2.4902
X2.8346Y-2.9921
X2.8346Y-3.5138
X2.874Y-1.9291
X2.874Y-2.4902
X2.874Y-2.9921
X2.874Y-3.5138
X2.9134Y-1.9291
X2.9134Y-2.4902
X2.9134Y-2.9921
X2.9134Y-3.5138
X2.9528Y-1.9291
X2.9528Y-2.4902
X2.9528Y-2.9921
X2.9528Y-3.5138
X2.9921Y-1.9291
X2.9921Y-2.4902
X2.9921Y-2.9921
X2.9921Y-3.5138
X3.0315Y-1.9291
X3.0315Y-2.4902
X3.0315Y-2.9921
X3.0315Y-3.5138
X3.0681Y-1.5972
X3.0681Y-1.6366
X3.0681Y-1.676
X3.0681Y-1.7154
X3.0709Y-1.9291
X3.0709Y-2.4902
X3.0709Y-2.9921
X3.0709Y-3.5138
X3.0736Y-2.1287
X3.0736Y-2.1681
X3.0736Y-2.2075
X3.0736Y-2.2469
X3.0736Y-2.6602
X3.0736Y-2.6996
X3.0736Y-2.739
X3.0736Y-2.7783
X3.0736Y-3.172
X3.0736Y-3.2114
X3.0736Y-3.2508
X3.0736Y-3.2902
X3.1102Y-1.9291
X3.1102Y-2.4902
X3.1102Y-2.9921
X3.1102Y-3.5138
T2
X2.1681Y-1.6563
X2.1736Y-2.1878
X2.1736Y-2.7193
X2.1736Y-3.2311
X3.6756Y-1.6563
X3.6811Y-2.1878
X3.6811Y-2.7193
X3.6811Y-3.2311
T3
X2.0331Y-1.5213
X2.0331Y-1.7913
X2.0386Y-2.0528
X2.0386Y-2.3228
X2.0386Y-2.5843
X2.0386Y-2.8543
X2.0386Y-3.0961
X2.0386Y-3.3661
X2.3031Y-1.7913
X2.3087Y-2.3228
X2.3087Y-2.8543
X2.3087Y-3.3661
X3.5406Y-1.5213
X3.5406Y-1.7913
X3.5461Y-2.0528
X3.5461Y-2.3228
X3.5461Y-2.5843
X3.5461Y-2.8543
X3.5461Y-3.0961
X3.5461Y-3.3661
X3.8106Y-1.7913
X3.8161Y-2.3228
X3.8161Y-2.8543
X3.8161Y-3.3661
M30
