%TF.GenerationSoftware,KiCad,Pcbnew,8.0.4*%
%TF.CreationDate,2025-03-26T20:34:27+08:00*%
%TF.ProjectId,AdaptorBoard,41646170-746f-4724-926f-6172642e6b69,rev?*%
%TF.SameCoordinates,Original*%
%TF.FileFunction,Soldermask,Bot*%
%TF.FilePolarity,Negative*%
%FSLAX46Y46*%
G04 Gerber Fmt 4.6, Leading zero omitted, Abs format (unit mm)*
G04 Created by KiCad (PCBNEW 8.0.4) date 2025-03-26 20:34:27*
%MOMM*%
%LPD*%
G01*
G04 APERTURE LIST*
%ADD10C,1.779000*%
%ADD11C,2.979000*%
%ADD12R,0.850000X0.850000*%
%ADD13O,0.850000X0.850000*%
G04 APERTURE END LIST*
D10*
%TO.C,BNC4*%
X55210000Y-82070000D03*
D11*
X51780000Y-78640000D03*
X51780000Y-85500000D03*
X58640000Y-85500000D03*
%TD*%
D12*
%TO.C,PIN2*%
X70140000Y-54070000D03*
D13*
X70140000Y-55070000D03*
X70140000Y-56070000D03*
X70140000Y-57070000D03*
%TD*%
D12*
%TO.C,PIN8*%
X77930000Y-40570000D03*
D13*
X77930000Y-41570000D03*
X77930000Y-42570000D03*
X77930000Y-43570000D03*
%TD*%
D10*
%TO.C,BNC6*%
X93500000Y-69070000D03*
D11*
X90070000Y-65640000D03*
X90070000Y-72500000D03*
X96930000Y-72500000D03*
%TD*%
D12*
%TO.C,PIN3*%
X70140000Y-67570000D03*
D13*
X70140000Y-68570000D03*
X70140000Y-69570000D03*
X70140000Y-70570000D03*
%TD*%
D12*
%TO.C,GND1*%
X71000000Y-76000000D03*
D13*
X72000000Y-76000000D03*
X73000000Y-76000000D03*
X74000000Y-76000000D03*
X75000000Y-76000000D03*
X76000000Y-76000000D03*
X77000000Y-76000000D03*
X78000000Y-76000000D03*
X79000000Y-76000000D03*
%TD*%
D10*
%TO.C,BNC7*%
X93500000Y-55570000D03*
D11*
X90070000Y-52140000D03*
X90070000Y-59000000D03*
X96930000Y-59000000D03*
%TD*%
D10*
%TO.C,BNC5*%
X93500000Y-82070000D03*
D11*
X90070000Y-78640000D03*
X90070000Y-85500000D03*
X96930000Y-85500000D03*
%TD*%
D10*
%TO.C,BNC3*%
X55210000Y-69070000D03*
D11*
X51780000Y-65640000D03*
X51780000Y-72500000D03*
X58640000Y-72500000D03*
%TD*%
D10*
%TO.C,BNC8*%
X93360000Y-42070000D03*
D11*
X89930000Y-38640000D03*
X89930000Y-45500000D03*
X96790000Y-45500000D03*
%TD*%
D12*
%TO.C,V_Bias1*%
X71000000Y-89250000D03*
D13*
X72000000Y-89250000D03*
X73000000Y-89250000D03*
X74000000Y-89250000D03*
X75000000Y-89250000D03*
X76000000Y-89250000D03*
X77000000Y-89250000D03*
X78000000Y-89250000D03*
X79000000Y-89250000D03*
%TD*%
D12*
%TO.C,PIN5*%
X78070000Y-80570000D03*
D13*
X78070000Y-81570000D03*
X78070000Y-82570000D03*
X78070000Y-83570000D03*
%TD*%
D12*
%TO.C,+2V5*%
X71000000Y-49000000D03*
D13*
X72000000Y-49000000D03*
X73000000Y-49000000D03*
X74000000Y-49000000D03*
X75000000Y-49000000D03*
X76000000Y-49000000D03*
X77000000Y-49000000D03*
X78000000Y-49000000D03*
X79000000Y-49000000D03*
%TD*%
D10*
%TO.C,BNC2*%
X55210000Y-55570000D03*
D11*
X51780000Y-52140000D03*
X51780000Y-59000000D03*
X58640000Y-59000000D03*
%TD*%
D12*
%TO.C,PIN7*%
X78070000Y-54070000D03*
D13*
X78070000Y-55070000D03*
X78070000Y-56070000D03*
X78070000Y-57070000D03*
%TD*%
D12*
%TO.C,PIN4*%
X70140000Y-80570000D03*
D13*
X70140000Y-81570000D03*
X70140000Y-82570000D03*
X70140000Y-83570000D03*
%TD*%
D10*
%TO.C,BNC1*%
X55070000Y-42070000D03*
D11*
X51640000Y-38640000D03*
X51640000Y-45500000D03*
X58500000Y-45500000D03*
%TD*%
D12*
%TO.C,-2V5*%
X71000000Y-63250000D03*
D13*
X72000000Y-63250000D03*
X73000000Y-63250000D03*
X74000000Y-63250000D03*
X75000000Y-63250000D03*
X76000000Y-63250000D03*
X77000000Y-63250000D03*
X78000000Y-63250000D03*
X79000000Y-63250000D03*
%TD*%
D12*
%TO.C,PIN6*%
X78070000Y-67570000D03*
D13*
X78070000Y-68570000D03*
X78070000Y-69570000D03*
X78070000Y-70570000D03*
%TD*%
D12*
%TO.C,PIN1*%
X70000000Y-40570000D03*
D13*
X70000000Y-41570000D03*
X70000000Y-42570000D03*
X70000000Y-43570000D03*
%TD*%
M02*
