%TF.GenerationSoftware,KiCad,Pcbnew,8.0.4*%
%TF.CreationDate,2025-03-26T20:34:27+08:00*%
%TF.ProjectId,AdaptorBoard,41646170-746f-4724-926f-6172642e6b69,rev?*%
%TF.SameCoordinates,Original*%
%TF.FileFunction,Legend,Bot*%
%TF.FilePolarity,Positive*%
%FSLAX46Y46*%
G04 Gerber Fmt 4.6, Leading zero omitted, Abs format (unit mm)*
G04 Created by KiCad (PCBNEW 8.0.4) date 2025-03-26 20:34:27*
%MOMM*%
%LPD*%
G01*
G04 APERTURE LIST*
%ADD10C,0.100000*%
G04 APERTURE END LIST*
D10*
X83142858Y-87324800D02*
X83000001Y-87372419D01*
X83000001Y-87372419D02*
X82761906Y-87372419D01*
X82761906Y-87372419D02*
X82666668Y-87324800D01*
X82666668Y-87324800D02*
X82619049Y-87277180D01*
X82619049Y-87277180D02*
X82571430Y-87181942D01*
X82571430Y-87181942D02*
X82571430Y-87086704D01*
X82571430Y-87086704D02*
X82619049Y-86991466D01*
X82619049Y-86991466D02*
X82666668Y-86943847D01*
X82666668Y-86943847D02*
X82761906Y-86896228D01*
X82761906Y-86896228D02*
X82952382Y-86848609D01*
X82952382Y-86848609D02*
X83047620Y-86800990D01*
X83047620Y-86800990D02*
X83095239Y-86753371D01*
X83095239Y-86753371D02*
X83142858Y-86658133D01*
X83142858Y-86658133D02*
X83142858Y-86562895D01*
X83142858Y-86562895D02*
X83095239Y-86467657D01*
X83095239Y-86467657D02*
X83047620Y-86420038D01*
X83047620Y-86420038D02*
X82952382Y-86372419D01*
X82952382Y-86372419D02*
X82714287Y-86372419D01*
X82714287Y-86372419D02*
X82571430Y-86420038D01*
X82000001Y-87372419D02*
X82095239Y-87324800D01*
X82095239Y-87324800D02*
X82142858Y-87277180D01*
X82142858Y-87277180D02*
X82190477Y-87181942D01*
X82190477Y-87181942D02*
X82190477Y-86896228D01*
X82190477Y-86896228D02*
X82142858Y-86800990D01*
X82142858Y-86800990D02*
X82095239Y-86753371D01*
X82095239Y-86753371D02*
X82000001Y-86705752D01*
X82000001Y-86705752D02*
X81857144Y-86705752D01*
X81857144Y-86705752D02*
X81761906Y-86753371D01*
X81761906Y-86753371D02*
X81714287Y-86800990D01*
X81714287Y-86800990D02*
X81666668Y-86896228D01*
X81666668Y-86896228D02*
X81666668Y-87181942D01*
X81666668Y-87181942D02*
X81714287Y-87277180D01*
X81714287Y-87277180D02*
X81761906Y-87324800D01*
X81761906Y-87324800D02*
X81857144Y-87372419D01*
X81857144Y-87372419D02*
X82000001Y-87372419D01*
X81095239Y-87372419D02*
X81190477Y-87324800D01*
X81190477Y-87324800D02*
X81238096Y-87229561D01*
X81238096Y-87229561D02*
X81238096Y-86372419D01*
X80285715Y-87372419D02*
X80285715Y-86372419D01*
X80285715Y-87324800D02*
X80380953Y-87372419D01*
X80380953Y-87372419D02*
X80571429Y-87372419D01*
X80571429Y-87372419D02*
X80666667Y-87324800D01*
X80666667Y-87324800D02*
X80714286Y-87277180D01*
X80714286Y-87277180D02*
X80761905Y-87181942D01*
X80761905Y-87181942D02*
X80761905Y-86896228D01*
X80761905Y-86896228D02*
X80714286Y-86800990D01*
X80714286Y-86800990D02*
X80666667Y-86753371D01*
X80666667Y-86753371D02*
X80571429Y-86705752D01*
X80571429Y-86705752D02*
X80380953Y-86705752D01*
X80380953Y-86705752D02*
X80285715Y-86753371D01*
X79428572Y-87324800D02*
X79523810Y-87372419D01*
X79523810Y-87372419D02*
X79714286Y-87372419D01*
X79714286Y-87372419D02*
X79809524Y-87324800D01*
X79809524Y-87324800D02*
X79857143Y-87229561D01*
X79857143Y-87229561D02*
X79857143Y-86848609D01*
X79857143Y-86848609D02*
X79809524Y-86753371D01*
X79809524Y-86753371D02*
X79714286Y-86705752D01*
X79714286Y-86705752D02*
X79523810Y-86705752D01*
X79523810Y-86705752D02*
X79428572Y-86753371D01*
X79428572Y-86753371D02*
X79380953Y-86848609D01*
X79380953Y-86848609D02*
X79380953Y-86943847D01*
X79380953Y-86943847D02*
X79857143Y-87039085D01*
X78952381Y-87372419D02*
X78952381Y-86705752D01*
X78952381Y-86896228D02*
X78904762Y-86800990D01*
X78904762Y-86800990D02*
X78857143Y-86753371D01*
X78857143Y-86753371D02*
X78761905Y-86705752D01*
X78761905Y-86705752D02*
X78666667Y-86705752D01*
X77142857Y-87372419D02*
X77142857Y-86848609D01*
X77142857Y-86848609D02*
X77190476Y-86753371D01*
X77190476Y-86753371D02*
X77285714Y-86705752D01*
X77285714Y-86705752D02*
X77476190Y-86705752D01*
X77476190Y-86705752D02*
X77571428Y-86753371D01*
X77142857Y-87324800D02*
X77238095Y-87372419D01*
X77238095Y-87372419D02*
X77476190Y-87372419D01*
X77476190Y-87372419D02*
X77571428Y-87324800D01*
X77571428Y-87324800D02*
X77619047Y-87229561D01*
X77619047Y-87229561D02*
X77619047Y-87134323D01*
X77619047Y-87134323D02*
X77571428Y-87039085D01*
X77571428Y-87039085D02*
X77476190Y-86991466D01*
X77476190Y-86991466D02*
X77238095Y-86991466D01*
X77238095Y-86991466D02*
X77142857Y-86943847D01*
X76523809Y-87372419D02*
X76619047Y-87324800D01*
X76619047Y-87324800D02*
X76666666Y-87229561D01*
X76666666Y-87229561D02*
X76666666Y-86372419D01*
X75999999Y-87372419D02*
X76095237Y-87324800D01*
X76095237Y-87324800D02*
X76142856Y-87229561D01*
X76142856Y-87229561D02*
X76142856Y-86372419D01*
X74714284Y-87372419D02*
X74809522Y-87324800D01*
X74809522Y-87324800D02*
X74857141Y-87277180D01*
X74857141Y-87277180D02*
X74904760Y-87181942D01*
X74904760Y-87181942D02*
X74904760Y-86896228D01*
X74904760Y-86896228D02*
X74857141Y-86800990D01*
X74857141Y-86800990D02*
X74809522Y-86753371D01*
X74809522Y-86753371D02*
X74714284Y-86705752D01*
X74714284Y-86705752D02*
X74571427Y-86705752D01*
X74571427Y-86705752D02*
X74476189Y-86753371D01*
X74476189Y-86753371D02*
X74428570Y-86800990D01*
X74428570Y-86800990D02*
X74380951Y-86896228D01*
X74380951Y-86896228D02*
X74380951Y-87181942D01*
X74380951Y-87181942D02*
X74428570Y-87277180D01*
X74428570Y-87277180D02*
X74476189Y-87324800D01*
X74476189Y-87324800D02*
X74571427Y-87372419D01*
X74571427Y-87372419D02*
X74714284Y-87372419D01*
X74095236Y-86705752D02*
X73714284Y-86705752D01*
X73952379Y-87372419D02*
X73952379Y-86515276D01*
X73952379Y-86515276D02*
X73904760Y-86420038D01*
X73904760Y-86420038D02*
X73809522Y-86372419D01*
X73809522Y-86372419D02*
X73714284Y-86372419D01*
X72761902Y-86705752D02*
X72380950Y-86705752D01*
X72619045Y-86372419D02*
X72619045Y-87229561D01*
X72619045Y-87229561D02*
X72571426Y-87324800D01*
X72571426Y-87324800D02*
X72476188Y-87372419D01*
X72476188Y-87372419D02*
X72380950Y-87372419D01*
X72047616Y-87372419D02*
X72047616Y-86372419D01*
X71619045Y-87372419D02*
X71619045Y-86848609D01*
X71619045Y-86848609D02*
X71666664Y-86753371D01*
X71666664Y-86753371D02*
X71761902Y-86705752D01*
X71761902Y-86705752D02*
X71904759Y-86705752D01*
X71904759Y-86705752D02*
X71999997Y-86753371D01*
X71999997Y-86753371D02*
X72047616Y-86800990D01*
X70761902Y-87324800D02*
X70857140Y-87372419D01*
X70857140Y-87372419D02*
X71047616Y-87372419D01*
X71047616Y-87372419D02*
X71142854Y-87324800D01*
X71142854Y-87324800D02*
X71190473Y-87229561D01*
X71190473Y-87229561D02*
X71190473Y-86848609D01*
X71190473Y-86848609D02*
X71142854Y-86753371D01*
X71142854Y-86753371D02*
X71047616Y-86705752D01*
X71047616Y-86705752D02*
X70857140Y-86705752D01*
X70857140Y-86705752D02*
X70761902Y-86753371D01*
X70761902Y-86753371D02*
X70714283Y-86848609D01*
X70714283Y-86848609D02*
X70714283Y-86943847D01*
X70714283Y-86943847D02*
X71190473Y-87039085D01*
X69523806Y-86705752D02*
X69523806Y-87705752D01*
X69523806Y-86753371D02*
X69428568Y-86705752D01*
X69428568Y-86705752D02*
X69238092Y-86705752D01*
X69238092Y-86705752D02*
X69142854Y-86753371D01*
X69142854Y-86753371D02*
X69095235Y-86800990D01*
X69095235Y-86800990D02*
X69047616Y-86896228D01*
X69047616Y-86896228D02*
X69047616Y-87181942D01*
X69047616Y-87181942D02*
X69095235Y-87277180D01*
X69095235Y-87277180D02*
X69142854Y-87324800D01*
X69142854Y-87324800D02*
X69238092Y-87372419D01*
X69238092Y-87372419D02*
X69428568Y-87372419D01*
X69428568Y-87372419D02*
X69523806Y-87324800D01*
X68619044Y-87372419D02*
X68619044Y-86705752D01*
X68619044Y-86372419D02*
X68666663Y-86420038D01*
X68666663Y-86420038D02*
X68619044Y-86467657D01*
X68619044Y-86467657D02*
X68571425Y-86420038D01*
X68571425Y-86420038D02*
X68619044Y-86372419D01*
X68619044Y-86372419D02*
X68619044Y-86467657D01*
X68142854Y-86705752D02*
X68142854Y-87372419D01*
X68142854Y-86800990D02*
X68095235Y-86753371D01*
X68095235Y-86753371D02*
X67999997Y-86705752D01*
X67999997Y-86705752D02*
X67857140Y-86705752D01*
X67857140Y-86705752D02*
X67761902Y-86753371D01*
X67761902Y-86753371D02*
X67714283Y-86848609D01*
X67714283Y-86848609D02*
X67714283Y-87372419D01*
X67285711Y-87324800D02*
X67190473Y-87372419D01*
X67190473Y-87372419D02*
X66999997Y-87372419D01*
X66999997Y-87372419D02*
X66904759Y-87324800D01*
X66904759Y-87324800D02*
X66857140Y-87229561D01*
X66857140Y-87229561D02*
X66857140Y-87181942D01*
X66857140Y-87181942D02*
X66904759Y-87086704D01*
X66904759Y-87086704D02*
X66999997Y-87039085D01*
X66999997Y-87039085D02*
X67142854Y-87039085D01*
X67142854Y-87039085D02*
X67238092Y-86991466D01*
X67238092Y-86991466D02*
X67285711Y-86896228D01*
X67285711Y-86896228D02*
X67285711Y-86848609D01*
X67285711Y-86848609D02*
X67238092Y-86753371D01*
X67238092Y-86753371D02*
X67142854Y-86705752D01*
X67142854Y-86705752D02*
X66999997Y-86705752D01*
X66999997Y-86705752D02*
X66904759Y-86753371D01*
X83142858Y-61574800D02*
X83000001Y-61622419D01*
X83000001Y-61622419D02*
X82761906Y-61622419D01*
X82761906Y-61622419D02*
X82666668Y-61574800D01*
X82666668Y-61574800D02*
X82619049Y-61527180D01*
X82619049Y-61527180D02*
X82571430Y-61431942D01*
X82571430Y-61431942D02*
X82571430Y-61336704D01*
X82571430Y-61336704D02*
X82619049Y-61241466D01*
X82619049Y-61241466D02*
X82666668Y-61193847D01*
X82666668Y-61193847D02*
X82761906Y-61146228D01*
X82761906Y-61146228D02*
X82952382Y-61098609D01*
X82952382Y-61098609D02*
X83047620Y-61050990D01*
X83047620Y-61050990D02*
X83095239Y-61003371D01*
X83095239Y-61003371D02*
X83142858Y-60908133D01*
X83142858Y-60908133D02*
X83142858Y-60812895D01*
X83142858Y-60812895D02*
X83095239Y-60717657D01*
X83095239Y-60717657D02*
X83047620Y-60670038D01*
X83047620Y-60670038D02*
X82952382Y-60622419D01*
X82952382Y-60622419D02*
X82714287Y-60622419D01*
X82714287Y-60622419D02*
X82571430Y-60670038D01*
X82000001Y-61622419D02*
X82095239Y-61574800D01*
X82095239Y-61574800D02*
X82142858Y-61527180D01*
X82142858Y-61527180D02*
X82190477Y-61431942D01*
X82190477Y-61431942D02*
X82190477Y-61146228D01*
X82190477Y-61146228D02*
X82142858Y-61050990D01*
X82142858Y-61050990D02*
X82095239Y-61003371D01*
X82095239Y-61003371D02*
X82000001Y-60955752D01*
X82000001Y-60955752D02*
X81857144Y-60955752D01*
X81857144Y-60955752D02*
X81761906Y-61003371D01*
X81761906Y-61003371D02*
X81714287Y-61050990D01*
X81714287Y-61050990D02*
X81666668Y-61146228D01*
X81666668Y-61146228D02*
X81666668Y-61431942D01*
X81666668Y-61431942D02*
X81714287Y-61527180D01*
X81714287Y-61527180D02*
X81761906Y-61574800D01*
X81761906Y-61574800D02*
X81857144Y-61622419D01*
X81857144Y-61622419D02*
X82000001Y-61622419D01*
X81095239Y-61622419D02*
X81190477Y-61574800D01*
X81190477Y-61574800D02*
X81238096Y-61479561D01*
X81238096Y-61479561D02*
X81238096Y-60622419D01*
X80285715Y-61622419D02*
X80285715Y-60622419D01*
X80285715Y-61574800D02*
X80380953Y-61622419D01*
X80380953Y-61622419D02*
X80571429Y-61622419D01*
X80571429Y-61622419D02*
X80666667Y-61574800D01*
X80666667Y-61574800D02*
X80714286Y-61527180D01*
X80714286Y-61527180D02*
X80761905Y-61431942D01*
X80761905Y-61431942D02*
X80761905Y-61146228D01*
X80761905Y-61146228D02*
X80714286Y-61050990D01*
X80714286Y-61050990D02*
X80666667Y-61003371D01*
X80666667Y-61003371D02*
X80571429Y-60955752D01*
X80571429Y-60955752D02*
X80380953Y-60955752D01*
X80380953Y-60955752D02*
X80285715Y-61003371D01*
X79428572Y-61574800D02*
X79523810Y-61622419D01*
X79523810Y-61622419D02*
X79714286Y-61622419D01*
X79714286Y-61622419D02*
X79809524Y-61574800D01*
X79809524Y-61574800D02*
X79857143Y-61479561D01*
X79857143Y-61479561D02*
X79857143Y-61098609D01*
X79857143Y-61098609D02*
X79809524Y-61003371D01*
X79809524Y-61003371D02*
X79714286Y-60955752D01*
X79714286Y-60955752D02*
X79523810Y-60955752D01*
X79523810Y-60955752D02*
X79428572Y-61003371D01*
X79428572Y-61003371D02*
X79380953Y-61098609D01*
X79380953Y-61098609D02*
X79380953Y-61193847D01*
X79380953Y-61193847D02*
X79857143Y-61289085D01*
X78952381Y-61622419D02*
X78952381Y-60955752D01*
X78952381Y-61146228D02*
X78904762Y-61050990D01*
X78904762Y-61050990D02*
X78857143Y-61003371D01*
X78857143Y-61003371D02*
X78761905Y-60955752D01*
X78761905Y-60955752D02*
X78666667Y-60955752D01*
X77142857Y-61622419D02*
X77142857Y-61098609D01*
X77142857Y-61098609D02*
X77190476Y-61003371D01*
X77190476Y-61003371D02*
X77285714Y-60955752D01*
X77285714Y-60955752D02*
X77476190Y-60955752D01*
X77476190Y-60955752D02*
X77571428Y-61003371D01*
X77142857Y-61574800D02*
X77238095Y-61622419D01*
X77238095Y-61622419D02*
X77476190Y-61622419D01*
X77476190Y-61622419D02*
X77571428Y-61574800D01*
X77571428Y-61574800D02*
X77619047Y-61479561D01*
X77619047Y-61479561D02*
X77619047Y-61384323D01*
X77619047Y-61384323D02*
X77571428Y-61289085D01*
X77571428Y-61289085D02*
X77476190Y-61241466D01*
X77476190Y-61241466D02*
X77238095Y-61241466D01*
X77238095Y-61241466D02*
X77142857Y-61193847D01*
X76523809Y-61622419D02*
X76619047Y-61574800D01*
X76619047Y-61574800D02*
X76666666Y-61479561D01*
X76666666Y-61479561D02*
X76666666Y-60622419D01*
X75999999Y-61622419D02*
X76095237Y-61574800D01*
X76095237Y-61574800D02*
X76142856Y-61479561D01*
X76142856Y-61479561D02*
X76142856Y-60622419D01*
X74714284Y-61622419D02*
X74809522Y-61574800D01*
X74809522Y-61574800D02*
X74857141Y-61527180D01*
X74857141Y-61527180D02*
X74904760Y-61431942D01*
X74904760Y-61431942D02*
X74904760Y-61146228D01*
X74904760Y-61146228D02*
X74857141Y-61050990D01*
X74857141Y-61050990D02*
X74809522Y-61003371D01*
X74809522Y-61003371D02*
X74714284Y-60955752D01*
X74714284Y-60955752D02*
X74571427Y-60955752D01*
X74571427Y-60955752D02*
X74476189Y-61003371D01*
X74476189Y-61003371D02*
X74428570Y-61050990D01*
X74428570Y-61050990D02*
X74380951Y-61146228D01*
X74380951Y-61146228D02*
X74380951Y-61431942D01*
X74380951Y-61431942D02*
X74428570Y-61527180D01*
X74428570Y-61527180D02*
X74476189Y-61574800D01*
X74476189Y-61574800D02*
X74571427Y-61622419D01*
X74571427Y-61622419D02*
X74714284Y-61622419D01*
X74095236Y-60955752D02*
X73714284Y-60955752D01*
X73952379Y-61622419D02*
X73952379Y-60765276D01*
X73952379Y-60765276D02*
X73904760Y-60670038D01*
X73904760Y-60670038D02*
X73809522Y-60622419D01*
X73809522Y-60622419D02*
X73714284Y-60622419D01*
X72761902Y-60955752D02*
X72380950Y-60955752D01*
X72619045Y-60622419D02*
X72619045Y-61479561D01*
X72619045Y-61479561D02*
X72571426Y-61574800D01*
X72571426Y-61574800D02*
X72476188Y-61622419D01*
X72476188Y-61622419D02*
X72380950Y-61622419D01*
X72047616Y-61622419D02*
X72047616Y-60622419D01*
X71619045Y-61622419D02*
X71619045Y-61098609D01*
X71619045Y-61098609D02*
X71666664Y-61003371D01*
X71666664Y-61003371D02*
X71761902Y-60955752D01*
X71761902Y-60955752D02*
X71904759Y-60955752D01*
X71904759Y-60955752D02*
X71999997Y-61003371D01*
X71999997Y-61003371D02*
X72047616Y-61050990D01*
X70761902Y-61574800D02*
X70857140Y-61622419D01*
X70857140Y-61622419D02*
X71047616Y-61622419D01*
X71047616Y-61622419D02*
X71142854Y-61574800D01*
X71142854Y-61574800D02*
X71190473Y-61479561D01*
X71190473Y-61479561D02*
X71190473Y-61098609D01*
X71190473Y-61098609D02*
X71142854Y-61003371D01*
X71142854Y-61003371D02*
X71047616Y-60955752D01*
X71047616Y-60955752D02*
X70857140Y-60955752D01*
X70857140Y-60955752D02*
X70761902Y-61003371D01*
X70761902Y-61003371D02*
X70714283Y-61098609D01*
X70714283Y-61098609D02*
X70714283Y-61193847D01*
X70714283Y-61193847D02*
X71190473Y-61289085D01*
X69523806Y-60955752D02*
X69523806Y-61955752D01*
X69523806Y-61003371D02*
X69428568Y-60955752D01*
X69428568Y-60955752D02*
X69238092Y-60955752D01*
X69238092Y-60955752D02*
X69142854Y-61003371D01*
X69142854Y-61003371D02*
X69095235Y-61050990D01*
X69095235Y-61050990D02*
X69047616Y-61146228D01*
X69047616Y-61146228D02*
X69047616Y-61431942D01*
X69047616Y-61431942D02*
X69095235Y-61527180D01*
X69095235Y-61527180D02*
X69142854Y-61574800D01*
X69142854Y-61574800D02*
X69238092Y-61622419D01*
X69238092Y-61622419D02*
X69428568Y-61622419D01*
X69428568Y-61622419D02*
X69523806Y-61574800D01*
X68619044Y-61622419D02*
X68619044Y-60955752D01*
X68619044Y-60622419D02*
X68666663Y-60670038D01*
X68666663Y-60670038D02*
X68619044Y-60717657D01*
X68619044Y-60717657D02*
X68571425Y-60670038D01*
X68571425Y-60670038D02*
X68619044Y-60622419D01*
X68619044Y-60622419D02*
X68619044Y-60717657D01*
X68142854Y-60955752D02*
X68142854Y-61622419D01*
X68142854Y-61050990D02*
X68095235Y-61003371D01*
X68095235Y-61003371D02*
X67999997Y-60955752D01*
X67999997Y-60955752D02*
X67857140Y-60955752D01*
X67857140Y-60955752D02*
X67761902Y-61003371D01*
X67761902Y-61003371D02*
X67714283Y-61098609D01*
X67714283Y-61098609D02*
X67714283Y-61622419D01*
X67285711Y-61574800D02*
X67190473Y-61622419D01*
X67190473Y-61622419D02*
X66999997Y-61622419D01*
X66999997Y-61622419D02*
X66904759Y-61574800D01*
X66904759Y-61574800D02*
X66857140Y-61479561D01*
X66857140Y-61479561D02*
X66857140Y-61431942D01*
X66857140Y-61431942D02*
X66904759Y-61336704D01*
X66904759Y-61336704D02*
X66999997Y-61289085D01*
X66999997Y-61289085D02*
X67142854Y-61289085D01*
X67142854Y-61289085D02*
X67238092Y-61241466D01*
X67238092Y-61241466D02*
X67285711Y-61146228D01*
X67285711Y-61146228D02*
X67285711Y-61098609D01*
X67285711Y-61098609D02*
X67238092Y-61003371D01*
X67238092Y-61003371D02*
X67142854Y-60955752D01*
X67142854Y-60955752D02*
X66999997Y-60955752D01*
X66999997Y-60955752D02*
X66904759Y-61003371D01*
X67196115Y-89902531D02*
X67196115Y-90712054D01*
X67196115Y-90712054D02*
X67148496Y-90807292D01*
X67148496Y-90807292D02*
X67100877Y-90854912D01*
X67100877Y-90854912D02*
X67005639Y-90902531D01*
X67005639Y-90902531D02*
X66815163Y-90902531D01*
X66815163Y-90902531D02*
X66719925Y-90854912D01*
X66719925Y-90854912D02*
X66672306Y-90807292D01*
X66672306Y-90807292D02*
X66624687Y-90712054D01*
X66624687Y-90712054D02*
X66624687Y-89902531D01*
X66196115Y-90854912D02*
X66053258Y-90902531D01*
X66053258Y-90902531D02*
X65815163Y-90902531D01*
X65815163Y-90902531D02*
X65719925Y-90854912D01*
X65719925Y-90854912D02*
X65672306Y-90807292D01*
X65672306Y-90807292D02*
X65624687Y-90712054D01*
X65624687Y-90712054D02*
X65624687Y-90616816D01*
X65624687Y-90616816D02*
X65672306Y-90521578D01*
X65672306Y-90521578D02*
X65719925Y-90473959D01*
X65719925Y-90473959D02*
X65815163Y-90426340D01*
X65815163Y-90426340D02*
X66005639Y-90378721D01*
X66005639Y-90378721D02*
X66100877Y-90331102D01*
X66100877Y-90331102D02*
X66148496Y-90283483D01*
X66148496Y-90283483D02*
X66196115Y-90188245D01*
X66196115Y-90188245D02*
X66196115Y-90093007D01*
X66196115Y-90093007D02*
X66148496Y-89997769D01*
X66148496Y-89997769D02*
X66100877Y-89950150D01*
X66100877Y-89950150D02*
X66005639Y-89902531D01*
X66005639Y-89902531D02*
X65767544Y-89902531D01*
X65767544Y-89902531D02*
X65624687Y-89950150D01*
X65338972Y-89902531D02*
X64767544Y-89902531D01*
X65053258Y-90902531D02*
X65053258Y-89902531D01*
X63672305Y-90902531D02*
X63672305Y-89902531D01*
X63672305Y-89902531D02*
X63291353Y-89902531D01*
X63291353Y-89902531D02*
X63196115Y-89950150D01*
X63196115Y-89950150D02*
X63148496Y-89997769D01*
X63148496Y-89997769D02*
X63100877Y-90093007D01*
X63100877Y-90093007D02*
X63100877Y-90235864D01*
X63100877Y-90235864D02*
X63148496Y-90331102D01*
X63148496Y-90331102D02*
X63196115Y-90378721D01*
X63196115Y-90378721D02*
X63291353Y-90426340D01*
X63291353Y-90426340D02*
X63672305Y-90426340D01*
X62672305Y-90902531D02*
X62672305Y-89902531D01*
X62243734Y-90902531D02*
X62243734Y-90378721D01*
X62243734Y-90378721D02*
X62291353Y-90283483D01*
X62291353Y-90283483D02*
X62386591Y-90235864D01*
X62386591Y-90235864D02*
X62529448Y-90235864D01*
X62529448Y-90235864D02*
X62624686Y-90283483D01*
X62624686Y-90283483D02*
X62672305Y-90331102D01*
X61862781Y-90235864D02*
X61624686Y-90902531D01*
X61386591Y-90235864D02*
X61624686Y-90902531D01*
X61624686Y-90902531D02*
X61719924Y-91140626D01*
X61719924Y-91140626D02*
X61767543Y-91188245D01*
X61767543Y-91188245D02*
X61862781Y-91235864D01*
X61053257Y-90854912D02*
X60958019Y-90902531D01*
X60958019Y-90902531D02*
X60767543Y-90902531D01*
X60767543Y-90902531D02*
X60672305Y-90854912D01*
X60672305Y-90854912D02*
X60624686Y-90759673D01*
X60624686Y-90759673D02*
X60624686Y-90712054D01*
X60624686Y-90712054D02*
X60672305Y-90616816D01*
X60672305Y-90616816D02*
X60767543Y-90569197D01*
X60767543Y-90569197D02*
X60910400Y-90569197D01*
X60910400Y-90569197D02*
X61005638Y-90521578D01*
X61005638Y-90521578D02*
X61053257Y-90426340D01*
X61053257Y-90426340D02*
X61053257Y-90378721D01*
X61053257Y-90378721D02*
X61005638Y-90283483D01*
X61005638Y-90283483D02*
X60910400Y-90235864D01*
X60910400Y-90235864D02*
X60767543Y-90235864D01*
X60767543Y-90235864D02*
X60672305Y-90283483D01*
X59481828Y-90854912D02*
X59338971Y-90902531D01*
X59338971Y-90902531D02*
X59100876Y-90902531D01*
X59100876Y-90902531D02*
X59005638Y-90854912D01*
X59005638Y-90854912D02*
X58958019Y-90807292D01*
X58958019Y-90807292D02*
X58910400Y-90712054D01*
X58910400Y-90712054D02*
X58910400Y-90616816D01*
X58910400Y-90616816D02*
X58958019Y-90521578D01*
X58958019Y-90521578D02*
X59005638Y-90473959D01*
X59005638Y-90473959D02*
X59100876Y-90426340D01*
X59100876Y-90426340D02*
X59291352Y-90378721D01*
X59291352Y-90378721D02*
X59386590Y-90331102D01*
X59386590Y-90331102D02*
X59434209Y-90283483D01*
X59434209Y-90283483D02*
X59481828Y-90188245D01*
X59481828Y-90188245D02*
X59481828Y-90093007D01*
X59481828Y-90093007D02*
X59434209Y-89997769D01*
X59434209Y-89997769D02*
X59386590Y-89950150D01*
X59386590Y-89950150D02*
X59291352Y-89902531D01*
X59291352Y-89902531D02*
X59053257Y-89902531D01*
X59053257Y-89902531D02*
X58910400Y-89950150D01*
X58481828Y-90902531D02*
X58481828Y-90235864D01*
X58481828Y-89902531D02*
X58529447Y-89950150D01*
X58529447Y-89950150D02*
X58481828Y-89997769D01*
X58481828Y-89997769D02*
X58434209Y-89950150D01*
X58434209Y-89950150D02*
X58481828Y-89902531D01*
X58481828Y-89902531D02*
X58481828Y-89997769D01*
X58005638Y-90902531D02*
X58005638Y-89902531D01*
X58005638Y-89902531D02*
X57624686Y-89902531D01*
X57624686Y-89902531D02*
X57529448Y-89950150D01*
X57529448Y-89950150D02*
X57481829Y-89997769D01*
X57481829Y-89997769D02*
X57434210Y-90093007D01*
X57434210Y-90093007D02*
X57434210Y-90235864D01*
X57434210Y-90235864D02*
X57481829Y-90331102D01*
X57481829Y-90331102D02*
X57529448Y-90378721D01*
X57529448Y-90378721D02*
X57624686Y-90426340D01*
X57624686Y-90426340D02*
X58005638Y-90426340D01*
X57005638Y-90902531D02*
X57005638Y-89902531D01*
X57005638Y-89902531D02*
X56672305Y-90616816D01*
X56672305Y-90616816D02*
X56338972Y-89902531D01*
X56338972Y-89902531D02*
X56338972Y-90902531D01*
X54672305Y-90902531D02*
X54672305Y-90378721D01*
X54672305Y-90378721D02*
X54719924Y-90283483D01*
X54719924Y-90283483D02*
X54815162Y-90235864D01*
X54815162Y-90235864D02*
X55005638Y-90235864D01*
X55005638Y-90235864D02*
X55100876Y-90283483D01*
X54672305Y-90854912D02*
X54767543Y-90902531D01*
X54767543Y-90902531D02*
X55005638Y-90902531D01*
X55005638Y-90902531D02*
X55100876Y-90854912D01*
X55100876Y-90854912D02*
X55148495Y-90759673D01*
X55148495Y-90759673D02*
X55148495Y-90664435D01*
X55148495Y-90664435D02*
X55100876Y-90569197D01*
X55100876Y-90569197D02*
X55005638Y-90521578D01*
X55005638Y-90521578D02*
X54767543Y-90521578D01*
X54767543Y-90521578D02*
X54672305Y-90473959D01*
X53767543Y-90902531D02*
X53767543Y-89902531D01*
X53767543Y-90854912D02*
X53862781Y-90902531D01*
X53862781Y-90902531D02*
X54053257Y-90902531D01*
X54053257Y-90902531D02*
X54148495Y-90854912D01*
X54148495Y-90854912D02*
X54196114Y-90807292D01*
X54196114Y-90807292D02*
X54243733Y-90712054D01*
X54243733Y-90712054D02*
X54243733Y-90426340D01*
X54243733Y-90426340D02*
X54196114Y-90331102D01*
X54196114Y-90331102D02*
X54148495Y-90283483D01*
X54148495Y-90283483D02*
X54053257Y-90235864D01*
X54053257Y-90235864D02*
X53862781Y-90235864D01*
X53862781Y-90235864D02*
X53767543Y-90283483D01*
X52862781Y-90902531D02*
X52862781Y-90378721D01*
X52862781Y-90378721D02*
X52910400Y-90283483D01*
X52910400Y-90283483D02*
X53005638Y-90235864D01*
X53005638Y-90235864D02*
X53196114Y-90235864D01*
X53196114Y-90235864D02*
X53291352Y-90283483D01*
X52862781Y-90854912D02*
X52958019Y-90902531D01*
X52958019Y-90902531D02*
X53196114Y-90902531D01*
X53196114Y-90902531D02*
X53291352Y-90854912D01*
X53291352Y-90854912D02*
X53338971Y-90759673D01*
X53338971Y-90759673D02*
X53338971Y-90664435D01*
X53338971Y-90664435D02*
X53291352Y-90569197D01*
X53291352Y-90569197D02*
X53196114Y-90521578D01*
X53196114Y-90521578D02*
X52958019Y-90521578D01*
X52958019Y-90521578D02*
X52862781Y-90473959D01*
X52386590Y-90235864D02*
X52386590Y-91235864D01*
X52386590Y-90283483D02*
X52291352Y-90235864D01*
X52291352Y-90235864D02*
X52100876Y-90235864D01*
X52100876Y-90235864D02*
X52005638Y-90283483D01*
X52005638Y-90283483D02*
X51958019Y-90331102D01*
X51958019Y-90331102D02*
X51910400Y-90426340D01*
X51910400Y-90426340D02*
X51910400Y-90712054D01*
X51910400Y-90712054D02*
X51958019Y-90807292D01*
X51958019Y-90807292D02*
X52005638Y-90854912D01*
X52005638Y-90854912D02*
X52100876Y-90902531D01*
X52100876Y-90902531D02*
X52291352Y-90902531D01*
X52291352Y-90902531D02*
X52386590Y-90854912D01*
X51624685Y-90235864D02*
X51243733Y-90235864D01*
X51481828Y-89902531D02*
X51481828Y-90759673D01*
X51481828Y-90759673D02*
X51434209Y-90854912D01*
X51434209Y-90854912D02*
X51338971Y-90902531D01*
X51338971Y-90902531D02*
X51243733Y-90902531D01*
X50767542Y-90902531D02*
X50862780Y-90854912D01*
X50862780Y-90854912D02*
X50910399Y-90807292D01*
X50910399Y-90807292D02*
X50958018Y-90712054D01*
X50958018Y-90712054D02*
X50958018Y-90426340D01*
X50958018Y-90426340D02*
X50910399Y-90331102D01*
X50910399Y-90331102D02*
X50862780Y-90283483D01*
X50862780Y-90283483D02*
X50767542Y-90235864D01*
X50767542Y-90235864D02*
X50624685Y-90235864D01*
X50624685Y-90235864D02*
X50529447Y-90283483D01*
X50529447Y-90283483D02*
X50481828Y-90331102D01*
X50481828Y-90331102D02*
X50434209Y-90426340D01*
X50434209Y-90426340D02*
X50434209Y-90712054D01*
X50434209Y-90712054D02*
X50481828Y-90807292D01*
X50481828Y-90807292D02*
X50529447Y-90854912D01*
X50529447Y-90854912D02*
X50624685Y-90902531D01*
X50624685Y-90902531D02*
X50767542Y-90902531D01*
X50005637Y-90902531D02*
X50005637Y-90235864D01*
X50005637Y-90426340D02*
X49958018Y-90331102D01*
X49958018Y-90331102D02*
X49910399Y-90283483D01*
X49910399Y-90283483D02*
X49815161Y-90235864D01*
X49815161Y-90235864D02*
X49719923Y-90235864D01*
X48624684Y-90902531D02*
X48624684Y-89902531D01*
X48624684Y-90283483D02*
X48529446Y-90235864D01*
X48529446Y-90235864D02*
X48338970Y-90235864D01*
X48338970Y-90235864D02*
X48243732Y-90283483D01*
X48243732Y-90283483D02*
X48196113Y-90331102D01*
X48196113Y-90331102D02*
X48148494Y-90426340D01*
X48148494Y-90426340D02*
X48148494Y-90712054D01*
X48148494Y-90712054D02*
X48196113Y-90807292D01*
X48196113Y-90807292D02*
X48243732Y-90854912D01*
X48243732Y-90854912D02*
X48338970Y-90902531D01*
X48338970Y-90902531D02*
X48529446Y-90902531D01*
X48529446Y-90902531D02*
X48624684Y-90854912D01*
X47577065Y-90902531D02*
X47672303Y-90854912D01*
X47672303Y-90854912D02*
X47719922Y-90807292D01*
X47719922Y-90807292D02*
X47767541Y-90712054D01*
X47767541Y-90712054D02*
X47767541Y-90426340D01*
X47767541Y-90426340D02*
X47719922Y-90331102D01*
X47719922Y-90331102D02*
X47672303Y-90283483D01*
X47672303Y-90283483D02*
X47577065Y-90235864D01*
X47577065Y-90235864D02*
X47434208Y-90235864D01*
X47434208Y-90235864D02*
X47338970Y-90283483D01*
X47338970Y-90283483D02*
X47291351Y-90331102D01*
X47291351Y-90331102D02*
X47243732Y-90426340D01*
X47243732Y-90426340D02*
X47243732Y-90712054D01*
X47243732Y-90712054D02*
X47291351Y-90807292D01*
X47291351Y-90807292D02*
X47338970Y-90854912D01*
X47338970Y-90854912D02*
X47434208Y-90902531D01*
X47434208Y-90902531D02*
X47577065Y-90902531D01*
X46386589Y-90902531D02*
X46386589Y-90378721D01*
X46386589Y-90378721D02*
X46434208Y-90283483D01*
X46434208Y-90283483D02*
X46529446Y-90235864D01*
X46529446Y-90235864D02*
X46719922Y-90235864D01*
X46719922Y-90235864D02*
X46815160Y-90283483D01*
X46386589Y-90854912D02*
X46481827Y-90902531D01*
X46481827Y-90902531D02*
X46719922Y-90902531D01*
X46719922Y-90902531D02*
X46815160Y-90854912D01*
X46815160Y-90854912D02*
X46862779Y-90759673D01*
X46862779Y-90759673D02*
X46862779Y-90664435D01*
X46862779Y-90664435D02*
X46815160Y-90569197D01*
X46815160Y-90569197D02*
X46719922Y-90521578D01*
X46719922Y-90521578D02*
X46481827Y-90521578D01*
X46481827Y-90521578D02*
X46386589Y-90473959D01*
X45910398Y-90902531D02*
X45910398Y-90235864D01*
X45910398Y-90426340D02*
X45862779Y-90331102D01*
X45862779Y-90331102D02*
X45815160Y-90283483D01*
X45815160Y-90283483D02*
X45719922Y-90235864D01*
X45719922Y-90235864D02*
X45624684Y-90235864D01*
X44862779Y-90902531D02*
X44862779Y-89902531D01*
X44862779Y-90854912D02*
X44958017Y-90902531D01*
X44958017Y-90902531D02*
X45148493Y-90902531D01*
X45148493Y-90902531D02*
X45243731Y-90854912D01*
X45243731Y-90854912D02*
X45291350Y-90807292D01*
X45291350Y-90807292D02*
X45338969Y-90712054D01*
X45338969Y-90712054D02*
X45338969Y-90426340D01*
X45338969Y-90426340D02*
X45291350Y-90331102D01*
X45291350Y-90331102D02*
X45243731Y-90283483D01*
X45243731Y-90283483D02*
X45148493Y-90235864D01*
X45148493Y-90235864D02*
X44958017Y-90235864D01*
X44958017Y-90235864D02*
X44862779Y-90283483D01*
X67243734Y-91607713D02*
X67196115Y-91560094D01*
X67196115Y-91560094D02*
X67100877Y-91512475D01*
X67100877Y-91512475D02*
X66862782Y-91512475D01*
X66862782Y-91512475D02*
X66767544Y-91560094D01*
X66767544Y-91560094D02*
X66719925Y-91607713D01*
X66719925Y-91607713D02*
X66672306Y-91702951D01*
X66672306Y-91702951D02*
X66672306Y-91798189D01*
X66672306Y-91798189D02*
X66719925Y-91941046D01*
X66719925Y-91941046D02*
X67291353Y-92512475D01*
X67291353Y-92512475D02*
X66672306Y-92512475D01*
X66053258Y-91512475D02*
X65958020Y-91512475D01*
X65958020Y-91512475D02*
X65862782Y-91560094D01*
X65862782Y-91560094D02*
X65815163Y-91607713D01*
X65815163Y-91607713D02*
X65767544Y-91702951D01*
X65767544Y-91702951D02*
X65719925Y-91893427D01*
X65719925Y-91893427D02*
X65719925Y-92131522D01*
X65719925Y-92131522D02*
X65767544Y-92321998D01*
X65767544Y-92321998D02*
X65815163Y-92417236D01*
X65815163Y-92417236D02*
X65862782Y-92464856D01*
X65862782Y-92464856D02*
X65958020Y-92512475D01*
X65958020Y-92512475D02*
X66053258Y-92512475D01*
X66053258Y-92512475D02*
X66148496Y-92464856D01*
X66148496Y-92464856D02*
X66196115Y-92417236D01*
X66196115Y-92417236D02*
X66243734Y-92321998D01*
X66243734Y-92321998D02*
X66291353Y-92131522D01*
X66291353Y-92131522D02*
X66291353Y-91893427D01*
X66291353Y-91893427D02*
X66243734Y-91702951D01*
X66243734Y-91702951D02*
X66196115Y-91607713D01*
X66196115Y-91607713D02*
X66148496Y-91560094D01*
X66148496Y-91560094D02*
X66053258Y-91512475D01*
X65338972Y-91607713D02*
X65291353Y-91560094D01*
X65291353Y-91560094D02*
X65196115Y-91512475D01*
X65196115Y-91512475D02*
X64958020Y-91512475D01*
X64958020Y-91512475D02*
X64862782Y-91560094D01*
X64862782Y-91560094D02*
X64815163Y-91607713D01*
X64815163Y-91607713D02*
X64767544Y-91702951D01*
X64767544Y-91702951D02*
X64767544Y-91798189D01*
X64767544Y-91798189D02*
X64815163Y-91941046D01*
X64815163Y-91941046D02*
X65386591Y-92512475D01*
X65386591Y-92512475D02*
X64767544Y-92512475D01*
X63910401Y-91845808D02*
X63910401Y-92512475D01*
X64148496Y-91464856D02*
X64386591Y-92179141D01*
X64386591Y-92179141D02*
X63767544Y-92179141D01*
X62434210Y-91512475D02*
X62338972Y-91512475D01*
X62338972Y-91512475D02*
X62243734Y-91560094D01*
X62243734Y-91560094D02*
X62196115Y-91607713D01*
X62196115Y-91607713D02*
X62148496Y-91702951D01*
X62148496Y-91702951D02*
X62100877Y-91893427D01*
X62100877Y-91893427D02*
X62100877Y-92131522D01*
X62100877Y-92131522D02*
X62148496Y-92321998D01*
X62148496Y-92321998D02*
X62196115Y-92417236D01*
X62196115Y-92417236D02*
X62243734Y-92464856D01*
X62243734Y-92464856D02*
X62338972Y-92512475D01*
X62338972Y-92512475D02*
X62434210Y-92512475D01*
X62434210Y-92512475D02*
X62529448Y-92464856D01*
X62529448Y-92464856D02*
X62577067Y-92417236D01*
X62577067Y-92417236D02*
X62624686Y-92321998D01*
X62624686Y-92321998D02*
X62672305Y-92131522D01*
X62672305Y-92131522D02*
X62672305Y-91893427D01*
X62672305Y-91893427D02*
X62624686Y-91702951D01*
X62624686Y-91702951D02*
X62577067Y-91607713D01*
X62577067Y-91607713D02*
X62529448Y-91560094D01*
X62529448Y-91560094D02*
X62434210Y-91512475D01*
X61767543Y-91512475D02*
X61148496Y-91512475D01*
X61148496Y-91512475D02*
X61481829Y-91893427D01*
X61481829Y-91893427D02*
X61338972Y-91893427D01*
X61338972Y-91893427D02*
X61243734Y-91941046D01*
X61243734Y-91941046D02*
X61196115Y-91988665D01*
X61196115Y-91988665D02*
X61148496Y-92083903D01*
X61148496Y-92083903D02*
X61148496Y-92321998D01*
X61148496Y-92321998D02*
X61196115Y-92417236D01*
X61196115Y-92417236D02*
X61243734Y-92464856D01*
X61243734Y-92464856D02*
X61338972Y-92512475D01*
X61338972Y-92512475D02*
X61624686Y-92512475D01*
X61624686Y-92512475D02*
X61719924Y-92464856D01*
X61719924Y-92464856D02*
X61767543Y-92417236D01*
X60005638Y-91607713D02*
X59958019Y-91560094D01*
X59958019Y-91560094D02*
X59862781Y-91512475D01*
X59862781Y-91512475D02*
X59624686Y-91512475D01*
X59624686Y-91512475D02*
X59529448Y-91560094D01*
X59529448Y-91560094D02*
X59481829Y-91607713D01*
X59481829Y-91607713D02*
X59434210Y-91702951D01*
X59434210Y-91702951D02*
X59434210Y-91798189D01*
X59434210Y-91798189D02*
X59481829Y-91941046D01*
X59481829Y-91941046D02*
X60053257Y-92512475D01*
X60053257Y-92512475D02*
X59434210Y-92512475D01*
X58577067Y-91512475D02*
X58767543Y-91512475D01*
X58767543Y-91512475D02*
X58862781Y-91560094D01*
X58862781Y-91560094D02*
X58910400Y-91607713D01*
X58910400Y-91607713D02*
X59005638Y-91750570D01*
X59005638Y-91750570D02*
X59053257Y-91941046D01*
X59053257Y-91941046D02*
X59053257Y-92321998D01*
X59053257Y-92321998D02*
X59005638Y-92417236D01*
X59005638Y-92417236D02*
X58958019Y-92464856D01*
X58958019Y-92464856D02*
X58862781Y-92512475D01*
X58862781Y-92512475D02*
X58672305Y-92512475D01*
X58672305Y-92512475D02*
X58577067Y-92464856D01*
X58577067Y-92464856D02*
X58529448Y-92417236D01*
X58529448Y-92417236D02*
X58481829Y-92321998D01*
X58481829Y-92321998D02*
X58481829Y-92083903D01*
X58481829Y-92083903D02*
X58529448Y-91988665D01*
X58529448Y-91988665D02*
X58577067Y-91941046D01*
X58577067Y-91941046D02*
X58672305Y-91893427D01*
X58672305Y-91893427D02*
X58862781Y-91893427D01*
X58862781Y-91893427D02*
X58958019Y-91941046D01*
X58958019Y-91941046D02*
X59005638Y-91988665D01*
X59005638Y-91988665D02*
X59053257Y-92083903D01*
X67196115Y-93598609D02*
X66862782Y-93598609D01*
X66719925Y-94122419D02*
X67196115Y-94122419D01*
X67196115Y-94122419D02*
X67196115Y-93122419D01*
X67196115Y-93122419D02*
X66719925Y-93122419D01*
X66148496Y-94122419D02*
X66243734Y-94074800D01*
X66243734Y-94074800D02*
X66291353Y-93979561D01*
X66291353Y-93979561D02*
X66291353Y-93122419D01*
X65910400Y-93455752D02*
X65529448Y-93455752D01*
X65767543Y-93122419D02*
X65767543Y-93979561D01*
X65767543Y-93979561D02*
X65719924Y-94074800D01*
X65719924Y-94074800D02*
X65624686Y-94122419D01*
X65624686Y-94122419D02*
X65529448Y-94122419D01*
X65196114Y-94122419D02*
X65196114Y-93455752D01*
X65196114Y-93122419D02*
X65243733Y-93170038D01*
X65243733Y-93170038D02*
X65196114Y-93217657D01*
X65196114Y-93217657D02*
X65148495Y-93170038D01*
X65148495Y-93170038D02*
X65196114Y-93122419D01*
X65196114Y-93122419D02*
X65196114Y-93217657D01*
X64767543Y-94074800D02*
X64672305Y-94122419D01*
X64672305Y-94122419D02*
X64481829Y-94122419D01*
X64481829Y-94122419D02*
X64386591Y-94074800D01*
X64386591Y-94074800D02*
X64338972Y-93979561D01*
X64338972Y-93979561D02*
X64338972Y-93931942D01*
X64338972Y-93931942D02*
X64386591Y-93836704D01*
X64386591Y-93836704D02*
X64481829Y-93789085D01*
X64481829Y-93789085D02*
X64624686Y-93789085D01*
X64624686Y-93789085D02*
X64719924Y-93741466D01*
X64719924Y-93741466D02*
X64767543Y-93646228D01*
X64767543Y-93646228D02*
X64767543Y-93598609D01*
X64767543Y-93598609D02*
X64719924Y-93503371D01*
X64719924Y-93503371D02*
X64624686Y-93455752D01*
X64624686Y-93455752D02*
X64481829Y-93455752D01*
X64481829Y-93455752D02*
X64386591Y-93503371D01*
X83142858Y-47074800D02*
X83000001Y-47122419D01*
X83000001Y-47122419D02*
X82761906Y-47122419D01*
X82761906Y-47122419D02*
X82666668Y-47074800D01*
X82666668Y-47074800D02*
X82619049Y-47027180D01*
X82619049Y-47027180D02*
X82571430Y-46931942D01*
X82571430Y-46931942D02*
X82571430Y-46836704D01*
X82571430Y-46836704D02*
X82619049Y-46741466D01*
X82619049Y-46741466D02*
X82666668Y-46693847D01*
X82666668Y-46693847D02*
X82761906Y-46646228D01*
X82761906Y-46646228D02*
X82952382Y-46598609D01*
X82952382Y-46598609D02*
X83047620Y-46550990D01*
X83047620Y-46550990D02*
X83095239Y-46503371D01*
X83095239Y-46503371D02*
X83142858Y-46408133D01*
X83142858Y-46408133D02*
X83142858Y-46312895D01*
X83142858Y-46312895D02*
X83095239Y-46217657D01*
X83095239Y-46217657D02*
X83047620Y-46170038D01*
X83047620Y-46170038D02*
X82952382Y-46122419D01*
X82952382Y-46122419D02*
X82714287Y-46122419D01*
X82714287Y-46122419D02*
X82571430Y-46170038D01*
X82000001Y-47122419D02*
X82095239Y-47074800D01*
X82095239Y-47074800D02*
X82142858Y-47027180D01*
X82142858Y-47027180D02*
X82190477Y-46931942D01*
X82190477Y-46931942D02*
X82190477Y-46646228D01*
X82190477Y-46646228D02*
X82142858Y-46550990D01*
X82142858Y-46550990D02*
X82095239Y-46503371D01*
X82095239Y-46503371D02*
X82000001Y-46455752D01*
X82000001Y-46455752D02*
X81857144Y-46455752D01*
X81857144Y-46455752D02*
X81761906Y-46503371D01*
X81761906Y-46503371D02*
X81714287Y-46550990D01*
X81714287Y-46550990D02*
X81666668Y-46646228D01*
X81666668Y-46646228D02*
X81666668Y-46931942D01*
X81666668Y-46931942D02*
X81714287Y-47027180D01*
X81714287Y-47027180D02*
X81761906Y-47074800D01*
X81761906Y-47074800D02*
X81857144Y-47122419D01*
X81857144Y-47122419D02*
X82000001Y-47122419D01*
X81095239Y-47122419D02*
X81190477Y-47074800D01*
X81190477Y-47074800D02*
X81238096Y-46979561D01*
X81238096Y-46979561D02*
X81238096Y-46122419D01*
X80285715Y-47122419D02*
X80285715Y-46122419D01*
X80285715Y-47074800D02*
X80380953Y-47122419D01*
X80380953Y-47122419D02*
X80571429Y-47122419D01*
X80571429Y-47122419D02*
X80666667Y-47074800D01*
X80666667Y-47074800D02*
X80714286Y-47027180D01*
X80714286Y-47027180D02*
X80761905Y-46931942D01*
X80761905Y-46931942D02*
X80761905Y-46646228D01*
X80761905Y-46646228D02*
X80714286Y-46550990D01*
X80714286Y-46550990D02*
X80666667Y-46503371D01*
X80666667Y-46503371D02*
X80571429Y-46455752D01*
X80571429Y-46455752D02*
X80380953Y-46455752D01*
X80380953Y-46455752D02*
X80285715Y-46503371D01*
X79428572Y-47074800D02*
X79523810Y-47122419D01*
X79523810Y-47122419D02*
X79714286Y-47122419D01*
X79714286Y-47122419D02*
X79809524Y-47074800D01*
X79809524Y-47074800D02*
X79857143Y-46979561D01*
X79857143Y-46979561D02*
X79857143Y-46598609D01*
X79857143Y-46598609D02*
X79809524Y-46503371D01*
X79809524Y-46503371D02*
X79714286Y-46455752D01*
X79714286Y-46455752D02*
X79523810Y-46455752D01*
X79523810Y-46455752D02*
X79428572Y-46503371D01*
X79428572Y-46503371D02*
X79380953Y-46598609D01*
X79380953Y-46598609D02*
X79380953Y-46693847D01*
X79380953Y-46693847D02*
X79857143Y-46789085D01*
X78952381Y-47122419D02*
X78952381Y-46455752D01*
X78952381Y-46646228D02*
X78904762Y-46550990D01*
X78904762Y-46550990D02*
X78857143Y-46503371D01*
X78857143Y-46503371D02*
X78761905Y-46455752D01*
X78761905Y-46455752D02*
X78666667Y-46455752D01*
X77142857Y-47122419D02*
X77142857Y-46598609D01*
X77142857Y-46598609D02*
X77190476Y-46503371D01*
X77190476Y-46503371D02*
X77285714Y-46455752D01*
X77285714Y-46455752D02*
X77476190Y-46455752D01*
X77476190Y-46455752D02*
X77571428Y-46503371D01*
X77142857Y-47074800D02*
X77238095Y-47122419D01*
X77238095Y-47122419D02*
X77476190Y-47122419D01*
X77476190Y-47122419D02*
X77571428Y-47074800D01*
X77571428Y-47074800D02*
X77619047Y-46979561D01*
X77619047Y-46979561D02*
X77619047Y-46884323D01*
X77619047Y-46884323D02*
X77571428Y-46789085D01*
X77571428Y-46789085D02*
X77476190Y-46741466D01*
X77476190Y-46741466D02*
X77238095Y-46741466D01*
X77238095Y-46741466D02*
X77142857Y-46693847D01*
X76523809Y-47122419D02*
X76619047Y-47074800D01*
X76619047Y-47074800D02*
X76666666Y-46979561D01*
X76666666Y-46979561D02*
X76666666Y-46122419D01*
X75999999Y-47122419D02*
X76095237Y-47074800D01*
X76095237Y-47074800D02*
X76142856Y-46979561D01*
X76142856Y-46979561D02*
X76142856Y-46122419D01*
X74714284Y-47122419D02*
X74809522Y-47074800D01*
X74809522Y-47074800D02*
X74857141Y-47027180D01*
X74857141Y-47027180D02*
X74904760Y-46931942D01*
X74904760Y-46931942D02*
X74904760Y-46646228D01*
X74904760Y-46646228D02*
X74857141Y-46550990D01*
X74857141Y-46550990D02*
X74809522Y-46503371D01*
X74809522Y-46503371D02*
X74714284Y-46455752D01*
X74714284Y-46455752D02*
X74571427Y-46455752D01*
X74571427Y-46455752D02*
X74476189Y-46503371D01*
X74476189Y-46503371D02*
X74428570Y-46550990D01*
X74428570Y-46550990D02*
X74380951Y-46646228D01*
X74380951Y-46646228D02*
X74380951Y-46931942D01*
X74380951Y-46931942D02*
X74428570Y-47027180D01*
X74428570Y-47027180D02*
X74476189Y-47074800D01*
X74476189Y-47074800D02*
X74571427Y-47122419D01*
X74571427Y-47122419D02*
X74714284Y-47122419D01*
X74095236Y-46455752D02*
X73714284Y-46455752D01*
X73952379Y-47122419D02*
X73952379Y-46265276D01*
X73952379Y-46265276D02*
X73904760Y-46170038D01*
X73904760Y-46170038D02*
X73809522Y-46122419D01*
X73809522Y-46122419D02*
X73714284Y-46122419D01*
X72761902Y-46455752D02*
X72380950Y-46455752D01*
X72619045Y-46122419D02*
X72619045Y-46979561D01*
X72619045Y-46979561D02*
X72571426Y-47074800D01*
X72571426Y-47074800D02*
X72476188Y-47122419D01*
X72476188Y-47122419D02*
X72380950Y-47122419D01*
X72047616Y-47122419D02*
X72047616Y-46122419D01*
X71619045Y-47122419D02*
X71619045Y-46598609D01*
X71619045Y-46598609D02*
X71666664Y-46503371D01*
X71666664Y-46503371D02*
X71761902Y-46455752D01*
X71761902Y-46455752D02*
X71904759Y-46455752D01*
X71904759Y-46455752D02*
X71999997Y-46503371D01*
X71999997Y-46503371D02*
X72047616Y-46550990D01*
X70761902Y-47074800D02*
X70857140Y-47122419D01*
X70857140Y-47122419D02*
X71047616Y-47122419D01*
X71047616Y-47122419D02*
X71142854Y-47074800D01*
X71142854Y-47074800D02*
X71190473Y-46979561D01*
X71190473Y-46979561D02*
X71190473Y-46598609D01*
X71190473Y-46598609D02*
X71142854Y-46503371D01*
X71142854Y-46503371D02*
X71047616Y-46455752D01*
X71047616Y-46455752D02*
X70857140Y-46455752D01*
X70857140Y-46455752D02*
X70761902Y-46503371D01*
X70761902Y-46503371D02*
X70714283Y-46598609D01*
X70714283Y-46598609D02*
X70714283Y-46693847D01*
X70714283Y-46693847D02*
X71190473Y-46789085D01*
X69523806Y-46455752D02*
X69523806Y-47455752D01*
X69523806Y-46503371D02*
X69428568Y-46455752D01*
X69428568Y-46455752D02*
X69238092Y-46455752D01*
X69238092Y-46455752D02*
X69142854Y-46503371D01*
X69142854Y-46503371D02*
X69095235Y-46550990D01*
X69095235Y-46550990D02*
X69047616Y-46646228D01*
X69047616Y-46646228D02*
X69047616Y-46931942D01*
X69047616Y-46931942D02*
X69095235Y-47027180D01*
X69095235Y-47027180D02*
X69142854Y-47074800D01*
X69142854Y-47074800D02*
X69238092Y-47122419D01*
X69238092Y-47122419D02*
X69428568Y-47122419D01*
X69428568Y-47122419D02*
X69523806Y-47074800D01*
X68619044Y-47122419D02*
X68619044Y-46455752D01*
X68619044Y-46122419D02*
X68666663Y-46170038D01*
X68666663Y-46170038D02*
X68619044Y-46217657D01*
X68619044Y-46217657D02*
X68571425Y-46170038D01*
X68571425Y-46170038D02*
X68619044Y-46122419D01*
X68619044Y-46122419D02*
X68619044Y-46217657D01*
X68142854Y-46455752D02*
X68142854Y-47122419D01*
X68142854Y-46550990D02*
X68095235Y-46503371D01*
X68095235Y-46503371D02*
X67999997Y-46455752D01*
X67999997Y-46455752D02*
X67857140Y-46455752D01*
X67857140Y-46455752D02*
X67761902Y-46503371D01*
X67761902Y-46503371D02*
X67714283Y-46598609D01*
X67714283Y-46598609D02*
X67714283Y-47122419D01*
X67285711Y-47074800D02*
X67190473Y-47122419D01*
X67190473Y-47122419D02*
X66999997Y-47122419D01*
X66999997Y-47122419D02*
X66904759Y-47074800D01*
X66904759Y-47074800D02*
X66857140Y-46979561D01*
X66857140Y-46979561D02*
X66857140Y-46931942D01*
X66857140Y-46931942D02*
X66904759Y-46836704D01*
X66904759Y-46836704D02*
X66999997Y-46789085D01*
X66999997Y-46789085D02*
X67142854Y-46789085D01*
X67142854Y-46789085D02*
X67238092Y-46741466D01*
X67238092Y-46741466D02*
X67285711Y-46646228D01*
X67285711Y-46646228D02*
X67285711Y-46598609D01*
X67285711Y-46598609D02*
X67238092Y-46503371D01*
X67238092Y-46503371D02*
X67142854Y-46455752D01*
X67142854Y-46455752D02*
X66999997Y-46455752D01*
X66999997Y-46455752D02*
X66904759Y-46503371D01*
X83142858Y-74324800D02*
X83000001Y-74372419D01*
X83000001Y-74372419D02*
X82761906Y-74372419D01*
X82761906Y-74372419D02*
X82666668Y-74324800D01*
X82666668Y-74324800D02*
X82619049Y-74277180D01*
X82619049Y-74277180D02*
X82571430Y-74181942D01*
X82571430Y-74181942D02*
X82571430Y-74086704D01*
X82571430Y-74086704D02*
X82619049Y-73991466D01*
X82619049Y-73991466D02*
X82666668Y-73943847D01*
X82666668Y-73943847D02*
X82761906Y-73896228D01*
X82761906Y-73896228D02*
X82952382Y-73848609D01*
X82952382Y-73848609D02*
X83047620Y-73800990D01*
X83047620Y-73800990D02*
X83095239Y-73753371D01*
X83095239Y-73753371D02*
X83142858Y-73658133D01*
X83142858Y-73658133D02*
X83142858Y-73562895D01*
X83142858Y-73562895D02*
X83095239Y-73467657D01*
X83095239Y-73467657D02*
X83047620Y-73420038D01*
X83047620Y-73420038D02*
X82952382Y-73372419D01*
X82952382Y-73372419D02*
X82714287Y-73372419D01*
X82714287Y-73372419D02*
X82571430Y-73420038D01*
X82000001Y-74372419D02*
X82095239Y-74324800D01*
X82095239Y-74324800D02*
X82142858Y-74277180D01*
X82142858Y-74277180D02*
X82190477Y-74181942D01*
X82190477Y-74181942D02*
X82190477Y-73896228D01*
X82190477Y-73896228D02*
X82142858Y-73800990D01*
X82142858Y-73800990D02*
X82095239Y-73753371D01*
X82095239Y-73753371D02*
X82000001Y-73705752D01*
X82000001Y-73705752D02*
X81857144Y-73705752D01*
X81857144Y-73705752D02*
X81761906Y-73753371D01*
X81761906Y-73753371D02*
X81714287Y-73800990D01*
X81714287Y-73800990D02*
X81666668Y-73896228D01*
X81666668Y-73896228D02*
X81666668Y-74181942D01*
X81666668Y-74181942D02*
X81714287Y-74277180D01*
X81714287Y-74277180D02*
X81761906Y-74324800D01*
X81761906Y-74324800D02*
X81857144Y-74372419D01*
X81857144Y-74372419D02*
X82000001Y-74372419D01*
X81095239Y-74372419D02*
X81190477Y-74324800D01*
X81190477Y-74324800D02*
X81238096Y-74229561D01*
X81238096Y-74229561D02*
X81238096Y-73372419D01*
X80285715Y-74372419D02*
X80285715Y-73372419D01*
X80285715Y-74324800D02*
X80380953Y-74372419D01*
X80380953Y-74372419D02*
X80571429Y-74372419D01*
X80571429Y-74372419D02*
X80666667Y-74324800D01*
X80666667Y-74324800D02*
X80714286Y-74277180D01*
X80714286Y-74277180D02*
X80761905Y-74181942D01*
X80761905Y-74181942D02*
X80761905Y-73896228D01*
X80761905Y-73896228D02*
X80714286Y-73800990D01*
X80714286Y-73800990D02*
X80666667Y-73753371D01*
X80666667Y-73753371D02*
X80571429Y-73705752D01*
X80571429Y-73705752D02*
X80380953Y-73705752D01*
X80380953Y-73705752D02*
X80285715Y-73753371D01*
X79428572Y-74324800D02*
X79523810Y-74372419D01*
X79523810Y-74372419D02*
X79714286Y-74372419D01*
X79714286Y-74372419D02*
X79809524Y-74324800D01*
X79809524Y-74324800D02*
X79857143Y-74229561D01*
X79857143Y-74229561D02*
X79857143Y-73848609D01*
X79857143Y-73848609D02*
X79809524Y-73753371D01*
X79809524Y-73753371D02*
X79714286Y-73705752D01*
X79714286Y-73705752D02*
X79523810Y-73705752D01*
X79523810Y-73705752D02*
X79428572Y-73753371D01*
X79428572Y-73753371D02*
X79380953Y-73848609D01*
X79380953Y-73848609D02*
X79380953Y-73943847D01*
X79380953Y-73943847D02*
X79857143Y-74039085D01*
X78952381Y-74372419D02*
X78952381Y-73705752D01*
X78952381Y-73896228D02*
X78904762Y-73800990D01*
X78904762Y-73800990D02*
X78857143Y-73753371D01*
X78857143Y-73753371D02*
X78761905Y-73705752D01*
X78761905Y-73705752D02*
X78666667Y-73705752D01*
X77142857Y-74372419D02*
X77142857Y-73848609D01*
X77142857Y-73848609D02*
X77190476Y-73753371D01*
X77190476Y-73753371D02*
X77285714Y-73705752D01*
X77285714Y-73705752D02*
X77476190Y-73705752D01*
X77476190Y-73705752D02*
X77571428Y-73753371D01*
X77142857Y-74324800D02*
X77238095Y-74372419D01*
X77238095Y-74372419D02*
X77476190Y-74372419D01*
X77476190Y-74372419D02*
X77571428Y-74324800D01*
X77571428Y-74324800D02*
X77619047Y-74229561D01*
X77619047Y-74229561D02*
X77619047Y-74134323D01*
X77619047Y-74134323D02*
X77571428Y-74039085D01*
X77571428Y-74039085D02*
X77476190Y-73991466D01*
X77476190Y-73991466D02*
X77238095Y-73991466D01*
X77238095Y-73991466D02*
X77142857Y-73943847D01*
X76523809Y-74372419D02*
X76619047Y-74324800D01*
X76619047Y-74324800D02*
X76666666Y-74229561D01*
X76666666Y-74229561D02*
X76666666Y-73372419D01*
X75999999Y-74372419D02*
X76095237Y-74324800D01*
X76095237Y-74324800D02*
X76142856Y-74229561D01*
X76142856Y-74229561D02*
X76142856Y-73372419D01*
X74714284Y-74372419D02*
X74809522Y-74324800D01*
X74809522Y-74324800D02*
X74857141Y-74277180D01*
X74857141Y-74277180D02*
X74904760Y-74181942D01*
X74904760Y-74181942D02*
X74904760Y-73896228D01*
X74904760Y-73896228D02*
X74857141Y-73800990D01*
X74857141Y-73800990D02*
X74809522Y-73753371D01*
X74809522Y-73753371D02*
X74714284Y-73705752D01*
X74714284Y-73705752D02*
X74571427Y-73705752D01*
X74571427Y-73705752D02*
X74476189Y-73753371D01*
X74476189Y-73753371D02*
X74428570Y-73800990D01*
X74428570Y-73800990D02*
X74380951Y-73896228D01*
X74380951Y-73896228D02*
X74380951Y-74181942D01*
X74380951Y-74181942D02*
X74428570Y-74277180D01*
X74428570Y-74277180D02*
X74476189Y-74324800D01*
X74476189Y-74324800D02*
X74571427Y-74372419D01*
X74571427Y-74372419D02*
X74714284Y-74372419D01*
X74095236Y-73705752D02*
X73714284Y-73705752D01*
X73952379Y-74372419D02*
X73952379Y-73515276D01*
X73952379Y-73515276D02*
X73904760Y-73420038D01*
X73904760Y-73420038D02*
X73809522Y-73372419D01*
X73809522Y-73372419D02*
X73714284Y-73372419D01*
X72761902Y-73705752D02*
X72380950Y-73705752D01*
X72619045Y-73372419D02*
X72619045Y-74229561D01*
X72619045Y-74229561D02*
X72571426Y-74324800D01*
X72571426Y-74324800D02*
X72476188Y-74372419D01*
X72476188Y-74372419D02*
X72380950Y-74372419D01*
X72047616Y-74372419D02*
X72047616Y-73372419D01*
X71619045Y-74372419D02*
X71619045Y-73848609D01*
X71619045Y-73848609D02*
X71666664Y-73753371D01*
X71666664Y-73753371D02*
X71761902Y-73705752D01*
X71761902Y-73705752D02*
X71904759Y-73705752D01*
X71904759Y-73705752D02*
X71999997Y-73753371D01*
X71999997Y-73753371D02*
X72047616Y-73800990D01*
X70761902Y-74324800D02*
X70857140Y-74372419D01*
X70857140Y-74372419D02*
X71047616Y-74372419D01*
X71047616Y-74372419D02*
X71142854Y-74324800D01*
X71142854Y-74324800D02*
X71190473Y-74229561D01*
X71190473Y-74229561D02*
X71190473Y-73848609D01*
X71190473Y-73848609D02*
X71142854Y-73753371D01*
X71142854Y-73753371D02*
X71047616Y-73705752D01*
X71047616Y-73705752D02*
X70857140Y-73705752D01*
X70857140Y-73705752D02*
X70761902Y-73753371D01*
X70761902Y-73753371D02*
X70714283Y-73848609D01*
X70714283Y-73848609D02*
X70714283Y-73943847D01*
X70714283Y-73943847D02*
X71190473Y-74039085D01*
X69523806Y-73705752D02*
X69523806Y-74705752D01*
X69523806Y-73753371D02*
X69428568Y-73705752D01*
X69428568Y-73705752D02*
X69238092Y-73705752D01*
X69238092Y-73705752D02*
X69142854Y-73753371D01*
X69142854Y-73753371D02*
X69095235Y-73800990D01*
X69095235Y-73800990D02*
X69047616Y-73896228D01*
X69047616Y-73896228D02*
X69047616Y-74181942D01*
X69047616Y-74181942D02*
X69095235Y-74277180D01*
X69095235Y-74277180D02*
X69142854Y-74324800D01*
X69142854Y-74324800D02*
X69238092Y-74372419D01*
X69238092Y-74372419D02*
X69428568Y-74372419D01*
X69428568Y-74372419D02*
X69523806Y-74324800D01*
X68619044Y-74372419D02*
X68619044Y-73705752D01*
X68619044Y-73372419D02*
X68666663Y-73420038D01*
X68666663Y-73420038D02*
X68619044Y-73467657D01*
X68619044Y-73467657D02*
X68571425Y-73420038D01*
X68571425Y-73420038D02*
X68619044Y-73372419D01*
X68619044Y-73372419D02*
X68619044Y-73467657D01*
X68142854Y-73705752D02*
X68142854Y-74372419D01*
X68142854Y-73800990D02*
X68095235Y-73753371D01*
X68095235Y-73753371D02*
X67999997Y-73705752D01*
X67999997Y-73705752D02*
X67857140Y-73705752D01*
X67857140Y-73705752D02*
X67761902Y-73753371D01*
X67761902Y-73753371D02*
X67714283Y-73848609D01*
X67714283Y-73848609D02*
X67714283Y-74372419D01*
X67285711Y-74324800D02*
X67190473Y-74372419D01*
X67190473Y-74372419D02*
X66999997Y-74372419D01*
X66999997Y-74372419D02*
X66904759Y-74324800D01*
X66904759Y-74324800D02*
X66857140Y-74229561D01*
X66857140Y-74229561D02*
X66857140Y-74181942D01*
X66857140Y-74181942D02*
X66904759Y-74086704D01*
X66904759Y-74086704D02*
X66999997Y-74039085D01*
X66999997Y-74039085D02*
X67142854Y-74039085D01*
X67142854Y-74039085D02*
X67238092Y-73991466D01*
X67238092Y-73991466D02*
X67285711Y-73896228D01*
X67285711Y-73896228D02*
X67285711Y-73848609D01*
X67285711Y-73848609D02*
X67238092Y-73753371D01*
X67238092Y-73753371D02*
X67142854Y-73705752D01*
X67142854Y-73705752D02*
X66999997Y-73705752D01*
X66999997Y-73705752D02*
X66904759Y-73753371D01*
M02*
