ISO-10303-21;
HEADER;
FILE_DESCRIPTION(('STEP AP203'),'1');
FILE_NAME('fpl_00_250_ntd.stp','2024-11-29T19:24:00',('TraceParts'),('TraceParts S.A.'),'Spatial InterOp 3D',' ',' ');
FILE_SCHEMA(('CONFIG_CONTROL_DESIGN'));
ENDSEC;
DATA;
#1=DESIGN_CONTEXT('',#27,'design');
#2=APPLICATION_PROTOCOL_DEFINITION('INTERNATIONAL STANDARD','config_control_design',1994,#27);
#3=PRODUCT_CATEGORY_RELATIONSHIP('NONE','NONE',#28,#29);
#4=DATE_AND_TIME(#30,#31);
#5=DATE_TIME_ROLE('creation_date');
#6=DATE_TIME_ROLE('classification_date');
#7=PERSON_AND_ORGANIZATION_ROLE('creator');
#8=PERSON_AND_ORGANIZATION_ROLE('design_supplier');
#9=PERSON_AND_ORGANIZATION_ROLE('classification_officer');
#10=PERSON_AND_ORGANIZATION_ROLE('design_owner');
#11=APPROVAL_PERSON_ORGANIZATION(#32,#33,#34);
#12=APPROVAL_DATE_TIME(#4,#33);
#13=CC_DESIGN_APPROVAL(#33,(#35,#36,#37));
#14=CC_DESIGN_DATE_AND_TIME_ASSIGNMENT(#4,#5,(#37));
#15=CC_DESIGN_DATE_AND_TIME_ASSIGNMENT(#4,#6,(#35));
#16=CC_DESIGN_PERSON_AND_ORGANIZATION_ASSIGNMENT(#32,#10,(#38));
#17=CC_DESIGN_PERSON_AND_ORGANIZATION_ASSIGNMENT(#32,#7,(#37));
#18=CC_DESIGN_PERSON_AND_ORGANIZATION_ASSIGNMENT(#32,#7,(#36));
#19=CC_DESIGN_PERSON_AND_ORGANIZATION_ASSIGNMENT(#32,#8,(#36));
#20=CC_DESIGN_SECURITY_CLASSIFICATION(#35,(#36));
#21=CC_DESIGN_PERSON_AND_ORGANIZATION_ASSIGNMENT(#32,#9,(#35));
#22=SHAPE_DEFINITION_REPRESENTATION(#39,#40);
#23= (GEOMETRIC_REPRESENTATION_CONTEXT(3)GLOBAL_UNCERTAINTY_ASSIGNED_CONTEXT((#43))GLOBAL_UNIT_ASSIGNED_CONTEXT((#45,#46,#47))REPRESENTATION_CONTEXT('NONE','WORKSPACE'));
#27=APPLICATION_CONTEXT('CONFIGURATION CONTROLLED 3D DESIGNS OF MECHANICAL PARTS AND ASSEMBLIES');
#28=PRODUCT_CATEGORY('part','NONE');
#29=PRODUCT_RELATED_PRODUCT_CATEGORY('detail',' ',(#38));
#30=CALENDAR_DATE(2024,29,10);
#31=LOCAL_TIME(20,24,0.0,#49);
#32=PERSON_AND_ORGANIZATION(#50,#51);
#33=APPROVAL(#52,'SOLID MODEL');
#34=APPROVAL_ROLE('APPROVED');
#35=SECURITY_CLASSIFICATION('','',#53);
#36=PRODUCT_DEFINITION_FORMATION_WITH_SPECIFIED_SOURCE(' ','NONE',#38,.NOT_KNOWN.);
#37=PRODUCT_DEFINITION('','NONE',#36,#1);
#38=PRODUCT('1','','PART--DESC',(#54));
#39=PRODUCT_DEFINITION_SHAPE('NONE','NONE',#37);
#40=ADVANCED_BREP_SHAPE_REPRESENTATION('1',(#55,#56),#23);
#43=UNCERTAINTY_MEASURE_WITH_UNIT(LENGTH_MEASURE(1.0E-06),#45,'','');
#45= (CONVERSION_BASED_UNIT('MILLIMETRE',#59)LENGTH_UNIT()NAMED_UNIT(#62));
#46= (NAMED_UNIT(#64)PLANE_ANGLE_UNIT()SI_UNIT($,.RADIAN.));
#47= (NAMED_UNIT(#64)SOLID_ANGLE_UNIT()SI_UNIT($,.STERADIAN.));
#49=COORDINATED_UNIVERSAL_TIME_OFFSET(1,0,.AHEAD.);
#50=PERSON('','UNSPECIFIED',$,$,$,$);
#51=ORGANIZATION('UNSPECIFIED','UNSPECIFIED','UNSPECIFIED');
#52=APPROVAL_STATUS('approved');
#53=SECURITY_CLASSIFICATION_LEVEL('unclassified');
#54=MECHANICAL_CONTEXT('',#27,'mechanical');
#55=MANIFOLD_SOLID_BREP('1',#70);
#56=AXIS2_PLACEMENT_3D('',#71,#72,#73);
#59=LENGTH_MEASURE_WITH_UNIT(LENGTH_MEASURE(1.0),#74);
#62=DIMENSIONAL_EXPONENTS(1.0,0.0,0.0,0.0,0.0,0.0,0.0);
#64=DIMENSIONAL_EXPONENTS(0.0,0.0,0.0,0.0,0.0,0.0,0.0);
#70=CLOSED_SHELL('',(#75,#76,#77,#78,#79,#80,#81,#82,#83,#84,#85,#86,#87,#88,#89,#90,#91,#92,#93,#94,#95,#96,#97,#98,#99,#100,#101,#102,#103,#104,#105,#106,#107,#108,#109,#110,#111,#112,#113,#114,#115,#116,#117,#118,#119,#120,#121,#122));
#71=CARTESIAN_POINT('',(0.0,0.0,0.0));
#72=DIRECTION('',(0.0,0.0,1.0));
#73=DIRECTION('',(1.0,0.0,0.0));
#74= (NAMED_UNIT(#62)LENGTH_UNIT()SI_UNIT(.MILLI.,.METRE.));
#75=ADVANCED_FACE('',(#124),#125,.T.);
#76=ADVANCED_FACE('',(#126),#127,.T.);
#77=ADVANCED_FACE('',(#128),#129,.T.);
#78=ADVANCED_FACE('',(#130),#131,.T.);
#79=ADVANCED_FACE('',(#132),#133,.T.);
#80=ADVANCED_FACE('',(#134),#135,.T.);
#81=ADVANCED_FACE('',(#136),#137,.T.);
#82=ADVANCED_FACE('',(#138),#139,.T.);
#83=ADVANCED_FACE('',(#140),#141,.T.);
#84=ADVANCED_FACE('',(#142),#143,.T.);
#85=ADVANCED_FACE('',(#144),#145,.T.);
#86=ADVANCED_FACE('',(#146),#147,.T.);
#87=ADVANCED_FACE('',(#148),#149,.T.);
#88=ADVANCED_FACE('',(#150),#151,.T.);
#89=ADVANCED_FACE('',(#152),#153,.F.);
#90=ADVANCED_FACE('',(#154),#155,.F.);
#91=ADVANCED_FACE('',(#156),#157,.T.);
#92=ADVANCED_FACE('',(#158),#159,.T.);
#93=ADVANCED_FACE('',(#160),#161,.T.);
#94=ADVANCED_FACE('',(#162),#163,.T.);
#95=ADVANCED_FACE('',(#164),#165,.T.);
#96=ADVANCED_FACE('',(#166),#167,.T.);
#97=ADVANCED_FACE('',(#168),#169,.T.);
#98=ADVANCED_FACE('',(#170),#171,.T.);
#99=ADVANCED_FACE('',(#172),#173,.T.);
#100=ADVANCED_FACE('',(#174),#175,.T.);
#101=ADVANCED_FACE('',(#176),#177,.T.);
#102=ADVANCED_FACE('',(#178,#179),#180,.T.);
#103=ADVANCED_FACE('',(#181),#182,.T.);
#104=ADVANCED_FACE('',(#183),#184,.T.);
#105=ADVANCED_FACE('',(#185),#186,.T.);
#106=ADVANCED_FACE('',(#187),#188,.T.);
#107=ADVANCED_FACE('',(#189),#190,.T.);
#108=ADVANCED_FACE('',(#191),#192,.T.);
#109=ADVANCED_FACE('',(#193),#194,.T.);
#110=ADVANCED_FACE('',(#195),#196,.T.);
#111=ADVANCED_FACE('',(#197),#198,.T.);
#112=ADVANCED_FACE('',(#199),#200,.T.);
#113=ADVANCED_FACE('',(#201),#202,.T.);
#114=ADVANCED_FACE('',(#203),#204,.F.);
#115=ADVANCED_FACE('',(#205),#206,.T.);
#116=ADVANCED_FACE('',(#207),#208,.T.);
#117=ADVANCED_FACE('',(#209,#210,#211,#212,#213,#214),#215,.T.);
#118=ADVANCED_FACE('',(#216),#217,.T.);
#119=ADVANCED_FACE('',(#218),#219,.T.);
#120=ADVANCED_FACE('',(#220),#221,.T.);
#121=ADVANCED_FACE('',(#222),#223,.T.);
#122=ADVANCED_FACE('',(#224),#225,.T.);
#124=FACE_OUTER_BOUND('',#226,.T.);
#125=CONICAL_SURFACE('',#227,4.17487373415292,0.785398163397448);
#126=FACE_OUTER_BOUND('',#228,.T.);
#127=CYLINDRICAL_SURFACE('',#229,0.349999999999999);
#128=FACE_OUTER_BOUND('',#230,.T.);
#129=CONICAL_SURFACE('',#231,0.263397459621555,0.523598775598288);
#130=FACE_OUTER_BOUND('',#232,.T.);
#131=CONICAL_SURFACE('',#233,0.288397459621557,0.523598775598299);
#132=FACE_OUTER_BOUND('',#234,.T.);
#133=CYLINDRICAL_SURFACE('',#235,0.375000000000001);
#134=FACE_OUTER_BOUND('',#236,.T.);
#135=CONICAL_SURFACE('',#237,0.288397459621557,0.523598775598299);
#136=FACE_OUTER_BOUND('',#238,.T.);
#137=CYLINDRICAL_SURFACE('',#239,0.375000000000001);
#138=FACE_OUTER_BOUND('',#240,.T.);
#139=TOROIDAL_SURFACE('',#241,2.29,0.2);
#140=FACE_OUTER_BOUND('',#242,.T.);
#141=CYLINDRICAL_SURFACE('',#243,2.49);
#142=FACE_OUTER_BOUND('',#244,.T.);
#143=CONICAL_SURFACE('',#245,0.288397459621557,0.523598775598299);
#144=FACE_OUTER_BOUND('',#246,.T.);
#145=CYLINDRICAL_SURFACE('',#247,0.375000000000001);
#146=FACE_OUTER_BOUND('',#248,.T.);
#147=CONICAL_SURFACE('',#249,0.288397459621557,0.523598775598299);
#148=FACE_OUTER_BOUND('',#250,.T.);
#149=CYLINDRICAL_SURFACE('',#251,0.375000000000001);
#150=FACE_OUTER_BOUND('',#252,.T.);
#151=CYLINDRICAL_SURFACE('',#253,3.2);
#152=FACE_OUTER_BOUND('',#254,.T.);
#153=PLANE('',#255);
#154=FACE_OUTER_BOUND('',#256,.T.);
#155=PLANE('',#257);
#156=FACE_OUTER_BOUND('',#258,.T.);
#157=CYLINDRICAL_SURFACE('',#259,3.2);
#158=FACE_OUTER_BOUND('',#260,.T.);
#159=PLANE('',#261);
#160=FACE_OUTER_BOUND('',#262,.T.);
#161=CYLINDRICAL_SURFACE('',#263,4.7);
#162=FACE_OUTER_BOUND('',#264,.T.);
#163=CYLINDRICAL_SURFACE('',#265,4.7);
#164=FACE_OUTER_BOUND('',#266,.T.);
#165=CYLINDRICAL_SURFACE('',#267,4.7);
#166=FACE_OUTER_BOUND('',#268,.T.);
#167=CYLINDRICAL_SURFACE('',#269,0.375000000000001);
#168=FACE_OUTER_BOUND('',#270,.T.);
#169=PLANE('',#271);
#170=FACE_OUTER_BOUND('',#272,.T.);
#171=CONICAL_SURFACE('',#273,0.288397459621557,0.523598775598299);
#172=FACE_OUTER_BOUND('',#274,.T.);
#173=CYLINDRICAL_SURFACE('',#275,0.375000000000001);
#174=FACE_OUTER_BOUND('',#276,.T.);
#175=PLANE('',#277);
#176=FACE_OUTER_BOUND('',#278,.T.);
#177=CONICAL_SURFACE('',#279,0.288397459621557,0.523598775598299);
#178=FACE_OUTER_BOUND('',#280,.T.);
#179=FACE_BOUND('',#281,.T.);
#180=PLANE('',#282);
#181=FACE_OUTER_BOUND('',#283,.T.);
#182=CYLINDRICAL_SURFACE('',#284,2.49);
#183=FACE_OUTER_BOUND('',#285,.T.);
#184=PLANE('',#286);
#185=FACE_OUTER_BOUND('',#287,.T.);
#186=TOROIDAL_SURFACE('',#288,2.29,0.2);
#187=FACE_OUTER_BOUND('',#289,.T.);
#188=CYLINDRICAL_SURFACE('',#290,0.375000000000001);
#189=FACE_OUTER_BOUND('',#291,.T.);
#190=PLANE('',#292);
#191=FACE_OUTER_BOUND('',#293,.T.);
#192=CONICAL_SURFACE('',#294,0.288397459621557,0.523598775598299);
#193=FACE_OUTER_BOUND('',#295,.T.);
#194=CYLINDRICAL_SURFACE('',#296,0.375000000000001);
#195=FACE_OUTER_BOUND('',#297,.T.);
#196=PLANE('',#298);
#197=FACE_OUTER_BOUND('',#299,.T.);
#198=CONICAL_SURFACE('',#300,0.288397459621557,0.523598775598299);
#199=FACE_OUTER_BOUND('',#301,.T.);
#200=PLANE('',#302);
#201=FACE_OUTER_BOUND('',#303,.T.);
#202=PLANE('',#304);
#203=FACE_OUTER_BOUND('',#305,.T.);
#204=PLANE('',#306);
#205=FACE_OUTER_BOUND('',#307,.T.);
#206=CYLINDRICAL_SURFACE('',#308,4.7);
#207=FACE_OUTER_BOUND('',#309,.T.);
#208=PLANE('',#310);
#209=FACE_OUTER_BOUND('',#311,.T.);
#210=FACE_BOUND('',#312,.T.);
#211=FACE_BOUND('',#313,.T.);
#212=FACE_BOUND('',#314,.T.);
#213=FACE_BOUND('',#315,.T.);
#214=FACE_BOUND('',#316,.T.);
#215=PLANE('',#317);
#216=FACE_OUTER_BOUND('',#318,.T.);
#217=PLANE('',#319);
#218=FACE_OUTER_BOUND('',#320,.T.);
#219=CONICAL_SURFACE('',#321,0.263397459621555,0.523598775598288);
#220=FACE_OUTER_BOUND('',#322,.T.);
#221=PLANE('',#323);
#222=FACE_OUTER_BOUND('',#324,.T.);
#223=CYLINDRICAL_SURFACE('',#325,0.349999999999999);
#224=FACE_OUTER_BOUND('',#326,.T.);
#225=CONICAL_SURFACE('',#327,4.17487373415292,0.785398163397448);
#226=EDGE_LOOP('',(#328,#329,#330,#331,#332,#333,#334,#335,#336));
#227=AXIS2_PLACEMENT_3D('',#337,#338,#339);
#228=EDGE_LOOP('',(#340,#341,#342,#343,#344));
#229=AXIS2_PLACEMENT_3D('',#345,#346,#347);
#230=EDGE_LOOP('',(#348,#349,#350,#351));
#231=AXIS2_PLACEMENT_3D('',#352,#353,#354);
#232=EDGE_LOOP('',(#355,#356,#357,#358));
#233=AXIS2_PLACEMENT_3D('',#359,#360,#361);
#234=EDGE_LOOP('',(#362,#363,#364,#365));
#235=AXIS2_PLACEMENT_3D('',#366,#367,#368);
#236=EDGE_LOOP('',(#369,#370,#371,#372));
#237=AXIS2_PLACEMENT_3D('',#373,#374,#375);
#238=EDGE_LOOP('',(#376,#377,#378,#379));
#239=AXIS2_PLACEMENT_3D('',#380,#381,#382);
#240=EDGE_LOOP('',(#383,#384,#385,#386,#387,#388));
#241=AXIS2_PLACEMENT_3D('',#389,#390,#391);
#242=EDGE_LOOP('',(#392,#393,#394,#395,#396));
#243=AXIS2_PLACEMENT_3D('',#397,#398,#399);
#244=EDGE_LOOP('',(#400,#401,#402,#403));
#245=AXIS2_PLACEMENT_3D('',#404,#405,#406);
#246=EDGE_LOOP('',(#407,#408,#409,#410));
#247=AXIS2_PLACEMENT_3D('',#411,#412,#413);
#248=EDGE_LOOP('',(#414,#415,#416,#417));
#249=AXIS2_PLACEMENT_3D('',#418,#419,#420);
#250=EDGE_LOOP('',(#421,#422,#423,#424));
#251=AXIS2_PLACEMENT_3D('',#425,#426,#427);
#252=EDGE_LOOP('',(#428,#429,#430,#431,#432,#433));
#253=AXIS2_PLACEMENT_3D('',#434,#435,#436);
#254=EDGE_LOOP('',(#437,#438));
#255=AXIS2_PLACEMENT_3D('',#439,#440,#441);
#256=EDGE_LOOP('',(#442,#443));
#257=AXIS2_PLACEMENT_3D('',#444,#445,#446);
#258=EDGE_LOOP('',(#447,#448,#449,#450,#451,#452,#453));
#259=AXIS2_PLACEMENT_3D('',#454,#455,#456);
#260=EDGE_LOOP('',(#457,#458,#459,#460));
#261=AXIS2_PLACEMENT_3D('',#461,#462,#463);
#262=EDGE_LOOP('',(#464,#465,#466,#467,#468,#469,#470));
#263=AXIS2_PLACEMENT_3D('',#471,#472,#473);
#264=EDGE_LOOP('',(#474,#475,#476,#477,#478,#479));
#265=AXIS2_PLACEMENT_3D('',#480,#481,#482);
#266=EDGE_LOOP('',(#483,#484,#485,#486,#487));
#267=AXIS2_PLACEMENT_3D('',#488,#489,#490);
#268=EDGE_LOOP('',(#491,#492,#493,#494));
#269=AXIS2_PLACEMENT_3D('',#495,#496,#497);
#270=EDGE_LOOP('',(#498,#499));
#271=AXIS2_PLACEMENT_3D('',#500,#501,#502);
#272=EDGE_LOOP('',(#503,#504,#505,#506));
#273=AXIS2_PLACEMENT_3D('',#507,#508,#509);
#274=EDGE_LOOP('',(#510,#511,#512,#513));
#275=AXIS2_PLACEMENT_3D('',#514,#515,#516);
#276=EDGE_LOOP('',(#517,#518));
#277=AXIS2_PLACEMENT_3D('',#519,#520,#521);
#278=EDGE_LOOP('',(#522,#523,#524,#525));
#279=AXIS2_PLACEMENT_3D('',#526,#527,#528);
#280=EDGE_LOOP('',(#529,#530,#531));
#281=EDGE_LOOP('',(#532,#533));
#282=AXIS2_PLACEMENT_3D('',#534,#535,#536);
#283=EDGE_LOOP('',(#537,#538,#539,#540,#541));
#284=AXIS2_PLACEMENT_3D('',#542,#543,#544);
#285=EDGE_LOOP('',(#545,#546,#547));
#286=AXIS2_PLACEMENT_3D('',#548,#549,#550);
#287=EDGE_LOOP('',(#551,#552,#553,#554,#555));
#288=AXIS2_PLACEMENT_3D('',#556,#557,#558);
#289=EDGE_LOOP('',(#559,#560,#561,#562));
#290=AXIS2_PLACEMENT_3D('',#563,#564,#565);
#291=EDGE_LOOP('',(#566,#567));
#292=AXIS2_PLACEMENT_3D('',#568,#569,#570);
#293=EDGE_LOOP('',(#571,#572,#573,#574));
#294=AXIS2_PLACEMENT_3D('',#575,#576,#577);
#295=EDGE_LOOP('',(#578,#579,#580,#581));
#296=AXIS2_PLACEMENT_3D('',#582,#583,#584);
#297=EDGE_LOOP('',(#585,#586));
#298=AXIS2_PLACEMENT_3D('',#587,#588,#589);
#299=EDGE_LOOP('',(#590,#591,#592,#593));
#300=AXIS2_PLACEMENT_3D('',#594,#595,#596);
#301=EDGE_LOOP('',(#597,#598,#599,#600));
#302=AXIS2_PLACEMENT_3D('',#601,#602,#603);
#303=EDGE_LOOP('',(#604,#605,#606));
#304=AXIS2_PLACEMENT_3D('',#607,#608,#609);
#305=EDGE_LOOP('',(#610,#611,#612,#613));
#306=AXIS2_PLACEMENT_3D('',#614,#615,#616);
#307=EDGE_LOOP('',(#617,#618,#619,#620));
#308=AXIS2_PLACEMENT_3D('',#621,#622,#623);
#309=EDGE_LOOP('',(#624,#625,#626,#627,#628));
#310=AXIS2_PLACEMENT_3D('',#629,#630,#631);
#311=EDGE_LOOP('',(#632,#633,#634,#635,#636,#637,#638,#639));
#312=EDGE_LOOP('',(#640,#641));
#313=EDGE_LOOP('',(#642,#643,#644));
#314=EDGE_LOOP('',(#645,#646));
#315=EDGE_LOOP('',(#647,#648));
#316=EDGE_LOOP('',(#649,#650));
#317=AXIS2_PLACEMENT_3D('',#651,#652,#653);
#318=EDGE_LOOP('',(#654,#655,#656,#657,#658));
#319=AXIS2_PLACEMENT_3D('',#659,#660,#661);
#320=EDGE_LOOP('',(#662,#663,#664,#665));
#321=AXIS2_PLACEMENT_3D('',#666,#667,#668);
#322=EDGE_LOOP('',(#669,#670));
#323=AXIS2_PLACEMENT_3D('',#671,#672,#673);
#324=EDGE_LOOP('',(#674,#675,#676,#677));
#325=AXIS2_PLACEMENT_3D('',#678,#679,#680);
#326=EDGE_LOOP('',(#681,#682,#683,#684,#685,#686,#687,#688));
#327=AXIS2_PLACEMENT_3D('',#689,#690,#691);
#328=ORIENTED_EDGE('',*,*,#692,.F.);
#329=ORIENTED_EDGE('',*,*,#693,.F.);
#330=ORIENTED_EDGE('',*,*,#694,.F.);
#331=ORIENTED_EDGE('',*,*,#695,.F.);
#332=ORIENTED_EDGE('',*,*,#696,.T.);
#333=ORIENTED_EDGE('',*,*,#697,.F.);
#334=ORIENTED_EDGE('',*,*,#698,.T.);
#335=ORIENTED_EDGE('',*,*,#699,.F.);
#336=ORIENTED_EDGE('',*,*,#700,.T.);
#337=CARTESIAN_POINT('',(-13.9,2.72512626584708,1.72563323017096E-31));
#338=DIRECTION('',(8.7219532213207E-16,-1.0,1.14017487416314E-21));
#339=DIRECTION('',(-0.707106781186548,-6.16734420573386E-16,0.707106781186548));
#340=ORIENTED_EDGE('',*,*,#701,.F.);
#341=ORIENTED_EDGE('',*,*,#702,.T.);
#342=ORIENTED_EDGE('',*,*,#703,.F.);
#343=ORIENTED_EDGE('',*,*,#704,.F.);
#344=ORIENTED_EDGE('',*,*,#705,.F.);
#345=CARTESIAN_POINT('',(-13.9,-2.63982312222434,2.33397113860948E-15));
#346=DIRECTION('',(-1.83758917935762E-15,-1.0,0.0));
#347=DIRECTION('',(-1.0,1.83758917935762E-15,0.0));
#348=ORIENTED_EDGE('',*,*,#706,.F.);
#349=ORIENTED_EDGE('',*,*,#707,.T.);
#350=ORIENTED_EDGE('',*,*,#708,.F.);
#351=ORIENTED_EDGE('',*,*,#702,.F.);
#352=CARTESIAN_POINT('',(-13.9,-6.11482312222434,2.33397113860948E-15));
#353=DIRECTION('',(1.83758917935762E-15,1.0,-0.0));
#354=DIRECTION('',(-1.0,1.83758917935762E-15,0.0));
#355=ORIENTED_EDGE('',*,*,#709,.F.);
#356=ORIENTED_EDGE('',*,*,#710,.T.);
#357=ORIENTED_EDGE('',*,*,#711,.F.);
#358=ORIENTED_EDGE('',*,*,#712,.T.);
#359=CARTESIAN_POINT('',(-16.44,-6.34999999999998,-2.53999999999999));
#360=DIRECTION('',(-7.33668010039911E-16,1.0,1.40518669827379E-16));
#361=DIRECTION('',(-0.876329532471835,-5.7524540022477E-16,-0.481712103353959));
#362=ORIENTED_EDGE('',*,*,#713,.F.);
#363=ORIENTED_EDGE('',*,*,#714,.F.);
#364=ORIENTED_EDGE('',*,*,#715,.F.);
#365=ORIENTED_EDGE('',*,*,#716,.T.);
#366=CARTESIAN_POINT('',(-16.44,-4.89999999999998,-2.53999999999999));
#367=DIRECTION('',(7.33668010039911E-16,-1.0,-1.40518669827379E-16));
#368=DIRECTION('',(0.876329532471835,5.7524540022477E-16,0.481712103353959));
#369=ORIENTED_EDGE('',*,*,#717,.F.);
#370=ORIENTED_EDGE('',*,*,#718,.T.);
#371=ORIENTED_EDGE('',*,*,#719,.F.);
#372=ORIENTED_EDGE('',*,*,#720,.T.);
#373=CARTESIAN_POINT('',(-11.36,-6.34999999999997,2.53999999999999));
#374=DIRECTION('',(3.225070613765E-16,1.0,-1.40518669827379E-16));
#375=DIRECTION('',(0.876329532471835,-2.14932918311886E-16,0.481712103353959));
#376=ORIENTED_EDGE('',*,*,#721,.F.);
#377=ORIENTED_EDGE('',*,*,#722,.F.);
#378=ORIENTED_EDGE('',*,*,#723,.F.);
#379=ORIENTED_EDGE('',*,*,#724,.T.);
#380=CARTESIAN_POINT('',(-11.36,-4.89999999999997,2.53999999999999));
#381=DIRECTION('',(-3.225070613765E-16,-1.0,1.40518669827379E-16));
#382=DIRECTION('',(-0.876329532471835,2.14932918311886E-16,-0.481712103353959));
#383=ORIENTED_EDGE('',*,*,#725,.F.);
#384=ORIENTED_EDGE('',*,*,#726,.T.);
#385=ORIENTED_EDGE('',*,*,#727,.T.);
#386=ORIENTED_EDGE('',*,*,#728,.F.);
#387=ORIENTED_EDGE('',*,*,#729,.T.);
#388=ORIENTED_EDGE('',*,*,#730,.T.);
#389=CARTESIAN_POINT('',(-0.199999999999997,-1.75192668201745E-15,2.33397113860948E-15));
#390=DIRECTION('',(1.0,0.0,0.0));
#391=DIRECTION('',(0.0,0.0,-1.0));
#392=ORIENTED_EDGE('',*,*,#731,.F.);
#393=ORIENTED_EDGE('',*,*,#732,.T.);
#394=ORIENTED_EDGE('',*,*,#733,.F.);
#395=ORIENTED_EDGE('',*,*,#734,.F.);
#396=ORIENTED_EDGE('',*,*,#727,.F.);
#397=CARTESIAN_POINT('',(-4.0,-1.75192668201745E-15,2.33397113860948E-15));
#398=DIRECTION('',(-1.0,0.0,0.0));
#399=DIRECTION('',(0.0,1.0,0.0));
#400=ORIENTED_EDGE('',*,*,#735,.F.);
#401=ORIENTED_EDGE('',*,*,#736,.T.);
#402=ORIENTED_EDGE('',*,*,#737,.F.);
#403=ORIENTED_EDGE('',*,*,#738,.T.);
#404=CARTESIAN_POINT('',(-16.44,-6.34999999999998,2.53999999999999));
#405=DIRECTION('',(-6.50618045043268E-17,1.0,5.28087535708204E-16));
#406=DIRECTION('',(-0.481712103353961,-4.94119761967157E-16,0.876329532471834));
#407=ORIENTED_EDGE('',*,*,#739,.F.);
#408=ORIENTED_EDGE('',*,*,#740,.F.);
#409=ORIENTED_EDGE('',*,*,#741,.F.);
#410=ORIENTED_EDGE('',*,*,#742,.T.);
#411=CARTESIAN_POINT('',(-16.44,-4.89999999999998,2.53999999999999));
#412=DIRECTION('',(6.50618045043266E-17,-1.0,-5.28087535708204E-16));
#413=DIRECTION('',(0.481712103353961,4.94119761967157E-16,-0.876329532471834));
#414=ORIENTED_EDGE('',*,*,#743,.F.);
#415=ORIENTED_EDGE('',*,*,#744,.T.);
#416=ORIENTED_EDGE('',*,*,#745,.F.);
#417=ORIENTED_EDGE('',*,*,#746,.T.);
#418=CARTESIAN_POINT('',(-11.36,-6.34999999999997,-2.53999999999999));
#419=DIRECTION('',(-3.46099144159085E-16,1.0,-5.28087535708204E-16));
#420=DIRECTION('',(0.481712103353961,-2.96058556569495E-16,-0.876329532471834));
#421=ORIENTED_EDGE('',*,*,#747,.F.);
#422=ORIENTED_EDGE('',*,*,#748,.F.);
#423=ORIENTED_EDGE('',*,*,#749,.F.);
#424=ORIENTED_EDGE('',*,*,#750,.T.);
#425=CARTESIAN_POINT('',(-11.36,-4.89999999999998,-2.53999999999999));
#426=DIRECTION('',(3.46099144159085E-16,-1.0,5.28087535708204E-16));
#427=DIRECTION('',(-0.481712103353961,2.96058556569495E-16,0.876329532471834));
#428=ORIENTED_EDGE('',*,*,#751,.F.);
#429=ORIENTED_EDGE('',*,*,#752,.T.);
#430=ORIENTED_EDGE('',*,*,#753,.T.);
#431=ORIENTED_EDGE('',*,*,#754,.T.);
#432=ORIENTED_EDGE('',*,*,#755,.F.);
#433=ORIENTED_EDGE('',*,*,#756,.F.);
#434=CARTESIAN_POINT('',(-9.2,-1.75192668201745E-15,2.33397113860948E-15));
#435=DIRECTION('',(-1.0,0.0,0.0));
#436=DIRECTION('',(0.0,1.0,0.0));
#437=ORIENTED_EDGE('',*,*,#753,.F.);
#438=ORIENTED_EDGE('',*,*,#757,.F.);
#439=CARTESIAN_POINT('',(-10.4,-3.5,3.5));
#440=DIRECTION('',(1.0,9.49685724950083E-16,8.84815433509681E-17));
#441=DIRECTION('',(-9.49685724950083E-16,1.0,0.0));
#442=ORIENTED_EDGE('',*,*,#758,.F.);
#443=ORIENTED_EDGE('',*,*,#759,.T.);
#444=CARTESIAN_POINT('',(-10.4,-3.5,-3.13687742827162));
#445=DIRECTION('',(1.0,9.49685724950083E-16,3.14591479334357E-15));
#446=DIRECTION('',(-3.14591479334357E-15,0.0,1.0));
#447=ORIENTED_EDGE('',*,*,#751,.T.);
#448=ORIENTED_EDGE('',*,*,#760,.F.);
#449=ORIENTED_EDGE('',*,*,#761,.F.);
#450=ORIENTED_EDGE('',*,*,#755,.T.);
#451=ORIENTED_EDGE('',*,*,#762,.T.);
#452=ORIENTED_EDGE('',*,*,#758,.T.);
#453=ORIENTED_EDGE('',*,*,#763,.T.);
#454=CARTESIAN_POINT('',(-9.2,-1.75192668201745E-15,2.33397113860948E-15));
#455=DIRECTION('',(-1.0,0.0,0.0));
#456=DIRECTION('',(0.0,1.0,0.0));
#457=ORIENTED_EDGE('',*,*,#764,.T.);
#458=ORIENTED_EDGE('',*,*,#699,.T.);
#459=ORIENTED_EDGE('',*,*,#765,.T.);
#460=ORIENTED_EDGE('',*,*,#766,.F.);
#461=CARTESIAN_POINT('',(-17.4,-3.50000000000001,3.45126646034193E-31));
#462=DIRECTION('',(-1.0,-8.60422844084495E-16,4.93038065763133E-32));
#463=DIRECTION('',(-8.60422844084495E-16,1.0,0.0));
#464=ORIENTED_EDGE('',*,*,#767,.F.);
#465=ORIENTED_EDGE('',*,*,#768,.F.);
#466=ORIENTED_EDGE('',*,*,#769,.F.);
#467=ORIENTED_EDGE('',*,*,#696,.F.);
#468=ORIENTED_EDGE('',*,*,#770,.F.);
#469=ORIENTED_EDGE('',*,*,#771,.F.);
#470=ORIENTED_EDGE('',*,*,#759,.F.);
#471=CARTESIAN_POINT('',(-13.9,-3.5,1.72563323017096E-31));
#472=DIRECTION('',(8.60422844084496E-16,-1.0,-4.99957115124227E-31));
#473=DIRECTION('',(-0.667420729419494,-5.7426404220807E-16,0.74468085106383));
#474=ORIENTED_EDGE('',*,*,#772,.F.);
#475=ORIENTED_EDGE('',*,*,#773,.F.);
#476=ORIENTED_EDGE('',*,*,#774,.F.);
#477=ORIENTED_EDGE('',*,*,#775,.F.);
#478=ORIENTED_EDGE('',*,*,#776,.F.);
#479=ORIENTED_EDGE('',*,*,#757,.T.);
#480=CARTESIAN_POINT('',(-13.9,-3.5,1.72563323017096E-31));
#481=DIRECTION('',(8.60422844084495E-16,-1.0,1.42844890035493E-31));
#482=DIRECTION('',(-0.74468085106383,-6.40740415807603E-16,-0.667420729419495));
#483=ORIENTED_EDGE('',*,*,#764,.F.);
#484=ORIENTED_EDGE('',*,*,#777,.F.);
#485=ORIENTED_EDGE('',*,*,#778,.F.);
#486=ORIENTED_EDGE('',*,*,#779,.F.);
#487=ORIENTED_EDGE('',*,*,#700,.F.);
#488=CARTESIAN_POINT('',(-13.9,-3.5,1.72563323017096E-31));
#489=DIRECTION('',(8.60422844084495E-16,-1.0,1.42844890035493E-31));
#490=DIRECTION('',(0.667420729419495,5.7426404220807E-16,-0.74468085106383));
#491=ORIENTED_EDGE('',*,*,#747,.T.);
#492=ORIENTED_EDGE('',*,*,#780,.T.);
#493=ORIENTED_EDGE('',*,*,#749,.T.);
#494=ORIENTED_EDGE('',*,*,#746,.F.);
#495=CARTESIAN_POINT('',(-11.36,-4.89999999999998,-2.53999999999999));
#496=DIRECTION('',(3.46099144159085E-16,-1.0,5.28087535708204E-16));
#497=DIRECTION('',(-0.481712103353961,2.96058556569495E-16,0.876329532471834));
#498=ORIENTED_EDGE('',*,*,#781,.F.);
#499=ORIENTED_EDGE('',*,*,#744,.F.);
#500=CARTESIAN_POINT('',(-11.4503210193789,-6.49999999999998,-2.37568821266152));
#501=DIRECTION('',(3.46099144159085E-16,-1.0,5.28087535708204E-16));
#502=DIRECTION('',(-1.0,-3.46099144159085E-16,0.0));
#503=ORIENTED_EDGE('',*,*,#743,.T.);
#504=ORIENTED_EDGE('',*,*,#748,.T.);
#505=ORIENTED_EDGE('',*,*,#745,.T.);
#506=ORIENTED_EDGE('',*,*,#781,.T.);
#507=CARTESIAN_POINT('',(-11.36,-6.34999999999997,-2.53999999999999));
#508=DIRECTION('',(-3.46099144159085E-16,1.0,-5.28087535708204E-16));
#509=DIRECTION('',(0.481712103353961,-2.96058556569495E-16,-0.876329532471834));
#510=ORIENTED_EDGE('',*,*,#739,.T.);
#511=ORIENTED_EDGE('',*,*,#782,.T.);
#512=ORIENTED_EDGE('',*,*,#741,.T.);
#513=ORIENTED_EDGE('',*,*,#738,.F.);
#514=CARTESIAN_POINT('',(-16.44,-4.89999999999998,2.53999999999999));
#515=DIRECTION('',(6.50618045043266E-17,-1.0,-5.28087535708204E-16));
#516=DIRECTION('',(0.481712103353961,4.94119761967157E-16,-0.876329532471834));
#517=ORIENTED_EDGE('',*,*,#783,.F.);
#518=ORIENTED_EDGE('',*,*,#736,.F.);
#519=CARTESIAN_POINT('',(-16.3496789806211,-6.49999999999998,2.37568821266152));
#520=DIRECTION('',(6.50618045043266E-17,-1.0,-5.28087535708204E-16));
#521=DIRECTION('',(0.0,5.28087535708204E-16,-1.0));
#522=ORIENTED_EDGE('',*,*,#735,.T.);
#523=ORIENTED_EDGE('',*,*,#740,.T.);
#524=ORIENTED_EDGE('',*,*,#737,.T.);
#525=ORIENTED_EDGE('',*,*,#783,.T.);
#526=CARTESIAN_POINT('',(-16.44,-6.34999999999998,2.53999999999999));
#527=DIRECTION('',(-6.50618045043268E-17,1.0,5.28087535708204E-16));
#528=DIRECTION('',(-0.481712103353961,-4.94119761967157E-16,0.876329532471834));
#529=ORIENTED_EDGE('',*,*,#760,.T.);
#530=ORIENTED_EDGE('',*,*,#756,.T.);
#531=ORIENTED_EDGE('',*,*,#761,.T.);
#532=ORIENTED_EDGE('',*,*,#732,.F.);
#533=ORIENTED_EDGE('',*,*,#784,.F.);
#534=CARTESIAN_POINT('',(-8.0,2.49,2.33397113860948E-15));
#535=DIRECTION('',(1.0,0.0,0.0));
#536=DIRECTION('',(0.0,1.0,0.0));
#537=ORIENTED_EDGE('',*,*,#731,.T.);
#538=ORIENTED_EDGE('',*,*,#726,.F.);
#539=ORIENTED_EDGE('',*,*,#785,.F.);
#540=ORIENTED_EDGE('',*,*,#733,.T.);
#541=ORIENTED_EDGE('',*,*,#784,.T.);
#542=CARTESIAN_POINT('',(-4.0,-1.75192668201745E-15,2.33397113860948E-15));
#543=DIRECTION('',(-1.0,0.0,0.0));
#544=DIRECTION('',(0.0,1.0,0.0));
#545=ORIENTED_EDGE('',*,*,#730,.F.);
#546=ORIENTED_EDGE('',*,*,#729,.F.);
#547=ORIENTED_EDGE('',*,*,#786,.F.);
#548=CARTESIAN_POINT('',(2.93069660589244E-15,1.7,2.33397113860948E-15));
#549=DIRECTION('',(1.0,0.0,0.0));
#550=DIRECTION('',(0.0,1.0,0.0));
#551=ORIENTED_EDGE('',*,*,#725,.T.);
#552=ORIENTED_EDGE('',*,*,#786,.T.);
#553=ORIENTED_EDGE('',*,*,#728,.T.);
#554=ORIENTED_EDGE('',*,*,#734,.T.);
#555=ORIENTED_EDGE('',*,*,#785,.T.);
#556=CARTESIAN_POINT('',(-0.199999999999997,-1.75192668201745E-15,2.33397113860948E-15));
#557=DIRECTION('',(1.0,0.0,0.0));
#558=DIRECTION('',(0.0,0.0,-1.0));
#559=ORIENTED_EDGE('',*,*,#721,.T.);
#560=ORIENTED_EDGE('',*,*,#787,.T.);
#561=ORIENTED_EDGE('',*,*,#723,.T.);
#562=ORIENTED_EDGE('',*,*,#720,.F.);
#563=CARTESIAN_POINT('',(-11.36,-4.89999999999997,2.53999999999999));
#564=DIRECTION('',(-3.225070613765E-16,-1.0,1.40518669827379E-16));
#565=DIRECTION('',(-0.876329532471835,2.14932918311886E-16,-0.481712103353959));
#566=ORIENTED_EDGE('',*,*,#788,.F.);
#567=ORIENTED_EDGE('',*,*,#718,.F.);
#568=CARTESIAN_POINT('',(-11.5243117873385,-6.49999999999997,2.44967898062113));
#569=DIRECTION('',(-3.225070613765E-16,-1.0,1.40518669827379E-16));
#570=DIRECTION('',(-1.0,3.225070613765E-16,0.0));
#571=ORIENTED_EDGE('',*,*,#717,.T.);
#572=ORIENTED_EDGE('',*,*,#722,.T.);
#573=ORIENTED_EDGE('',*,*,#719,.T.);
#574=ORIENTED_EDGE('',*,*,#788,.T.);
#575=CARTESIAN_POINT('',(-11.36,-6.34999999999997,2.53999999999999));
#576=DIRECTION('',(3.225070613765E-16,1.0,-1.40518669827379E-16));
#577=DIRECTION('',(0.876329532471835,-2.14932918311886E-16,0.481712103353959));
#578=ORIENTED_EDGE('',*,*,#713,.T.);
#579=ORIENTED_EDGE('',*,*,#789,.T.);
#580=ORIENTED_EDGE('',*,*,#715,.T.);
#581=ORIENTED_EDGE('',*,*,#712,.F.);
#582=CARTESIAN_POINT('',(-16.44,-4.89999999999998,-2.53999999999999));
#583=DIRECTION('',(7.33668010039911E-16,-1.0,-1.40518669827379E-16));
#584=DIRECTION('',(0.876329532471835,5.7524540022477E-16,0.481712103353959));
#585=ORIENTED_EDGE('',*,*,#790,.F.);
#586=ORIENTED_EDGE('',*,*,#710,.F.);
#587=CARTESIAN_POINT('',(-16.2756882126615,-6.49999999999998,-2.44967898062112));
#588=DIRECTION('',(7.33668010039911E-16,-1.0,-1.40518669827379E-16));
#589=DIRECTION('',(0.0,1.40518669827379E-16,-1.0));
#590=ORIENTED_EDGE('',*,*,#709,.T.);
#591=ORIENTED_EDGE('',*,*,#714,.T.);
#592=ORIENTED_EDGE('',*,*,#711,.T.);
#593=ORIENTED_EDGE('',*,*,#790,.T.);
#594=CARTESIAN_POINT('',(-16.44,-6.34999999999998,-2.53999999999999));
#595=DIRECTION('',(-7.33668010039911E-16,1.0,1.40518669827379E-16));
#596=DIRECTION('',(-0.876329532471835,-5.7524540022477E-16,-0.481712103353959));
#597=ORIENTED_EDGE('',*,*,#778,.T.);
#598=ORIENTED_EDGE('',*,*,#791,.F.);
#599=ORIENTED_EDGE('',*,*,#774,.T.);
#600=ORIENTED_EDGE('',*,*,#792,.T.);
#601=CARTESIAN_POINT('',(-13.9,-3.5161267836708E-15,3.5));
#602=DIRECTION('',(4.93038065763133E-32,1.94469227433161E-62,1.0));
#603=DIRECTION('',(1.0,0.0,-4.93038065763133E-32));
#604=ORIENTED_EDGE('',*,*,#693,.T.);
#605=ORIENTED_EDGE('',*,*,#793,.T.);
#606=ORIENTED_EDGE('',*,*,#694,.T.);
#607=CARTESIAN_POINT('',(-17.4,3.49999999999999,3.45126646034193E-31));
#608=DIRECTION('',(-8.60422844084495E-16,1.0,4.24221214785833E-47));
#609=DIRECTION('',(1.0,8.60422844084495E-16,-0.0));
#610=ORIENTED_EDGE('',*,*,#769,.T.);
#611=ORIENTED_EDGE('',*,*,#794,.F.);
#612=ORIENTED_EDGE('',*,*,#795,.T.);
#613=ORIENTED_EDGE('',*,*,#697,.T.);
#614=CARTESIAN_POINT('',(-13.9,-3.61705614954582E-15,-3.5));
#615=DIRECTION('',(4.93038065763133E-32,1.94469227433161E-62,1.0));
#616=DIRECTION('',(1.0,0.0,-4.93038065763133E-32));
#617=ORIENTED_EDGE('',*,*,#765,.F.);
#618=ORIENTED_EDGE('',*,*,#698,.F.);
#619=ORIENTED_EDGE('',*,*,#795,.F.);
#620=ORIENTED_EDGE('',*,*,#796,.F.);
#621=CARTESIAN_POINT('',(-13.9,-3.5,1.72563323017096E-31));
#622=DIRECTION('',(8.60422844084495E-16,-1.0,1.42844890035493E-31));
#623=DIRECTION('',(0.74468085106383,6.40740415807603E-16,0.667420729419495));
#624=ORIENTED_EDGE('',*,*,#763,.F.);
#625=ORIENTED_EDGE('',*,*,#771,.T.);
#626=ORIENTED_EDGE('',*,*,#797,.T.);
#627=ORIENTED_EDGE('',*,*,#772,.T.);
#628=ORIENTED_EDGE('',*,*,#752,.F.);
#629=CARTESIAN_POINT('',(-10.4,3.5,-6.64120705069095E-47));
#630=DIRECTION('',(1.0,8.72196462306944E-16,-4.93038065763133E-32));
#631=DIRECTION('',(-8.72196462306944E-16,1.0,0.0));
#632=ORIENTED_EDGE('',*,*,#768,.T.);
#633=ORIENTED_EDGE('',*,*,#798,.T.);
#634=ORIENTED_EDGE('',*,*,#775,.T.);
#635=ORIENTED_EDGE('',*,*,#791,.T.);
#636=ORIENTED_EDGE('',*,*,#777,.T.);
#637=ORIENTED_EDGE('',*,*,#766,.T.);
#638=ORIENTED_EDGE('',*,*,#796,.T.);
#639=ORIENTED_EDGE('',*,*,#794,.T.);
#640=ORIENTED_EDGE('',*,*,#742,.F.);
#641=ORIENTED_EDGE('',*,*,#782,.F.);
#642=ORIENTED_EDGE('',*,*,#704,.T.);
#643=ORIENTED_EDGE('',*,*,#799,.T.);
#644=ORIENTED_EDGE('',*,*,#705,.T.);
#645=ORIENTED_EDGE('',*,*,#724,.F.);
#646=ORIENTED_EDGE('',*,*,#787,.F.);
#647=ORIENTED_EDGE('',*,*,#750,.F.);
#648=ORIENTED_EDGE('',*,*,#780,.F.);
#649=ORIENTED_EDGE('',*,*,#716,.F.);
#650=ORIENTED_EDGE('',*,*,#789,.F.);
#651=CARTESIAN_POINT('',(-10.4,-3.5,-3.67430310225793E-46));
#652=DIRECTION('',(8.60422844084495E-16,-1.0,-4.24221214785833E-47));
#653=DIRECTION('',(0.0,4.24221214785833E-47,-1.0));
#654=ORIENTED_EDGE('',*,*,#754,.F.);
#655=ORIENTED_EDGE('',*,*,#776,.T.);
#656=ORIENTED_EDGE('',*,*,#798,.F.);
#657=ORIENTED_EDGE('',*,*,#767,.T.);
#658=ORIENTED_EDGE('',*,*,#762,.F.);
#659=CARTESIAN_POINT('',(-10.4,3.5,-6.64120705069095E-47));
#660=DIRECTION('',(1.0,8.72196462306944E-16,-4.93038065763133E-32));
#661=DIRECTION('',(-8.72196462306944E-16,1.0,0.0));
#662=ORIENTED_EDGE('',*,*,#706,.T.);
#663=ORIENTED_EDGE('',*,*,#800,.F.);
#664=ORIENTED_EDGE('',*,*,#708,.T.);
#665=ORIENTED_EDGE('',*,*,#801,.T.);
#666=CARTESIAN_POINT('',(-13.9,-6.11482312222434,2.33397113860948E-15));
#667=DIRECTION('',(1.83758917935762E-15,1.0,-0.0));
#668=DIRECTION('',(-1.0,1.83758917935762E-15,0.0));
#669=ORIENTED_EDGE('',*,*,#707,.F.);
#670=ORIENTED_EDGE('',*,*,#801,.F.);
#671=CARTESIAN_POINT('',(-14.0767949192431,-6.26482312222434,2.33397113860948E-15));
#672=DIRECTION('',(-1.83758917935762E-15,-1.0,0.0));
#673=DIRECTION('',(-1.0,1.83758917935762E-15,0.0));
#674=ORIENTED_EDGE('',*,*,#701,.T.);
#675=ORIENTED_EDGE('',*,*,#799,.F.);
#676=ORIENTED_EDGE('',*,*,#703,.T.);
#677=ORIENTED_EDGE('',*,*,#800,.T.);
#678=CARTESIAN_POINT('',(-13.9,-2.63982312222434,2.33397113860948E-15));
#679=DIRECTION('',(-1.83758917935762E-15,-1.0,0.0));
#680=DIRECTION('',(-1.0,1.83758917935762E-15,0.0));
#681=ORIENTED_EDGE('',*,*,#692,.T.);
#682=ORIENTED_EDGE('',*,*,#779,.T.);
#683=ORIENTED_EDGE('',*,*,#792,.F.);
#684=ORIENTED_EDGE('',*,*,#773,.T.);
#685=ORIENTED_EDGE('',*,*,#797,.F.);
#686=ORIENTED_EDGE('',*,*,#770,.T.);
#687=ORIENTED_EDGE('',*,*,#695,.T.);
#688=ORIENTED_EDGE('',*,*,#793,.F.);
#689=CARTESIAN_POINT('',(-13.9,2.72512626584708,1.72563323017096E-31));
#690=DIRECTION('',(8.7219532213207E-16,-1.0,1.14017487416314E-21));
#691=DIRECTION('',(-0.707106781186548,-6.16734420573386E-16,0.707106781186548));
#692=EDGE_CURVE('',#802,#803,#804,.T.);
#693=EDGE_CURVE('',#805,#802,#806,.T.);
#694=EDGE_CURVE('',#807,#805,#808,.T.);
#695=EDGE_CURVE('',#809,#807,#810,.T.);
#696=EDGE_CURVE('',#809,#811,#812,.T.);
#697=EDGE_CURVE('',#813,#811,#814,.T.);
#698=EDGE_CURVE('',#813,#815,#816,.T.);
#699=EDGE_CURVE('',#817,#815,#818,.T.);
#700=EDGE_CURVE('',#817,#803,#819,.T.);
#701=EDGE_CURVE('',#820,#821,#822,.T.);
#702=EDGE_CURVE('',#820,#823,#824,.T.);
#703=EDGE_CURVE('',#825,#823,#826,.T.);
#704=EDGE_CURVE('',#827,#825,#828,.T.);
#705=EDGE_CURVE('',#821,#827,#829,.T.);
#706=EDGE_CURVE('',#830,#820,#831,.T.);
#707=EDGE_CURVE('',#830,#832,#833,.T.);
#708=EDGE_CURVE('',#823,#832,#834,.T.);
#709=EDGE_CURVE('',#835,#836,#837,.T.);
#710=EDGE_CURVE('',#835,#838,#839,.T.);
#711=EDGE_CURVE('',#840,#838,#841,.T.);
#712=EDGE_CURVE('',#840,#836,#842,.T.);
#713=EDGE_CURVE('',#840,#843,#844,.T.);
#714=EDGE_CURVE('',#836,#840,#845,.T.);
#715=EDGE_CURVE('',#846,#836,#847,.T.);
#716=EDGE_CURVE('',#846,#843,#848,.T.);
#717=EDGE_CURVE('',#849,#850,#851,.T.);
#718=EDGE_CURVE('',#849,#852,#853,.T.);
#719=EDGE_CURVE('',#854,#852,#855,.T.);
#720=EDGE_CURVE('',#854,#850,#856,.T.);
#721=EDGE_CURVE('',#854,#857,#858,.T.);
#722=EDGE_CURVE('',#850,#854,#859,.T.);
#723=EDGE_CURVE('',#860,#850,#861,.T.);
#724=EDGE_CURVE('',#860,#857,#862,.T.);
#725=EDGE_CURVE('',#863,#864,#865,.T.);
#726=EDGE_CURVE('',#863,#866,#867,.T.);
#727=EDGE_CURVE('',#866,#868,#869,.T.);
#728=EDGE_CURVE('',#870,#868,#871,.T.);
#729=EDGE_CURVE('',#870,#872,#873,.T.);
#730=EDGE_CURVE('',#872,#864,#874,.T.);
#731=EDGE_CURVE('',#875,#866,#876,.T.);
#732=EDGE_CURVE('',#875,#877,#878,.T.);
#733=EDGE_CURVE('',#879,#877,#880,.T.);
#734=EDGE_CURVE('',#868,#879,#881,.T.);
#735=EDGE_CURVE('',#882,#883,#884,.T.);
#736=EDGE_CURVE('',#882,#885,#886,.T.);
#737=EDGE_CURVE('',#887,#885,#888,.T.);
#738=EDGE_CURVE('',#887,#883,#889,.T.);
#739=EDGE_CURVE('',#887,#890,#891,.T.);
#740=EDGE_CURVE('',#883,#887,#892,.T.);
#741=EDGE_CURVE('',#893,#883,#894,.T.);
#742=EDGE_CURVE('',#893,#890,#895,.T.);
#743=EDGE_CURVE('',#896,#897,#898,.T.);
#744=EDGE_CURVE('',#896,#899,#900,.T.);
#745=EDGE_CURVE('',#901,#899,#902,.T.);
#746=EDGE_CURVE('',#901,#897,#903,.T.);
#747=EDGE_CURVE('',#901,#904,#905,.T.);
#748=EDGE_CURVE('',#897,#901,#906,.T.);
#749=EDGE_CURVE('',#907,#897,#908,.T.);
#750=EDGE_CURVE('',#907,#904,#909,.T.);
#751=EDGE_CURVE('',#910,#911,#912,.T.);
#752=EDGE_CURVE('',#910,#913,#914,.T.);
#753=EDGE_CURVE('',#913,#915,#916,.T.);
#754=EDGE_CURVE('',#915,#917,#918,.T.);
#755=EDGE_CURVE('',#919,#917,#920,.T.);
#756=EDGE_CURVE('',#911,#919,#921,.T.);
#757=EDGE_CURVE('',#915,#913,#922,.T.);
#758=EDGE_CURVE('',#923,#924,#925,.T.);
#759=EDGE_CURVE('',#923,#924,#926,.T.);
#760=EDGE_CURVE('',#927,#911,#928,.T.);
#761=EDGE_CURVE('',#919,#927,#929,.T.);
#762=EDGE_CURVE('',#917,#923,#930,.T.);
#763=EDGE_CURVE('',#924,#910,#931,.T.);
#764=EDGE_CURVE('',#932,#817,#933,.T.);
#765=EDGE_CURVE('',#815,#934,#935,.T.);
#766=EDGE_CURVE('',#932,#934,#936,.T.);
#767=EDGE_CURVE('',#937,#923,#938,.T.);
#768=EDGE_CURVE('',#939,#937,#940,.T.);
#769=EDGE_CURVE('',#811,#939,#941,.T.);
#770=EDGE_CURVE('',#942,#809,#943,.T.);
#771=EDGE_CURVE('',#924,#942,#944,.T.);
#772=EDGE_CURVE('',#945,#913,#946,.T.);
#773=EDGE_CURVE('',#947,#945,#948,.T.);
#774=EDGE_CURVE('',#949,#947,#950,.T.);
#775=EDGE_CURVE('',#951,#949,#952,.T.);
#776=EDGE_CURVE('',#915,#951,#953,.T.);
#777=EDGE_CURVE('',#954,#932,#955,.T.);
#778=EDGE_CURVE('',#956,#954,#957,.T.);
#779=EDGE_CURVE('',#803,#956,#958,.T.);
#780=EDGE_CURVE('',#904,#907,#959,.T.);
#781=EDGE_CURVE('',#899,#896,#960,.T.);
#782=EDGE_CURVE('',#890,#893,#961,.T.);
#783=EDGE_CURVE('',#885,#882,#962,.T.);
#784=EDGE_CURVE('',#877,#875,#963,.T.);
#785=EDGE_CURVE('',#879,#863,#964,.T.);
#786=EDGE_CURVE('',#864,#870,#965,.T.);
#787=EDGE_CURVE('',#857,#860,#966,.T.);
#788=EDGE_CURVE('',#852,#849,#967,.T.);
#789=EDGE_CURVE('',#843,#846,#968,.T.);
#790=EDGE_CURVE('',#838,#835,#969,.T.);
#791=EDGE_CURVE('',#949,#954,#970,.T.);
#792=EDGE_CURVE('',#947,#956,#971,.T.);
#793=EDGE_CURVE('',#802,#807,#972,.T.);
#794=EDGE_CURVE('',#973,#939,#974,.T.);
#795=EDGE_CURVE('',#973,#813,#975,.T.);
#796=EDGE_CURVE('',#934,#973,#976,.T.);
#797=EDGE_CURVE('',#942,#945,#977,.T.);
#798=EDGE_CURVE('',#937,#951,#978,.T.);
#799=EDGE_CURVE('',#825,#821,#979,.T.);
#800=EDGE_CURVE('',#823,#820,#980,.T.);
#801=EDGE_CURVE('',#832,#830,#981,.T.);
#802=VERTEX_POINT('',#982);
#803=VERTEX_POINT('',#983);
#804=LINE('',#984,#985);
#805=VERTEX_POINT('',#986);
#806=CIRCLE('',#987,3.4);
#807=VERTEX_POINT('',#988);
#808=CIRCLE('',#989,3.4);
#809=VERTEX_POINT('',#990);
#810=LINE('',#991,#992);
#811=VERTEX_POINT('',#993);
#812=CIRCLE('',#994,4.7);
#813=VERTEX_POINT('',#995);
#814=(B_SPLINE_CURVE(2,(#997,#998,#999),.UNSPECIFIED.,.F.,.F.)B_SPLINE_CURVE_WITH_KNOTS((3,3),(0.0289629394687464,0.728711600736026),.UNSPECIFIED.)RATIONAL_B_SPLINE_CURVE((1.03045700832998,1.38375655404309,1.03045700833004))BOUNDED_CURVE()REPRESENTATION_ITEM('')GEOMETRIC_REPRESENTATION_ITEM()CURVE());
#815=VERTEX_POINT('',#1006);
#816=CIRCLE('',#1007,4.7);
#817=VERTEX_POINT('',#1008);
#818=(B_SPLINE_CURVE(2,(#1010,#1011,#1012),.UNSPECIFIED.,.F.,.F.)B_SPLINE_CURVE_WITH_KNOTS((3,3),(0.0289629394687466,0.72871160073603),.UNSPECIFIED.)RATIONAL_B_SPLINE_CURVE((1.03045700832998,1.38375655404308,1.03045700833004))BOUNDED_CURVE()REPRESENTATION_ITEM('')GEOMETRIC_REPRESENTATION_ITEM()CURVE());
#819=CIRCLE('',#1019,4.7);
#820=VERTEX_POINT('',#1020);
#821=VERTEX_POINT('',#1021);
#822=LINE('',#1022,#1023);
#823=VERTEX_POINT('',#1024);
#824=CIRCLE('',#1025,0.349999999999999);
#825=VERTEX_POINT('',#1026);
#826=LINE('',#1027,#1028);
#827=VERTEX_POINT('',#1029);
#828=CIRCLE('',#1030,0.35);
#829=CIRCLE('',#1031,0.35);
#830=VERTEX_POINT('',#1032);
#831=LINE('',#1033,#1034);
#832=VERTEX_POINT('',#1035);
#833=CIRCLE('',#1036,0.176794919243112);
#834=LINE('',#1037,#1038);
#835=VERTEX_POINT('',#1039);
#836=VERTEX_POINT('',#1040);
#837=LINE('',#1041,#1042);
#838=VERTEX_POINT('',#1043);
#839=CIRCLE('',#1044,0.201794919243113);
#840=VERTEX_POINT('',#1045);
#841=LINE('',#1046,#1047);
#842=CIRCLE('',#1048,0.375000000000001);
#843=VERTEX_POINT('',#1049);
#844=LINE('',#1050,#1051);
#845=CIRCLE('',#1052,0.375000000000001);
#846=VERTEX_POINT('',#1053);
#847=LINE('',#1054,#1055);
#848=CIRCLE('',#1056,0.375000000000001);
#849=VERTEX_POINT('',#1057);
#850=VERTEX_POINT('',#1058);
#851=LINE('',#1059,#1060);
#852=VERTEX_POINT('',#1061);
#853=CIRCLE('',#1062,0.201794919243113);
#854=VERTEX_POINT('',#1063);
#855=LINE('',#1064,#1065);
#856=CIRCLE('',#1066,0.375000000000001);
#857=VERTEX_POINT('',#1067);
#858=LINE('',#1068,#1069);
#859=CIRCLE('',#1070,0.375000000000001);
#860=VERTEX_POINT('',#1071);
#861=LINE('',#1072,#1073);
#862=CIRCLE('',#1074,0.375000000000001);
#863=VERTEX_POINT('',#1075);
#864=VERTEX_POINT('',#1076);
#865=CIRCLE('',#1077,0.2);
#866=VERTEX_POINT('',#1078);
#867=CIRCLE('',#1079,2.49);
#868=VERTEX_POINT('',#1080);
#869=CIRCLE('',#1081,2.49);
#870=VERTEX_POINT('',#1082);
#871=CIRCLE('',#1083,0.2);
#872=VERTEX_POINT('',#1084);
#873=CIRCLE('',#1085,2.29);
#874=CIRCLE('',#1086,2.29);
#875=VERTEX_POINT('',#1087);
#876=LINE('',#1088,#1089);
#877=VERTEX_POINT('',#1090);
#878=CIRCLE('',#1091,2.49);
#879=VERTEX_POINT('',#1092);
#880=LINE('',#1093,#1094);
#881=CIRCLE('',#1095,2.49);
#882=VERTEX_POINT('',#1096);
#883=VERTEX_POINT('',#1097);
#884=LINE('',#1098,#1099);
#885=VERTEX_POINT('',#1100);
#886=CIRCLE('',#1101,0.201794919243113);
#887=VERTEX_POINT('',#1102);
#888=LINE('',#1103,#1104);
#889=CIRCLE('',#1105,0.375000000000001);
#890=VERTEX_POINT('',#1106);
#891=LINE('',#1107,#1108);
#892=CIRCLE('',#1109,0.375000000000001);
#893=VERTEX_POINT('',#1110);
#894=LINE('',#1111,#1112);
#895=CIRCLE('',#1113,0.375000000000001);
#896=VERTEX_POINT('',#1114);
#897=VERTEX_POINT('',#1115);
#898=LINE('',#1116,#1117);
#899=VERTEX_POINT('',#1118);
#900=CIRCLE('',#1119,0.201794919243113);
#901=VERTEX_POINT('',#1120);
#902=LINE('',#1121,#1122);
#903=CIRCLE('',#1123,0.375000000000001);
#904=VERTEX_POINT('',#1124);
#905=LINE('',#1125,#1126);
#906=CIRCLE('',#1127,0.375000000000001);
#907=VERTEX_POINT('',#1128);
#908=LINE('',#1129,#1130);
#909=CIRCLE('',#1131,0.375000000000001);
#910=VERTEX_POINT('',#1132);
#911=VERTEX_POINT('',#1133);
#912=LINE('',#1134,#1135);
#913=VERTEX_POINT('',#1136);
#914=CIRCLE('',#1137,3.2);
#915=VERTEX_POINT('',#1138);
#916=CIRCLE('',#1139,3.2);
#917=VERTEX_POINT('',#1140);
#918=CIRCLE('',#1141,3.2);
#919=VERTEX_POINT('',#1142);
#920=LINE('',#1143,#1144);
#921=CIRCLE('',#1145,3.2);
#922=LINE('',#1146,#1147);
#923=VERTEX_POINT('',#1148);
#924=VERTEX_POINT('',#1149);
#925=CIRCLE('',#1150,3.2);
#926=LINE('',#1151,#1152);
#927=VERTEX_POINT('',#1153);
#928=CIRCLE('',#1154,3.2);
#929=CIRCLE('',#1155,3.2);
#930=CIRCLE('',#1156,3.2);
#931=CIRCLE('',#1157,3.2);
#932=VERTEX_POINT('',#1158);
#933=LINE('',#1159,#1160);
#934=VERTEX_POINT('',#1161);
#935=LINE('',#1162,#1163);
#936=LINE('',#1164,#1165);
#937=VERTEX_POINT('',#1166);
#938=LINE('',#1167,#1168);
#939=VERTEX_POINT('',#1169);
#940=CIRCLE('',#1170,4.7);
#941=LINE('',#1171,#1172);
#942=VERTEX_POINT('',#1173);
#943=CIRCLE('',#1174,4.7);
#944=LINE('',#1175,#1176);
#945=VERTEX_POINT('',#1177);
#946=LINE('',#1178,#1179);
#947=VERTEX_POINT('',#1180);
#948=CIRCLE('',#1181,4.7);
#949=VERTEX_POINT('',#1182);
#950=LINE('',#1183,#1184);
#951=VERTEX_POINT('',#1185);
#952=CIRCLE('',#1186,4.7);
#953=LINE('',#1187,#1188);
#954=VERTEX_POINT('',#1189);
#955=CIRCLE('',#1190,4.7);
#956=VERTEX_POINT('',#1191);
#957=LINE('',#1192,#1193);
#958=CIRCLE('',#1194,4.7);
#959=CIRCLE('',#1195,0.375000000000001);
#960=CIRCLE('',#1196,0.201794919243113);
#961=CIRCLE('',#1197,0.375000000000001);
#962=CIRCLE('',#1198,0.201794919243113);
#963=CIRCLE('',#1199,2.49);
#964=CIRCLE('',#1200,2.49);
#965=CIRCLE('',#1201,2.29);
#966=CIRCLE('',#1202,0.375000000000001);
#967=CIRCLE('',#1203,0.201794919243113);
#968=CIRCLE('',#1204,0.375000000000001);
#969=CIRCLE('',#1205,0.201794919243113);
#970=LINE('',#1206,#1207);
#971=(B_SPLINE_CURVE(2,(#1209,#1210,#1211),.UNSPECIFIED.,.F.,.F.)B_SPLINE_CURVE_WITH_KNOTS((3,3),(0.0289629394687464,0.728711600735929),.UNSPECIFIED.)RATIONAL_B_SPLINE_CURVE((1.03045700832998,1.38375655404312,1.03045700832998))BOUNDED_CURVE()REPRESENTATION_ITEM('')GEOMETRIC_REPRESENTATION_ITEM()CURVE());
#972=CIRCLE('',#1218,3.4);
#973=VERTEX_POINT('',#1219);
#974=LINE('',#1220,#1221);
#975=LINE('',#1222,#1223);
#976=CIRCLE('',#1224,4.7);
#977=(B_SPLINE_CURVE(2,(#1226,#1227,#1228),.UNSPECIFIED.,.F.,.F.)B_SPLINE_CURVE_WITH_KNOTS((3,3),(0.0289629394687478,0.728711600735929),.UNSPECIFIED.)RATIONAL_B_SPLINE_CURVE((1.03045700832998,1.38375655404312,1.03045700832998))BOUNDED_CURVE()REPRESENTATION_ITEM('')GEOMETRIC_REPRESENTATION_ITEM()CURVE());
#978=LINE('',#1235,#1236);
#979=CIRCLE('',#1237,0.35);
#980=CIRCLE('',#1238,0.349999999999999);
#981=CIRCLE('',#1239,0.176794919243112);
#982=CARTESIAN_POINT('',(-16.3041630560343,3.5,2.40416305603426));
#983=CARTESIAN_POINT('',(-17.2234018715768,2.19999999999999,3.32340187157677));
#984=CARTESIAN_POINT('',(-16.8520815280171,2.72512626584708,2.95208152801713));
#985=VECTOR('',#1240,1.0);
#986=CARTESIAN_POINT('',(-16.5918963209448,3.49999999999987,-2.07694347474493));
#987=AXIS2_PLACEMENT_3D('',#1241,#1242,#1243);
#988=CARTESIAN_POINT('',(-11.4958369439657,3.5,-2.40416305603426));
#989=AXIS2_PLACEMENT_3D('',#1244,#1245,#1246);
#990=CARTESIAN_POINT('',(-10.5765981284232,2.19999999999999,-3.32340187157677));
#991=CARTESIAN_POINT('',(-10.9479184719829,2.72512626584708,-2.95208152801713));
#992=VECTOR('',#1247,1.0);
#993=CARTESIAN_POINT('',(-10.7631225717284,2.2,-3.5));
#994=AXIS2_PLACEMENT_3D('',#1248,#1249,#1250);
#995=CARTESIAN_POINT('',(-17.0368774282716,2.19999999999999,-3.5));
#997=CARTESIAN_POINT('',(-17.0368774282716,2.19999999999999,-3.5));
#998=CARTESIAN_POINT('',(-13.9000000000002,4.29361702127646,-3.5));
#999=CARTESIAN_POINT('',(-10.7631225717291,2.20000000000048,-3.5));
#1006=CARTESIAN_POINT('',(-17.4,2.19999999999999,-3.13687742827162));
#1007=AXIS2_PLACEMENT_3D('',#1251,#1252,#1253);
#1008=CARTESIAN_POINT('',(-17.4,2.19999999999999,3.13687742827162));
#1010=CARTESIAN_POINT('',(-17.4,2.19999999999999,3.13687742827162));
#1011=CARTESIAN_POINT('',(-17.4,4.29361702127646,2.00950367457153E-13));
#1012=CARTESIAN_POINT('',(-17.4,2.20000000000047,-3.1368774282709));
#1019=AXIS2_PLACEMENT_3D('',#1254,#1255,#1256);
#1020=CARTESIAN_POINT('',(-14.25,-5.96482312222433,2.33397113860948E-15));
#1021=CARTESIAN_POINT('',(-14.25,-3.5,2.37683236099326E-15));
#1022=CARTESIAN_POINT('',(-14.25,-4.73241156111216,2.37683236099326E-15));
#1023=VECTOR('',#1257,1.0);
#1024=CARTESIAN_POINT('',(-13.55,-5.96482312222433,2.2911099162257E-15));
#1025=AXIS2_PLACEMENT_3D('',#1258,#1259,#1260);
#1026=CARTESIAN_POINT('',(-13.55,-3.5,2.2911099162257E-15));
#1027=CARTESIAN_POINT('',(-13.55,-4.73241156111217,2.2911099162257E-15));
#1028=VECTOR('',#1261,1.0);
#1029=CARTESIAN_POINT('',(-13.7306305335141,-3.5,0.306290685170632));
#1030=AXIS2_PLACEMENT_3D('',#1262,#1263,#1264);
#1031=AXIS2_PLACEMENT_3D('',#1265,#1266,#1267);
#1032=CARTESIAN_POINT('',(-14.0767949192431,-6.26482312222434,2.33397113860948E-15));
#1033=CARTESIAN_POINT('',(-14.1633974596216,-6.11482312222434,2.3662269588728E-15));
#1034=VECTOR('',#1268,1.0);
#1035=CARTESIAN_POINT('',(-13.7232050807569,-6.26482312222434,2.31232072046662E-15));
#1036=AXIS2_PLACEMENT_3D('',#1269,#1270,#1271);
#1037=CARTESIAN_POINT('',(-13.6366025403784,-6.11482312222434,2.30171531834616E-15));
#1038=VECTOR('',#1272,1.0);
#1039=CARTESIAN_POINT('',(-16.6168388472355,-6.49999999999998,-2.63720705499473));
#1040=CARTESIAN_POINT('',(-16.7686235746769,-6.19999999999998,-2.72064203875773));
#1041=CARTESIAN_POINT('',(-16.6927312109562,-6.34999999999998,-2.67892454687623));
#1042=VECTOR('',#1273,1.0);
#1043=CARTESIAN_POINT('',(-16.2631611527645,-6.49999999999998,-2.44279294500525));
#1044=AXIS2_PLACEMENT_3D('',#1274,#1275,#1276);
#1045=CARTESIAN_POINT('',(-16.1113764253231,-6.19999999999998,-2.35935796124226));
#1046=CARTESIAN_POINT('',(-16.1872687890438,-6.34999999999998,-2.40107545312375));
#1047=VECTOR('',#1277,1.0);
#1048=AXIS2_PLACEMENT_3D('',#1278,#1279,#1280);
#1049=CARTESIAN_POINT('',(-16.1113764253231,-3.50000000000001,-2.35935796124225));
#1050=CARTESIAN_POINT('',(-16.1113764253231,-4.89999999999998,-2.35935796124225));
#1051=VECTOR('',#1281,1.0);
#1052=AXIS2_PLACEMENT_3D('',#1282,#1283,#1284);
#1053=CARTESIAN_POINT('',(-16.7686235746769,-3.50000000000001,-2.72064203875773));
#1054=CARTESIAN_POINT('',(-16.7686235746769,-4.89999999999998,-2.72064203875772));
#1055=VECTOR('',#1285,1.0);
#1056=AXIS2_PLACEMENT_3D('',#1286,#1287,#1288);
#1057=CARTESIAN_POINT('',(-11.1831611527645,-6.49999999999997,2.63720705499473));
#1058=CARTESIAN_POINT('',(-11.0313764253231,-6.19999999999997,2.72064203875773));
#1059=CARTESIAN_POINT('',(-11.1072687890438,-6.34999999999997,2.67892454687623));
#1060=VECTOR('',#1289,1.0);
#1061=CARTESIAN_POINT('',(-11.5368388472355,-6.49999999999997,2.44279294500525));
#1062=AXIS2_PLACEMENT_3D('',#1290,#1291,#1292);
#1063=CARTESIAN_POINT('',(-11.6886235746769,-6.19999999999997,2.35935796124226));
#1064=CARTESIAN_POINT('',(-11.6127312109562,-6.34999999999997,2.40107545312375));
#1065=VECTOR('',#1293,1.0);
#1066=AXIS2_PLACEMENT_3D('',#1294,#1295,#1296);
#1067=CARTESIAN_POINT('',(-11.6886235746769,-3.5,2.35935796124225));
#1068=CARTESIAN_POINT('',(-11.6886235746769,-4.89999999999997,2.35935796124225));
#1069=VECTOR('',#1297,1.0);
#1070=AXIS2_PLACEMENT_3D('',#1298,#1299,#1300);
#1071=CARTESIAN_POINT('',(-11.0313764253231,-3.5,2.72064203875773));
#1072=CARTESIAN_POINT('',(-11.0313764253231,-4.89999999999997,2.72064203875772));
#1073=VECTOR('',#1301,1.0);
#1074=AXIS2_PLACEMENT_3D('',#1302,#1303,#1304);
#1075=CARTESIAN_POINT('',(-0.199999999999997,-2.05685366411922E-15,-2.49));
#1076=CARTESIAN_POINT('',(2.91433543964104E-15,-2.03236153704277E-15,-2.29));
#1077=AXIS2_PLACEMENT_3D('',#1305,#1306,#1307);
#1078=CARTESIAN_POINT('',(-0.199999999999997,2.49,2.18150261211564E-15));
#1079=AXIS2_PLACEMENT_3D('',#1308,#1309,#1310);
#1080=CARTESIAN_POINT('',(-0.199999999999997,-1.44699969991568E-15,2.49));
#1081=AXIS2_PLACEMENT_3D('',#1311,#1312,#1313);
#1082=CARTESIAN_POINT('',(2.91433543964104E-15,-1.47149182699213E-15,2.29));
#1083=AXIS2_PLACEMENT_3D('',#1314,#1315,#1316);
#1084=CARTESIAN_POINT('',(2.91433543964104E-15,2.29,1.63286084609762E-15));
#1085=AXIS2_PLACEMENT_3D('',#1317,#1318,#1319);
#1086=AXIS2_PLACEMENT_3D('',#1320,#1321,#1322);
#1087=CARTESIAN_POINT('',(-8.0,2.49,2.33397113860948E-15));
#1088=CARTESIAN_POINT('',(-4.0,2.49,2.63889812071125E-15));
#1089=VECTOR('',#1323,1.0);
#1090=CARTESIAN_POINT('',(-8.0,-2.49,2.02904415650771E-15));
#1091=AXIS2_PLACEMENT_3D('',#1324,#1325,#1326);
#1092=CARTESIAN_POINT('',(-0.199999999999997,-2.49,2.02904415650771E-15));
#1093=CARTESIAN_POINT('',(-4.0,-2.49,2.02904415650771E-15));
#1094=VECTOR('',#1327,1.0);
#1095=AXIS2_PLACEMENT_3D('',#1328,#1329,#1330);
#1096=CARTESIAN_POINT('',(-16.5372070549947,-6.49999999999998,2.7168388472355));
#1097=CARTESIAN_POINT('',(-16.6206420387577,-6.19999999999998,2.86862357467693));
#1098=CARTESIAN_POINT('',(-16.5789245468762,-6.34999999999998,2.79273121095621));
#1099=VECTOR('',#1331,1.0);
#1100=CARTESIAN_POINT('',(-16.3427929450053,-6.49999999999998,2.36316115276448));
#1101=AXIS2_PLACEMENT_3D('',#1332,#1333,#1334);
#1102=CARTESIAN_POINT('',(-16.2593579612423,-6.19999999999998,2.21137642532305));
#1103=CARTESIAN_POINT('',(-16.3010754531238,-6.34999999999998,2.28726878904377));
#1104=VECTOR('',#1335,1.0);
#1105=AXIS2_PLACEMENT_3D('',#1336,#1337,#1338);
#1106=CARTESIAN_POINT('',(-16.2593579612423,-3.50000000000001,2.21137642532305));
#1107=CARTESIAN_POINT('',(-16.2593579612423,-4.89999999999998,2.21137642532305));
#1108=VECTOR('',#1339,1.0);
#1109=AXIS2_PLACEMENT_3D('',#1340,#1341,#1342);
#1110=CARTESIAN_POINT('',(-16.6206420387577,-3.50000000000001,2.86862357467693));
#1111=CARTESIAN_POINT('',(-16.6206420387577,-4.89999999999998,2.86862357467693));
#1112=VECTOR('',#1343,1.0);
#1113=AXIS2_PLACEMENT_3D('',#1344,#1345,#1346);
#1114=CARTESIAN_POINT('',(-11.2627929450053,-6.49999999999998,-2.7168388472355));
#1115=CARTESIAN_POINT('',(-11.1793579612423,-6.19999999999997,-2.86862357467693));
#1116=CARTESIAN_POINT('',(-11.2210754531238,-6.34999999999997,-2.79273121095621));
#1117=VECTOR('',#1347,1.0);
#1118=CARTESIAN_POINT('',(-11.4572070549947,-6.49999999999998,-2.36316115276448));
#1119=AXIS2_PLACEMENT_3D('',#1348,#1349,#1350);
#1120=CARTESIAN_POINT('',(-11.5406420387577,-6.19999999999997,-2.21137642532305));
#1121=CARTESIAN_POINT('',(-11.4989245468762,-6.34999999999997,-2.28726878904377));
#1122=VECTOR('',#1351,1.0);
#1123=AXIS2_PLACEMENT_3D('',#1352,#1353,#1354);
#1124=CARTESIAN_POINT('',(-11.5406420387577,-3.5,-2.21137642532305));
#1125=CARTESIAN_POINT('',(-11.5406420387577,-4.89999999999998,-2.21137642532305));
#1126=VECTOR('',#1355,1.0);
#1127=AXIS2_PLACEMENT_3D('',#1356,#1357,#1358);
#1128=CARTESIAN_POINT('',(-11.1793579612423,-3.5,-2.86862357467693));
#1129=CARTESIAN_POINT('',(-11.1793579612423,-4.89999999999998,-2.86862357467693));
#1130=VECTOR('',#1359,1.0);
#1131=AXIS2_PLACEMENT_3D('',#1360,#1361,#1362);
#1132=CARTESIAN_POINT('',(-10.4,3.2,2.72584517183264E-15));
#1133=CARTESIAN_POINT('',(-8.0,3.2,2.72584517183264E-15));
#1134=CARTESIAN_POINT('',(-9.2,3.2,2.72584517183264E-15));
#1135=VECTOR('',#1363,1.0);
#1136=CARTESIAN_POINT('',(-10.4,0.632455532033689,3.13687742827162));
#1137=AXIS2_PLACEMENT_3D('',#1364,#1365,#1366);
#1138=CARTESIAN_POINT('',(-10.4,-0.632455532033692,3.13687742827162));
#1139=AXIS2_PLACEMENT_3D('',#1367,#1368,#1369);
#1140=CARTESIAN_POINT('',(-10.4,-3.2,1.94209710538632E-15));
#1141=AXIS2_PLACEMENT_3D('',#1370,#1371,#1372);
#1142=CARTESIAN_POINT('',(-8.0,-3.2,1.94209710538632E-15));
#1143=CARTESIAN_POINT('',(-9.2,-3.2,1.94209710538632E-15));
#1144=VECTOR('',#1373,1.0);
#1145=AXIS2_PLACEMENT_3D('',#1374,#1375,#1376);
#1146=CARTESIAN_POINT('',(-10.4,-3.5,3.13687742827162));
#1147=VECTOR('',#1377,10.0);
#1148=CARTESIAN_POINT('',(-10.4,-0.632455532033667,-3.13687742827162));
#1149=CARTESIAN_POINT('',(-10.4,0.632455532033663,-3.13687742827162));
#1150=AXIS2_PLACEMENT_3D('',#1378,#1379,#1380);
#1151=CARTESIAN_POINT('',(-10.4,-3.5,-3.13687742827162));
#1152=VECTOR('',#1381,10.0);
#1153=CARTESIAN_POINT('',(-8.0,-1.3600397062903E-15,-3.2));
#1154=AXIS2_PLACEMENT_3D('',#1382,#1383,#1384);
#1155=AXIS2_PLACEMENT_3D('',#1385,#1386,#1387);
#1156=AXIS2_PLACEMENT_3D('',#1388,#1389,#1390);
#1157=AXIS2_PLACEMENT_3D('',#1391,#1392,#1393);
#1158=CARTESIAN_POINT('',(-17.4,-3.50000000000001,3.13687742827162));
#1159=CARTESIAN_POINT('',(-17.4,-3.50000000000001,3.13687742827162));
#1160=VECTOR('',#1394,10.0);
#1161=CARTESIAN_POINT('',(-17.4,-3.50000000000001,-3.13687742827162));
#1162=CARTESIAN_POINT('',(-17.4,-3.50000000000001,-3.13687742827162));
#1163=VECTOR('',#1395,10.0);
#1164=CARTESIAN_POINT('',(-17.4,-3.50000000000001,3.45126646034193E-31));
#1165=VECTOR('',#1396,10.0);
#1166=CARTESIAN_POINT('',(-10.4,-3.5,-3.13687742827163));
#1167=CARTESIAN_POINT('',(-10.4,-3.5,-3.13687742827162));
#1168=VECTOR('',#1397,10.0);
#1169=CARTESIAN_POINT('',(-10.7631225717284,-3.5,-3.5));
#1170=AXIS2_PLACEMENT_3D('',#1398,#1399,#1400);
#1171=CARTESIAN_POINT('',(-10.7631225717284,-3.5,-3.5));
#1172=VECTOR('',#1401,10.0);
#1173=CARTESIAN_POINT('',(-10.4,2.2,-3.13687742827163));
#1174=AXIS2_PLACEMENT_3D('',#1402,#1403,#1404);
#1175=CARTESIAN_POINT('',(-10.4,-3.5,-3.13687742827162));
#1176=VECTOR('',#1405,10.0);
#1177=CARTESIAN_POINT('',(-10.4,2.2,3.13687742827162));
#1178=CARTESIAN_POINT('',(-10.4,-3.5,3.13687742827162));
#1179=VECTOR('',#1406,10.0);
#1180=CARTESIAN_POINT('',(-10.7631225717284,2.2,3.5));
#1181=AXIS2_PLACEMENT_3D('',#1407,#1408,#1409);
#1182=CARTESIAN_POINT('',(-10.7631225717284,-3.5,3.5));
#1183=CARTESIAN_POINT('',(-10.7631225717284,-3.5,3.5));
#1184=VECTOR('',#1410,10.0);
#1185=CARTESIAN_POINT('',(-10.4,-3.5,3.13687742827162));
#1186=AXIS2_PLACEMENT_3D('',#1411,#1412,#1413);
#1187=CARTESIAN_POINT('',(-10.4,-3.5,3.13687742827162));
#1188=VECTOR('',#1414,10.0);
#1189=CARTESIAN_POINT('',(-17.0368774282716,-3.50000000000001,3.5));
#1190=AXIS2_PLACEMENT_3D('',#1415,#1416,#1417);
#1191=CARTESIAN_POINT('',(-17.0368774282716,2.19999999999999,3.5));
#1192=CARTESIAN_POINT('',(-17.0368774282716,-3.50000000000001,3.5));
#1193=VECTOR('',#1418,10.0);
#1194=AXIS2_PLACEMENT_3D('',#1419,#1420,#1421);
#1195=AXIS2_PLACEMENT_3D('',#1422,#1423,#1424);
#1196=AXIS2_PLACEMENT_3D('',#1425,#1426,#1427);
#1197=AXIS2_PLACEMENT_3D('',#1428,#1429,#1430);
#1198=AXIS2_PLACEMENT_3D('',#1431,#1432,#1433);
#1199=AXIS2_PLACEMENT_3D('',#1434,#1435,#1436);
#1200=AXIS2_PLACEMENT_3D('',#1437,#1438,#1439);
#1201=AXIS2_PLACEMENT_3D('',#1440,#1441,#1442);
#1202=AXIS2_PLACEMENT_3D('',#1443,#1444,#1445);
#1203=AXIS2_PLACEMENT_3D('',#1446,#1447,#1448);
#1204=AXIS2_PLACEMENT_3D('',#1449,#1450,#1451);
#1205=AXIS2_PLACEMENT_3D('',#1452,#1453,#1454);
#1206=CARTESIAN_POINT('',(-10.4,-3.5,3.5));
#1207=VECTOR('',#1455,10.0);
#1209=CARTESIAN_POINT('',(-10.7631225717284,2.2,3.5));
#1210=CARTESIAN_POINT('',(-13.9,4.29361702127659,3.5));
#1211=CARTESIAN_POINT('',(-17.0368774282716,2.19999999999999,3.5));
#1218=AXIS2_PLACEMENT_3D('',#1456,#1457,#1458);
#1219=CARTESIAN_POINT('',(-17.0368774282716,-3.50000000000001,-3.5));
#1220=CARTESIAN_POINT('',(-10.4,-3.5,-3.5));
#1221=VECTOR('',#1459,10.0);
#1222=CARTESIAN_POINT('',(-17.0368774282716,-3.50000000000001,-3.5));
#1223=VECTOR('',#1460,10.0);
#1224=AXIS2_PLACEMENT_3D('',#1461,#1462,#1463);
#1226=CARTESIAN_POINT('',(-10.4,2.2,-3.13687742827162));
#1227=CARTESIAN_POINT('',(-10.4,4.29361702127659,-5.55111512312578E-16));
#1228=CARTESIAN_POINT('',(-10.4,2.2,3.13687742827162));
#1235=CARTESIAN_POINT('',(-10.4,-3.5,-3.67430310225793E-46));
#1236=VECTOR('',#1464,10.0);
#1237=AXIS2_PLACEMENT_3D('',#1465,#1466,#1467);
#1238=AXIS2_PLACEMENT_3D('',#1468,#1469,#1470);
#1239=AXIS2_PLACEMENT_3D('',#1471,#1472,#1473);
#1240=DIRECTION('',(-0.499999999999999,-0.707106781186548,0.5));
#1241=CARTESIAN_POINT('',(-13.9,3.5,1.72563323017096E-31));
#1242=DIRECTION('',(-8.66308513020845E-16,1.0,5.88566893635015E-18));
#1243=DIRECTION('',(-0.707106781186548,-6.16734420573386E-16,0.707106781186548));
#1244=CARTESIAN_POINT('',(-13.9,3.5,1.72563323017096E-31));
#1245=DIRECTION('',(-8.66308513020845E-16,1.0,5.88566893635015E-18));
#1246=DIRECTION('',(-0.707106781186548,-6.16734420573386E-16,0.707106781186548));
#1247=DIRECTION('',(-0.500000000000001,0.707106781186547,0.5));
#1248=CARTESIAN_POINT('',(-13.9,2.19999999999999,1.72563323017096E-31));
#1249=DIRECTION('',(-8.60422844084496E-16,1.0,4.99957115124227E-31));
#1250=DIRECTION('',(-0.667420729419494,-5.7426404220807E-16,0.74468085106383));
#1251=CARTESIAN_POINT('',(-13.9,2.19999999999999,1.72563323017096E-31));
#1252=DIRECTION('',(-8.60422844084495E-16,1.0,-1.42844890035493E-31));
#1253=DIRECTION('',(0.74468085106383,6.40740415807603E-16,0.667420729419495));
#1254=CARTESIAN_POINT('',(-13.9,2.19999999999999,1.72563323017096E-31));
#1255=DIRECTION('',(-8.60422844084495E-16,1.0,-1.42844890035493E-31));
#1256=DIRECTION('',(0.667420729419495,5.7426404220807E-16,-0.74468085106383));
#1257=DIRECTION('',(1.83758917935762E-15,1.0,-0.0));
#1258=CARTESIAN_POINT('',(-13.9,-5.96482312222433,2.33397113860948E-15));
#1259=DIRECTION('',(1.83758917935762E-15,1.0,0.0));
#1260=DIRECTION('',(0.0,0.0,-1.0));
#1261=DIRECTION('',(-1.83758917935762E-15,-1.0,0.0));
#1262=CARTESIAN_POINT('',(-13.9,-3.5,2.62794473957977E-15));
#1263=DIRECTION('',(1.83273535236949E-15,1.0,4.59134457785838E-16));
#1264=DIRECTION('',(-0.875116243344655,1.38167545329492E-15,0.483912761388185));
#1265=CARTESIAN_POINT('',(-13.9,-3.5,2.62794473957977E-15));
#1266=DIRECTION('',(1.83273535236949E-15,1.0,4.59134457785838E-16));
#1267=DIRECTION('',(-0.875116243344655,1.38167545329492E-15,0.483912761388185));
#1268=DIRECTION('',(-0.499999999999988,0.866025403784446,6.12303176911174E-17));
#1269=CARTESIAN_POINT('',(-13.9,-6.26482312222434,2.33397113860948E-15));
#1270=DIRECTION('',(1.83758917935762E-15,1.0,0.0));
#1271=DIRECTION('',(0.0,0.0,-1.0));
#1272=DIRECTION('',(-0.499999999999992,-0.866025403784443,6.12303176911175E-17));
#1273=DIRECTION('',(-0.438164766235918,0.866025403784438,-0.240856051676979));
#1274=CARTESIAN_POINT('',(-16.44,-6.49999999999998,-2.53999999999999));
#1275=DIRECTION('',(-7.3366801003991E-16,1.0,1.40518669827379E-16));
#1276=DIRECTION('',(-0.876329532471835,-5.75245400224769E-16,-0.481712103353959));
#1277=DIRECTION('',(-0.438164766235917,-0.866025403784439,-0.24085605167698));
#1278=CARTESIAN_POINT('',(-16.44,-6.19999999999998,-2.53999999999999));
#1279=DIRECTION('',(7.33668010039911E-16,-1.0,-1.40518669827379E-16));
#1280=DIRECTION('',(-0.876329532471835,-5.7524540022477E-16,-0.481712103353959));
#1281=DIRECTION('',(-7.33668010039911E-16,1.0,1.40518669827379E-16));
#1282=CARTESIAN_POINT('',(-16.44,-6.19999999999998,-2.53999999999999));
#1283=DIRECTION('',(7.33668010039911E-16,-1.0,-1.40518669827379E-16));
#1284=DIRECTION('',(-0.876329532471835,-5.7524540022477E-16,-0.481712103353959));
#1285=DIRECTION('',(7.33668010039911E-16,-1.0,-1.40518669827379E-16));
#1286=CARTESIAN_POINT('',(-16.44,-3.50000000000001,-2.53999999999999));
#1287=DIRECTION('',(7.03762685591978E-16,-1.0,-8.61149734921438E-17));
#1288=DIRECTION('',(0.876329532471835,5.7524540022477E-16,0.481712103353959));
#1289=DIRECTION('',(0.438164766235917,0.866025403784439,0.240856051676979));
#1290=CARTESIAN_POINT('',(-11.36,-6.49999999999997,2.53999999999999));
#1291=DIRECTION('',(3.225070613765E-16,1.0,-1.40518669827379E-16));
#1292=DIRECTION('',(0.876329532471835,-2.14932918311886E-16,0.481712103353959));
#1293=DIRECTION('',(0.438164766235917,-0.866025403784439,0.24085605167698));
#1294=CARTESIAN_POINT('',(-11.36,-6.19999999999997,2.53999999999999));
#1295=DIRECTION('',(-3.225070613765E-16,-1.0,1.40518669827379E-16));
#1296=DIRECTION('',(0.876329532471835,-2.14932918311886E-16,0.481712103353959));
#1297=DIRECTION('',(3.225070613765E-16,1.0,-1.40518669827379E-16));
#1298=CARTESIAN_POINT('',(-11.36,-6.19999999999997,2.53999999999999));
#1299=DIRECTION('',(-3.225070613765E-16,-1.0,1.40518669827379E-16));
#1300=DIRECTION('',(0.876329532471835,-2.14932918311886E-16,0.481712103353959));
#1301=DIRECTION('',(-3.225070613765E-16,-1.0,1.40518669827379E-16));
#1302=CARTESIAN_POINT('',(-11.36,-3.5,2.53999999999999));
#1303=DIRECTION('',(1.13060891393696E-17,-1.0,-4.66753433339131E-16));
#1304=DIRECTION('',(-0.876329532471835,2.14932918311886E-16,-0.481712103353959));
#1305=CARTESIAN_POINT('',(-0.199999999999997,-2.03236153704277E-15,-2.29));
#1306=DIRECTION('',(0.0,-1.0,1.22460635382238E-16));
#1307=DIRECTION('',(0.0,-1.22460635382238E-16,-1.0));
#1308=CARTESIAN_POINT('',(-0.199999999999997,-1.75192668201745E-15,2.33397113860948E-15));
#1309=DIRECTION('',(1.0,0.0,0.0));
#1310=DIRECTION('',(0.0,-1.0,1.83697019872103E-16));
#1311=CARTESIAN_POINT('',(-0.199999999999997,-1.75192668201745E-15,2.33397113860948E-15));
#1312=DIRECTION('',(1.0,0.0,0.0));
#1313=DIRECTION('',(0.0,-1.0,1.83697019872103E-16));
#1314=CARTESIAN_POINT('',(-0.199999999999997,-1.47149182699213E-15,2.29));
#1315=DIRECTION('',(0.0,-1.0,1.22460635382238E-16));
#1316=DIRECTION('',(0.0,1.22460635382238E-16,1.0));
#1317=CARTESIAN_POINT('',(2.91433543964104E-15,-1.75192668201745E-15,2.33397113860948E-15));
#1318=DIRECTION('',(-1.0,0.0,0.0));
#1319=DIRECTION('',(0.0,-1.0,1.83697019872103E-16));
#1320=CARTESIAN_POINT('',(2.91433543964104E-15,-1.75192668201745E-15,2.33397113860948E-15));
#1321=DIRECTION('',(-1.0,0.0,0.0));
#1322=DIRECTION('',(0.0,-1.0,1.83697019872103E-16));
#1323=DIRECTION('',(1.0,-0.0,-0.0));
#1324=CARTESIAN_POINT('',(-8.0,-1.75192668201745E-15,2.33397113860948E-15));
#1325=DIRECTION('',(1.0,0.0,0.0));
#1326=DIRECTION('',(0.0,0.0,-1.0));
#1327=DIRECTION('',(-1.0,0.0,0.0));
#1328=CARTESIAN_POINT('',(-0.199999999999997,-1.75192668201745E-15,2.33397113860948E-15));
#1329=DIRECTION('',(1.0,0.0,0.0));
#1330=DIRECTION('',(0.0,-1.0,1.83697019872103E-16));
#1331=DIRECTION('',(-0.240856051676981,0.866025403784438,0.438164766235917));
#1332=CARTESIAN_POINT('',(-16.44,-6.49999999999998,2.53999999999999));
#1333=DIRECTION('',(-6.50618045043267E-17,1.0,5.28087535708204E-16));
#1334=DIRECTION('',(-0.481712103353961,-4.94119761967157E-16,0.876329532471834));
#1335=DIRECTION('',(-0.240856051676981,-0.866025403784439,0.438164766235916));
#1336=CARTESIAN_POINT('',(-16.44,-6.19999999999998,2.53999999999999));
#1337=DIRECTION('',(6.50618045043266E-17,-1.0,-5.28087535708204E-16));
#1338=DIRECTION('',(-0.481712103353961,-4.94119761967157E-16,0.876329532471834));
#1339=DIRECTION('',(-6.50618045043267E-17,1.0,5.28087535708204E-16));
#1340=CARTESIAN_POINT('',(-16.44,-6.19999999999998,2.53999999999999));
#1341=DIRECTION('',(6.50618045043266E-17,-1.0,-5.28087535708204E-16));
#1342=DIRECTION('',(-0.481712103353961,-4.94119761967157E-16,0.876329532471834));
#1343=DIRECTION('',(6.50618045043267E-17,-1.0,-5.28087535708204E-16));
#1344=CARTESIAN_POINT('',(-16.44,-3.50000000000001,2.53999999999999));
#1345=DIRECTION('',(8.98788160974019E-16,-1.0,-6.97940948106636E-17));
#1346=DIRECTION('',(0.481712103353961,4.94119761967157E-16,-0.876329532471834));
#1347=DIRECTION('',(0.240856051676981,0.866025403784438,-0.438164766235918));
#1348=CARTESIAN_POINT('',(-11.36,-6.49999999999998,-2.53999999999999));
#1349=DIRECTION('',(-3.46099144159085E-16,1.0,-5.28087535708204E-16));
#1350=DIRECTION('',(0.481712103353961,-2.96058556569495E-16,-0.876329532471834));
#1351=DIRECTION('',(0.240856051676982,-0.866025403784438,-0.438164766235917));
#1352=CARTESIAN_POINT('',(-11.36,-6.19999999999997,-2.53999999999999));
#1353=DIRECTION('',(3.46099144159085E-16,-1.0,5.28087535708204E-16));
#1354=DIRECTION('',(0.481712103353961,-2.96058556569495E-16,-0.876329532471834));
#1355=DIRECTION('',(-3.46099144159085E-16,1.0,-5.28087535708204E-16));
#1356=CARTESIAN_POINT('',(-11.36,-6.19999999999997,-2.53999999999999));
#1357=DIRECTION('',(3.46099144159085E-16,-1.0,5.28087535708204E-16));
#1358=DIRECTION('',(0.481712103353961,-2.96058556569495E-16,-0.876329532471834));
#1359=DIRECTION('',(3.46099144159085E-16,-1.0,5.28087535708204E-16));
#1360=CARTESIAN_POINT('',(-11.36,-3.5,-2.53999999999999));
#1361=DIRECTION('',(5.18149701127032E-16,-1.0,6.2266250164194E-16));
#1362=DIRECTION('',(-0.481712103353961,2.96058556569495E-16,0.876329532471834));
#1363=DIRECTION('',(1.0,-0.0,-0.0));
#1364=CARTESIAN_POINT('',(-10.4,-1.75192668201745E-15,2.33397113860948E-15));
#1365=DIRECTION('',(1.0,0.0,0.0));
#1366=DIRECTION('',(0.0,0.0,-1.0));
#1367=CARTESIAN_POINT('',(-10.4,-1.75192668201745E-15,2.33397113860948E-15));
#1368=DIRECTION('',(1.0,-0.0,8.84815433509681E-17));
#1369=DIRECTION('',(0.0,1.0,0.0));
#1370=CARTESIAN_POINT('',(-10.4,-1.75192668201745E-15,2.33397113860948E-15));
#1371=DIRECTION('',(1.0,0.0,0.0));
#1372=DIRECTION('',(0.0,0.0,-1.0));
#1373=DIRECTION('',(-1.0,0.0,0.0));
#1374=CARTESIAN_POINT('',(-8.0,-1.75192668201745E-15,2.33397113860948E-15));
#1375=DIRECTION('',(1.0,0.0,0.0));
#1376=DIRECTION('',(0.0,0.0,-1.0));
#1377=DIRECTION('',(-9.49685724950083E-16,1.0,0.0));
#1378=CARTESIAN_POINT('',(-10.4,-1.75192668201745E-15,2.33397113860948E-15));
#1379=DIRECTION('',(1.0,-0.0,3.14591479334357E-15));
#1380=DIRECTION('',(0.0,1.0,0.0));
#1381=DIRECTION('',(-9.49685724950083E-16,1.0,0.0));
#1382=CARTESIAN_POINT('',(-8.0,-1.75192668201745E-15,2.33397113860948E-15));
#1383=DIRECTION('',(1.0,0.0,0.0));
#1384=DIRECTION('',(0.0,0.0,-1.0));
#1385=CARTESIAN_POINT('',(-8.0,-1.75192668201745E-15,2.33397113860948E-15));
#1386=DIRECTION('',(1.0,0.0,0.0));
#1387=DIRECTION('',(0.0,0.0,-1.0));
#1388=CARTESIAN_POINT('',(-10.4,-1.75192668201745E-15,2.33397113860948E-15));
#1389=DIRECTION('',(1.0,0.0,0.0));
#1390=DIRECTION('',(0.0,0.0,-1.0));
#1391=CARTESIAN_POINT('',(-10.4,-1.75192668201745E-15,2.33397113860948E-15));
#1392=DIRECTION('',(1.0,0.0,0.0));
#1393=DIRECTION('',(0.0,0.0,-1.0));
#1394=DIRECTION('',(-8.60422844084495E-16,1.0,4.24221214785833E-47));
#1395=DIRECTION('',(8.60422844084495E-16,-1.0,-4.24221214785833E-47));
#1396=DIRECTION('',(-4.93038065763133E-32,-1.94469227433161E-62,-1.0));
#1397=DIRECTION('',(-8.60422844084495E-16,1.0,4.24221214785833E-47));
#1398=CARTESIAN_POINT('',(-13.9,-3.5,1.72563323017096E-31));
#1399=DIRECTION('',(8.60422844084496E-16,-1.0,-4.99957115124227E-31));
#1400=DIRECTION('',(-0.667420729419494,-5.7426404220807E-16,0.74468085106383));
#1401=DIRECTION('',(8.60422844084495E-16,-1.0,-4.24221214785833E-47));
#1402=CARTESIAN_POINT('',(-13.9,2.19999999999999,1.72563323017096E-31));
#1403=DIRECTION('',(-8.60422844084496E-16,1.0,4.99957115124227E-31));
#1404=DIRECTION('',(-0.667420729419494,-5.7426404220807E-16,0.74468085106383));
#1405=DIRECTION('',(-8.60422844084495E-16,1.0,4.24221214785833E-47));
#1406=DIRECTION('',(8.60422844084495E-16,-1.0,-4.24221214785833E-47));
#1407=CARTESIAN_POINT('',(-13.9,2.19999999999999,1.72563323017096E-31));
#1408=DIRECTION('',(-8.60422844084495E-16,1.0,-1.42844890035493E-31));
#1409=DIRECTION('',(-0.74468085106383,-6.40740415807603E-16,-0.667420729419495));
#1410=DIRECTION('',(-8.60422844084495E-16,1.0,4.24221214785833E-47));
#1411=CARTESIAN_POINT('',(-13.9,-3.5,1.72563323017096E-31));
#1412=DIRECTION('',(8.60422844084495E-16,-1.0,1.42844890035493E-31));
#1413=DIRECTION('',(-0.74468085106383,-6.40740415807603E-16,-0.667420729419495));
#1414=DIRECTION('',(8.60422844084495E-16,-1.0,-4.24221214785833E-47));
#1415=CARTESIAN_POINT('',(-13.9,-3.5,1.72563323017096E-31));
#1416=DIRECTION('',(8.60422844084495E-16,-1.0,1.42844890035493E-31));
#1417=DIRECTION('',(0.667420729419495,5.7426404220807E-16,-0.74468085106383));
#1418=DIRECTION('',(8.60422844084495E-16,-1.0,-4.24221214785833E-47));
#1419=CARTESIAN_POINT('',(-13.9,2.19999999999999,1.72563323017096E-31));
#1420=DIRECTION('',(-8.60422844084495E-16,1.0,-1.42844890035493E-31));
#1421=DIRECTION('',(0.667420729419495,5.7426404220807E-16,-0.74468085106383));
#1422=CARTESIAN_POINT('',(-11.36,-3.5,-2.53999999999999));
#1423=DIRECTION('',(5.18149701127032E-16,-1.0,6.2266250164194E-16));
#1424=DIRECTION('',(-0.481712103353961,2.96058556569495E-16,0.876329532471834));
#1425=CARTESIAN_POINT('',(-11.36,-6.49999999999998,-2.53999999999999));
#1426=DIRECTION('',(-3.46099144159085E-16,1.0,-5.28087535708204E-16));
#1427=DIRECTION('',(0.481712103353961,-2.96058556569495E-16,-0.876329532471834));
#1428=CARTESIAN_POINT('',(-16.44,-3.50000000000001,2.53999999999999));
#1429=DIRECTION('',(8.98788160974019E-16,-1.0,-6.97940948106636E-17));
#1430=DIRECTION('',(0.481712103353961,4.94119761967157E-16,-0.876329532471834));
#1431=CARTESIAN_POINT('',(-16.44,-6.49999999999998,2.53999999999999));
#1432=DIRECTION('',(-6.50618045043267E-17,1.0,5.28087535708204E-16));
#1433=DIRECTION('',(-0.481712103353961,-4.94119761967157E-16,0.876329532471834));
#1434=CARTESIAN_POINT('',(-8.0,-1.75192668201745E-15,2.33397113860948E-15));
#1435=DIRECTION('',(1.0,0.0,0.0));
#1436=DIRECTION('',(0.0,0.0,-1.0));
#1437=CARTESIAN_POINT('',(-0.199999999999997,-1.75192668201745E-15,2.33397113860948E-15));
#1438=DIRECTION('',(1.0,0.0,0.0));
#1439=DIRECTION('',(0.0,-1.0,1.83697019872103E-16));
#1440=CARTESIAN_POINT('',(2.91433543964104E-15,-1.75192668201745E-15,2.33397113860948E-15));
#1441=DIRECTION('',(-1.0,0.0,0.0));
#1442=DIRECTION('',(0.0,-1.0,1.83697019872103E-16));
#1443=CARTESIAN_POINT('',(-11.36,-3.5,2.53999999999999));
#1444=DIRECTION('',(1.13060891393696E-17,-1.0,-4.66753433339131E-16));
#1445=DIRECTION('',(-0.876329532471835,2.14932918311886E-16,-0.481712103353959));
#1446=CARTESIAN_POINT('',(-11.36,-6.49999999999997,2.53999999999999));
#1447=DIRECTION('',(3.225070613765E-16,1.0,-1.40518669827379E-16));
#1448=DIRECTION('',(0.876329532471835,-2.14932918311886E-16,0.481712103353959));
#1449=CARTESIAN_POINT('',(-16.44,-3.50000000000001,-2.53999999999999));
#1450=DIRECTION('',(7.03762685591978E-16,-1.0,-8.61149734921438E-17));
#1451=DIRECTION('',(0.876329532471835,5.7524540022477E-16,0.481712103353959));
#1452=CARTESIAN_POINT('',(-16.44,-6.49999999999998,-2.53999999999999));
#1453=DIRECTION('',(-7.3366801003991E-16,1.0,1.40518669827379E-16));
#1454=DIRECTION('',(-0.876329532471835,-5.75245400224769E-16,-0.481712103353959));
#1455=DIRECTION('',(-1.0,-8.60422844084495E-16,4.93038065763133E-32));
#1456=CARTESIAN_POINT('',(-13.9,3.5,1.72563323017096E-31));
#1457=DIRECTION('',(-8.66308513020845E-16,1.0,5.88566893635015E-18));
#1458=DIRECTION('',(-0.707106781186548,-6.16734420573386E-16,0.707106781186548));
#1459=DIRECTION('',(1.0,8.60422844084495E-16,-4.93038065763133E-32));
#1460=DIRECTION('',(-8.60422844084495E-16,1.0,4.24221214785833E-47));
#1461=CARTESIAN_POINT('',(-13.9,-3.5,1.72563323017096E-31));
#1462=DIRECTION('',(8.60422844084495E-16,-1.0,1.42844890035493E-31));
#1463=DIRECTION('',(0.74468085106383,6.40740415807603E-16,0.667420729419495));
#1464=DIRECTION('',(4.93038065763133E-32,1.94469227433161E-62,1.0));
#1465=CARTESIAN_POINT('',(-13.9,-3.5,2.62794473957977E-15));
#1466=DIRECTION('',(1.83273535236949E-15,1.0,4.59134457785838E-16));
#1467=DIRECTION('',(-0.875116243344655,1.38167545329492E-15,0.483912761388185));
#1468=CARTESIAN_POINT('',(-13.9,-5.96482312222433,2.33397113860948E-15));
#1469=DIRECTION('',(1.83758917935762E-15,1.0,0.0));
#1470=DIRECTION('',(0.0,0.0,-1.0));
#1471=CARTESIAN_POINT('',(-13.9,-6.26482312222434,2.33397113860948E-15));
#1472=DIRECTION('',(1.83758917935762E-15,1.0,0.0));
#1473=DIRECTION('',(0.0,0.0,-1.0));
ENDSEC;
END-ISO-10303-21;
