%TF.GenerationSoftware,KiCad,Pcbnew,8.0.5*%
%TF.CreationDate,2024-10-14T23:25:06+08:00*%
%TF.ProjectId,SiPm_Design_2,5369506d-5f44-4657-9369-676e5f322e6b,rev?*%
%TF.SameCoordinates,Original*%
%TF.FileFunction,Copper,L1,Top*%
%TF.FilePolarity,Positive*%
%FSLAX46Y46*%
G04 Gerber Fmt 4.6, Leading zero omitted, Abs format (unit mm)*
G04 Created by KiCad (PCBNEW 8.0.5) date 2024-10-14 23:25:06*
%MOMM*%
%LPD*%
G01*
G04 APERTURE LIST*
G04 Aperture macros list*
%AMRoundRect*
0 Rectangle with rounded corners*
0 $1 Rounding radius*
0 $2 $3 $4 $5 $6 $7 $8 $9 X,Y pos of 4 corners*
0 Add a 4 corners polygon primitive as box body*
4,1,4,$2,$3,$4,$5,$6,$7,$8,$9,$2,$3,0*
0 Add four circle primitives for the rounded corners*
1,1,$1+$1,$2,$3*
1,1,$1+$1,$4,$5*
1,1,$1+$1,$6,$7*
1,1,$1+$1,$8,$9*
0 Add four rect primitives between the rounded corners*
20,1,$1+$1,$2,$3,$4,$5,0*
20,1,$1+$1,$4,$5,$6,$7,0*
20,1,$1+$1,$6,$7,$8,$9,0*
20,1,$1+$1,$8,$9,$2,$3,0*%
G04 Aperture macros list end*
%TA.AperFunction,SMDPad,CuDef*%
%ADD10R,1.200000X0.600000*%
%TD*%
%TA.AperFunction,SMDPad,CuDef*%
%ADD11RoundRect,0.237500X0.250000X0.237500X-0.250000X0.237500X-0.250000X-0.237500X0.250000X-0.237500X0*%
%TD*%
%TA.AperFunction,SMDPad,CuDef*%
%ADD12RoundRect,0.237500X-0.237500X0.300000X-0.237500X-0.300000X0.237500X-0.300000X0.237500X0.300000X0*%
%TD*%
%TA.AperFunction,SMDPad,CuDef*%
%ADD13RoundRect,0.237500X-0.250000X-0.237500X0.250000X-0.237500X0.250000X0.237500X-0.250000X0.237500X0*%
%TD*%
%TA.AperFunction,SMDPad,CuDef*%
%ADD14RoundRect,0.237500X0.237500X-0.250000X0.237500X0.250000X-0.237500X0.250000X-0.237500X-0.250000X0*%
%TD*%
%TA.AperFunction,SMDPad,CuDef*%
%ADD15RoundRect,0.237500X0.237500X-0.300000X0.237500X0.300000X-0.237500X0.300000X-0.237500X-0.300000X0*%
%TD*%
%TA.AperFunction,SMDPad,CuDef*%
%ADD16RoundRect,0.237500X0.300000X0.237500X-0.300000X0.237500X-0.300000X-0.237500X0.300000X-0.237500X0*%
%TD*%
%TA.AperFunction,SMDPad,CuDef*%
%ADD17RoundRect,0.237500X-0.237500X0.250000X-0.237500X-0.250000X0.237500X-0.250000X0.237500X0.250000X0*%
%TD*%
%TA.AperFunction,SMDPad,CuDef*%
%ADD18R,1.100000X0.300000*%
%TD*%
%TA.AperFunction,SMDPad,CuDef*%
%ADD19R,3.100000X2.300000*%
%TD*%
%TA.AperFunction,ComponentPad*%
%ADD20C,0.700000*%
%TD*%
%TA.AperFunction,ViaPad*%
%ADD21C,0.800000*%
%TD*%
%TA.AperFunction,ViaPad*%
%ADD22C,0.600000*%
%TD*%
%TA.AperFunction,Conductor*%
%ADD23C,0.250000*%
%TD*%
%TA.AperFunction,Conductor*%
%ADD24C,0.200000*%
%TD*%
%TA.AperFunction,Conductor*%
%ADD25C,0.500000*%
%TD*%
%TA.AperFunction,Conductor*%
%ADD26C,0.400000*%
%TD*%
%TA.AperFunction,Conductor*%
%ADD27C,0.300000*%
%TD*%
G04 APERTURE END LIST*
D10*
%TO.P,IC1,1,OUT*%
%TO.N,/Vout*%
X168900750Y-110744000D03*
%TO.P,IC1,2,V-*%
%TO.N,-2V5*%
X168900750Y-109794000D03*
%TO.P,IC1,3,+IN*%
%TO.N,/IN_p*%
X168900750Y-108844000D03*
%TO.P,IC1,4,-IN*%
%TO.N,/IN_n*%
X166400750Y-108844000D03*
%TO.P,IC1,5,V+*%
%TO.N,+2V5*%
X166400750Y-110744000D03*
%TD*%
D11*
%TO.P,R6,1*%
%TO.N,Net-(J3-Pad2)*%
X179550500Y-110704000D03*
%TO.P,R6,2*%
%TO.N,Net-(R5-Pad1)*%
X177725500Y-110704000D03*
%TD*%
D12*
%TO.P,C1,1*%
%TO.N,+2V5*%
X178562000Y-105817500D03*
%TO.P,C1,2*%
%TO.N,Earth*%
X178562000Y-107542500D03*
%TD*%
D13*
%TO.P,R1,1*%
%TO.N,Net-(IC4-CATHODE_1)*%
X172061500Y-104704000D03*
%TO.P,R1,2*%
%TO.N,V_bias*%
X173886500Y-104704000D03*
%TD*%
D14*
%TO.P,R4,1*%
%TO.N,/IN_p*%
X168900750Y-106708500D03*
%TO.P,R4,2*%
%TO.N,Earth*%
X168900750Y-104883500D03*
%TD*%
D11*
%TO.P,R5,1*%
%TO.N,Net-(R5-Pad1)*%
X176050500Y-110704000D03*
%TO.P,R5,2*%
%TO.N,/Vout*%
X174225500Y-110704000D03*
%TD*%
D15*
%TO.P,Cf1,1*%
%TO.N,/IN_n*%
X166360750Y-106658500D03*
%TO.P,Cf1,2*%
%TO.N,/Vout*%
X166360750Y-104933500D03*
%TD*%
%TO.P,C6,1*%
%TO.N,Earth*%
X176022000Y-107542500D03*
%TO.P,C6,2*%
%TO.N,-2V5*%
X176022000Y-105817500D03*
%TD*%
D11*
%TO.P,R3,1*%
%TO.N,/IN_n*%
X164225250Y-108844000D03*
%TO.P,R3,2*%
%TO.N,Net-(IC4-ANODE)*%
X162400250Y-108844000D03*
%TD*%
D15*
%TO.P,C2,1*%
%TO.N,Net-(IC4-CATHODE_1)*%
X162296750Y-106658500D03*
%TO.P,C2,2*%
%TO.N,Earth*%
X162296750Y-104933500D03*
%TD*%
D14*
%TO.P,Rf1,1*%
%TO.N,/IN_n*%
X164328750Y-106708500D03*
%TO.P,Rf1,2*%
%TO.N,/Vout*%
X164328750Y-104883500D03*
%TD*%
D16*
%TO.P,C5,1*%
%TO.N,+2V5*%
X164175250Y-110876000D03*
%TO.P,C5,2*%
%TO.N,Earth*%
X162450250Y-110876000D03*
%TD*%
D15*
%TO.P,C3,1*%
%TO.N,Net-(IC4-CATHODE_1)*%
X160264750Y-106658500D03*
%TO.P,C3,2*%
%TO.N,Earth*%
X160264750Y-104933500D03*
%TD*%
D12*
%TO.P,C7,1*%
%TO.N,Earth*%
X171440750Y-107981500D03*
%TO.P,C7,2*%
%TO.N,-2V5*%
X171440750Y-109706500D03*
%TD*%
D17*
%TO.P,R2,1*%
%TO.N,Net-(IC4-ANODE)*%
X160264750Y-108947500D03*
%TO.P,R2,2*%
%TO.N,Earth*%
X160264750Y-110772500D03*
%TD*%
D18*
%TO.P,J3,1,1*%
%TO.N,Earth*%
X249363000Y-109954000D03*
%TO.P,J3,2,2*%
%TO.N,Net-(J3-Pad2)*%
X249363000Y-109454000D03*
%TO.P,J3,3,3*%
%TO.N,Earth*%
X249363000Y-108954000D03*
%TO.P,J3,4,4*%
%TO.N,Net-(J3-Pad2)*%
X249363000Y-108454000D03*
%TO.P,J3,5,5*%
%TO.N,Earth*%
X249363000Y-107954000D03*
%TO.P,J3,6,6*%
X249363000Y-107454000D03*
%TO.P,J3,7,7*%
%TO.N,-2V5*%
X249363000Y-106954000D03*
%TO.P,J3,8,8*%
%TO.N,+2V5*%
X249363000Y-106454000D03*
%TO.P,J3,9,9*%
%TO.N,V_bias*%
X249363000Y-105954000D03*
%TO.P,J3,10,10*%
%TO.N,Earth*%
X249363000Y-105454000D03*
D19*
%TO.P,J3,MP1,MP1*%
X251063000Y-111624000D03*
%TO.P,J3,MP2,MP2*%
X251063000Y-103784000D03*
%TD*%
D20*
%TO.P,IC4,A1,CATHODE_1*%
%TO.N,Net-(IC4-CATHODE_1)*%
X150288000Y-109054000D03*
%TO.P,IC4,A3,CATHODE_2*%
X150288000Y-106354000D03*
%TO.P,IC4,B2,ANODE*%
%TO.N,Net-(IC4-ANODE)*%
X151638000Y-107704000D03*
%TO.P,IC4,C1,CATHODE_3*%
%TO.N,Net-(IC4-CATHODE_1)*%
X152988000Y-109054000D03*
%TO.P,IC4,C3,CATHODE_4*%
X152988000Y-106354000D03*
%TD*%
D21*
%TO.N,Earth*%
X251888000Y-106954000D03*
%TO.N,Net-(J3-Pad2)*%
X251888000Y-108454000D03*
%TO.N,Net-(R5-Pad1)*%
X178138000Y-109204000D03*
D22*
%TO.N,Earth*%
X177546000Y-107542500D03*
D21*
X182888000Y-110954000D03*
X179875500Y-107704000D03*
X185388000Y-104454000D03*
X185388000Y-110954000D03*
D22*
X170932750Y-105796000D03*
X161280750Y-110772500D03*
D21*
X245388000Y-104454000D03*
X245388000Y-110954000D03*
X174388000Y-107954000D03*
D22*
X161280750Y-104780000D03*
X247888000Y-107704000D03*
D21*
X181638000Y-104954000D03*
D22*
X170020250Y-104883500D03*
D21*
X181138000Y-109704000D03*
X175888000Y-109204000D03*
D22*
%TO.N,Net-(IC4-ANODE)*%
X154686000Y-107704000D03*
%TO.N,+2V5*%
X165620980Y-111404000D03*
X177388000Y-105954000D03*
%TD*%
D23*
%TO.N,Earth*%
X251388000Y-107454000D02*
X251888000Y-106954000D01*
X249363000Y-107454000D02*
X251388000Y-107454000D01*
%TO.N,Net-(J3-Pad2)*%
X250888000Y-109454000D02*
X251888000Y-108454000D01*
X249363000Y-109454000D02*
X250888000Y-109454000D01*
X249363000Y-108454000D02*
X251888000Y-108454000D01*
%TO.N,Net-(R5-Pad1)*%
X177725500Y-109616500D02*
X177725500Y-110704000D01*
X178138000Y-109204000D02*
X177725500Y-109616500D01*
X177725500Y-110704000D02*
X176050500Y-110704000D01*
X177475500Y-110954000D02*
X177725500Y-110704000D01*
%TO.N,Net-(J3-Pad2)*%
X180138000Y-109704000D02*
X179550500Y-110291500D01*
X179550500Y-110291500D02*
X179550500Y-110704000D01*
D24*
X181388000Y-108454000D02*
X180138000Y-109704000D01*
X195888000Y-108454000D02*
X181388000Y-108454000D01*
%TO.N,Earth*%
X181138000Y-109704000D02*
X181888000Y-108954000D01*
X181888000Y-108954000D02*
X249363000Y-108954000D01*
D23*
%TO.N,Net-(J3-Pad2)*%
X181638000Y-110704000D02*
X179550500Y-110704000D01*
D24*
X182888000Y-109454000D02*
X181638000Y-110704000D01*
X195888000Y-109454000D02*
X182888000Y-109454000D01*
%TO.N,Earth*%
X183888000Y-109954000D02*
X249363000Y-109954000D01*
X182888000Y-110954000D02*
X183888000Y-109954000D01*
D25*
X160264750Y-104933500D02*
X161127250Y-104933500D01*
X174388000Y-107954000D02*
X175638000Y-109204000D01*
D24*
X247638000Y-107954000D02*
X247888000Y-107704000D01*
X180888000Y-107954000D02*
X247638000Y-107954000D01*
X247638000Y-107454000D02*
X180888000Y-107454000D01*
D25*
X175638000Y-109204000D02*
X175888000Y-109204000D01*
X162346750Y-110772500D02*
X162450250Y-110876000D01*
D24*
X182138000Y-105454000D02*
X181638000Y-104954000D01*
X247888000Y-107704000D02*
X247638000Y-107454000D01*
X248138000Y-107954000D02*
X247888000Y-107704000D01*
D25*
X160264750Y-110772500D02*
X162346750Y-110772500D01*
D24*
X248138000Y-107454000D02*
X247888000Y-107704000D01*
D25*
X171440750Y-106304000D02*
X171440750Y-107981500D01*
D24*
X180638000Y-107704000D02*
X180888000Y-107954000D01*
X179875500Y-107704000D02*
X180638000Y-107704000D01*
D25*
X170020250Y-104883500D02*
X171440750Y-106304000D01*
X161434250Y-104933500D02*
X161280750Y-104780000D01*
D24*
X249363000Y-105454000D02*
X182138000Y-105454000D01*
D25*
X162296750Y-104933500D02*
X161434250Y-104933500D01*
D24*
X179714000Y-107542500D02*
X178562000Y-107542500D01*
X249363000Y-107454000D02*
X248138000Y-107454000D01*
D25*
X168900750Y-104883500D02*
X170020250Y-104883500D01*
D24*
X249363000Y-107954000D02*
X248138000Y-107954000D01*
X180888000Y-107454000D02*
X180638000Y-107704000D01*
X176022000Y-107542500D02*
X178562000Y-107542500D01*
X179875500Y-107704000D02*
X179714000Y-107542500D01*
D25*
X161127250Y-104933500D02*
X161280750Y-104780000D01*
D24*
%TO.N,Net-(IC4-ANODE)*%
X161177250Y-108947500D02*
X161280750Y-108844000D01*
X158242000Y-108204000D02*
X158985500Y-108947500D01*
X161280750Y-108844000D02*
X162400250Y-108844000D01*
X154686000Y-107704000D02*
X157742000Y-107704000D01*
X158985500Y-108947500D02*
X160264750Y-108947500D01*
X157742000Y-107704000D02*
X158242000Y-108204000D01*
X160264750Y-108947500D02*
X161177250Y-108947500D01*
%TO.N,V_bias*%
X205738000Y-105954000D02*
X205888000Y-105954000D01*
X249363000Y-105954000D02*
X205738000Y-105954000D01*
X205738000Y-105954000D02*
X181138000Y-105954000D01*
X181138000Y-105954000D02*
X179638000Y-104454000D01*
X179638000Y-104454000D02*
X174200500Y-104454000D01*
%TO.N,Net-(IC4-CATHODE_1)*%
X155638000Y-106658500D02*
X155433500Y-106658500D01*
X163312750Y-104272000D02*
X163312750Y-105796000D01*
X162450250Y-106658500D02*
X162296750Y-106658500D01*
X155638000Y-106658500D02*
X162296750Y-106658500D01*
X155433500Y-106658500D02*
X155129000Y-106354000D01*
X163630750Y-103954000D02*
X163312750Y-104272000D01*
X155129000Y-106354000D02*
X152988000Y-106354000D01*
X163312750Y-105796000D02*
X162450250Y-106658500D01*
X171689750Y-104511750D02*
X171132000Y-103954000D01*
X171132000Y-103954000D02*
X163630750Y-103954000D01*
%TO.N,+2V5*%
X164307250Y-110744000D02*
X164175250Y-110876000D01*
X177524500Y-105817500D02*
X178562000Y-105817500D01*
X164175250Y-110991250D02*
X164175250Y-110876000D01*
X249363000Y-106454000D02*
X180388000Y-106454000D01*
X165620980Y-111404000D02*
X165740750Y-111404000D01*
X180388000Y-106454000D02*
X179751500Y-105817500D01*
X177388000Y-105954000D02*
X177524500Y-105817500D01*
D26*
X164175250Y-110991250D02*
X164588000Y-111404000D01*
D24*
X179751500Y-105817500D02*
X178562000Y-105817500D01*
D26*
X164588000Y-111404000D02*
X165620980Y-111404000D01*
X165740750Y-111404000D02*
X166400750Y-110744000D01*
%TO.N,-2V5*%
X173482000Y-108712000D02*
X173482000Y-106680000D01*
D24*
X249363000Y-106954000D02*
X180138000Y-106954000D01*
D26*
X168900750Y-109794000D02*
X171353250Y-109794000D01*
D24*
X176022000Y-105817500D02*
X176908500Y-106704000D01*
D26*
X172487500Y-109706500D02*
X173482000Y-108712000D01*
X174344500Y-105817500D02*
X173482000Y-106680000D01*
X176022000Y-105817500D02*
X174344500Y-105817500D01*
D24*
X180138000Y-106954000D02*
X179888000Y-106704000D01*
D26*
X171440750Y-109706500D02*
X172487500Y-109706500D01*
D24*
X176908500Y-106704000D02*
X179888000Y-106704000D01*
%TO.N,Net-(J3-Pad2)*%
X195888000Y-108454000D02*
X197638000Y-108454000D01*
X196438000Y-108454000D02*
X196724029Y-108454000D01*
X197638000Y-108454000D02*
X249363000Y-108454000D01*
%TO.N,Net-(R5-Pad1)*%
X176300500Y-110954000D02*
X176050500Y-110704000D01*
%TO.N,Net-(J3-Pad2)*%
X196438000Y-108454000D02*
X195888000Y-108454000D01*
X196724029Y-108454000D02*
X197638000Y-108454000D01*
X195724029Y-109454000D02*
X249363000Y-109454000D01*
%TO.N,/Vout*%
X167376750Y-105288000D02*
X167376750Y-110020000D01*
X166360750Y-104933500D02*
X167022250Y-104933500D01*
X167376750Y-110020000D02*
X168100750Y-110744000D01*
X164328750Y-104883500D02*
X166310750Y-104883500D01*
X174225500Y-110704000D02*
X174185500Y-110744000D01*
X168100750Y-110744000D02*
X168900750Y-110744000D01*
X167022250Y-104933500D02*
X167376750Y-105288000D01*
X166310750Y-104883500D02*
X166360750Y-104933500D01*
D27*
X174185500Y-110744000D02*
X168900750Y-110744000D01*
D24*
%TO.N,/IN_n*%
X164225250Y-108844000D02*
X166400750Y-108844000D01*
X166310750Y-106708500D02*
X166360750Y-106658500D01*
X166360750Y-108804000D02*
X166400750Y-108844000D01*
X164328750Y-106708500D02*
X166310750Y-106708500D01*
X166360750Y-106658500D02*
X166360750Y-108804000D01*
%TO.N,/IN_p*%
X168900750Y-108844000D02*
X168900750Y-106708500D01*
%TD*%
%TA.AperFunction,Conductor*%
%TO.N,Earth*%
G36*
X248691605Y-108824185D02*
G01*
X248693425Y-108825376D01*
X248715260Y-108839966D01*
X248725415Y-108846751D01*
X248724591Y-108847983D01*
X248768391Y-108883281D01*
X248790455Y-108949576D01*
X248773175Y-109017275D01*
X248722037Y-109064885D01*
X248715516Y-109067863D01*
X248715260Y-109068033D01*
X248715260Y-109068034D01*
X248693454Y-109082603D01*
X248626778Y-109103480D01*
X248624566Y-109103500D01*
X182841856Y-109103500D01*
X182763594Y-109124470D01*
X182763593Y-109124470D01*
X182752714Y-109127384D01*
X182752713Y-109127385D01*
X182672791Y-109173527D01*
X182672786Y-109173531D01*
X181554137Y-110292181D01*
X181492814Y-110325666D01*
X181466456Y-110328500D01*
X180355963Y-110328500D01*
X180288924Y-110308815D01*
X180243169Y-110256011D01*
X180239784Y-110247841D01*
X180236506Y-110239054D01*
X180231517Y-110169362D01*
X180264996Y-110108039D01*
X180438474Y-109934563D01*
X180478607Y-109865048D01*
X180498310Y-109839370D01*
X181496863Y-108840819D01*
X181558186Y-108807334D01*
X181584544Y-108804500D01*
X195841856Y-108804500D01*
X196391856Y-108804500D01*
X196677885Y-108804500D01*
X197591856Y-108804500D01*
X248624566Y-108804500D01*
X248691605Y-108824185D01*
G37*
%TD.AperFunction*%
%TA.AperFunction,Conductor*%
G36*
X254630539Y-101674185D02*
G01*
X254676294Y-101726989D01*
X254687500Y-101778500D01*
X254687500Y-113629500D01*
X254667815Y-113696539D01*
X254615011Y-113742294D01*
X254563500Y-113753500D01*
X246522412Y-113753500D01*
X246455373Y-113733815D01*
X246434731Y-113717181D01*
X245539394Y-112821844D01*
X249013000Y-112821844D01*
X249019401Y-112881372D01*
X249019403Y-112881379D01*
X249069645Y-113016086D01*
X249069649Y-113016093D01*
X249155809Y-113131187D01*
X249155812Y-113131190D01*
X249270906Y-113217350D01*
X249270913Y-113217354D01*
X249405620Y-113267596D01*
X249405627Y-113267598D01*
X249465155Y-113273999D01*
X249465172Y-113274000D01*
X250813000Y-113274000D01*
X251313000Y-113274000D01*
X252660828Y-113274000D01*
X252660844Y-113273999D01*
X252720372Y-113267598D01*
X252720379Y-113267596D01*
X252855086Y-113217354D01*
X252855093Y-113217350D01*
X252970187Y-113131190D01*
X252970190Y-113131187D01*
X253056350Y-113016093D01*
X253056354Y-113016086D01*
X253106596Y-112881379D01*
X253106598Y-112881372D01*
X253112999Y-112821844D01*
X253113000Y-112821827D01*
X253113000Y-111874000D01*
X251313000Y-111874000D01*
X251313000Y-113274000D01*
X250813000Y-113274000D01*
X250813000Y-111874000D01*
X249013000Y-111874000D01*
X249013000Y-112821844D01*
X245539394Y-112821844D01*
X244751574Y-112034024D01*
X244677883Y-112003500D01*
X244677882Y-112003500D01*
X166106084Y-112003500D01*
X166039045Y-111983815D01*
X165993290Y-111931011D01*
X165983346Y-111861853D01*
X166009792Y-111803942D01*
X166008653Y-111803068D01*
X166013598Y-111796622D01*
X166013601Y-111796621D01*
X166101841Y-111681625D01*
X166101842Y-111681621D01*
X166102218Y-111681132D01*
X166112898Y-111668953D01*
X166451035Y-111330816D01*
X166512357Y-111297334D01*
X166538715Y-111294500D01*
X167025426Y-111294500D01*
X167025427Y-111294499D01*
X167098490Y-111279966D01*
X167181351Y-111224601D01*
X167236716Y-111141740D01*
X167251250Y-111068674D01*
X167251250Y-110689544D01*
X167270935Y-110622505D01*
X167323739Y-110576750D01*
X167392897Y-110566806D01*
X167456453Y-110595831D01*
X167462931Y-110601863D01*
X167885538Y-111024470D01*
X167954835Y-111064478D01*
X167954837Y-111064480D01*
X167965459Y-111070613D01*
X167965461Y-111070613D01*
X167965462Y-111070614D01*
X167984976Y-111075842D01*
X168044636Y-111112206D01*
X168057247Y-111132086D01*
X168057998Y-111131585D01*
X168120148Y-111224600D01*
X168203010Y-111279966D01*
X168203014Y-111279967D01*
X168276071Y-111294499D01*
X168276074Y-111294500D01*
X168276076Y-111294500D01*
X169525426Y-111294500D01*
X169525427Y-111294499D01*
X169598490Y-111279966D01*
X169681351Y-111224601D01*
X169698050Y-111199609D01*
X169751662Y-111154804D01*
X169801152Y-111144500D01*
X173455806Y-111144500D01*
X173522845Y-111164185D01*
X173555072Y-111194189D01*
X173615014Y-111274260D01*
X173626884Y-111290116D01*
X173723428Y-111362388D01*
X173738938Y-111374000D01*
X173739222Y-111374212D01*
X173831594Y-111408665D01*
X173870700Y-111423251D01*
X173928809Y-111429499D01*
X173928826Y-111429500D01*
X174522174Y-111429500D01*
X174522190Y-111429499D01*
X174580299Y-111423251D01*
X174711778Y-111374212D01*
X174824116Y-111290116D01*
X174908212Y-111177778D01*
X174957251Y-111046299D01*
X174959810Y-111022500D01*
X174963499Y-110988190D01*
X174963500Y-110988173D01*
X174963500Y-110419826D01*
X174963499Y-110419809D01*
X175312500Y-110419809D01*
X175312500Y-110988190D01*
X175318748Y-111046299D01*
X175355216Y-111144070D01*
X175361219Y-111160167D01*
X175367789Y-111177780D01*
X175391333Y-111209230D01*
X175451884Y-111290116D01*
X175513582Y-111336303D01*
X175563938Y-111374000D01*
X175564222Y-111374212D01*
X175656594Y-111408665D01*
X175695700Y-111423251D01*
X175753809Y-111429499D01*
X175753826Y-111429500D01*
X176347174Y-111429500D01*
X176347190Y-111429499D01*
X176405299Y-111423251D01*
X176536778Y-111374212D01*
X176649116Y-111290116D01*
X176733212Y-111177778D01*
X176739781Y-111160165D01*
X176781651Y-111104233D01*
X176847116Y-111079816D01*
X176855962Y-111079500D01*
X176920038Y-111079500D01*
X176987077Y-111099185D01*
X177032832Y-111151989D01*
X177036213Y-111160152D01*
X177037718Y-111164185D01*
X177042788Y-111177779D01*
X177084836Y-111233947D01*
X177126884Y-111290116D01*
X177188582Y-111336303D01*
X177238938Y-111374000D01*
X177239222Y-111374212D01*
X177331594Y-111408665D01*
X177370700Y-111423251D01*
X177428809Y-111429499D01*
X177428826Y-111429500D01*
X178022174Y-111429500D01*
X178022190Y-111429499D01*
X178080299Y-111423251D01*
X178211778Y-111374212D01*
X178324116Y-111290116D01*
X178408212Y-111177778D01*
X178457251Y-111046299D01*
X178459810Y-111022500D01*
X178463499Y-110988190D01*
X178463500Y-110988173D01*
X178463500Y-110419826D01*
X178463499Y-110419809D01*
X178812500Y-110419809D01*
X178812500Y-110988190D01*
X178818748Y-111046299D01*
X178855216Y-111144070D01*
X178861219Y-111160167D01*
X178867789Y-111177780D01*
X178891333Y-111209230D01*
X178951884Y-111290116D01*
X179013582Y-111336303D01*
X179063938Y-111374000D01*
X179064222Y-111374212D01*
X179156594Y-111408665D01*
X179195700Y-111423251D01*
X179253809Y-111429499D01*
X179253826Y-111429500D01*
X179847174Y-111429500D01*
X179847190Y-111429499D01*
X179905299Y-111423251D01*
X180036778Y-111374212D01*
X180149116Y-111290116D01*
X180233212Y-111177778D01*
X180239781Y-111160165D01*
X180281651Y-111104233D01*
X180347116Y-111079816D01*
X180355962Y-111079500D01*
X181687432Y-111079500D01*
X181687435Y-111079500D01*
X181782938Y-111053910D01*
X181868562Y-111004475D01*
X181938475Y-110934562D01*
X181978608Y-110865047D01*
X181998311Y-110839369D01*
X182996863Y-109840819D01*
X183058186Y-109807334D01*
X183084544Y-109804500D01*
X195677885Y-109804500D01*
X248624566Y-109804500D01*
X248691605Y-109824185D01*
X248693425Y-109825376D01*
X248715260Y-109839966D01*
X248722560Y-109841418D01*
X248788323Y-109854500D01*
X249389000Y-109854500D01*
X249456039Y-109874185D01*
X249501794Y-109926989D01*
X249513000Y-109978500D01*
X249513000Y-109980000D01*
X249493315Y-110047039D01*
X249440511Y-110092794D01*
X249389000Y-110104000D01*
X248313000Y-110104000D01*
X248313000Y-110151844D01*
X248319401Y-110211372D01*
X248319403Y-110211379D01*
X248369645Y-110346086D01*
X248369649Y-110346093D01*
X248455809Y-110461187D01*
X248455812Y-110461190D01*
X248570906Y-110547350D01*
X248570913Y-110547354D01*
X248705620Y-110597596D01*
X248705627Y-110597598D01*
X248765155Y-110603999D01*
X248765172Y-110604000D01*
X248889000Y-110604000D01*
X248956039Y-110623685D01*
X249001794Y-110676489D01*
X249013000Y-110728000D01*
X249013000Y-111374000D01*
X253113000Y-111374000D01*
X253113000Y-110426172D01*
X253112999Y-110426155D01*
X253106598Y-110366627D01*
X253106596Y-110366620D01*
X253056354Y-110231913D01*
X253056350Y-110231906D01*
X252970190Y-110116812D01*
X252970187Y-110116809D01*
X252855093Y-110030649D01*
X252855086Y-110030645D01*
X252720379Y-109980403D01*
X252720372Y-109980401D01*
X252660844Y-109974000D01*
X251197763Y-109974000D01*
X251130724Y-109954315D01*
X251084969Y-109901511D01*
X251075025Y-109832353D01*
X251104050Y-109768797D01*
X251112978Y-109760385D01*
X251112815Y-109760222D01*
X251188475Y-109684562D01*
X251403714Y-109469323D01*
X251732217Y-109140818D01*
X251793540Y-109107334D01*
X251819898Y-109104500D01*
X251966985Y-109104500D01*
X252120365Y-109066696D01*
X252144559Y-109053998D01*
X252260240Y-108993283D01*
X252378483Y-108888530D01*
X252468220Y-108758523D01*
X252524237Y-108610818D01*
X252543278Y-108454000D01*
X252540565Y-108431652D01*
X252524237Y-108297181D01*
X252477342Y-108173530D01*
X252468220Y-108149477D01*
X252378483Y-108019470D01*
X252260240Y-107914717D01*
X252260238Y-107914716D01*
X252260237Y-107914715D01*
X252120365Y-107841303D01*
X251966986Y-107803500D01*
X251966985Y-107803500D01*
X251809015Y-107803500D01*
X251809014Y-107803500D01*
X251655634Y-107841303D01*
X251515762Y-107914715D01*
X251397516Y-108019470D01*
X251395089Y-108022987D01*
X251393742Y-108024938D01*
X251339463Y-108068929D01*
X251291692Y-108078500D01*
X250060673Y-108078500D01*
X250013222Y-108069062D01*
X250010738Y-108068033D01*
X249937676Y-108053500D01*
X249937674Y-108053500D01*
X248788326Y-108053500D01*
X248788324Y-108053500D01*
X248715261Y-108068033D01*
X248713721Y-108069062D01*
X248693454Y-108082603D01*
X248626778Y-108103480D01*
X248624566Y-108103500D01*
X181341856Y-108103500D01*
X181252712Y-108127386D01*
X181252709Y-108127387D01*
X181172791Y-108173527D01*
X181172786Y-108173531D01*
X180002631Y-109343685D01*
X179976952Y-109363390D01*
X179907440Y-109403524D01*
X179907434Y-109403528D01*
X179368782Y-109942181D01*
X179307459Y-109975666D01*
X179281101Y-109978500D01*
X179253809Y-109978500D01*
X179195700Y-109984748D01*
X179064219Y-110033789D01*
X178951884Y-110117884D01*
X178867789Y-110230219D01*
X178818748Y-110361700D01*
X178812500Y-110419809D01*
X178463499Y-110419809D01*
X178457251Y-110361700D01*
X178441237Y-110318766D01*
X178408212Y-110230222D01*
X178324116Y-110117884D01*
X178242586Y-110056850D01*
X178200716Y-110000918D01*
X178195732Y-109931226D01*
X178229217Y-109869903D01*
X178287224Y-109837188D01*
X178370365Y-109816696D01*
X178378116Y-109812628D01*
X178510240Y-109743283D01*
X178628483Y-109638530D01*
X178718220Y-109508523D01*
X178774237Y-109360818D01*
X178793278Y-109204000D01*
X178789798Y-109175335D01*
X178774237Y-109047181D01*
X178725434Y-108918500D01*
X178718220Y-108899477D01*
X178631913Y-108774439D01*
X178610030Y-108708084D01*
X178627496Y-108640433D01*
X178678763Y-108592963D01*
X178733963Y-108579999D01*
X178848640Y-108579999D01*
X178848654Y-108579998D01*
X178949652Y-108569680D01*
X179113300Y-108515453D01*
X179113311Y-108515448D01*
X179260034Y-108424947D01*
X179260038Y-108424944D01*
X179381944Y-108303038D01*
X179381947Y-108303034D01*
X179472448Y-108156311D01*
X179472453Y-108156300D01*
X179526680Y-107992652D01*
X179536999Y-107891654D01*
X179537000Y-107891641D01*
X179537000Y-107792500D01*
X177587001Y-107792500D01*
X177587001Y-107891654D01*
X177597319Y-107992652D01*
X177651546Y-108156300D01*
X177651551Y-108156311D01*
X177742052Y-108303034D01*
X177742055Y-108303038D01*
X177868242Y-108429225D01*
X177901727Y-108490548D01*
X177896743Y-108560240D01*
X177854871Y-108616173D01*
X177838189Y-108626701D01*
X177765763Y-108664714D01*
X177647516Y-108769471D01*
X177557781Y-108899475D01*
X177557780Y-108899476D01*
X177501763Y-109047181D01*
X177482722Y-109204000D01*
X177482722Y-109204001D01*
X177488896Y-109254855D01*
X177477435Y-109323778D01*
X177453483Y-109357480D01*
X177425025Y-109385938D01*
X177375591Y-109471559D01*
X177375591Y-109471560D01*
X177375590Y-109471562D01*
X177350000Y-109567065D01*
X177350000Y-109567067D01*
X177350000Y-109906375D01*
X177330315Y-109973414D01*
X177277511Y-110019169D01*
X177269335Y-110022556D01*
X177239221Y-110033788D01*
X177126884Y-110117884D01*
X177042788Y-110230220D01*
X177042157Y-110231913D01*
X177036218Y-110247834D01*
X176994349Y-110303767D01*
X176928884Y-110328184D01*
X176920038Y-110328500D01*
X176855962Y-110328500D01*
X176788923Y-110308815D01*
X176743168Y-110256011D01*
X176739786Y-110247847D01*
X176733212Y-110230222D01*
X176716601Y-110208033D01*
X176694512Y-110178525D01*
X176649116Y-110117884D01*
X176554479Y-110047039D01*
X176536780Y-110033789D01*
X176536778Y-110033788D01*
X176497583Y-110019169D01*
X176405299Y-109984748D01*
X176347190Y-109978500D01*
X176347174Y-109978500D01*
X175753826Y-109978500D01*
X175753809Y-109978500D01*
X175695700Y-109984748D01*
X175564219Y-110033789D01*
X175451884Y-110117884D01*
X175367789Y-110230219D01*
X175318748Y-110361700D01*
X175312500Y-110419809D01*
X174963499Y-110419809D01*
X174957251Y-110361700D01*
X174941237Y-110318766D01*
X174908212Y-110230222D01*
X174824116Y-110117884D01*
X174729479Y-110047039D01*
X174711780Y-110033789D01*
X174711778Y-110033788D01*
X174672583Y-110019169D01*
X174580299Y-109984748D01*
X174522190Y-109978500D01*
X174522174Y-109978500D01*
X173928826Y-109978500D01*
X173928809Y-109978500D01*
X173870700Y-109984748D01*
X173739219Y-110033789D01*
X173626884Y-110117884D01*
X173542787Y-110230222D01*
X173542785Y-110230226D01*
X173530625Y-110262832D01*
X173488755Y-110318766D01*
X173423291Y-110343184D01*
X173414443Y-110343500D01*
X172747958Y-110343500D01*
X172680919Y-110323815D01*
X172635164Y-110271011D01*
X172625220Y-110201853D01*
X172654245Y-110138297D01*
X172685955Y-110112114D01*
X172764114Y-110066989D01*
X173842489Y-108988614D01*
X173895245Y-108897238D01*
X173901799Y-108885886D01*
X173932500Y-108771309D01*
X173932500Y-107891654D01*
X175047001Y-107891654D01*
X175057319Y-107992652D01*
X175111546Y-108156300D01*
X175111551Y-108156311D01*
X175202052Y-108303034D01*
X175202055Y-108303038D01*
X175323961Y-108424944D01*
X175323965Y-108424947D01*
X175470688Y-108515448D01*
X175470699Y-108515453D01*
X175634347Y-108569680D01*
X175735352Y-108579999D01*
X175772000Y-108579999D01*
X176272000Y-108579999D01*
X176308640Y-108579999D01*
X176308654Y-108579998D01*
X176409652Y-108569680D01*
X176573300Y-108515453D01*
X176573311Y-108515448D01*
X176720034Y-108424947D01*
X176720038Y-108424944D01*
X176841944Y-108303038D01*
X176841947Y-108303034D01*
X176932448Y-108156311D01*
X176932453Y-108156300D01*
X176986680Y-107992652D01*
X176996999Y-107891654D01*
X176997000Y-107891641D01*
X176997000Y-107792500D01*
X176272000Y-107792500D01*
X176272000Y-108579999D01*
X175772000Y-108579999D01*
X175772000Y-107792500D01*
X175047001Y-107792500D01*
X175047001Y-107891654D01*
X173932500Y-107891654D01*
X173932500Y-107651835D01*
X248313000Y-107651835D01*
X248317183Y-107690748D01*
X248317183Y-107717252D01*
X248313000Y-107756164D01*
X248313000Y-107804000D01*
X250413000Y-107804000D01*
X250413000Y-107756179D01*
X250412999Y-107756168D01*
X250408815Y-107717258D01*
X250408815Y-107690742D01*
X250412999Y-107651831D01*
X250413000Y-107651821D01*
X250413000Y-107604000D01*
X248313000Y-107604000D01*
X248313000Y-107651835D01*
X173932500Y-107651835D01*
X173932500Y-106917965D01*
X173952185Y-106850926D01*
X173968819Y-106830284D01*
X174494784Y-106304319D01*
X174556107Y-106270834D01*
X174582465Y-106268000D01*
X175233699Y-106268000D01*
X175300738Y-106287685D01*
X175346493Y-106340489D01*
X175349880Y-106348665D01*
X175351785Y-106353772D01*
X175351790Y-106353782D01*
X175418538Y-106442945D01*
X175442956Y-106508409D01*
X175428105Y-106576682D01*
X175384370Y-106622794D01*
X175323962Y-106660054D01*
X175202055Y-106781961D01*
X175202052Y-106781965D01*
X175111551Y-106928688D01*
X175111546Y-106928699D01*
X175057319Y-107092347D01*
X175047000Y-107193345D01*
X175047000Y-107292500D01*
X176996999Y-107292500D01*
X176996999Y-107193360D01*
X176996998Y-107193348D01*
X176996769Y-107191103D01*
X176996859Y-107190617D01*
X176996838Y-107190198D01*
X176996938Y-107190192D01*
X177009538Y-107122410D01*
X177057418Y-107071525D01*
X177120127Y-107054500D01*
X177463872Y-107054500D01*
X177530911Y-107074185D01*
X177576666Y-107126989D01*
X177587078Y-107190191D01*
X177587161Y-107190196D01*
X177587141Y-107190577D01*
X177587229Y-107191108D01*
X177587000Y-107193338D01*
X177587000Y-107292500D01*
X179536999Y-107292500D01*
X179536999Y-107193360D01*
X179536998Y-107193348D01*
X179536769Y-107191103D01*
X179536859Y-107190617D01*
X179536838Y-107190198D01*
X179536938Y-107190192D01*
X179549538Y-107122410D01*
X179597418Y-107071525D01*
X179660127Y-107054500D01*
X179691455Y-107054500D01*
X179758494Y-107074185D01*
X179779136Y-107090818D01*
X179834724Y-107146405D01*
X179857531Y-107169212D01*
X179922788Y-107234469D01*
X179922791Y-107234470D01*
X179922794Y-107234473D01*
X180002706Y-107280611D01*
X180002707Y-107280611D01*
X180002712Y-107280614D01*
X180091856Y-107304500D01*
X248624566Y-107304500D01*
X248691605Y-107324185D01*
X248693425Y-107325376D01*
X248715260Y-107339966D01*
X248733526Y-107343599D01*
X248788323Y-107354500D01*
X248788326Y-107354500D01*
X249937676Y-107354500D01*
X250010740Y-107339966D01*
X250033294Y-107324897D01*
X250099972Y-107304020D01*
X250102183Y-107304000D01*
X250413000Y-107304000D01*
X250413000Y-107256172D01*
X250412999Y-107256155D01*
X250406598Y-107196627D01*
X250406596Y-107196620D01*
X250356354Y-107061913D01*
X250356350Y-107061906D01*
X250270191Y-106946814D01*
X250270185Y-106946807D01*
X250213188Y-106904139D01*
X250171318Y-106848205D01*
X250163500Y-106804873D01*
X250163500Y-106779326D01*
X250153328Y-106728188D01*
X250153328Y-106679811D01*
X250163500Y-106628674D01*
X250163500Y-106279326D01*
X250153328Y-106228188D01*
X250153328Y-106179811D01*
X250163500Y-106128674D01*
X250163500Y-106103125D01*
X250183185Y-106036086D01*
X250213189Y-106003858D01*
X250270189Y-105961187D01*
X250270190Y-105961186D01*
X250356352Y-105846088D01*
X250356354Y-105846086D01*
X250406596Y-105711379D01*
X250406598Y-105711372D01*
X250412999Y-105651844D01*
X250413000Y-105651827D01*
X250413000Y-105558000D01*
X250432685Y-105490961D01*
X250485489Y-105445206D01*
X250537000Y-105434000D01*
X250813000Y-105434000D01*
X251313000Y-105434000D01*
X252660828Y-105434000D01*
X252660844Y-105433999D01*
X252720372Y-105427598D01*
X252720379Y-105427596D01*
X252855086Y-105377354D01*
X252855093Y-105377350D01*
X252970187Y-105291190D01*
X252970190Y-105291187D01*
X253056350Y-105176093D01*
X253056354Y-105176086D01*
X253106596Y-105041379D01*
X253106598Y-105041372D01*
X253112999Y-104981844D01*
X253113000Y-104981827D01*
X253113000Y-104034000D01*
X251313000Y-104034000D01*
X251313000Y-105434000D01*
X250813000Y-105434000D01*
X250813000Y-104034000D01*
X249013000Y-104034000D01*
X249013000Y-104680000D01*
X248993315Y-104747039D01*
X248940511Y-104792794D01*
X248889000Y-104804000D01*
X248765155Y-104804000D01*
X248705627Y-104810401D01*
X248705620Y-104810403D01*
X248570913Y-104860645D01*
X248570906Y-104860649D01*
X248455812Y-104946809D01*
X248455809Y-104946812D01*
X248369649Y-105061906D01*
X248369645Y-105061913D01*
X248319403Y-105196620D01*
X248319401Y-105196627D01*
X248313000Y-105256155D01*
X248313000Y-105304000D01*
X249389000Y-105304000D01*
X249456039Y-105323685D01*
X249501794Y-105376489D01*
X249513000Y-105428000D01*
X249513000Y-105429500D01*
X249493315Y-105496539D01*
X249440511Y-105542294D01*
X249389000Y-105553500D01*
X248788324Y-105553500D01*
X248715261Y-105568033D01*
X248715260Y-105568034D01*
X248693454Y-105582603D01*
X248626778Y-105603480D01*
X248624566Y-105603500D01*
X181334543Y-105603500D01*
X181267504Y-105583815D01*
X181246862Y-105567181D01*
X180556670Y-104876989D01*
X179853212Y-104173530D01*
X179853211Y-104173529D01*
X179853208Y-104173527D01*
X179773290Y-104127387D01*
X179773289Y-104127386D01*
X179773288Y-104127386D01*
X179684144Y-104103500D01*
X179684143Y-104103500D01*
X174507173Y-104103500D01*
X174440134Y-104083815D01*
X174432862Y-104078767D01*
X174372780Y-104033789D01*
X174372778Y-104033788D01*
X174338613Y-104021045D01*
X174241299Y-103984748D01*
X174183190Y-103978500D01*
X174183174Y-103978500D01*
X173589826Y-103978500D01*
X173589809Y-103978500D01*
X173531700Y-103984748D01*
X173400219Y-104033789D01*
X173287884Y-104117884D01*
X173203789Y-104230219D01*
X173154748Y-104361700D01*
X173148500Y-104419809D01*
X173148500Y-104988190D01*
X173154748Y-105046299D01*
X173203789Y-105177780D01*
X173217893Y-105196620D01*
X173287884Y-105290116D01*
X173364292Y-105347315D01*
X173394301Y-105369780D01*
X173400222Y-105374212D01*
X173492594Y-105408665D01*
X173531700Y-105423251D01*
X173589809Y-105429499D01*
X173589826Y-105429500D01*
X173796035Y-105429500D01*
X173863074Y-105449185D01*
X173908829Y-105501989D01*
X173918773Y-105571147D01*
X173889748Y-105634703D01*
X173883716Y-105641181D01*
X173121513Y-106403383D01*
X173121511Y-106403386D01*
X173062200Y-106506113D01*
X173062199Y-106506116D01*
X173055712Y-106530324D01*
X173055713Y-106530325D01*
X173031500Y-106620691D01*
X173031500Y-108474035D01*
X173011815Y-108541074D01*
X172995181Y-108561716D01*
X172337216Y-109219681D01*
X172275893Y-109253166D01*
X172249535Y-109256000D01*
X172229051Y-109256000D01*
X172162012Y-109236315D01*
X172116257Y-109183511D01*
X172112870Y-109175335D01*
X172110964Y-109170227D01*
X172110961Y-109170221D01*
X172110960Y-109170219D01*
X172044210Y-109081052D01*
X172019793Y-109015590D01*
X172034644Y-108947317D01*
X172078381Y-108901204D01*
X172138787Y-108863945D01*
X172260694Y-108742038D01*
X172260697Y-108742034D01*
X172351198Y-108595311D01*
X172351203Y-108595300D01*
X172405430Y-108431652D01*
X172415749Y-108330654D01*
X172415750Y-108330641D01*
X172415750Y-108231500D01*
X170465751Y-108231500D01*
X170465751Y-108330654D01*
X170476069Y-108431652D01*
X170530296Y-108595300D01*
X170530301Y-108595311D01*
X170620802Y-108742034D01*
X170620805Y-108742038D01*
X170742710Y-108863943D01*
X170803119Y-108901204D01*
X170849843Y-108953152D01*
X170861065Y-109022115D01*
X170837289Y-109081054D01*
X170770539Y-109170219D01*
X170770538Y-109170222D01*
X170740741Y-109250113D01*
X170735996Y-109262834D01*
X170694124Y-109318767D01*
X170628660Y-109343184D01*
X170619814Y-109343500D01*
X169867570Y-109343500D01*
X169800531Y-109323815D01*
X169754776Y-109271011D01*
X169744832Y-109201853D01*
X169745952Y-109195310D01*
X169750943Y-109170219D01*
X169751250Y-109168674D01*
X169751250Y-108519326D01*
X169751250Y-108519323D01*
X169751249Y-108519321D01*
X169736717Y-108446264D01*
X169736716Y-108446260D01*
X169722473Y-108424944D01*
X169681351Y-108363399D01*
X169598490Y-108308034D01*
X169598489Y-108308033D01*
X169598485Y-108308032D01*
X169525427Y-108293500D01*
X169525424Y-108293500D01*
X169375250Y-108293500D01*
X169308211Y-108273815D01*
X169262456Y-108221011D01*
X169251250Y-108169500D01*
X169251250Y-107632345D01*
X170465750Y-107632345D01*
X170465750Y-107731500D01*
X171190750Y-107731500D01*
X171690750Y-107731500D01*
X172415749Y-107731500D01*
X172415749Y-107632360D01*
X172415748Y-107632345D01*
X172405430Y-107531347D01*
X172351203Y-107367699D01*
X172351198Y-107367688D01*
X172260697Y-107220965D01*
X172260694Y-107220961D01*
X172138788Y-107099055D01*
X172138784Y-107099052D01*
X171992061Y-107008551D01*
X171992050Y-107008546D01*
X171828402Y-106954319D01*
X171727404Y-106944000D01*
X171690750Y-106944000D01*
X171690750Y-107731500D01*
X171190750Y-107731500D01*
X171190750Y-106944000D01*
X171154111Y-106944000D01*
X171154093Y-106944001D01*
X171053097Y-106954319D01*
X170889449Y-107008546D01*
X170889438Y-107008551D01*
X170742715Y-107099052D01*
X170742711Y-107099055D01*
X170620805Y-107220961D01*
X170620802Y-107220965D01*
X170530301Y-107367688D01*
X170530296Y-107367699D01*
X170476069Y-107531347D01*
X170465750Y-107632345D01*
X169251250Y-107632345D01*
X169251250Y-107523287D01*
X169270935Y-107456248D01*
X169323739Y-107410493D01*
X169331918Y-107407105D01*
X169374523Y-107391214D01*
X169374524Y-107391213D01*
X169374528Y-107391212D01*
X169486866Y-107307116D01*
X169570962Y-107194778D01*
X169620001Y-107063299D01*
X169623515Y-107030614D01*
X169626249Y-107005190D01*
X169626250Y-107005173D01*
X169626250Y-106411826D01*
X169626249Y-106411809D01*
X169620001Y-106353700D01*
X169602838Y-106307684D01*
X169570962Y-106222222D01*
X169539209Y-106179806D01*
X169486865Y-106109883D01*
X169385293Y-106033846D01*
X169343423Y-105977912D01*
X169338439Y-105908221D01*
X169371925Y-105846898D01*
X169420603Y-105816873D01*
X169452053Y-105806451D01*
X169452061Y-105806448D01*
X169598784Y-105715947D01*
X169598788Y-105715944D01*
X169720694Y-105594038D01*
X169720697Y-105594034D01*
X169811198Y-105447311D01*
X169811203Y-105447300D01*
X169865430Y-105283652D01*
X169875749Y-105182654D01*
X169875750Y-105182641D01*
X169875750Y-105133500D01*
X167925751Y-105133500D01*
X167891999Y-105167252D01*
X167830675Y-105200736D01*
X167760984Y-105195751D01*
X167705050Y-105153880D01*
X167696931Y-105141570D01*
X167672187Y-105098712D01*
X167672186Y-105098710D01*
X167657222Y-105072791D01*
X167657218Y-105072786D01*
X167237463Y-104653031D01*
X167237458Y-104653027D01*
X167157539Y-104606886D01*
X167150190Y-104603842D01*
X167095787Y-104560001D01*
X167081462Y-104532616D01*
X167058791Y-104471835D01*
X167053805Y-104402143D01*
X167087290Y-104340820D01*
X167148612Y-104307334D01*
X167174972Y-104304500D01*
X167823613Y-104304500D01*
X167890652Y-104324185D01*
X167936407Y-104376989D01*
X167946351Y-104446147D01*
X167941319Y-104467503D01*
X167936069Y-104483345D01*
X167936069Y-104483346D01*
X167925750Y-104584345D01*
X167925750Y-104633500D01*
X169875749Y-104633500D01*
X169875749Y-104584360D01*
X169875748Y-104584345D01*
X169865430Y-104483346D01*
X169860181Y-104467503D01*
X169857780Y-104397674D01*
X169893512Y-104337633D01*
X169956032Y-104306441D01*
X169977887Y-104304500D01*
X170935456Y-104304500D01*
X171002495Y-104324185D01*
X171023137Y-104340819D01*
X171287181Y-104604863D01*
X171320666Y-104666186D01*
X171323500Y-104692544D01*
X171323500Y-104988190D01*
X171329748Y-105046299D01*
X171378789Y-105177780D01*
X171392893Y-105196620D01*
X171462884Y-105290116D01*
X171539292Y-105347315D01*
X171569301Y-105369780D01*
X171575222Y-105374212D01*
X171667594Y-105408665D01*
X171706700Y-105423251D01*
X171764809Y-105429499D01*
X171764826Y-105429500D01*
X172358174Y-105429500D01*
X172358190Y-105429499D01*
X172416299Y-105423251D01*
X172419916Y-105421902D01*
X172547778Y-105374212D01*
X172660116Y-105290116D01*
X172744212Y-105177778D01*
X172793251Y-105046299D01*
X172795057Y-105029500D01*
X172799499Y-104988190D01*
X172799500Y-104988173D01*
X172799500Y-104419826D01*
X172799499Y-104419809D01*
X172793251Y-104361700D01*
X172753572Y-104255318D01*
X172744212Y-104230222D01*
X172660116Y-104117884D01*
X172570840Y-104051052D01*
X172547780Y-104033789D01*
X172547778Y-104033788D01*
X172513613Y-104021045D01*
X172416299Y-103984748D01*
X172358190Y-103978500D01*
X172358174Y-103978500D01*
X171764826Y-103978500D01*
X171764823Y-103978500D01*
X171722101Y-103983093D01*
X171653342Y-103970687D01*
X171621166Y-103947484D01*
X171347213Y-103673531D01*
X171347212Y-103673530D01*
X171282011Y-103635886D01*
X171233797Y-103585321D01*
X171220573Y-103516714D01*
X171246541Y-103451849D01*
X171303455Y-103411320D01*
X171344012Y-103404500D01*
X244677880Y-103404500D01*
X244677882Y-103404500D01*
X244751574Y-103373976D01*
X245539395Y-102586155D01*
X249013000Y-102586155D01*
X249013000Y-103534000D01*
X250813000Y-103534000D01*
X251313000Y-103534000D01*
X253113000Y-103534000D01*
X253113000Y-102586172D01*
X253112999Y-102586155D01*
X253106598Y-102526627D01*
X253106596Y-102526620D01*
X253056354Y-102391913D01*
X253056350Y-102391906D01*
X252970190Y-102276812D01*
X252970187Y-102276809D01*
X252855093Y-102190649D01*
X252855086Y-102190645D01*
X252720379Y-102140403D01*
X252720372Y-102140401D01*
X252660844Y-102134000D01*
X251313000Y-102134000D01*
X251313000Y-103534000D01*
X250813000Y-103534000D01*
X250813000Y-102134000D01*
X249465155Y-102134000D01*
X249405627Y-102140401D01*
X249405620Y-102140403D01*
X249270913Y-102190645D01*
X249270906Y-102190649D01*
X249155812Y-102276809D01*
X249155809Y-102276812D01*
X249069649Y-102391906D01*
X249069645Y-102391913D01*
X249019403Y-102526620D01*
X249019401Y-102526627D01*
X249013000Y-102586155D01*
X245539395Y-102586155D01*
X246434731Y-101690819D01*
X246496054Y-101657334D01*
X246522412Y-101654500D01*
X254563500Y-101654500D01*
X254630539Y-101674185D01*
G37*
%TD.AperFunction*%
%TA.AperFunction,Conductor*%
G36*
X163485777Y-103424185D02*
G01*
X163531532Y-103476989D01*
X163541476Y-103546147D01*
X163512451Y-103609703D01*
X163480739Y-103635886D01*
X163455219Y-103650620D01*
X163415540Y-103673528D01*
X163090851Y-103998216D01*
X163029528Y-104031700D01*
X162959836Y-104026716D01*
X162938073Y-104016072D01*
X162848061Y-103960551D01*
X162848050Y-103960546D01*
X162684402Y-103906319D01*
X162583404Y-103896000D01*
X162546750Y-103896000D01*
X162546750Y-105059500D01*
X162527065Y-105126539D01*
X162474261Y-105172294D01*
X162422750Y-105183500D01*
X159289751Y-105183500D01*
X159289751Y-105282654D01*
X159300069Y-105383652D01*
X159354296Y-105547300D01*
X159354301Y-105547311D01*
X159444802Y-105694034D01*
X159444805Y-105694038D01*
X159566710Y-105815943D01*
X159627119Y-105853204D01*
X159673843Y-105905152D01*
X159685065Y-105974115D01*
X159661289Y-106033054D01*
X159594538Y-106122221D01*
X159555332Y-106227335D01*
X159513461Y-106283268D01*
X159447996Y-106307684D01*
X159439151Y-106308000D01*
X155630044Y-106308000D01*
X155563005Y-106288315D01*
X155542363Y-106271681D01*
X155344213Y-106073531D01*
X155344208Y-106073527D01*
X155264288Y-106027386D01*
X155258326Y-106025788D01*
X155258325Y-106025788D01*
X155216734Y-106014644D01*
X155175144Y-106003500D01*
X155175143Y-106003500D01*
X153537116Y-106003500D01*
X153470077Y-105983815D01*
X153438742Y-105954989D01*
X153416282Y-105925718D01*
X153290841Y-105829464D01*
X153258203Y-105815945D01*
X153144762Y-105768956D01*
X153144760Y-105768955D01*
X152988001Y-105748318D01*
X152987999Y-105748318D01*
X152831239Y-105768955D01*
X152831237Y-105768956D01*
X152685160Y-105829463D01*
X152559718Y-105925718D01*
X152463463Y-106051160D01*
X152402956Y-106197237D01*
X152402955Y-106197239D01*
X152382318Y-106353998D01*
X152382318Y-106354001D01*
X152402955Y-106510760D01*
X152402956Y-106510762D01*
X152463464Y-106656841D01*
X152559718Y-106782282D01*
X152685159Y-106878536D01*
X152831238Y-106939044D01*
X152866528Y-106943690D01*
X152930423Y-106971954D01*
X152968895Y-107030277D01*
X152969728Y-107100142D01*
X152932657Y-107159366D01*
X152869452Y-107189147D01*
X152850178Y-107190628D01*
X151989527Y-107189482D01*
X151942239Y-107180043D01*
X151794762Y-107118956D01*
X151794760Y-107118955D01*
X151638001Y-107098318D01*
X151637999Y-107098318D01*
X151481239Y-107118955D01*
X151481234Y-107118957D01*
X151336014Y-107179109D01*
X151288397Y-107188548D01*
X150876000Y-107188000D01*
X150876000Y-108470000D01*
X152430197Y-108466453D01*
X152497280Y-108485985D01*
X152543156Y-108538684D01*
X152553257Y-108607820D01*
X152528855Y-108665939D01*
X152463464Y-108751157D01*
X152402956Y-108897237D01*
X152402956Y-108897238D01*
X152382318Y-109053998D01*
X152382318Y-109054001D01*
X152402955Y-109210760D01*
X152402956Y-109210762D01*
X152458014Y-109343685D01*
X152463464Y-109356841D01*
X152559718Y-109482282D01*
X152685159Y-109578536D01*
X152831238Y-109639044D01*
X152909619Y-109649363D01*
X152987999Y-109659682D01*
X152988000Y-109659682D01*
X152988001Y-109659682D01*
X153040254Y-109652802D01*
X153144762Y-109639044D01*
X153290841Y-109578536D01*
X153416282Y-109482282D01*
X153512536Y-109356841D01*
X153573044Y-109210762D01*
X153591698Y-109069073D01*
X153593682Y-109054001D01*
X153593682Y-109053998D01*
X153573044Y-108897238D01*
X153512536Y-108751159D01*
X153512535Y-108751158D01*
X153512535Y-108751157D01*
X153445195Y-108663398D01*
X153420001Y-108598229D01*
X153434039Y-108529784D01*
X153482853Y-108479795D01*
X153543283Y-108463913D01*
X157828229Y-108454136D01*
X157895312Y-108473668D01*
X157925339Y-108500674D01*
X158888000Y-109704000D01*
X159512180Y-109704000D01*
X159579219Y-109723685D01*
X159624974Y-109776489D01*
X159634918Y-109845647D01*
X159605893Y-109909203D01*
X159577277Y-109933539D01*
X159566710Y-109940056D01*
X159444805Y-110061961D01*
X159444802Y-110061965D01*
X159354301Y-110208688D01*
X159354296Y-110208699D01*
X159300069Y-110372347D01*
X159289750Y-110473345D01*
X159289750Y-110522500D01*
X160390750Y-110522500D01*
X160457789Y-110542185D01*
X160503544Y-110594989D01*
X160514750Y-110646500D01*
X160514750Y-110898500D01*
X160495065Y-110965539D01*
X160442261Y-111011294D01*
X160390750Y-111022500D01*
X159289751Y-111022500D01*
X159289751Y-111056389D01*
X159270066Y-111123428D01*
X159217262Y-111169183D01*
X159148104Y-111179127D01*
X159084548Y-111150102D01*
X159078070Y-111144070D01*
X158388000Y-110454000D01*
X149262000Y-110454000D01*
X149194961Y-110434315D01*
X149149206Y-110381511D01*
X149138000Y-110330000D01*
X149138000Y-109053998D01*
X149682318Y-109053998D01*
X149682318Y-109054001D01*
X149702955Y-109210760D01*
X149702956Y-109210762D01*
X149758014Y-109343685D01*
X149763464Y-109356841D01*
X149859718Y-109482282D01*
X149985159Y-109578536D01*
X150131238Y-109639044D01*
X150209619Y-109649363D01*
X150287999Y-109659682D01*
X150288000Y-109659682D01*
X150288001Y-109659682D01*
X150340254Y-109652802D01*
X150444762Y-109639044D01*
X150590841Y-109578536D01*
X150716282Y-109482282D01*
X150812536Y-109356841D01*
X150873044Y-109210762D01*
X150891698Y-109069073D01*
X150893682Y-109054001D01*
X150893682Y-109053998D01*
X150873044Y-108897238D01*
X150812536Y-108751159D01*
X150812535Y-108751158D01*
X150812535Y-108751157D01*
X150749915Y-108669550D01*
X150729858Y-108617671D01*
X150676514Y-108595203D01*
X150590842Y-108529464D01*
X150444762Y-108468956D01*
X150444760Y-108468955D01*
X150288001Y-108448318D01*
X150287999Y-108448318D01*
X150131239Y-108468955D01*
X150131237Y-108468956D01*
X149985160Y-108529463D01*
X149859718Y-108625718D01*
X149763463Y-108751160D01*
X149702956Y-108897237D01*
X149702956Y-108897238D01*
X149682318Y-109053998D01*
X149138000Y-109053998D01*
X149138000Y-106353998D01*
X149682318Y-106353998D01*
X149682318Y-106354001D01*
X149702955Y-106510760D01*
X149702956Y-106510762D01*
X149763464Y-106656841D01*
X149859718Y-106782282D01*
X149985159Y-106878536D01*
X150131238Y-106939044D01*
X150199015Y-106947967D01*
X150287999Y-106959682D01*
X150288000Y-106959682D01*
X150288001Y-106959682D01*
X150340254Y-106952802D01*
X150444762Y-106939044D01*
X150590841Y-106878536D01*
X150716282Y-106782282D01*
X150812536Y-106656841D01*
X150873044Y-106510762D01*
X150893682Y-106354000D01*
X150893653Y-106353782D01*
X150873044Y-106197239D01*
X150873044Y-106197238D01*
X150812536Y-106051159D01*
X150716282Y-105925718D01*
X150590841Y-105829464D01*
X150558203Y-105815945D01*
X150444762Y-105768956D01*
X150444760Y-105768955D01*
X150288001Y-105748318D01*
X150287999Y-105748318D01*
X150131239Y-105768955D01*
X150131237Y-105768956D01*
X149985160Y-105829463D01*
X149859718Y-105925718D01*
X149763463Y-106051160D01*
X149702956Y-106197237D01*
X149702955Y-106197239D01*
X149682318Y-106353998D01*
X149138000Y-106353998D01*
X149138000Y-105078000D01*
X149157685Y-105010961D01*
X149210489Y-104965206D01*
X149262000Y-104954000D01*
X158388000Y-104954000D01*
X158757655Y-104584345D01*
X159289750Y-104584345D01*
X159289750Y-104683500D01*
X160014750Y-104683500D01*
X160514750Y-104683500D01*
X162046750Y-104683500D01*
X162046750Y-103896000D01*
X162010111Y-103896000D01*
X162010093Y-103896001D01*
X161909097Y-103906319D01*
X161745449Y-103960546D01*
X161745438Y-103960551D01*
X161598715Y-104051052D01*
X161598711Y-104051055D01*
X161476804Y-104172962D01*
X161386288Y-104319711D01*
X161334340Y-104366435D01*
X161265377Y-104377656D01*
X161201295Y-104349813D01*
X161175212Y-104319711D01*
X161084695Y-104172962D01*
X160962788Y-104051055D01*
X160962784Y-104051052D01*
X160816061Y-103960551D01*
X160816050Y-103960546D01*
X160652402Y-103906319D01*
X160551404Y-103896000D01*
X160514750Y-103896000D01*
X160514750Y-104683500D01*
X160014750Y-104683500D01*
X160014750Y-103896000D01*
X159978111Y-103896000D01*
X159978093Y-103896001D01*
X159877097Y-103906319D01*
X159713449Y-103960546D01*
X159713438Y-103960551D01*
X159566715Y-104051052D01*
X159566711Y-104051055D01*
X159444805Y-104172961D01*
X159444802Y-104172965D01*
X159361904Y-104307363D01*
X159355043Y-104313533D01*
X159354259Y-104319812D01*
X159300069Y-104483347D01*
X159289750Y-104584345D01*
X158757655Y-104584345D01*
X159138000Y-104204000D01*
X159138000Y-104039929D01*
X159149205Y-103988419D01*
X159235353Y-103799782D01*
X159303883Y-103566391D01*
X159311868Y-103510854D01*
X159340893Y-103447298D01*
X159399671Y-103409523D01*
X159434606Y-103404500D01*
X163418738Y-103404500D01*
X163485777Y-103424185D01*
G37*
%TD.AperFunction*%
%TD*%
M02*
