M48
; DRILL file {KiCad 8.0.5} date 2025-03-30T01:24:29+0800
; FORMAT={-:-/ absolute / inch / decimal}
; #@! TF.CreationDate,2025-03-30T01:24:29+08:00
; #@! TF.GenerationSoftware,Kicad,Pcbnew,8.0.5
; #@! TF.FileFunction,Plated,1,2,PTH
FMAT,2
INCH
; #@! TA.AperFunction,Plated,PTH,ViaDrill
T1C0.0118
; #@! TA.AperFunction,Plated,PTH,ComponentDrill
T2C0.0118
; #@! TA.AperFunction,Plated,PTH,ViaDrill
T3C0.0157
%
G90
G05
T1
X6.3496Y-4.1252
X6.3496Y-4.3611
X6.5205Y-4.386
X6.6937Y-4.1293
X6.7296Y-4.1652
X6.9838Y-4.1714
X6.99Y-4.234
X9.7594Y-4.2403
T2
X5.155Y-4.189
X5.155Y-4.2953
X5.2082Y-4.2422
X5.2613Y-4.189
X5.2613Y-4.2953
X5.4045Y-4.189
X5.4045Y-4.2953
X5.4577Y-4.2422
X5.5108Y-4.189
X5.5108Y-4.2953
X5.6545Y-4.189
X5.6545Y-4.2953
X5.7077Y-4.2422
X5.7608Y-4.189
X5.7608Y-4.2953
X5.9045Y-4.189
X5.9045Y-4.2953
X5.9577Y-4.2422
X6.0108Y-4.189
X6.0108Y-4.2953
T3
X6.8657Y-4.2502
X6.9247Y-4.2994
X7.0133Y-4.2994
X7.0817Y-4.2403
X7.1314Y-4.3191
X7.1511Y-4.132
X7.2003Y-4.3683
X7.2987Y-4.1124
X7.2987Y-4.3683
X9.6609Y-4.1124
X9.6609Y-4.3683
X9.9169Y-4.2108
X9.9169Y-4.2698
M30
