M48
; DRILL file {KiCad 8.0.5} date 2024-10-14T23:25:03+0800
; FORMAT={-:-/ absolute / inch / decimal}
; #@! TF.CreationDate,2024-10-14T23:25:03+08:00
; #@! TF.GenerationSoftware,Kicad,Pcbnew,8.0.5
; #@! TF.FileFunction,Plated,1,2,PTH
FMAT,2
INCH
; #@! TA.AperFunction,Plated,PTH,ViaDrill
T1C0.0098
; #@! TA.AperFunction,Plated,PTH,ViaDrill
T2C0.0118
; #@! TA.AperFunction,Plated,PTH,ComponentDrill
T3C0.0118
; #@! TA.AperFunction,Plated,PTH,ViaDrill
T4C0.0157
%
G90
G05
T1
X6.09Y-4.2403
T2
X6.3496Y-4.1252
X6.3496Y-4.3611
X6.5205Y-4.386
X6.6937Y-4.1293
X6.7296Y-4.1652
X6.9838Y-4.1714
X6.99Y-4.234
X9.7594Y-4.2403
T3
X5.9169Y-4.1872
X5.9169Y-4.2935
X5.97Y-4.2403
X6.0231Y-4.1872
X6.0231Y-4.2935
T4
X6.8657Y-4.2502
X6.9247Y-4.2994
X7.0133Y-4.2994
X7.0817Y-4.2403
X7.1314Y-4.3191
X7.1511Y-4.132
X7.2003Y-4.3683
X7.2987Y-4.1124
X7.2987Y-4.3683
X9.6609Y-4.1124
X9.6609Y-4.3683
X9.9169Y-4.2108
X9.9169Y-4.2698
M30
