%TF.GenerationSoftware,KiCad,Pcbnew,8.0.5*%
%TF.CreationDate,2024-10-14T23:25:06+08:00*%
%TF.ProjectId,SiPm_Design_2,5369506d-5f44-4657-9369-676e5f322e6b,rev?*%
%TF.SameCoordinates,Original*%
%TF.FileFunction,Other,User*%
%FSLAX46Y46*%
G04 Gerber Fmt 4.6, Leading zero omitted, Abs format (unit mm)*
G04 Created by KiCad (PCBNEW 8.0.5) date 2024-10-14 23:25:06*
%MOMM*%
%LPD*%
G01*
G04 APERTURE LIST*
%ADD10C,0.150000*%
G04 APERTURE END LIST*
D10*
X196474779Y-99800009D02*
X196808112Y-99800009D01*
X196950969Y-100323819D02*
X196474779Y-100323819D01*
X196474779Y-100323819D02*
X196474779Y-99323819D01*
X196474779Y-99323819D02*
X196950969Y-99323819D01*
X197379541Y-100323819D02*
X197379541Y-99323819D01*
X197379541Y-99323819D02*
X197712874Y-100038104D01*
X197712874Y-100038104D02*
X198046207Y-99323819D01*
X198046207Y-99323819D02*
X198046207Y-100323819D01*
X199236684Y-100276200D02*
X199331922Y-100323819D01*
X199331922Y-100323819D02*
X199522398Y-100323819D01*
X199522398Y-100323819D02*
X199617636Y-100276200D01*
X199617636Y-100276200D02*
X199665255Y-100180961D01*
X199665255Y-100180961D02*
X199665255Y-100133342D01*
X199665255Y-100133342D02*
X199617636Y-100038104D01*
X199617636Y-100038104D02*
X199522398Y-99990485D01*
X199522398Y-99990485D02*
X199379541Y-99990485D01*
X199379541Y-99990485D02*
X199284303Y-99942866D01*
X199284303Y-99942866D02*
X199236684Y-99847628D01*
X199236684Y-99847628D02*
X199236684Y-99800009D01*
X199236684Y-99800009D02*
X199284303Y-99704771D01*
X199284303Y-99704771D02*
X199379541Y-99657152D01*
X199379541Y-99657152D02*
X199522398Y-99657152D01*
X199522398Y-99657152D02*
X199617636Y-99704771D01*
X200093827Y-100323819D02*
X200093827Y-99323819D01*
X200522398Y-100323819D02*
X200522398Y-99800009D01*
X200522398Y-99800009D02*
X200474779Y-99704771D01*
X200474779Y-99704771D02*
X200379541Y-99657152D01*
X200379541Y-99657152D02*
X200236684Y-99657152D01*
X200236684Y-99657152D02*
X200141446Y-99704771D01*
X200141446Y-99704771D02*
X200093827Y-99752390D01*
X200998589Y-100323819D02*
X200998589Y-99657152D01*
X200998589Y-99323819D02*
X200950970Y-99371438D01*
X200950970Y-99371438D02*
X200998589Y-99419057D01*
X200998589Y-99419057D02*
X201046208Y-99371438D01*
X201046208Y-99371438D02*
X200998589Y-99323819D01*
X200998589Y-99323819D02*
X200998589Y-99419057D01*
X201855731Y-100276200D02*
X201760493Y-100323819D01*
X201760493Y-100323819D02*
X201570017Y-100323819D01*
X201570017Y-100323819D02*
X201474779Y-100276200D01*
X201474779Y-100276200D02*
X201427160Y-100180961D01*
X201427160Y-100180961D02*
X201427160Y-99800009D01*
X201427160Y-99800009D02*
X201474779Y-99704771D01*
X201474779Y-99704771D02*
X201570017Y-99657152D01*
X201570017Y-99657152D02*
X201760493Y-99657152D01*
X201760493Y-99657152D02*
X201855731Y-99704771D01*
X201855731Y-99704771D02*
X201903350Y-99800009D01*
X201903350Y-99800009D02*
X201903350Y-99895247D01*
X201903350Y-99895247D02*
X201427160Y-99990485D01*
X202474779Y-100323819D02*
X202379541Y-100276200D01*
X202379541Y-100276200D02*
X202331922Y-100180961D01*
X202331922Y-100180961D02*
X202331922Y-99323819D01*
X203284303Y-100323819D02*
X203284303Y-99323819D01*
X203284303Y-100276200D02*
X203189065Y-100323819D01*
X203189065Y-100323819D02*
X202998589Y-100323819D01*
X202998589Y-100323819D02*
X202903351Y-100276200D01*
X202903351Y-100276200D02*
X202855732Y-100228580D01*
X202855732Y-100228580D02*
X202808113Y-100133342D01*
X202808113Y-100133342D02*
X202808113Y-99847628D01*
X202808113Y-99847628D02*
X202855732Y-99752390D01*
X202855732Y-99752390D02*
X202903351Y-99704771D01*
X202903351Y-99704771D02*
X202998589Y-99657152D01*
X202998589Y-99657152D02*
X203189065Y-99657152D01*
X203189065Y-99657152D02*
X203284303Y-99704771D01*
X203760494Y-100323819D02*
X203760494Y-99657152D01*
X203760494Y-99323819D02*
X203712875Y-99371438D01*
X203712875Y-99371438D02*
X203760494Y-99419057D01*
X203760494Y-99419057D02*
X203808113Y-99371438D01*
X203808113Y-99371438D02*
X203760494Y-99323819D01*
X203760494Y-99323819D02*
X203760494Y-99419057D01*
X204236684Y-99657152D02*
X204236684Y-100323819D01*
X204236684Y-99752390D02*
X204284303Y-99704771D01*
X204284303Y-99704771D02*
X204379541Y-99657152D01*
X204379541Y-99657152D02*
X204522398Y-99657152D01*
X204522398Y-99657152D02*
X204617636Y-99704771D01*
X204617636Y-99704771D02*
X204665255Y-99800009D01*
X204665255Y-99800009D02*
X204665255Y-100323819D01*
X205570017Y-99657152D02*
X205570017Y-100466676D01*
X205570017Y-100466676D02*
X205522398Y-100561914D01*
X205522398Y-100561914D02*
X205474779Y-100609533D01*
X205474779Y-100609533D02*
X205379541Y-100657152D01*
X205379541Y-100657152D02*
X205236684Y-100657152D01*
X205236684Y-100657152D02*
X205141446Y-100609533D01*
X205570017Y-100276200D02*
X205474779Y-100323819D01*
X205474779Y-100323819D02*
X205284303Y-100323819D01*
X205284303Y-100323819D02*
X205189065Y-100276200D01*
X205189065Y-100276200D02*
X205141446Y-100228580D01*
X205141446Y-100228580D02*
X205093827Y-100133342D01*
X205093827Y-100133342D02*
X205093827Y-99847628D01*
X205093827Y-99847628D02*
X205141446Y-99752390D01*
X205141446Y-99752390D02*
X205189065Y-99704771D01*
X205189065Y-99704771D02*
X205284303Y-99657152D01*
X205284303Y-99657152D02*
X205474779Y-99657152D01*
X205474779Y-99657152D02*
X205570017Y-99704771D01*
X206665256Y-99657152D02*
X207046208Y-99657152D01*
X206808113Y-100323819D02*
X206808113Y-99466676D01*
X206808113Y-99466676D02*
X206855732Y-99371438D01*
X206855732Y-99371438D02*
X206950970Y-99323819D01*
X206950970Y-99323819D02*
X207046208Y-99323819D01*
X207379542Y-100323819D02*
X207379542Y-99657152D01*
X207379542Y-99323819D02*
X207331923Y-99371438D01*
X207331923Y-99371438D02*
X207379542Y-99419057D01*
X207379542Y-99419057D02*
X207427161Y-99371438D01*
X207427161Y-99371438D02*
X207379542Y-99323819D01*
X207379542Y-99323819D02*
X207379542Y-99419057D01*
X207998589Y-100323819D02*
X207903351Y-100276200D01*
X207903351Y-100276200D02*
X207855732Y-100180961D01*
X207855732Y-100180961D02*
X207855732Y-99323819D01*
X208379542Y-100323819D02*
X208379542Y-99657152D01*
X208379542Y-99752390D02*
X208427161Y-99704771D01*
X208427161Y-99704771D02*
X208522399Y-99657152D01*
X208522399Y-99657152D02*
X208665256Y-99657152D01*
X208665256Y-99657152D02*
X208760494Y-99704771D01*
X208760494Y-99704771D02*
X208808113Y-99800009D01*
X208808113Y-99800009D02*
X208808113Y-100323819D01*
X208808113Y-99800009D02*
X208855732Y-99704771D01*
X208855732Y-99704771D02*
X208950970Y-99657152D01*
X208950970Y-99657152D02*
X209093827Y-99657152D01*
X209093827Y-99657152D02*
X209189066Y-99704771D01*
X209189066Y-99704771D02*
X209236685Y-99800009D01*
X209236685Y-99800009D02*
X209236685Y-100323819D01*
X184138000Y-103204000D02*
X247888000Y-103204000D01*
X247888000Y-112204000D01*
X184138000Y-112204000D01*
X184138000Y-103204000D01*
G36*
X184138000Y-103204000D02*
G01*
X247888000Y-103204000D01*
X247888000Y-112204000D01*
X184138000Y-112204000D01*
X184138000Y-103204000D01*
G37*
M02*
