%TF.GenerationSoftware,KiCad,Pcbnew,8.0.5*%
%TF.CreationDate,2024-10-14T23:25:06+08:00*%
%TF.ProjectId,SiPm_Design_2,5369506d-5f44-4657-9369-676e5f322e6b,rev?*%
%TF.SameCoordinates,Original*%
%TF.FileFunction,Other,User*%
%FSLAX46Y46*%
G04 Gerber Fmt 4.6, Leading zero omitted, Abs format (unit mm)*
G04 Created by KiCad (PCBNEW 8.0.5) date 2024-10-14 23:25:06*
%MOMM*%
%LPD*%
G01*
G04 APERTURE LIST*
%ADD10C,0.150000*%
G04 APERTURE END LIST*
D10*
X164724779Y-100073819D02*
X164724779Y-99073819D01*
X164724779Y-99073819D02*
X165105731Y-99073819D01*
X165105731Y-99073819D02*
X165200969Y-99121438D01*
X165200969Y-99121438D02*
X165248588Y-99169057D01*
X165248588Y-99169057D02*
X165296207Y-99264295D01*
X165296207Y-99264295D02*
X165296207Y-99407152D01*
X165296207Y-99407152D02*
X165248588Y-99502390D01*
X165248588Y-99502390D02*
X165200969Y-99550009D01*
X165200969Y-99550009D02*
X165105731Y-99597628D01*
X165105731Y-99597628D02*
X164724779Y-99597628D01*
X165724779Y-100073819D02*
X165724779Y-99073819D01*
X166915255Y-100026200D02*
X167010493Y-100073819D01*
X167010493Y-100073819D02*
X167200969Y-100073819D01*
X167200969Y-100073819D02*
X167296207Y-100026200D01*
X167296207Y-100026200D02*
X167343826Y-99930961D01*
X167343826Y-99930961D02*
X167343826Y-99883342D01*
X167343826Y-99883342D02*
X167296207Y-99788104D01*
X167296207Y-99788104D02*
X167200969Y-99740485D01*
X167200969Y-99740485D02*
X167058112Y-99740485D01*
X167058112Y-99740485D02*
X166962874Y-99692866D01*
X166962874Y-99692866D02*
X166915255Y-99597628D01*
X166915255Y-99597628D02*
X166915255Y-99550009D01*
X166915255Y-99550009D02*
X166962874Y-99454771D01*
X166962874Y-99454771D02*
X167058112Y-99407152D01*
X167058112Y-99407152D02*
X167200969Y-99407152D01*
X167200969Y-99407152D02*
X167296207Y-99454771D01*
X167629541Y-99407152D02*
X168010493Y-99407152D01*
X167772398Y-99073819D02*
X167772398Y-99930961D01*
X167772398Y-99930961D02*
X167820017Y-100026200D01*
X167820017Y-100026200D02*
X167915255Y-100073819D01*
X167915255Y-100073819D02*
X168010493Y-100073819D01*
X168343827Y-100073819D02*
X168343827Y-99407152D01*
X168343827Y-99073819D02*
X168296208Y-99121438D01*
X168296208Y-99121438D02*
X168343827Y-99169057D01*
X168343827Y-99169057D02*
X168391446Y-99121438D01*
X168391446Y-99121438D02*
X168343827Y-99073819D01*
X168343827Y-99073819D02*
X168343827Y-99169057D01*
X168677160Y-99407152D02*
X169058112Y-99407152D01*
X168820017Y-100073819D02*
X168820017Y-99216676D01*
X168820017Y-99216676D02*
X168867636Y-99121438D01*
X168867636Y-99121438D02*
X168962874Y-99073819D01*
X168962874Y-99073819D02*
X169058112Y-99073819D01*
X169248589Y-99407152D02*
X169629541Y-99407152D01*
X169391446Y-100073819D02*
X169391446Y-99216676D01*
X169391446Y-99216676D02*
X169439065Y-99121438D01*
X169439065Y-99121438D02*
X169534303Y-99073819D01*
X169534303Y-99073819D02*
X169629541Y-99073819D01*
X170343827Y-100026200D02*
X170248589Y-100073819D01*
X170248589Y-100073819D02*
X170058113Y-100073819D01*
X170058113Y-100073819D02*
X169962875Y-100026200D01*
X169962875Y-100026200D02*
X169915256Y-99930961D01*
X169915256Y-99930961D02*
X169915256Y-99550009D01*
X169915256Y-99550009D02*
X169962875Y-99454771D01*
X169962875Y-99454771D02*
X170058113Y-99407152D01*
X170058113Y-99407152D02*
X170248589Y-99407152D01*
X170248589Y-99407152D02*
X170343827Y-99454771D01*
X170343827Y-99454771D02*
X170391446Y-99550009D01*
X170391446Y-99550009D02*
X170391446Y-99645247D01*
X170391446Y-99645247D02*
X169915256Y-99740485D01*
X170820018Y-99407152D02*
X170820018Y-100073819D01*
X170820018Y-99502390D02*
X170867637Y-99454771D01*
X170867637Y-99454771D02*
X170962875Y-99407152D01*
X170962875Y-99407152D02*
X171105732Y-99407152D01*
X171105732Y-99407152D02*
X171200970Y-99454771D01*
X171200970Y-99454771D02*
X171248589Y-99550009D01*
X171248589Y-99550009D02*
X171248589Y-100073819D01*
X172105732Y-100026200D02*
X172010494Y-100073819D01*
X172010494Y-100073819D02*
X171820018Y-100073819D01*
X171820018Y-100073819D02*
X171724780Y-100026200D01*
X171724780Y-100026200D02*
X171677161Y-99930961D01*
X171677161Y-99930961D02*
X171677161Y-99550009D01*
X171677161Y-99550009D02*
X171724780Y-99454771D01*
X171724780Y-99454771D02*
X171820018Y-99407152D01*
X171820018Y-99407152D02*
X172010494Y-99407152D01*
X172010494Y-99407152D02*
X172105732Y-99454771D01*
X172105732Y-99454771D02*
X172153351Y-99550009D01*
X172153351Y-99550009D02*
X172153351Y-99645247D01*
X172153351Y-99645247D02*
X171677161Y-99740485D01*
X172581923Y-100073819D02*
X172581923Y-99407152D01*
X172581923Y-99597628D02*
X172629542Y-99502390D01*
X172629542Y-99502390D02*
X172677161Y-99454771D01*
X172677161Y-99454771D02*
X172772399Y-99407152D01*
X172772399Y-99407152D02*
X172867637Y-99407152D01*
X174153352Y-99073819D02*
X174248590Y-99073819D01*
X174248590Y-99073819D02*
X174343828Y-99121438D01*
X174343828Y-99121438D02*
X174391447Y-99169057D01*
X174391447Y-99169057D02*
X174439066Y-99264295D01*
X174439066Y-99264295D02*
X174486685Y-99454771D01*
X174486685Y-99454771D02*
X174486685Y-99692866D01*
X174486685Y-99692866D02*
X174439066Y-99883342D01*
X174439066Y-99883342D02*
X174391447Y-99978580D01*
X174391447Y-99978580D02*
X174343828Y-100026200D01*
X174343828Y-100026200D02*
X174248590Y-100073819D01*
X174248590Y-100073819D02*
X174153352Y-100073819D01*
X174153352Y-100073819D02*
X174058114Y-100026200D01*
X174058114Y-100026200D02*
X174010495Y-99978580D01*
X174010495Y-99978580D02*
X173962876Y-99883342D01*
X173962876Y-99883342D02*
X173915257Y-99692866D01*
X173915257Y-99692866D02*
X173915257Y-99454771D01*
X173915257Y-99454771D02*
X173962876Y-99264295D01*
X173962876Y-99264295D02*
X174010495Y-99169057D01*
X174010495Y-99169057D02*
X174058114Y-99121438D01*
X174058114Y-99121438D02*
X174153352Y-99073819D01*
X174915257Y-99978580D02*
X174962876Y-100026200D01*
X174962876Y-100026200D02*
X174915257Y-100073819D01*
X174915257Y-100073819D02*
X174867638Y-100026200D01*
X174867638Y-100026200D02*
X174915257Y-99978580D01*
X174915257Y-99978580D02*
X174915257Y-100073819D01*
X175343828Y-99169057D02*
X175391447Y-99121438D01*
X175391447Y-99121438D02*
X175486685Y-99073819D01*
X175486685Y-99073819D02*
X175724780Y-99073819D01*
X175724780Y-99073819D02*
X175820018Y-99121438D01*
X175820018Y-99121438D02*
X175867637Y-99169057D01*
X175867637Y-99169057D02*
X175915256Y-99264295D01*
X175915256Y-99264295D02*
X175915256Y-99359533D01*
X175915256Y-99359533D02*
X175867637Y-99502390D01*
X175867637Y-99502390D02*
X175296209Y-100073819D01*
X175296209Y-100073819D02*
X175915256Y-100073819D01*
X176296209Y-99169057D02*
X176343828Y-99121438D01*
X176343828Y-99121438D02*
X176439066Y-99073819D01*
X176439066Y-99073819D02*
X176677161Y-99073819D01*
X176677161Y-99073819D02*
X176772399Y-99121438D01*
X176772399Y-99121438D02*
X176820018Y-99169057D01*
X176820018Y-99169057D02*
X176867637Y-99264295D01*
X176867637Y-99264295D02*
X176867637Y-99359533D01*
X176867637Y-99359533D02*
X176820018Y-99502390D01*
X176820018Y-99502390D02*
X176248590Y-100073819D01*
X176248590Y-100073819D02*
X176867637Y-100073819D01*
X177772399Y-99073819D02*
X177296209Y-99073819D01*
X177296209Y-99073819D02*
X177248590Y-99550009D01*
X177248590Y-99550009D02*
X177296209Y-99502390D01*
X177296209Y-99502390D02*
X177391447Y-99454771D01*
X177391447Y-99454771D02*
X177629542Y-99454771D01*
X177629542Y-99454771D02*
X177724780Y-99502390D01*
X177724780Y-99502390D02*
X177772399Y-99550009D01*
X177772399Y-99550009D02*
X177820018Y-99645247D01*
X177820018Y-99645247D02*
X177820018Y-99883342D01*
X177820018Y-99883342D02*
X177772399Y-99978580D01*
X177772399Y-99978580D02*
X177724780Y-100026200D01*
X177724780Y-100026200D02*
X177629542Y-100073819D01*
X177629542Y-100073819D02*
X177391447Y-100073819D01*
X177391447Y-100073819D02*
X177296209Y-100026200D01*
X177296209Y-100026200D02*
X177248590Y-99978580D01*
X178248590Y-100073819D02*
X178248590Y-99407152D01*
X178248590Y-99502390D02*
X178296209Y-99454771D01*
X178296209Y-99454771D02*
X178391447Y-99407152D01*
X178391447Y-99407152D02*
X178534304Y-99407152D01*
X178534304Y-99407152D02*
X178629542Y-99454771D01*
X178629542Y-99454771D02*
X178677161Y-99550009D01*
X178677161Y-99550009D02*
X178677161Y-100073819D01*
X178677161Y-99550009D02*
X178724780Y-99454771D01*
X178724780Y-99454771D02*
X178820018Y-99407152D01*
X178820018Y-99407152D02*
X178962875Y-99407152D01*
X178962875Y-99407152D02*
X179058114Y-99454771D01*
X179058114Y-99454771D02*
X179105733Y-99550009D01*
X179105733Y-99550009D02*
X179105733Y-100073819D01*
X179581923Y-100073819D02*
X179581923Y-99407152D01*
X179581923Y-99502390D02*
X179629542Y-99454771D01*
X179629542Y-99454771D02*
X179724780Y-99407152D01*
X179724780Y-99407152D02*
X179867637Y-99407152D01*
X179867637Y-99407152D02*
X179962875Y-99454771D01*
X179962875Y-99454771D02*
X180010494Y-99550009D01*
X180010494Y-99550009D02*
X180010494Y-100073819D01*
X180010494Y-99550009D02*
X180058113Y-99454771D01*
X180058113Y-99454771D02*
X180153351Y-99407152D01*
X180153351Y-99407152D02*
X180296208Y-99407152D01*
X180296208Y-99407152D02*
X180391447Y-99454771D01*
X180391447Y-99454771D02*
X180439066Y-99550009D01*
X180439066Y-99550009D02*
X180439066Y-100073819D01*
X159138000Y-103204000D02*
X184138000Y-103204000D01*
X184138000Y-112204000D01*
X159138000Y-112204000D01*
X159138000Y-103204000D01*
G36*
X159138000Y-103204000D02*
G01*
X184138000Y-103204000D01*
X184138000Y-112204000D01*
X159138000Y-112204000D01*
X159138000Y-103204000D01*
G37*
M02*
