%TF.GenerationSoftware,KiCad,Pcbnew,8.0.4*%
%TF.CreationDate,2025-03-26T20:34:27+08:00*%
%TF.ProjectId,AdaptorBoard,41646170-746f-4724-926f-6172642e6b69,rev?*%
%TF.SameCoordinates,Original*%
%TF.FileFunction,Copper,L1,Top*%
%TF.FilePolarity,Positive*%
%FSLAX46Y46*%
G04 Gerber Fmt 4.6, Leading zero omitted, Abs format (unit mm)*
G04 Created by KiCad (PCBNEW 8.0.4) date 2025-03-26 20:34:27*
%MOMM*%
%LPD*%
G01*
G04 APERTURE LIST*
%TA.AperFunction,ComponentPad*%
%ADD10C,1.575000*%
%TD*%
%TA.AperFunction,ComponentPad*%
%ADD11C,2.775000*%
%TD*%
%TA.AperFunction,ComponentPad*%
%ADD12R,0.850000X0.850000*%
%TD*%
%TA.AperFunction,ComponentPad*%
%ADD13O,0.850000X0.850000*%
%TD*%
%TA.AperFunction,SMDPad,CuDef*%
%ADD14R,1.630000X0.400000*%
%TD*%
%TA.AperFunction,SMDPad,CuDef*%
%ADD15R,2.000000X2.180000*%
%TD*%
%TA.AperFunction,Conductor*%
%ADD16C,0.200000*%
%TD*%
G04 APERTURE END LIST*
D10*
%TO.P,BNC4,1*%
%TO.N,Net-(FFC4-Signal)*%
X55210000Y-82070000D03*
D11*
%TO.P,BNC4,S_1*%
%TO.N,Net-(PIN4-Pin_1)*%
X51780000Y-78640000D03*
%TO.P,BNC4,S_2*%
X51780000Y-85500000D03*
%TO.P,BNC4,S_3*%
X58640000Y-85500000D03*
%TD*%
D12*
%TO.P,PIN2,1,Pin_1*%
%TO.N,Net-(PIN2-Pin_1)*%
X70140000Y-54070000D03*
D13*
%TO.P,PIN2,2,Pin_2*%
%TO.N,Net-(FFC2--2V5)*%
X70140000Y-55070000D03*
%TO.P,PIN2,3,Pin_3*%
%TO.N,Net-(FFC2-+2V5)*%
X70140000Y-56070000D03*
%TO.P,PIN2,4,Pin_4*%
%TO.N,Net-(FFC2-V_Bias)*%
X70140000Y-57070000D03*
%TD*%
D14*
%TO.P,FFC5,01,Earth*%
%TO.N,Net-(PIN5-Pin_1)*%
X82000000Y-79820000D03*
%TO.P,FFC5,02,Signal*%
%TO.N,Net-(FFC5-Signal)*%
X84140000Y-80320000D03*
%TO.P,FFC5,03,Earth*%
%TO.N,Net-(PIN5-Pin_1)*%
X82000000Y-80820000D03*
%TO.P,FFC5,04,04*%
%TO.N,unconnected-(FFC5-Pad04)*%
X84140000Y-81320000D03*
%TO.P,FFC5,05,Earth*%
%TO.N,Net-(PIN5-Pin_1)*%
X82000000Y-81820000D03*
%TO.P,FFC5,06,Earth*%
X84140000Y-82320000D03*
%TO.P,FFC5,07,-2V5*%
%TO.N,Net-(FFC5--2V5)*%
X82000000Y-82820000D03*
%TO.P,FFC5,08,+2V5*%
%TO.N,Net-(FFC5-+2V5)*%
X84140000Y-83320000D03*
%TO.P,FFC5,09,V_Bias*%
%TO.N,Net-(FFC5-V_Bias)*%
X82000000Y-83820000D03*
%TO.P,FFC5,10,Earth*%
%TO.N,Net-(PIN5-Pin_1)*%
X84140000Y-84320000D03*
D15*
%TO.P,FFC5,S1*%
%TO.N,N/C*%
X83070000Y-78135000D03*
%TO.P,FFC5,S2*%
X83070000Y-86005000D03*
%TD*%
D12*
%TO.P,PIN8,1,Pin_1*%
%TO.N,Net-(PIN8-Pin_1)*%
X77930000Y-40570000D03*
D13*
%TO.P,PIN8,2,Pin_2*%
%TO.N,Net-(FFC8--2V5)*%
X77930000Y-41570000D03*
%TO.P,PIN8,3,Pin_3*%
%TO.N,Net-(FFC8-+2V5)*%
X77930000Y-42570000D03*
%TO.P,PIN8,4,Pin_4*%
%TO.N,Net-(FFC8-V_Bias)*%
X77930000Y-43570000D03*
%TD*%
D14*
%TO.P,FFC8,01,Earth*%
%TO.N,Net-(PIN8-Pin_1)*%
X81860000Y-39820000D03*
%TO.P,FFC8,02,Signal*%
%TO.N,Net-(FFC8-Signal)*%
X84000000Y-40320000D03*
%TO.P,FFC8,03,Earth*%
%TO.N,Net-(PIN8-Pin_1)*%
X81860000Y-40820000D03*
%TO.P,FFC8,04,04*%
%TO.N,unconnected-(FFC8-Pad04)*%
X84000000Y-41320000D03*
%TO.P,FFC8,05,Earth*%
%TO.N,Net-(PIN8-Pin_1)*%
X81860000Y-41820000D03*
%TO.P,FFC8,06,Earth*%
X84000000Y-42320000D03*
%TO.P,FFC8,07,-2V5*%
%TO.N,Net-(FFC8--2V5)*%
X81860000Y-42820000D03*
%TO.P,FFC8,08,+2V5*%
%TO.N,Net-(FFC8-+2V5)*%
X84000000Y-43320000D03*
%TO.P,FFC8,09,V_Bias*%
%TO.N,Net-(FFC8-V_Bias)*%
X81860000Y-43820000D03*
%TO.P,FFC8,10,Earth*%
%TO.N,Net-(PIN8-Pin_1)*%
X84000000Y-44320000D03*
D15*
%TO.P,FFC8,S1*%
%TO.N,N/C*%
X82930000Y-38135000D03*
%TO.P,FFC8,S2*%
X82930000Y-46005000D03*
%TD*%
D10*
%TO.P,BNC6,1*%
%TO.N,Net-(FFC6-Signal)*%
X93500000Y-69070000D03*
D11*
%TO.P,BNC6,S_1*%
%TO.N,Net-(PIN6-Pin_1)*%
X90070000Y-65640000D03*
%TO.P,BNC6,S_2*%
X90070000Y-72500000D03*
%TO.P,BNC6,S_3*%
X96930000Y-72500000D03*
%TD*%
D12*
%TO.P,PIN3,1,Pin_1*%
%TO.N,Net-(PIN3-Pin_1)*%
X70140000Y-67570000D03*
D13*
%TO.P,PIN3,2,Pin_2*%
%TO.N,Net-(FFC3--2V5)*%
X70140000Y-68570000D03*
%TO.P,PIN3,3,Pin_3*%
%TO.N,Net-(FFC3-+2V5)*%
X70140000Y-69570000D03*
%TO.P,PIN3,4,Pin_4*%
%TO.N,Net-(FFC3-V_Bias)*%
X70140000Y-70570000D03*
%TD*%
D12*
%TO.P,GND1,1,Pin_1*%
%TO.N,unconnected-(GND1-Pin_1-Pad1)*%
X71000000Y-76000000D03*
D13*
%TO.P,GND1,2,Pin_2*%
%TO.N,unconnected-(GND1-Pin_2-Pad2)*%
X72000000Y-76000000D03*
%TO.P,GND1,3,Pin_3*%
%TO.N,unconnected-(GND1-Pin_3-Pad3)*%
X73000000Y-76000000D03*
%TO.P,GND1,4,Pin_4*%
%TO.N,unconnected-(GND1-Pin_4-Pad4)*%
X74000000Y-76000000D03*
%TO.P,GND1,5,Pin_5*%
%TO.N,unconnected-(GND1-Pin_5-Pad5)*%
X75000000Y-76000000D03*
%TO.P,GND1,6,Pin_6*%
%TO.N,unconnected-(GND1-Pin_6-Pad6)*%
X76000000Y-76000000D03*
%TO.P,GND1,7,Pin_7*%
%TO.N,unconnected-(GND1-Pin_7-Pad7)*%
X77000000Y-76000000D03*
%TO.P,GND1,8,Pin_8*%
%TO.N,unconnected-(GND1-Pin_8-Pad8)*%
X78000000Y-76000000D03*
%TO.P,GND1,9,Pin_9*%
%TO.N,unconnected-(GND1-Pin_9-Pad9)*%
X79000000Y-76000000D03*
%TD*%
D14*
%TO.P,FFC3,01,Earth*%
%TO.N,Net-(PIN3-Pin_1)*%
X64070000Y-66820000D03*
%TO.P,FFC3,02,Signal*%
%TO.N,Net-(FFC3-Signal)*%
X66210000Y-67320000D03*
%TO.P,FFC3,03,Earth*%
%TO.N,Net-(PIN3-Pin_1)*%
X64070000Y-67820000D03*
%TO.P,FFC3,04,04*%
%TO.N,unconnected-(FFC3-Pad04)*%
X66210000Y-68320000D03*
%TO.P,FFC3,05,Earth*%
%TO.N,Net-(PIN3-Pin_1)*%
X64070000Y-68820000D03*
%TO.P,FFC3,06,Earth*%
X66210000Y-69320000D03*
%TO.P,FFC3,07,-2V5*%
%TO.N,Net-(FFC3--2V5)*%
X64070000Y-69820000D03*
%TO.P,FFC3,08,+2V5*%
%TO.N,Net-(FFC3-+2V5)*%
X66210000Y-70320000D03*
%TO.P,FFC3,09,V_Bias*%
%TO.N,Net-(FFC3-V_Bias)*%
X64070000Y-70820000D03*
%TO.P,FFC3,10,Earth*%
%TO.N,Net-(PIN3-Pin_1)*%
X66210000Y-71320000D03*
D15*
%TO.P,FFC3,S1*%
%TO.N,N/C*%
X65140000Y-65135000D03*
%TO.P,FFC3,S2*%
X65140000Y-73005000D03*
%TD*%
D14*
%TO.P,FFC2,01,Earth*%
%TO.N,Net-(PIN2-Pin_1)*%
X64070000Y-53320000D03*
%TO.P,FFC2,02,Signal*%
%TO.N,Net-(FFC2-Signal)*%
X66210000Y-53820000D03*
%TO.P,FFC2,03,Earth*%
%TO.N,Net-(PIN2-Pin_1)*%
X64070000Y-54320000D03*
%TO.P,FFC2,04,04*%
%TO.N,unconnected-(FFC2-Pad04)*%
X66210000Y-54820000D03*
%TO.P,FFC2,05,Earth*%
%TO.N,Net-(PIN2-Pin_1)*%
X64070000Y-55320000D03*
%TO.P,FFC2,06,Earth*%
X66210000Y-55820000D03*
%TO.P,FFC2,07,-2V5*%
%TO.N,Net-(FFC2--2V5)*%
X64070000Y-56320000D03*
%TO.P,FFC2,08,+2V5*%
%TO.N,Net-(FFC2-+2V5)*%
X66210000Y-56820000D03*
%TO.P,FFC2,09,V_Bias*%
%TO.N,Net-(FFC2-V_Bias)*%
X64070000Y-57320000D03*
%TO.P,FFC2,10,Earth*%
%TO.N,Net-(PIN2-Pin_1)*%
X66210000Y-57820000D03*
D15*
%TO.P,FFC2,S1*%
%TO.N,N/C*%
X65140000Y-51635000D03*
%TO.P,FFC2,S2*%
X65140000Y-59505000D03*
%TD*%
D10*
%TO.P,BNC7,1*%
%TO.N,Net-(FFC7-Signal)*%
X93500000Y-55570000D03*
D11*
%TO.P,BNC7,S_1*%
%TO.N,Net-(PIN7-Pin_1)*%
X90070000Y-52140000D03*
%TO.P,BNC7,S_2*%
X90070000Y-59000000D03*
%TO.P,BNC7,S_3*%
X96930000Y-59000000D03*
%TD*%
D10*
%TO.P,BNC5,1*%
%TO.N,Net-(FFC5-Signal)*%
X93500000Y-82070000D03*
D11*
%TO.P,BNC5,S_1*%
%TO.N,Net-(PIN5-Pin_1)*%
X90070000Y-78640000D03*
%TO.P,BNC5,S_2*%
X90070000Y-85500000D03*
%TO.P,BNC5,S_3*%
X96930000Y-85500000D03*
%TD*%
D10*
%TO.P,BNC3,1*%
%TO.N,Net-(FFC3-Signal)*%
X55210000Y-69070000D03*
D11*
%TO.P,BNC3,S_1*%
%TO.N,Net-(PIN3-Pin_1)*%
X51780000Y-65640000D03*
%TO.P,BNC3,S_2*%
X51780000Y-72500000D03*
%TO.P,BNC3,S_3*%
X58640000Y-72500000D03*
%TD*%
D10*
%TO.P,BNC8,1*%
%TO.N,Net-(FFC8-Signal)*%
X93360000Y-42070000D03*
D11*
%TO.P,BNC8,S_1*%
%TO.N,Net-(PIN8-Pin_1)*%
X89930000Y-38640000D03*
%TO.P,BNC8,S_2*%
X89930000Y-45500000D03*
%TO.P,BNC8,S_3*%
X96790000Y-45500000D03*
%TD*%
D12*
%TO.P,V_Bias1,1,Pin_1*%
%TO.N,unconnected-(SiPM_Bias1-Pin_1-Pad1)*%
X71000000Y-89250000D03*
D13*
%TO.P,V_Bias1,2,Pin_2*%
%TO.N,unconnected-(SiPM_Bias1-Pin_2-Pad2)*%
X72000000Y-89250000D03*
%TO.P,V_Bias1,3,Pin_3*%
%TO.N,unconnected-(SiPM_Bias1-Pin_3-Pad3)*%
X73000000Y-89250000D03*
%TO.P,V_Bias1,4,Pin_4*%
%TO.N,unconnected-(SiPM_Bias1-Pin_4-Pad4)*%
X74000000Y-89250000D03*
%TO.P,V_Bias1,5,Pin_5*%
%TO.N,unconnected-(SiPM_Bias1-Pin_5-Pad5)*%
X75000000Y-89250000D03*
%TO.P,V_Bias1,6,Pin_6*%
%TO.N,unconnected-(SiPM_Bias1-Pin_6-Pad6)*%
X76000000Y-89250000D03*
%TO.P,V_Bias1,7,Pin_7*%
%TO.N,unconnected-(SiPM_Bias1-Pin_7-Pad7)*%
X77000000Y-89250000D03*
%TO.P,V_Bias1,8,Pin_8*%
%TO.N,unconnected-(SiPM_Bias1-Pin_8-Pad8)*%
X78000000Y-89250000D03*
%TO.P,V_Bias1,9,Pin_9*%
%TO.N,unconnected-(SiPM_Bias1-Pin_9-Pad9)*%
X79000000Y-89250000D03*
%TD*%
D14*
%TO.P,FFC7,01,Earth*%
%TO.N,Net-(PIN7-Pin_1)*%
X82000000Y-53320000D03*
%TO.P,FFC7,02,Signal*%
%TO.N,Net-(FFC7-Signal)*%
X84140000Y-53820000D03*
%TO.P,FFC7,03,Earth*%
%TO.N,Net-(PIN7-Pin_1)*%
X82000000Y-54320000D03*
%TO.P,FFC7,04,04*%
%TO.N,unconnected-(FFC7-Pad04)*%
X84140000Y-54820000D03*
%TO.P,FFC7,05,Earth*%
%TO.N,Net-(PIN7-Pin_1)*%
X82000000Y-55320000D03*
%TO.P,FFC7,06,Earth*%
X84140000Y-55820000D03*
%TO.P,FFC7,07,-2V5*%
%TO.N,Net-(FFC7--2V5)*%
X82000000Y-56320000D03*
%TO.P,FFC7,08,+2V5*%
%TO.N,Net-(FFC7-+2V5)*%
X84140000Y-56820000D03*
%TO.P,FFC7,09,V_Bias*%
%TO.N,Net-(FFC7-V_Bias)*%
X82000000Y-57320000D03*
%TO.P,FFC7,10,Earth*%
%TO.N,Net-(PIN7-Pin_1)*%
X84140000Y-57820000D03*
D15*
%TO.P,FFC7,S1*%
%TO.N,N/C*%
X83070000Y-51635000D03*
%TO.P,FFC7,S2*%
X83070000Y-59505000D03*
%TD*%
D12*
%TO.P,PIN5,1,Pin_1*%
%TO.N,Net-(PIN5-Pin_1)*%
X78070000Y-80570000D03*
D13*
%TO.P,PIN5,2,Pin_2*%
%TO.N,Net-(FFC5--2V5)*%
X78070000Y-81570000D03*
%TO.P,PIN5,3,Pin_3*%
%TO.N,Net-(FFC5-+2V5)*%
X78070000Y-82570000D03*
%TO.P,PIN5,4,Pin_4*%
%TO.N,Net-(FFC5-V_Bias)*%
X78070000Y-83570000D03*
%TD*%
D12*
%TO.P,+2V5,1,Pin_1*%
%TO.N,unconnected-(+2V5-Pin_1-Pad1)*%
X71000000Y-49000000D03*
D13*
%TO.P,+2V5,2,Pin_2*%
%TO.N,unconnected-(+2V5-Pin_2-Pad2)*%
X72000000Y-49000000D03*
%TO.P,+2V5,3,Pin_3*%
%TO.N,unconnected-(+2V5-Pin_3-Pad3)*%
X73000000Y-49000000D03*
%TO.P,+2V5,4,Pin_4*%
%TO.N,unconnected-(+2V5-Pin_4-Pad4)*%
X74000000Y-49000000D03*
%TO.P,+2V5,5,Pin_5*%
%TO.N,unconnected-(+2V5-Pin_5-Pad5)*%
X75000000Y-49000000D03*
%TO.P,+2V5,6,Pin_6*%
%TO.N,unconnected-(+2V5-Pin_6-Pad6)*%
X76000000Y-49000000D03*
%TO.P,+2V5,7,Pin_7*%
%TO.N,unconnected-(+2V5-Pin_7-Pad7)*%
X77000000Y-49000000D03*
%TO.P,+2V5,8,Pin_8*%
%TO.N,unconnected-(+2V5-Pin_8-Pad8)*%
X78000000Y-49000000D03*
%TO.P,+2V5,9,Pin_9*%
%TO.N,unconnected-(+2V5-Pin_9-Pad9)*%
X79000000Y-49000000D03*
%TD*%
D10*
%TO.P,BNC2,1*%
%TO.N,Net-(FFC2-Signal)*%
X55210000Y-55570000D03*
D11*
%TO.P,BNC2,S_1*%
%TO.N,Net-(PIN2-Pin_1)*%
X51780000Y-52140000D03*
%TO.P,BNC2,S_2*%
X51780000Y-59000000D03*
%TO.P,BNC2,S_3*%
X58640000Y-59000000D03*
%TD*%
D12*
%TO.P,PIN7,1,Pin_1*%
%TO.N,Net-(PIN7-Pin_1)*%
X78070000Y-54070000D03*
D13*
%TO.P,PIN7,2,Pin_2*%
%TO.N,Net-(FFC7--2V5)*%
X78070000Y-55070000D03*
%TO.P,PIN7,3,Pin_3*%
%TO.N,Net-(FFC7-+2V5)*%
X78070000Y-56070000D03*
%TO.P,PIN7,4,Pin_4*%
%TO.N,Net-(FFC7-V_Bias)*%
X78070000Y-57070000D03*
%TD*%
D12*
%TO.P,PIN4,1,Pin_1*%
%TO.N,Net-(PIN4-Pin_1)*%
X70140000Y-80570000D03*
D13*
%TO.P,PIN4,2,Pin_2*%
%TO.N,Net-(FFC4--2V5)*%
X70140000Y-81570000D03*
%TO.P,PIN4,3,Pin_3*%
%TO.N,Net-(FFC4-+2V5)*%
X70140000Y-82570000D03*
%TO.P,PIN4,4,Pin_4*%
%TO.N,Net-(FFC4-V_Bias)*%
X70140000Y-83570000D03*
%TD*%
D14*
%TO.P,FFC1,01,Earth*%
%TO.N,Net-(PIN1-Pin_1)*%
X63930000Y-39820000D03*
%TO.P,FFC1,02,Signal*%
%TO.N,Net-(FFC1-Signal)*%
X66070000Y-40320000D03*
%TO.P,FFC1,03,Earth*%
%TO.N,Net-(PIN1-Pin_1)*%
X63930000Y-40820000D03*
%TO.P,FFC1,04,04*%
%TO.N,unconnected-(FFC1-Pad04)*%
X66070000Y-41320000D03*
%TO.P,FFC1,05,Earth*%
%TO.N,Net-(PIN1-Pin_1)*%
X63930000Y-41820000D03*
%TO.P,FFC1,06,Earth*%
X66070000Y-42320000D03*
%TO.P,FFC1,07,-2V5*%
%TO.N,Net-(FFC1--2V5)*%
X63930000Y-42820000D03*
%TO.P,FFC1,08,+2V5*%
%TO.N,Net-(FFC1-+2V5)*%
X66070000Y-43320000D03*
%TO.P,FFC1,09,V_Bias*%
%TO.N,Net-(FFC1-V_Bias)*%
X63930000Y-43820000D03*
%TO.P,FFC1,10,Earth*%
%TO.N,Net-(PIN1-Pin_1)*%
X66070000Y-44320000D03*
D15*
%TO.P,FFC1,S1*%
%TO.N,N/C*%
X65000000Y-38135000D03*
%TO.P,FFC1,S2*%
X65000000Y-46005000D03*
%TD*%
D10*
%TO.P,BNC1,1*%
%TO.N,Net-(FFC1-Signal)*%
X55070000Y-42070000D03*
D11*
%TO.P,BNC1,S_1*%
%TO.N,Net-(PIN1-Pin_1)*%
X51640000Y-38640000D03*
%TO.P,BNC1,S_2*%
X51640000Y-45500000D03*
%TO.P,BNC1,S_3*%
X58500000Y-45500000D03*
%TD*%
D12*
%TO.P,-2V5,1,Pin_1*%
%TO.N,unconnected-(-2V5-Pin_1-Pad1)*%
X71000000Y-63250000D03*
D13*
%TO.P,-2V5,2,Pin_2*%
%TO.N,unconnected-(-2V5-Pin_2-Pad2)*%
X72000000Y-63250000D03*
%TO.P,-2V5,3,Pin_3*%
%TO.N,unconnected-(-2V5-Pin_3-Pad3)*%
X73000000Y-63250000D03*
%TO.P,-2V5,4,Pin_4*%
%TO.N,unconnected-(-2V5-Pin_4-Pad4)*%
X74000000Y-63250000D03*
%TO.P,-2V5,5,Pin_5*%
%TO.N,unconnected-(-2V5-Pin_5-Pad5)*%
X75000000Y-63250000D03*
%TO.P,-2V5,6,Pin_6*%
%TO.N,unconnected-(-2V5-Pin_6-Pad6)*%
X76000000Y-63250000D03*
%TO.P,-2V5,7,Pin_7*%
%TO.N,unconnected-(-2V5-Pin_7-Pad7)*%
X77000000Y-63250000D03*
%TO.P,-2V5,8,Pin_8*%
%TO.N,unconnected-(-2V5-Pin_8-Pad8)*%
X78000000Y-63250000D03*
%TO.P,-2V5,9,Pin_9*%
%TO.N,unconnected-(-2V5-Pin_9-Pad9)*%
X79000000Y-63250000D03*
%TD*%
D14*
%TO.P,FFC4,01,Earth*%
%TO.N,Net-(PIN4-Pin_1)*%
X64070000Y-79820000D03*
%TO.P,FFC4,02,Signal*%
%TO.N,Net-(FFC4-Signal)*%
X66210000Y-80320000D03*
%TO.P,FFC4,03,Earth*%
%TO.N,Net-(PIN4-Pin_1)*%
X64070000Y-80820000D03*
%TO.P,FFC4,04,04*%
%TO.N,unconnected-(FFC4-Pad04)*%
X66210000Y-81320000D03*
%TO.P,FFC4,05,Earth*%
%TO.N,Net-(PIN4-Pin_1)*%
X64070000Y-81820000D03*
%TO.P,FFC4,06,Earth*%
X66210000Y-82320000D03*
%TO.P,FFC4,07,-2V5*%
%TO.N,Net-(FFC4--2V5)*%
X64070000Y-82820000D03*
%TO.P,FFC4,08,+2V5*%
%TO.N,Net-(FFC4-+2V5)*%
X66210000Y-83320000D03*
%TO.P,FFC4,09,V_Bias*%
%TO.N,Net-(FFC4-V_Bias)*%
X64070000Y-83820000D03*
%TO.P,FFC4,10,Earth*%
%TO.N,Net-(PIN4-Pin_1)*%
X66210000Y-84320000D03*
D15*
%TO.P,FFC4,S1*%
%TO.N,N/C*%
X65140000Y-78135000D03*
%TO.P,FFC4,S2*%
X65140000Y-86005000D03*
%TD*%
D14*
%TO.P,FFC6,01,Earth*%
%TO.N,Net-(PIN6-Pin_1)*%
X82000000Y-66820000D03*
%TO.P,FFC6,02,Signal*%
%TO.N,Net-(FFC6-Signal)*%
X84140000Y-67320000D03*
%TO.P,FFC6,03,Earth*%
%TO.N,Net-(PIN6-Pin_1)*%
X82000000Y-67820000D03*
%TO.P,FFC6,04,04*%
%TO.N,unconnected-(FFC6-Pad04)*%
X84140000Y-68320000D03*
%TO.P,FFC6,05,Earth*%
%TO.N,Net-(PIN6-Pin_1)*%
X82000000Y-68820000D03*
%TO.P,FFC6,06,Earth*%
X84140000Y-69320000D03*
%TO.P,FFC6,07,-2V5*%
%TO.N,Net-(FFC6--2V5)*%
X82000000Y-69820000D03*
%TO.P,FFC6,08,+2V5*%
%TO.N,Net-(FFC6-+2V5)*%
X84140000Y-70320000D03*
%TO.P,FFC6,09,V_Bias*%
%TO.N,Net-(FFC6-V_Bias)*%
X82000000Y-70820000D03*
%TO.P,FFC6,10,Earth*%
%TO.N,Net-(PIN6-Pin_1)*%
X84140000Y-71320000D03*
D15*
%TO.P,FFC6,S1*%
%TO.N,N/C*%
X83070000Y-65135000D03*
%TO.P,FFC6,S2*%
X83070000Y-73005000D03*
%TD*%
D12*
%TO.P,PIN6,1,Pin_1*%
%TO.N,Net-(PIN6-Pin_1)*%
X78070000Y-67570000D03*
D13*
%TO.P,PIN6,2,Pin_2*%
%TO.N,Net-(FFC6--2V5)*%
X78070000Y-68570000D03*
%TO.P,PIN6,3,Pin_3*%
%TO.N,Net-(FFC6-+2V5)*%
X78070000Y-69570000D03*
%TO.P,PIN6,4,Pin_4*%
%TO.N,Net-(FFC6-V_Bias)*%
X78070000Y-70570000D03*
%TD*%
D12*
%TO.P,PIN1,1,Pin_1*%
%TO.N,Net-(PIN1-Pin_1)*%
X70000000Y-40570000D03*
D13*
%TO.P,PIN1,2,Pin_2*%
%TO.N,Net-(FFC1--2V5)*%
X70000000Y-41570000D03*
%TO.P,PIN1,3,Pin_3*%
%TO.N,Net-(FFC1-+2V5)*%
X70000000Y-42570000D03*
%TO.P,PIN1,4,Pin_4*%
%TO.N,Net-(FFC1-V_Bias)*%
X70000000Y-43570000D03*
%TD*%
D16*
%TO.N,Net-(PIN1-Pin_1)*%
X68430000Y-40570000D02*
X70000000Y-40570000D01*
X65570000Y-41820000D02*
X66070000Y-42320000D01*
X51640000Y-45500000D02*
X51640000Y-38640000D01*
X70680000Y-44320000D02*
X71000000Y-44000000D01*
X63930000Y-41820000D02*
X63930000Y-40820000D01*
X66070000Y-44320000D02*
X70680000Y-44320000D01*
X63930000Y-41820000D02*
X65570000Y-41820000D01*
X58500000Y-45500000D02*
X51640000Y-45500000D01*
X63930000Y-39820000D02*
X63930000Y-40070000D01*
X66070000Y-42320000D02*
X66680000Y-42320000D01*
X66680000Y-42320000D02*
X68430000Y-40570000D01*
X70625000Y-40570000D02*
X70000000Y-40570000D01*
X62180000Y-41820000D02*
X63930000Y-41820000D01*
X63930000Y-40820000D02*
X63930000Y-39820000D01*
X58500000Y-45500000D02*
X62180000Y-41820000D01*
X71000000Y-44000000D02*
X71000000Y-40945000D01*
X71000000Y-40945000D02*
X70625000Y-40570000D01*
%TO.N,Net-(FFC1-Signal)*%
X61890000Y-35250000D02*
X68000000Y-35250000D01*
X68000000Y-38390000D02*
X66070000Y-40320000D01*
X68000000Y-35250000D02*
X68000000Y-38390000D01*
X55070000Y-42070000D02*
X61890000Y-35250000D01*
%TO.N,Net-(FFC2-Signal)*%
X68000000Y-52030000D02*
X68000000Y-48750000D01*
X68000000Y-48750000D02*
X62030000Y-48750000D01*
X66210000Y-53820000D02*
X68000000Y-52030000D01*
X62030000Y-48750000D02*
X55210000Y-55570000D01*
%TO.N,Net-(PIN2-Pin_1)*%
X58640000Y-59000000D02*
X51780000Y-59000000D01*
X64070000Y-54320000D02*
X64070000Y-55320000D01*
X70415305Y-57820000D02*
X70865000Y-57370305D01*
X66825000Y-55820000D02*
X68575000Y-54070000D01*
X51780000Y-59000000D02*
X51780000Y-52140000D01*
X70865000Y-54170000D02*
X70765000Y-54070000D01*
X68575000Y-54070000D02*
X70140000Y-54070000D01*
X65710000Y-55320000D02*
X66210000Y-55820000D01*
X64070000Y-53320000D02*
X64070000Y-54320000D01*
X64070000Y-55320000D02*
X65710000Y-55320000D01*
X62320000Y-55320000D02*
X64070000Y-55320000D01*
X70765000Y-54070000D02*
X70140000Y-54070000D01*
X66210000Y-57820000D02*
X70415305Y-57820000D01*
X66210000Y-55820000D02*
X66825000Y-55820000D01*
X70865000Y-57370305D02*
X70865000Y-54170000D01*
X58640000Y-59000000D02*
X62320000Y-55320000D01*
%TO.N,Net-(PIN3-Pin_1)*%
X51780000Y-72500000D02*
X51780000Y-65640000D01*
X66210000Y-71320000D02*
X70415305Y-71320000D01*
X66210000Y-69320000D02*
X66825000Y-69320000D01*
X66825000Y-69320000D02*
X68575000Y-67570000D01*
X58640000Y-72500000D02*
X51780000Y-72500000D01*
X62320000Y-68820000D02*
X58640000Y-72500000D01*
X64070000Y-66820000D02*
X64070000Y-67820000D01*
X64070000Y-68820000D02*
X62320000Y-68820000D01*
X70865000Y-67670000D02*
X70765000Y-67570000D01*
X70415305Y-71320000D02*
X70865000Y-70870305D01*
X65710000Y-68820000D02*
X66210000Y-69320000D01*
X70765000Y-67570000D02*
X70140000Y-67570000D01*
X64070000Y-68820000D02*
X65710000Y-68820000D01*
X68575000Y-67570000D02*
X70140000Y-67570000D01*
X64070000Y-68820000D02*
X64070000Y-67820000D01*
X70865000Y-70870305D02*
X70865000Y-67670000D01*
%TO.N,Net-(FFC3-Signal)*%
X68000000Y-65530000D02*
X66210000Y-67320000D01*
X55210000Y-69070000D02*
X62030000Y-62250000D01*
X68000000Y-62250000D02*
X68000000Y-65530000D01*
X62030000Y-62250000D02*
X68000000Y-62250000D01*
%TO.N,Net-(PIN4-Pin_1)*%
X71000000Y-80805000D02*
X70765000Y-80570000D01*
X58640000Y-85500000D02*
X51780000Y-85500000D01*
X64070000Y-79820000D02*
X64070000Y-80070000D01*
X66825000Y-82320000D02*
X68575000Y-80570000D01*
X64070000Y-80820000D02*
X64070000Y-79820000D01*
X71000000Y-83735305D02*
X71000000Y-80805000D01*
X58640000Y-85500000D02*
X62320000Y-81820000D01*
X51780000Y-85500000D02*
X51780000Y-78640000D01*
X70415305Y-84320000D02*
X71000000Y-83735305D01*
X64070000Y-81820000D02*
X64070000Y-80820000D01*
X65710000Y-81820000D02*
X66210000Y-82320000D01*
X62320000Y-81820000D02*
X64070000Y-81820000D01*
X68575000Y-80570000D02*
X70140000Y-80570000D01*
X70765000Y-80570000D02*
X70140000Y-80570000D01*
X66210000Y-84320000D02*
X70415305Y-84320000D01*
X64070000Y-81820000D02*
X65710000Y-81820000D01*
X66210000Y-82320000D02*
X66825000Y-82320000D01*
%TO.N,Net-(FFC4-Signal)*%
X68000000Y-78530000D02*
X66210000Y-80320000D01*
X55210000Y-82070000D02*
X61780000Y-75500000D01*
X61780000Y-75500000D02*
X68000000Y-75500000D01*
X68000000Y-75500000D02*
X68000000Y-78530000D01*
%TO.N,Net-(FFC5-Signal)*%
X86250000Y-80250000D02*
X84210000Y-80250000D01*
X93500000Y-76250000D02*
X86250000Y-76250000D01*
X93500000Y-82070000D02*
X93500000Y-76250000D01*
X86250000Y-76250000D02*
X86250000Y-80250000D01*
X84210000Y-80250000D02*
X84140000Y-80320000D01*
%TO.N,Net-(PIN5-Pin_1)*%
X77345000Y-80670000D02*
X77445000Y-80570000D01*
X84140000Y-82320000D02*
X86390000Y-82320000D01*
X82000000Y-79820000D02*
X82000000Y-80820000D01*
X77445000Y-80570000D02*
X78070000Y-80570000D01*
X82000000Y-79820000D02*
X81180000Y-79820000D01*
X90070000Y-78640000D02*
X90070000Y-85500000D01*
X82000000Y-81820000D02*
X82000000Y-80820000D01*
X84140000Y-84320000D02*
X77794695Y-84320000D01*
X80430000Y-80570000D02*
X78070000Y-80570000D01*
X81180000Y-79820000D02*
X80430000Y-80570000D01*
X90070000Y-85500000D02*
X96930000Y-85500000D01*
X77345000Y-83870305D02*
X77345000Y-80670000D01*
X82000000Y-81820000D02*
X83640000Y-81820000D01*
X83640000Y-81820000D02*
X84140000Y-82320000D01*
X86390000Y-82320000D02*
X90070000Y-78640000D01*
X77794695Y-84320000D02*
X77345000Y-83870305D01*
%TO.N,Net-(FFC6-Signal)*%
X93500000Y-69070000D02*
X93500000Y-63250000D01*
X86500000Y-63250000D02*
X86500000Y-67320000D01*
X86500000Y-67320000D02*
X84140000Y-67320000D01*
X93500000Y-63250000D02*
X86500000Y-63250000D01*
%TO.N,Net-(PIN6-Pin_1)*%
X84140000Y-71320000D02*
X77794695Y-71320000D01*
X96930000Y-72500000D02*
X90070000Y-72500000D01*
X77445000Y-67570000D02*
X78070000Y-67570000D01*
X82000000Y-66820000D02*
X82000000Y-67820000D01*
X90070000Y-72500000D02*
X90070000Y-65640000D01*
X86755000Y-69320000D02*
X84140000Y-69320000D01*
X77794695Y-71320000D02*
X77345000Y-70870305D01*
X90070000Y-65640000D02*
X90070000Y-66005000D01*
X82000000Y-67820000D02*
X82000000Y-68820000D01*
X77345000Y-70870305D02*
X77345000Y-67670000D01*
X90070000Y-66005000D02*
X86755000Y-69320000D01*
X77345000Y-67670000D02*
X77445000Y-67570000D01*
%TO.N,Net-(PIN7-Pin_1)*%
X79680000Y-53320000D02*
X82000000Y-53320000D01*
X96930000Y-59000000D02*
X90070000Y-59000000D01*
X85320000Y-59000000D02*
X84140000Y-57820000D01*
X82000000Y-53320000D02*
X82000000Y-54320000D01*
X77345000Y-57370305D02*
X77345000Y-54170000D01*
X84140000Y-55820000D02*
X83640000Y-55320000D01*
X90070000Y-52140000D02*
X90070000Y-59000000D01*
X84140000Y-57820000D02*
X77794695Y-57820000D01*
X77345000Y-54170000D02*
X77445000Y-54070000D01*
X83640000Y-55320000D02*
X82000000Y-55320000D01*
X77794695Y-57820000D02*
X77345000Y-57370305D01*
X78930000Y-54070000D02*
X79680000Y-53320000D01*
X90070000Y-59000000D02*
X85320000Y-59000000D01*
X78070000Y-54070000D02*
X78930000Y-54070000D01*
X82000000Y-55320000D02*
X82000000Y-54320000D01*
X77445000Y-54070000D02*
X78070000Y-54070000D01*
X86390000Y-55820000D02*
X90070000Y-52140000D01*
X84140000Y-55820000D02*
X86390000Y-55820000D01*
%TO.N,Net-(FFC7-Signal)*%
X87000000Y-49750000D02*
X87000000Y-53750000D01*
X87000000Y-53750000D02*
X86930000Y-53820000D01*
X93500000Y-55570000D02*
X93500000Y-49750000D01*
X93500000Y-49750000D02*
X87000000Y-49750000D01*
X86930000Y-53820000D02*
X84140000Y-53820000D01*
%TO.N,Net-(FFC8-Signal)*%
X93360000Y-42070000D02*
X93360000Y-36250000D01*
X93360000Y-36250000D02*
X87430000Y-36250000D01*
X87430000Y-36250000D02*
X87430000Y-40320000D01*
X87430000Y-40320000D02*
X84000000Y-40320000D01*
%TO.N,Net-(PIN8-Pin_1)*%
X84000000Y-44320000D02*
X77654695Y-44320000D01*
X81860000Y-39820000D02*
X78680000Y-39820000D01*
X89930000Y-45500000D02*
X96790000Y-45500000D01*
X81860000Y-41820000D02*
X81860000Y-40820000D01*
X83500000Y-41820000D02*
X84000000Y-42320000D01*
X89930000Y-45500000D02*
X85180000Y-45500000D01*
X77205000Y-43870305D02*
X77205000Y-40670000D01*
X81860000Y-40820000D02*
X81860000Y-39820000D01*
X77205000Y-40670000D02*
X77305000Y-40570000D01*
X89930000Y-38640000D02*
X89930000Y-45500000D01*
X78680000Y-39820000D02*
X77930000Y-40570000D01*
X85180000Y-45500000D02*
X84000000Y-44320000D01*
X77305000Y-40570000D02*
X77930000Y-40570000D01*
X77654695Y-44320000D02*
X77205000Y-43870305D01*
X81860000Y-41820000D02*
X83500000Y-41820000D01*
%TO.N,Net-(FFC1-V_Bias)*%
X63930000Y-43820000D02*
X69750000Y-43820000D01*
X69750000Y-43820000D02*
X70000000Y-43570000D01*
%TO.N,Net-(FFC1--2V5)*%
X68680000Y-41570000D02*
X70000000Y-41570000D01*
X63930000Y-42820000D02*
X67430000Y-42820000D01*
X67430000Y-42820000D02*
X68680000Y-41570000D01*
%TO.N,Net-(FFC1-+2V5)*%
X68930000Y-42570000D02*
X70000000Y-42570000D01*
X66070000Y-43320000D02*
X68180000Y-43320000D01*
X68180000Y-43320000D02*
X68930000Y-42570000D01*
%TO.N,Net-(FFC2-V_Bias)*%
X64070000Y-57320000D02*
X69890000Y-57320000D01*
X69890000Y-57320000D02*
X70140000Y-57070000D01*
%TO.N,Net-(FFC2-+2V5)*%
X68180000Y-56820000D02*
X68930000Y-56070000D01*
X68930000Y-56070000D02*
X70140000Y-56070000D01*
X66210000Y-56820000D02*
X68180000Y-56820000D01*
%TO.N,Net-(FFC2--2V5)*%
X67325000Y-56320000D02*
X64070000Y-56320000D01*
X68575000Y-55070000D02*
X67325000Y-56320000D01*
X70140000Y-55070000D02*
X68575000Y-55070000D01*
%TO.N,Net-(FFC3--2V5)*%
X67430000Y-69820000D02*
X68680000Y-68570000D01*
X68680000Y-68570000D02*
X70140000Y-68570000D01*
X64070000Y-69820000D02*
X67430000Y-69820000D01*
%TO.N,Net-(FFC3-+2V5)*%
X67930000Y-70320000D02*
X68680000Y-69570000D01*
X66210000Y-70320000D02*
X67930000Y-70320000D01*
X68680000Y-69570000D02*
X70140000Y-69570000D01*
%TO.N,Net-(FFC3-V_Bias)*%
X69890000Y-70820000D02*
X70140000Y-70570000D01*
X64070000Y-70820000D02*
X69890000Y-70820000D01*
%TO.N,Net-(FFC4-V_Bias)*%
X69890000Y-83820000D02*
X70140000Y-83570000D01*
X64070000Y-83820000D02*
X69890000Y-83820000D01*
%TO.N,Net-(FFC4--2V5)*%
X67250000Y-82820000D02*
X68500000Y-81570000D01*
X64070000Y-82820000D02*
X67250000Y-82820000D01*
X68500000Y-81570000D02*
X70140000Y-81570000D01*
%TO.N,Net-(FFC4-+2V5)*%
X68680000Y-82570000D02*
X70140000Y-82570000D01*
X66210000Y-83320000D02*
X67930000Y-83320000D01*
X67930000Y-83320000D02*
X68680000Y-82570000D01*
%TO.N,Net-(FFC5--2V5)*%
X80135000Y-81570000D02*
X78070000Y-81570000D01*
X82000000Y-82820000D02*
X81385000Y-82820000D01*
X81385000Y-82820000D02*
X80135000Y-81570000D01*
%TO.N,Net-(FFC5-V_Bias)*%
X82000000Y-83820000D02*
X78320000Y-83820000D01*
X78320000Y-83820000D02*
X78070000Y-83570000D01*
%TO.N,Net-(FFC5-+2V5)*%
X80135000Y-82570000D02*
X78070000Y-82570000D01*
X84140000Y-83320000D02*
X80885000Y-83320000D01*
X80885000Y-83320000D02*
X80135000Y-82570000D01*
%TO.N,Net-(FFC6-V_Bias)*%
X82000000Y-70820000D02*
X78320000Y-70820000D01*
X78320000Y-70820000D02*
X78070000Y-70570000D01*
%TO.N,Net-(FFC6--2V5)*%
X82000000Y-69820000D02*
X81385000Y-69820000D01*
X80135000Y-68570000D02*
X78070000Y-68570000D01*
X81385000Y-69820000D02*
X80135000Y-68570000D01*
%TO.N,Net-(FFC6-+2V5)*%
X80135000Y-69570000D02*
X78070000Y-69570000D01*
X80885000Y-70320000D02*
X80135000Y-69570000D01*
X84140000Y-70320000D02*
X80885000Y-70320000D01*
%TO.N,Net-(FFC7-V_Bias)*%
X82000000Y-57320000D02*
X78320000Y-57320000D01*
X78320000Y-57320000D02*
X78070000Y-57070000D01*
%TO.N,Net-(FFC7--2V5)*%
X81385000Y-56320000D02*
X80135000Y-55070000D01*
X80135000Y-55070000D02*
X78070000Y-55070000D01*
X82000000Y-56320000D02*
X81385000Y-56320000D01*
%TO.N,Net-(FFC7-+2V5)*%
X80885000Y-56820000D02*
X80135000Y-56070000D01*
X80135000Y-56070000D02*
X78070000Y-56070000D01*
X84140000Y-56820000D02*
X80885000Y-56820000D01*
%TO.N,Net-(FFC8-+2V5)*%
X80820000Y-43320000D02*
X80070000Y-42570000D01*
X84000000Y-43320000D02*
X80820000Y-43320000D01*
X80070000Y-42570000D02*
X77930000Y-42570000D01*
%TO.N,Net-(FFC8--2V5)*%
X81245000Y-42820000D02*
X79995000Y-41570000D01*
X79995000Y-41570000D02*
X77930000Y-41570000D01*
X81860000Y-42820000D02*
X81245000Y-42820000D01*
%TO.N,Net-(FFC8-V_Bias)*%
X78180000Y-43820000D02*
X77930000Y-43570000D01*
X81860000Y-43820000D02*
X78180000Y-43820000D01*
%TD*%
M02*
