%TF.GenerationSoftware,KiCad,Pcbnew,8.0.4*%
%TF.CreationDate,2025-03-26T20:34:27+08:00*%
%TF.ProjectId,AdaptorBoard,41646170-746f-4724-926f-6172642e6b69,rev?*%
%TF.SameCoordinates,Original*%
%TF.FileFunction,Copper,L2,Bot*%
%TF.FilePolarity,Positive*%
%FSLAX46Y46*%
G04 Gerber Fmt 4.6, Leading zero omitted, Abs format (unit mm)*
G04 Created by KiCad (PCBNEW 8.0.4) date 2025-03-26 20:34:27*
%MOMM*%
%LPD*%
G01*
G04 APERTURE LIST*
%TA.AperFunction,ComponentPad*%
%ADD10C,1.575000*%
%TD*%
%TA.AperFunction,ComponentPad*%
%ADD11C,2.775000*%
%TD*%
%TA.AperFunction,ComponentPad*%
%ADD12R,0.850000X0.850000*%
%TD*%
%TA.AperFunction,ComponentPad*%
%ADD13O,0.850000X0.850000*%
%TD*%
G04 APERTURE END LIST*
D10*
%TO.P,BNC4,1*%
%TO.N,Net-(FFC4-Signal)*%
X55210000Y-82070000D03*
D11*
%TO.P,BNC4,S_1*%
%TO.N,Net-(PIN4-Pin_1)*%
X51780000Y-78640000D03*
%TO.P,BNC4,S_2*%
X51780000Y-85500000D03*
%TO.P,BNC4,S_3*%
X58640000Y-85500000D03*
%TD*%
D12*
%TO.P,PIN2,1,Pin_1*%
%TO.N,Net-(PIN2-Pin_1)*%
X70140000Y-54070000D03*
D13*
%TO.P,PIN2,2,Pin_2*%
%TO.N,Net-(FFC2--2V5)*%
X70140000Y-55070000D03*
%TO.P,PIN2,3,Pin_3*%
%TO.N,Net-(FFC2-+2V5)*%
X70140000Y-56070000D03*
%TO.P,PIN2,4,Pin_4*%
%TO.N,Net-(FFC2-V_Bias)*%
X70140000Y-57070000D03*
%TD*%
D12*
%TO.P,PIN8,1,Pin_1*%
%TO.N,Net-(PIN8-Pin_1)*%
X77930000Y-40570000D03*
D13*
%TO.P,PIN8,2,Pin_2*%
%TO.N,Net-(FFC8--2V5)*%
X77930000Y-41570000D03*
%TO.P,PIN8,3,Pin_3*%
%TO.N,Net-(FFC8-+2V5)*%
X77930000Y-42570000D03*
%TO.P,PIN8,4,Pin_4*%
%TO.N,Net-(FFC8-V_Bias)*%
X77930000Y-43570000D03*
%TD*%
D10*
%TO.P,BNC6,1*%
%TO.N,Net-(FFC6-Signal)*%
X93500000Y-69070000D03*
D11*
%TO.P,BNC6,S_1*%
%TO.N,Net-(PIN6-Pin_1)*%
X90070000Y-65640000D03*
%TO.P,BNC6,S_2*%
X90070000Y-72500000D03*
%TO.P,BNC6,S_3*%
X96930000Y-72500000D03*
%TD*%
D12*
%TO.P,PIN3,1,Pin_1*%
%TO.N,Net-(PIN3-Pin_1)*%
X70140000Y-67570000D03*
D13*
%TO.P,PIN3,2,Pin_2*%
%TO.N,Net-(FFC3--2V5)*%
X70140000Y-68570000D03*
%TO.P,PIN3,3,Pin_3*%
%TO.N,Net-(FFC3-+2V5)*%
X70140000Y-69570000D03*
%TO.P,PIN3,4,Pin_4*%
%TO.N,Net-(FFC3-V_Bias)*%
X70140000Y-70570000D03*
%TD*%
D12*
%TO.P,GND1,1,Pin_1*%
%TO.N,unconnected-(GND1-Pin_1-Pad1)*%
X71000000Y-76000000D03*
D13*
%TO.P,GND1,2,Pin_2*%
%TO.N,unconnected-(GND1-Pin_2-Pad2)*%
X72000000Y-76000000D03*
%TO.P,GND1,3,Pin_3*%
%TO.N,unconnected-(GND1-Pin_3-Pad3)*%
X73000000Y-76000000D03*
%TO.P,GND1,4,Pin_4*%
%TO.N,unconnected-(GND1-Pin_4-Pad4)*%
X74000000Y-76000000D03*
%TO.P,GND1,5,Pin_5*%
%TO.N,unconnected-(GND1-Pin_5-Pad5)*%
X75000000Y-76000000D03*
%TO.P,GND1,6,Pin_6*%
%TO.N,unconnected-(GND1-Pin_6-Pad6)*%
X76000000Y-76000000D03*
%TO.P,GND1,7,Pin_7*%
%TO.N,unconnected-(GND1-Pin_7-Pad7)*%
X77000000Y-76000000D03*
%TO.P,GND1,8,Pin_8*%
%TO.N,unconnected-(GND1-Pin_8-Pad8)*%
X78000000Y-76000000D03*
%TO.P,GND1,9,Pin_9*%
%TO.N,unconnected-(GND1-Pin_9-Pad9)*%
X79000000Y-76000000D03*
%TD*%
D10*
%TO.P,BNC7,1*%
%TO.N,Net-(FFC7-Signal)*%
X93500000Y-55570000D03*
D11*
%TO.P,BNC7,S_1*%
%TO.N,Net-(PIN7-Pin_1)*%
X90070000Y-52140000D03*
%TO.P,BNC7,S_2*%
X90070000Y-59000000D03*
%TO.P,BNC7,S_3*%
X96930000Y-59000000D03*
%TD*%
D10*
%TO.P,BNC5,1*%
%TO.N,Net-(FFC5-Signal)*%
X93500000Y-82070000D03*
D11*
%TO.P,BNC5,S_1*%
%TO.N,Net-(PIN5-Pin_1)*%
X90070000Y-78640000D03*
%TO.P,BNC5,S_2*%
X90070000Y-85500000D03*
%TO.P,BNC5,S_3*%
X96930000Y-85500000D03*
%TD*%
D10*
%TO.P,BNC3,1*%
%TO.N,Net-(FFC3-Signal)*%
X55210000Y-69070000D03*
D11*
%TO.P,BNC3,S_1*%
%TO.N,Net-(PIN3-Pin_1)*%
X51780000Y-65640000D03*
%TO.P,BNC3,S_2*%
X51780000Y-72500000D03*
%TO.P,BNC3,S_3*%
X58640000Y-72500000D03*
%TD*%
D10*
%TO.P,BNC8,1*%
%TO.N,Net-(FFC8-Signal)*%
X93360000Y-42070000D03*
D11*
%TO.P,BNC8,S_1*%
%TO.N,Net-(PIN8-Pin_1)*%
X89930000Y-38640000D03*
%TO.P,BNC8,S_2*%
X89930000Y-45500000D03*
%TO.P,BNC8,S_3*%
X96790000Y-45500000D03*
%TD*%
D12*
%TO.P,V_Bias1,1,Pin_1*%
%TO.N,unconnected-(SiPM_Bias1-Pin_1-Pad1)*%
X71000000Y-89250000D03*
D13*
%TO.P,V_Bias1,2,Pin_2*%
%TO.N,unconnected-(SiPM_Bias1-Pin_2-Pad2)*%
X72000000Y-89250000D03*
%TO.P,V_Bias1,3,Pin_3*%
%TO.N,unconnected-(SiPM_Bias1-Pin_3-Pad3)*%
X73000000Y-89250000D03*
%TO.P,V_Bias1,4,Pin_4*%
%TO.N,unconnected-(SiPM_Bias1-Pin_4-Pad4)*%
X74000000Y-89250000D03*
%TO.P,V_Bias1,5,Pin_5*%
%TO.N,unconnected-(SiPM_Bias1-Pin_5-Pad5)*%
X75000000Y-89250000D03*
%TO.P,V_Bias1,6,Pin_6*%
%TO.N,unconnected-(SiPM_Bias1-Pin_6-Pad6)*%
X76000000Y-89250000D03*
%TO.P,V_Bias1,7,Pin_7*%
%TO.N,unconnected-(SiPM_Bias1-Pin_7-Pad7)*%
X77000000Y-89250000D03*
%TO.P,V_Bias1,8,Pin_8*%
%TO.N,unconnected-(SiPM_Bias1-Pin_8-Pad8)*%
X78000000Y-89250000D03*
%TO.P,V_Bias1,9,Pin_9*%
%TO.N,unconnected-(SiPM_Bias1-Pin_9-Pad9)*%
X79000000Y-89250000D03*
%TD*%
D12*
%TO.P,PIN5,1,Pin_1*%
%TO.N,Net-(PIN5-Pin_1)*%
X78070000Y-80570000D03*
D13*
%TO.P,PIN5,2,Pin_2*%
%TO.N,Net-(FFC5--2V5)*%
X78070000Y-81570000D03*
%TO.P,PIN5,3,Pin_3*%
%TO.N,Net-(FFC5-+2V5)*%
X78070000Y-82570000D03*
%TO.P,PIN5,4,Pin_4*%
%TO.N,Net-(FFC5-V_Bias)*%
X78070000Y-83570000D03*
%TD*%
D12*
%TO.P,+2V5,1,Pin_1*%
%TO.N,unconnected-(+2V5-Pin_1-Pad1)*%
X71000000Y-49000000D03*
D13*
%TO.P,+2V5,2,Pin_2*%
%TO.N,unconnected-(+2V5-Pin_2-Pad2)*%
X72000000Y-49000000D03*
%TO.P,+2V5,3,Pin_3*%
%TO.N,unconnected-(+2V5-Pin_3-Pad3)*%
X73000000Y-49000000D03*
%TO.P,+2V5,4,Pin_4*%
%TO.N,unconnected-(+2V5-Pin_4-Pad4)*%
X74000000Y-49000000D03*
%TO.P,+2V5,5,Pin_5*%
%TO.N,unconnected-(+2V5-Pin_5-Pad5)*%
X75000000Y-49000000D03*
%TO.P,+2V5,6,Pin_6*%
%TO.N,unconnected-(+2V5-Pin_6-Pad6)*%
X76000000Y-49000000D03*
%TO.P,+2V5,7,Pin_7*%
%TO.N,unconnected-(+2V5-Pin_7-Pad7)*%
X77000000Y-49000000D03*
%TO.P,+2V5,8,Pin_8*%
%TO.N,unconnected-(+2V5-Pin_8-Pad8)*%
X78000000Y-49000000D03*
%TO.P,+2V5,9,Pin_9*%
%TO.N,unconnected-(+2V5-Pin_9-Pad9)*%
X79000000Y-49000000D03*
%TD*%
D10*
%TO.P,BNC2,1*%
%TO.N,Net-(FFC2-Signal)*%
X55210000Y-55570000D03*
D11*
%TO.P,BNC2,S_1*%
%TO.N,Net-(PIN2-Pin_1)*%
X51780000Y-52140000D03*
%TO.P,BNC2,S_2*%
X51780000Y-59000000D03*
%TO.P,BNC2,S_3*%
X58640000Y-59000000D03*
%TD*%
D12*
%TO.P,PIN7,1,Pin_1*%
%TO.N,Net-(PIN7-Pin_1)*%
X78070000Y-54070000D03*
D13*
%TO.P,PIN7,2,Pin_2*%
%TO.N,Net-(FFC7--2V5)*%
X78070000Y-55070000D03*
%TO.P,PIN7,3,Pin_3*%
%TO.N,Net-(FFC7-+2V5)*%
X78070000Y-56070000D03*
%TO.P,PIN7,4,Pin_4*%
%TO.N,Net-(FFC7-V_Bias)*%
X78070000Y-57070000D03*
%TD*%
D12*
%TO.P,PIN4,1,Pin_1*%
%TO.N,Net-(PIN4-Pin_1)*%
X70140000Y-80570000D03*
D13*
%TO.P,PIN4,2,Pin_2*%
%TO.N,Net-(FFC4--2V5)*%
X70140000Y-81570000D03*
%TO.P,PIN4,3,Pin_3*%
%TO.N,Net-(FFC4-+2V5)*%
X70140000Y-82570000D03*
%TO.P,PIN4,4,Pin_4*%
%TO.N,Net-(FFC4-V_Bias)*%
X70140000Y-83570000D03*
%TD*%
D10*
%TO.P,BNC1,1*%
%TO.N,Net-(FFC1-Signal)*%
X55070000Y-42070000D03*
D11*
%TO.P,BNC1,S_1*%
%TO.N,Net-(PIN1-Pin_1)*%
X51640000Y-38640000D03*
%TO.P,BNC1,S_2*%
X51640000Y-45500000D03*
%TO.P,BNC1,S_3*%
X58500000Y-45500000D03*
%TD*%
D12*
%TO.P,-2V5,1,Pin_1*%
%TO.N,unconnected-(-2V5-Pin_1-Pad1)*%
X71000000Y-63250000D03*
D13*
%TO.P,-2V5,2,Pin_2*%
%TO.N,unconnected-(-2V5-Pin_2-Pad2)*%
X72000000Y-63250000D03*
%TO.P,-2V5,3,Pin_3*%
%TO.N,unconnected-(-2V5-Pin_3-Pad3)*%
X73000000Y-63250000D03*
%TO.P,-2V5,4,Pin_4*%
%TO.N,unconnected-(-2V5-Pin_4-Pad4)*%
X74000000Y-63250000D03*
%TO.P,-2V5,5,Pin_5*%
%TO.N,unconnected-(-2V5-Pin_5-Pad5)*%
X75000000Y-63250000D03*
%TO.P,-2V5,6,Pin_6*%
%TO.N,unconnected-(-2V5-Pin_6-Pad6)*%
X76000000Y-63250000D03*
%TO.P,-2V5,7,Pin_7*%
%TO.N,unconnected-(-2V5-Pin_7-Pad7)*%
X77000000Y-63250000D03*
%TO.P,-2V5,8,Pin_8*%
%TO.N,unconnected-(-2V5-Pin_8-Pad8)*%
X78000000Y-63250000D03*
%TO.P,-2V5,9,Pin_9*%
%TO.N,unconnected-(-2V5-Pin_9-Pad9)*%
X79000000Y-63250000D03*
%TD*%
D12*
%TO.P,PIN6,1,Pin_1*%
%TO.N,Net-(PIN6-Pin_1)*%
X78070000Y-67570000D03*
D13*
%TO.P,PIN6,2,Pin_2*%
%TO.N,Net-(FFC6--2V5)*%
X78070000Y-68570000D03*
%TO.P,PIN6,3,Pin_3*%
%TO.N,Net-(FFC6-+2V5)*%
X78070000Y-69570000D03*
%TO.P,PIN6,4,Pin_4*%
%TO.N,Net-(FFC6-V_Bias)*%
X78070000Y-70570000D03*
%TD*%
D12*
%TO.P,PIN1,1,Pin_1*%
%TO.N,Net-(PIN1-Pin_1)*%
X70000000Y-40570000D03*
D13*
%TO.P,PIN1,2,Pin_2*%
%TO.N,Net-(FFC1--2V5)*%
X70000000Y-41570000D03*
%TO.P,PIN1,3,Pin_3*%
%TO.N,Net-(FFC1-+2V5)*%
X70000000Y-42570000D03*
%TO.P,PIN1,4,Pin_4*%
%TO.N,Net-(FFC1-V_Bias)*%
X70000000Y-43570000D03*
%TD*%
M02*
