%TF.GenerationSoftware,KiCad,Pcbnew,8.0.4*%
%TF.CreationDate,2025-03-26T20:34:27+08:00*%
%TF.ProjectId,AdaptorBoard,41646170-746f-4724-926f-6172642e6b69,rev?*%
%TF.SameCoordinates,Original*%
%TF.FileFunction,Paste,Top*%
%TF.FilePolarity,Positive*%
%FSLAX46Y46*%
G04 Gerber Fmt 4.6, Leading zero omitted, Abs format (unit mm)*
G04 Created by KiCad (PCBNEW 8.0.4) date 2025-03-26 20:34:27*
%MOMM*%
%LPD*%
G01*
G04 APERTURE LIST*
%ADD10R,1.630000X0.400000*%
%ADD11R,2.000000X2.180000*%
G04 APERTURE END LIST*
D10*
%TO.C,FFC5*%
X82000000Y-79820000D03*
X84140000Y-80320000D03*
X82000000Y-80820000D03*
X84140000Y-81320000D03*
X82000000Y-81820000D03*
X84140000Y-82320000D03*
X82000000Y-82820000D03*
X84140000Y-83320000D03*
X82000000Y-83820000D03*
X84140000Y-84320000D03*
D11*
X83070000Y-78135000D03*
X83070000Y-86005000D03*
%TD*%
D10*
%TO.C,FFC8*%
X81860000Y-39820000D03*
X84000000Y-40320000D03*
X81860000Y-40820000D03*
X84000000Y-41320000D03*
X81860000Y-41820000D03*
X84000000Y-42320000D03*
X81860000Y-42820000D03*
X84000000Y-43320000D03*
X81860000Y-43820000D03*
X84000000Y-44320000D03*
D11*
X82930000Y-38135000D03*
X82930000Y-46005000D03*
%TD*%
D10*
%TO.C,FFC3*%
X64070000Y-66820000D03*
X66210000Y-67320000D03*
X64070000Y-67820000D03*
X66210000Y-68320000D03*
X64070000Y-68820000D03*
X66210000Y-69320000D03*
X64070000Y-69820000D03*
X66210000Y-70320000D03*
X64070000Y-70820000D03*
X66210000Y-71320000D03*
D11*
X65140000Y-65135000D03*
X65140000Y-73005000D03*
%TD*%
D10*
%TO.C,FFC2*%
X64070000Y-53320000D03*
X66210000Y-53820000D03*
X64070000Y-54320000D03*
X66210000Y-54820000D03*
X64070000Y-55320000D03*
X66210000Y-55820000D03*
X64070000Y-56320000D03*
X66210000Y-56820000D03*
X64070000Y-57320000D03*
X66210000Y-57820000D03*
D11*
X65140000Y-51635000D03*
X65140000Y-59505000D03*
%TD*%
D10*
%TO.C,FFC7*%
X82000000Y-53320000D03*
X84140000Y-53820000D03*
X82000000Y-54320000D03*
X84140000Y-54820000D03*
X82000000Y-55320000D03*
X84140000Y-55820000D03*
X82000000Y-56320000D03*
X84140000Y-56820000D03*
X82000000Y-57320000D03*
X84140000Y-57820000D03*
D11*
X83070000Y-51635000D03*
X83070000Y-59505000D03*
%TD*%
D10*
%TO.C,FFC1*%
X63930000Y-39820000D03*
X66070000Y-40320000D03*
X63930000Y-40820000D03*
X66070000Y-41320000D03*
X63930000Y-41820000D03*
X66070000Y-42320000D03*
X63930000Y-42820000D03*
X66070000Y-43320000D03*
X63930000Y-43820000D03*
X66070000Y-44320000D03*
D11*
X65000000Y-38135000D03*
X65000000Y-46005000D03*
%TD*%
D10*
%TO.C,FFC4*%
X64070000Y-79820000D03*
X66210000Y-80320000D03*
X64070000Y-80820000D03*
X66210000Y-81320000D03*
X64070000Y-81820000D03*
X66210000Y-82320000D03*
X64070000Y-82820000D03*
X66210000Y-83320000D03*
X64070000Y-83820000D03*
X66210000Y-84320000D03*
D11*
X65140000Y-78135000D03*
X65140000Y-86005000D03*
%TD*%
D10*
%TO.C,FFC6*%
X82000000Y-66820000D03*
X84140000Y-67320000D03*
X82000000Y-67820000D03*
X84140000Y-68320000D03*
X82000000Y-68820000D03*
X84140000Y-69320000D03*
X82000000Y-69820000D03*
X84140000Y-70320000D03*
X82000000Y-70820000D03*
X84140000Y-71320000D03*
D11*
X83070000Y-65135000D03*
X83070000Y-73005000D03*
%TD*%
M02*
