ISO-10303-21;
HEADER;
FILE_DESCRIPTION (( 'STEP AP214' ),
    '1' );
FILE_NAME ('MICROFJ-30035-TSV-TR.STEP',
    '2023-07-21T07:54:06',
    ( 'USER' ),
    ( '' ),
    'SwSTEP 2.0',
    'SolidWorks 2016',
    '' );
FILE_SCHEMA (( 'AUTOMOTIVE_DESIGN' ));
ENDSEC;

DATA;
#1 = DIRECTION ( 'NONE',  ( 0.0000000000000000000, -1.000000000000000000, 0.0000000000000000000 ) ) ;
#2 = CARTESIAN_POINT ( 'NONE',  ( -0.1269999999999999700, -1.006000000000000200, 0.1270000000000000600 ) ) ;
#3 = CARTESIAN_POINT ( 'NONE',  ( -0.1269999999999999700, 1.514000000000000000, 0.1269999999999999700 ) ) ;
#4 = STYLED_ITEM ( 'NONE', ( #394 ), #462 ) ;
#5 = EDGE_CURVE ( 'NONE', #565, #453, #661, .T. ) ;
#6 = ORIENTED_EDGE ( 'NONE', *, *, #797, .F. ) ;
#7 =( NAMED_UNIT ( * ) PLANE_ANGLE_UNIT ( ) SI_UNIT ( $, .RADIAN. ) );
#8 = CARTESIAN_POINT ( 'NONE',  ( 1.387000000000000000, -0.2539999999999999500, 0.1269999999999999700 ) ) ;
#9 = DIRECTION ( 'NONE',  ( -1.000000000000000000, 0.0000000000000000000, 0.0000000000000000000 ) ) ;
#10 = CARTESIAN_POINT ( 'NONE',  ( -1.600000000000000100, 1.600000000000000100, 0.2530000000000000000 ) ) ;
#11 = SURFACE_STYLE_FILL_AREA ( #909 ) ;
#12 = FACE_OUTER_BOUND ( 'NONE', #758, .T. ) ;
#13 = CARTESIAN_POINT ( 'NONE',  ( 1.133000000000000000, 0.2539999999999999500, -0.3809999999999997800 ) ) ;
#14 = CIRCLE ( 'NONE', #25, 0.1270000000000000000 ) ;
#15 =( LENGTH_UNIT ( ) NAMED_UNIT ( * ) SI_UNIT ( .MILLI., .METRE. ) );
#16 = UNCERTAINTY_MEASURE_WITH_UNIT (LENGTH_MEASURE( 1.000000000000000100E-005 ), #138, 'distance_accuracy_value', 'NONE');
#17 = ORIENTED_EDGE ( 'NONE', *, *, #71, .F. ) ;
#18 = ORIENTED_EDGE ( 'NONE', *, *, #246, .F. ) ;
#19 = DIRECTION ( 'NONE',  ( 0.0000000000000000000, 0.0000000000000000000, -1.000000000000000000 ) ) ;
#20 = DIRECTION ( 'NONE',  ( 0.0000000000000000000, 0.0000000000000000000, -1.000000000000000000 ) ) ;
#21 = CARTESIAN_POINT ( 'NONE',  ( 1.387000000000000000, 1.006000000000000200, 0.1269999999999999700 ) ) ;
#22 = CARTESIAN_POINT ( 'NONE',  ( -0.1269999999999999700, -1.006000000000000200, 0.1269999999999999700 ) ) ;
#23 = EDGE_LOOP ( 'NONE', ( #123, #379 ) ) ;
#24 = CLOSED_SHELL ( 'NONE', ( #486, #840, #903, #765, #416, #52 ) ) ;
#25 = AXIS2_PLACEMENT_3D ( 'NONE', #178, #683, #755 ) ;
#26 =( GEOMETRIC_REPRESENTATION_CONTEXT ( 3 ) GLOBAL_UNCERTAINTY_ASSIGNED_CONTEXT ( ( #544 ) ) GLOBAL_UNIT_ASSIGNED_CONTEXT ( ( #610, #781, #508 ) ) REPRESENTATION_CONTEXT ( 'NONE', 'WORKASPACE' ) );
#27 = CARTESIAN_POINT ( 'NONE',  ( -1.387000000000000000, -1.260000000000000000, 0.1270000000000000000 ) ) ;
#28 = STYLED_ITEM ( 'NONE', ( #762 ), #630 ) ;
#29 = CARTESIAN_POINT ( 'NONE',  ( -1.133000000000000200, -1.260000000000000000, 0.1269999999999999700 ) ) ;
#30 = CIRCLE ( 'NONE', #689, 0.1270000000000000000 ) ;
#31 = CIRCLE ( 'NONE', #785, 0.1269999999999999500 ) ;
#32 = CARTESIAN_POINT ( 'NONE',  ( -1.387000000000000000, 0.0000000000000000000, 0.1269999999999999700 ) ) ;
#33 = VERTEX_POINT ( 'NONE', #356 ) ;
#34 = STYLED_ITEM ( 'NONE', ( #817 ), #221 ) ;
#35 = CARTESIAN_POINT ( 'NONE',  ( -0.1269999999999999700, 1.260000000000000000, 0.1269999999999999700 ) ) ;
#36 = CARTESIAN_POINT ( 'NONE',  ( -1.133000000000000200, 1.555301434917138800E-017, 0.1270000000000000000 ) ) ;
#37 = AXIS2_PLACEMENT_3D ( 'NONE', #269, #636, #192 ) ;
#38 = CARTESIAN_POINT ( 'NONE',  ( -1.387000000000000000, -1.260000000000000000, 0.1270000000000000000 ) ) ;
#39 = CARTESIAN_POINT ( 'NONE',  ( -1.132999999999999800, -1.006000000000000200, 0.1270000000000000600 ) ) ;
#40 = ORIENTED_EDGE ( 'NONE', *, *, #788, .F. ) ;
#41 = PRESENTATION_LAYER_ASSIGNMENT (  '', '', ( #4 ) ) ;
#42 = EDGE_CURVE ( 'NONE', #735, #54, #671, .T. ) ;
#43 = CARTESIAN_POINT ( 'NONE',  ( -0.1270000000000000000, 1.260000000000000000, 0.1270000000000000000 ) ) ;
#44 = CARTESIAN_POINT ( 'NONE',  ( 1.387000000000000000, 0.2539999999999999500, 0.1269999999999999700 ) ) ;
#45 = LINE ( 'NONE', #402, #795 ) ;
#46 = CARTESIAN_POINT ( 'NONE',  ( 0.0000000000000000000, -1.260000000000000000, 0.1270000000000000000 ) ) ;
#47 = MANIFOLD_SOLID_BREP ( '$', #521 ) ;
#48 = PRESENTATION_STYLE_ASSIGNMENT (( #849 ) ) ;
#49 = EDGE_CURVE ( 'NONE', #438, #417, #748, .T. ) ;
#50 = CARTESIAN_POINT ( 'NONE',  ( 1.133000000000000000, -1.260000000000000000, 0.1270000000000000000 ) ) ;
#51 = CARTESIAN_POINT ( 'NONE',  ( -1.132999999999999800, 1.514000000000000000, 0.1269999999999999700 ) ) ;
#52 = ADVANCED_FACE ( 'NONE', ( #53 ), #293, .T. ) ;
#53 = FACE_OUTER_BOUND ( 'NONE', #477, .T. ) ;
#54 = VERTEX_POINT ( 'NONE', #81 ) ;
#55 = CARTESIAN_POINT ( 'NONE',  ( 1.600000000000000100, -1.600000000000000100, 0.4829999999999999800 ) ) ;
#56 = AXIS2_PLACEMENT_3D ( 'NONE', #619, #534, #621 ) ;
#57 = ADVANCED_FACE ( 'NONE', ( #304 ), #418, .T. ) ;
#58 = CARTESIAN_POINT ( 'NONE',  ( 1.132999999999999800, -1.514000000000000000, 0.1269999999999999700 ) ) ;
#59 = CARTESIAN_POINT ( 'NONE',  ( 1.387000000000000000, -1.260000000000000000, 0.1269999999999999700 ) ) ;
#60 =( LENGTH_UNIT ( ) NAMED_UNIT ( * ) SI_UNIT ( .MILLI., .METRE. ) );
#61 = CARTESIAN_POINT ( 'NONE',  ( 1.133000000000000000, 1.006000000000000200, 0.6349999999999995600 ) ) ;
#62 = PLANE ( 'NONE',  #468 ) ;
#63 = STYLED_ITEM ( 'NONE', ( #48 ), #317 ) ;
#64 =( NAMED_UNIT ( * ) SI_UNIT ( $, .STERADIAN. ) SOLID_ANGLE_UNIT ( ) );
#65 = CARTESIAN_POINT ( 'NONE',  ( 1.260000000000000000, 0.0000000000000000000, 0.1270000000000000000 ) ) ;
#66 = DIRECTION ( 'NONE',  ( 0.0000000000000000000, -0.0000000000000000000, 1.000000000000000000 ) ) ;
#67 = EDGE_LOOP ( 'NONE', ( #466, #282 ) ) ;
#68 =( BOUNDED_SURFACE ( )  B_SPLINE_SURFACE ( 3, 3, ( 
 ( #653, #760, #715, #783 ),
 ( #361, #852, #436, #2 ),
 ( #506, #69, #579, #133 ),
 ( #656, #212, #718, #285 ) ),
 .UNSPECIFIED., .F., .F., .T. ) 
 B_SPLINE_SURFACE_WITH_KNOTS ( ( 4, 4 ),
 ( 4, 4 ),
 ( 0.0000000000000000000, 1.000000000000000000 ),
 ( 0.0000000000000000000, 1.000000000000000000 ),
 .UNSPECIFIED. ) 
 GEOMETRIC_REPRESENTATION_ITEM ( )  RATIONAL_B_SPLINE_SURFACE ( (
 ( 1.000000000000000000, 0.3333333333333334300, 0.3333333333333334300, 1.000000000000000000),
 ( 0.3333333333333333700, 0.1111111111111111600, 0.1111111111111111600, 0.3333333333333333700),
 ( 0.3333333333333333700, 0.1111111111111111600, 0.1111111111111111600, 0.3333333333333333700),
 ( 1.000000000000000000, 0.3333333333333334300, 0.3333333333333334300, 1.000000000000000000) ) ) 
 REPRESENTATION_ITEM ( '' )  SURFACE ( )  );
#69 = CARTESIAN_POINT ( 'NONE',  ( 0.1269999999999999700, -1.514000000000000000, 0.6349999999999995600 ) ) ;
#70 =( NAMED_UNIT ( * ) PLANE_ANGLE_UNIT ( ) SI_UNIT ( $, .RADIAN. ) );
#71 = EDGE_CURVE ( 'NONE', #388, #92, #245, .T. ) ;
#72 = CARTESIAN_POINT ( 'NONE',  ( -1.387000000000000000, 1.260000000000000000, 0.1270000000000000000 ) ) ;
#73 = DIRECTION ( 'NONE',  ( 0.0000000000000000000, 0.0000000000000000000, 1.000000000000000000 ) ) ;
#74 = DIRECTION ( 'NONE',  ( -1.000000000000000000, 0.0000000000000000000, 0.0000000000000000000 ) ) ;
#75 = CARTESIAN_POINT ( 'NONE',  ( 1.600000000000000100, -1.600000000000000100, 0.2530000000000000000 ) ) ;
#76 = CARTESIAN_POINT ( 'NONE',  ( 1.132999999999999800, -0.2539999999999999500, 0.1269999999999999700 ) ) ;
#77 = CARTESIAN_POINT ( 'NONE',  ( -1.199990000000000100, 1.280000000000000000, 0.4849999999999999900 ) ) ;
#78 = DIRECTION ( 'NONE',  ( 0.0000000000000000000, 0.0000000000000000000, -1.000000000000000000 ) ) ;
#79 = EDGE_LOOP ( 'NONE', ( #18, #847 ) ) ;
#80 = UNCERTAINTY_MEASURE_WITH_UNIT (LENGTH_MEASURE( 1.000000000000000100E-005 ), #680, 'distance_accuracy_value', 'NONE');
#81 = CARTESIAN_POINT ( 'NONE',  ( -1.133000000000000000, -1.260000000000000000, 0.1270000000000000000 ) ) ;
#82 = AXIS2_PLACEMENT_3D ( 'NONE', #662, #451, #448 ) ;
#83 = CARTESIAN_POINT ( 'NONE',  ( -0.1269999999999999700, -1.260000000000000000, 0.1269999999999999700 ) ) ;
#84 = ORIENTED_EDGE ( 'NONE', *, *, #290, .F. ) ;
#85 = DIRECTION ( 'NONE',  ( 1.000000000000000000, 0.0000000000000000000, -0.0000000000000000000 ) ) ;
#86 = CLOSED_SHELL ( 'NONE', ( #265, #905 ) ) ;
#87 = EDGE_LOOP ( 'NONE', ( #885, #231, #509, #175 ) ) ;
#88 = MECHANICAL_DESIGN_GEOMETRIC_PRESENTATION_REPRESENTATION (  '', ( #4 ), #136 ) ;
#89 = CARTESIAN_POINT ( 'NONE',  ( 0.1269999999999999700, -1.006000000000000200, 0.1269999999999999700 ) ) ;
#90 = EDGE_CURVE ( 'NONE', #92, #154, #485, .T. ) ;
#91 = CARTESIAN_POINT ( 'NONE',  ( -1.387000000000000500, -1.514000000000000000, -0.3809999999999997800 ) ) ;
#92 = VERTEX_POINT ( 'NONE', #309 ) ;
#93 = CARTESIAN_POINT ( 'NONE',  ( 1.387000000000000000, 1.260000000000000000, 0.1269999999999999700 ) ) ;
#94 = ORIENTED_EDGE ( 'NONE', *, *, #677, .T. ) ;
#95 = CARTESIAN_POINT ( 'NONE',  ( -1.387000000000000000, 0.0000000000000000000, 0.1270000000000000000 ) ) ;
#96 = SHAPE_DEFINITION_REPRESENTATION ( #251, #706 ) ;
#97 = STYLED_ITEM ( 'NONE', ( #384 ), #747 ) ;
#98 = CARTESIAN_POINT ( 'NONE',  ( 1.387000000000000000, 1.555301434917138500E-017, 0.1270000000000000000 ) ) ;
#99 =( BOUNDED_SURFACE ( )  B_SPLINE_SURFACE ( 3, 3, ( 
 ( #575, #839, #675, #27 ),
 ( #816, #742, #91, #877 ),
 ( #160, #163, #882, #399 ),
 ( #321, #822, #29, #834 ) ),
 .UNSPECIFIED., .F., .F., .F. ) 
 B_SPLINE_SURFACE_WITH_KNOTS ( ( 4, 4 ),
 ( 4, 4 ),
 ( 0.0000000000000000000, 1.000000000000000000 ),
 ( 0.0000000000000000000, 1.000000000000000000 ),
 .UNSPECIFIED. ) 
 GEOMETRIC_REPRESENTATION_ITEM ( )  RATIONAL_B_SPLINE_SURFACE ( (
 ( 1.000000000000000000, 0.3333333333333334300, 0.3333333333333334300, 1.000000000000000000),
 ( 0.3333333333333333700, 0.1111111111111111600, 0.1111111111111111600, 0.3333333333333333700),
 ( 0.3333333333333333700, 0.1111111111111111600, 0.1111111111111111600, 0.3333333333333333700),
 ( 1.000000000000000000, 0.3333333333333334300, 0.3333333333333334300, 1.000000000000000000) ) ) 
 REPRESENTATION_ITEM ( '' )  SURFACE ( )  );
#100 = CARTESIAN_POINT ( 'NONE',  ( 1.387000000000000000, -1.260000000000000000, 0.1270000000000000000 ) ) ;
#101 = EDGE_LOOP ( 'NONE', ( #828, #533, #829, #786 ) ) ;
#102 = EDGE_CURVE ( 'NONE', #776, #170, #333, .T. ) ;
#103 = CLOSED_SHELL ( 'NONE', ( #712, #337, #114, #344 ) ) ;
#104 = CARTESIAN_POINT ( 'NONE',  ( 1.133000000000000200, 0.0000000000000000000, 0.1269999999999999700 ) ) ;
#105 = CARTESIAN_POINT ( 'NONE',  ( 1.133000000000000200, -1.260000000000000000, 0.1269999999999999700 ) ) ;
#106 = CARTESIAN_POINT ( 'NONE',  ( 1.133000000000000000, -0.2539999999999999500, 0.6349999999999996800 ) ) ;
#107 = CARTESIAN_POINT ( 'NONE',  ( -1.133000000000000200, -1.260000000000000000, 0.1269999999999999700 ) ) ;
#108 = FACE_OUTER_BOUND ( 'NONE', #79, .T. ) ;
#109 = MECHANICAL_DESIGN_GEOMETRIC_PRESENTATION_REPRESENTATION (  '', ( #63 ), #463 ) ;
#110 = CARTESIAN_POINT ( 'NONE',  ( 1.133000000000000000, -1.260000000000000000, 0.1270000000000000000 ) ) ;
#111 = CLOSED_SHELL ( 'NONE', ( #271, #897 ) ) ;
#112 = CARTESIAN_POINT ( 'NONE',  ( 1.387000000000000000, -1.555301434917138800E-017, 0.1270000000000000000 ) ) ;
#113 = DIRECTION ( 'NONE',  ( -1.000000000000000000, 0.0000000000000000000, 0.0000000000000000000 ) ) ;
#114 = ADVANCED_FACE ( 'NONE', ( #195 ), #528, .T. ) ;
#115 = CARTESIAN_POINT ( 'NONE',  ( -1.260000000000000000, 1.260000000000000000, 0.1270000000000000000 ) ) ;
#116 = SURFACE_SIDE_STYLE ('',( #465 ) ) ;
#117 = MECHANICAL_DESIGN_GEOMETRIC_PRESENTATION_REPRESENTATION (  '', ( #865 ), #640 ) ;
#118 = FACE_OUTER_BOUND ( 'NONE', #398, .T. ) ;
#119 = CARTESIAN_POINT ( 'NONE',  ( 0.1270000000000000000, 1.260000000000000000, 0.1270000000000000000 ) ) ;
#120 =( LENGTH_UNIT ( ) NAMED_UNIT ( * ) SI_UNIT ( .MILLI., .METRE. ) );
#121 = VERTEX_POINT ( 'NONE', #75 ) ;
#122 = CARTESIAN_POINT ( 'NONE',  ( -1.132999999999999800, -0.2539999999999999500, 0.1269999999999999700 ) ) ;
#123 = ORIENTED_EDGE ( 'NONE', *, *, #740, .F. ) ;
#124 =( LENGTH_UNIT ( ) NAMED_UNIT ( * ) SI_UNIT ( .MILLI., .METRE. ) );
#125 = CARTESIAN_POINT ( 'NONE',  ( 1.387000000000000000, 1.514000000000000000, 0.1270000000000000600 ) ) ;
#126 = DIRECTION ( 'NONE',  ( 0.0000000000000000000, -0.0000000000000000000, 1.000000000000000000 ) ) ;
#127 = VERTEX_POINT ( 'NONE', #296 ) ;
#128 =( BOUNDED_SURFACE ( )  B_SPLINE_SURFACE ( 3, 3, ( 
 ( #523, #597, #601, #152 ),
 ( #670, #235, #305, #806 ),
 ( #382, #871, #459, #21 ),
 ( #733, #93, #614, #676 ) ),
 .UNSPECIFIED., .F., .F., .T. ) 
 B_SPLINE_SURFACE_WITH_KNOTS ( ( 4, 4 ),
 ( 4, 4 ),
 ( 0.0000000000000000000, 1.000000000000000000 ),
 ( 0.0000000000000000000, 1.000000000000000000 ),
 .UNSPECIFIED. ) 
 GEOMETRIC_REPRESENTATION_ITEM ( )  RATIONAL_B_SPLINE_SURFACE ( (
 ( 1.000000000000000000, 0.3333333333333334300, 0.3333333333333334300, 1.000000000000000000),
 ( 0.3333333333333333700, 0.1111111111111111600, 0.1111111111111111600, 0.3333333333333333700),
 ( 0.3333333333333333700, 0.1111111111111111600, 0.1111111111111111600, 0.3333333333333333700),
 ( 1.000000000000000000, 0.3333333333333334300, 0.3333333333333334300, 1.000000000000000000) ) ) 
 REPRESENTATION_ITEM ( '' )  SURFACE ( )  );
#129 = CARTESIAN_POINT ( 'NONE',  ( 1.387000000000000500, -0.2539999999999998900, -0.3809999999999997800 ) ) ;
#130 =( LENGTH_UNIT ( ) NAMED_UNIT ( * ) SI_UNIT ( .MILLI., .METRE. ) );
#131 = CARTESIAN_POINT ( 'NONE',  ( -0.1269999999999999700, 1.260000000000000000, 0.1269999999999999700 ) ) ;
#132 = FACE_OUTER_BOUND ( 'NONE', #564, .T. ) ;
#133 = CARTESIAN_POINT ( 'NONE',  ( 0.1269999999999999700, -1.006000000000000200, 0.1270000000000000600 ) ) ;
#134 = FACE_OUTER_BOUND ( 'NONE', #553, .T. ) ;
#135 = CARTESIAN_POINT ( 'NONE',  ( -0.1269999999999999700, 1.006000000000000200, 0.1269999999999999700 ) ) ;
#136 =( GEOMETRIC_REPRESENTATION_CONTEXT ( 3 ) GLOBAL_UNCERTAINTY_ASSIGNED_CONTEXT ( ( #738 ) ) GLOBAL_UNIT_ASSIGNED_CONTEXT ( ( #15, #535, #879 ) ) REPRESENTATION_CONTEXT ( 'NONE', 'WORKASPACE' ) );
#137 = EDGE_CURVE ( 'NONE', #121, #162, #158, .T. ) ;
#138 =( LENGTH_UNIT ( ) NAMED_UNIT ( * ) SI_UNIT ( .MILLI., .METRE. ) );
#139 = CARTESIAN_POINT ( 'NONE',  ( 1.387000000000000500, 1.006000000000000200, 0.6349999999999995600 ) ) ;
#140 = CARTESIAN_POINT ( 'NONE',  ( -1.387000000000000000, 1.260000000000000000, 0.1269999999999999700 ) ) ;
#141 = CARTESIAN_POINT ( 'NONE',  ( -1.260000000000000000, 0.0000000000000000000, 0.1270000000000000000 ) ) ;
#142 = EDGE_LOOP ( 'NONE', ( #151, #357, #353, #624 ) ) ;
#143 = FILL_AREA_STYLE ('',( #177 ) ) ;
#144 = DIRECTION ( 'NONE',  ( -1.000000000000000000, 0.0000000000000000000, -0.0000000000000000000 ) ) ;
#145 = FILL_AREA_STYLE_COLOUR ( '', #194 ) ;
#146 = EDGE_CURVE ( 'NONE', #606, #388, #510, .T. ) ;
#147 = CARTESIAN_POINT ( 'NONE',  ( -1.387000000000000000, 0.0000000000000000000, 0.1269999999999999700 ) ) ;
#148 = CARTESIAN_POINT ( 'NONE',  ( -1.387000000000000000, 0.0000000000000000000, 0.1269999999999999700 ) ) ;
#149 = DIRECTION ( 'NONE',  ( 0.0000000000000000000, 0.0000000000000000000, -1.000000000000000000 ) ) ;
#150 = CARTESIAN_POINT ( 'NONE',  ( -1.360009999999999900, 1.280000000000000000, 0.4849999999999999900 ) ) ;
#151 = ORIENTED_EDGE ( 'NONE', *, *, #71, .T. ) ;
#152 = CARTESIAN_POINT ( 'NONE',  ( 1.133000000000000000, 1.260000000000000000, 0.1270000000000000000 ) ) ;
#153 = ORIENTED_EDGE ( 'NONE', *, *, #452, .T. ) ;
#154 = VERTEX_POINT ( 'NONE', #517 ) ;
#155 = FACE_OUTER_BOUND ( 'NONE', #23, .T. ) ;
#156 = FACE_OUTER_BOUND ( 'NONE', #306, .T. ) ;
#157 = CARTESIAN_POINT ( 'NONE',  ( -1.387000000000000000, 1.514000000000000000, 0.1270000000000000600 ) ) ;
#158 = LINE ( 'NONE', #589, #363 ) ;
#159 = CARTESIAN_POINT ( 'NONE',  ( 0.1269999999999999700, -1.260000000000000000, 0.1269999999999999700 ) ) ;
#160 = CARTESIAN_POINT ( 'NONE',  ( -1.132999999999999800, -1.006000000000000200, 0.1269999999999999700 ) ) ;
#161 = AXIS2_PLACEMENT_3D ( 'NONE', #818, #819, #319 ) ;
#162 = VERTEX_POINT ( 'NONE', #726 ) ;
#163 = CARTESIAN_POINT ( 'NONE',  ( -1.133000000000000000, -1.006000000000000200, -0.3809999999999997300 ) ) ;
#164 = PRESENTATION_LAYER_ASSIGNMENT (  '', '', ( #28 ) ) ;
#165 = COLOUR_RGB ( '',0.7215686274509803800, 0.7215686274509803800, 0.7215686274509803800 ) ;
#166 = VECTOR ( 'NONE', #73, 1000.000000000000000 ) ;
#167 = PRESENTATION_STYLE_ASSIGNMENT (( #784 ) ) ;
#168 = FACE_OUTER_BOUND ( 'NONE', #800, .T. ) ;
#169 = CARTESIAN_POINT ( 'NONE',  ( -1.387000000000000500, -0.2539999999999999500, 0.6349999999999996800 ) ) ;
#170 = VERTEX_POINT ( 'NONE', #229 ) ;
#171 =( BOUNDED_SURFACE ( )  B_SPLINE_SURFACE ( 3, 3, ( 
 ( #329, #35, #406, #43 ),
 ( #743, #315, #467, #749 ),
 ( #694, #419, #904, #489 ),
 ( #119, #643, #358, #848 ) ),
 .UNSPECIFIED., .F., .F., .T. ) 
 B_SPLINE_SURFACE_WITH_KNOTS ( ( 4, 4 ),
 ( 4, 4 ),
 ( 0.0000000000000000000, 1.000000000000000000 ),
 ( 0.0000000000000000000, 1.000000000000000000 ),
 .UNSPECIFIED. ) 
 GEOMETRIC_REPRESENTATION_ITEM ( )  RATIONAL_B_SPLINE_SURFACE ( (
 ( 1.000000000000000000, 0.3333333333333334300, 0.3333333333333334300, 1.000000000000000000),
 ( 0.3333333333333333700, 0.1111111111111111600, 0.1111111111111111600, 0.3333333333333333700),
 ( 0.3333333333333333700, 0.1111111111111111600, 0.1111111111111111600, 0.3333333333333333700),
 ( 1.000000000000000000, 0.3333333333333334300, 0.3333333333333334300, 1.000000000000000000) ) ) 
 REPRESENTATION_ITEM ( '' )  SURFACE ( )  );
#172 = PRESENTATION_LAYER_ASSIGNMENT (  '', '', ( #865 ) ) ;
#173 = DIRECTION ( 'NONE',  ( 0.0000000000000000000, 0.0000000000000000000, 1.000000000000000000 ) ) ;
#174 = EDGE_LOOP ( 'NONE', ( #912, #531 ) ) ;
#175 = ORIENTED_EDGE ( 'NONE', *, *, #90, .F. ) ;
#176 = FACE_OUTER_BOUND ( 'NONE', #827, .T. ) ;
#177 = FILL_AREA_STYLE_COLOUR ( '', #632 ) ;
#178 = CARTESIAN_POINT ( 'NONE',  ( 0.0000000000000000000, 1.260000000000000000, 0.1270000000000000000 ) ) ;
#179 = STYLED_ITEM ( 'NONE', ( #901 ), #900 ) ;
#180 = CARTESIAN_POINT ( 'NONE',  ( 1.133000000000000000, 0.0000000000000000000, 0.1270000000000000000 ) ) ;
#181 = CARTESIAN_POINT ( 'NONE',  ( -1.387000000000000000, -1.260000000000000000, 0.1270000000000000000 ) ) ;
#182 = CARTESIAN_POINT ( 'NONE',  ( 1.387000000000000000, -1.555301434917138800E-017, 0.1269999999999999700 ) ) ;
#183 = CARTESIAN_POINT ( 'NONE',  ( -1.133000000000000000, -1.260000000000000000, 0.1270000000000000000 ) ) ;
#184 = VERTEX_POINT ( 'NONE', #77 ) ;
#185 = EDGE_CURVE ( 'NONE', #154, #565, #895, .T. ) ;
#186 = CARTESIAN_POINT ( 'NONE',  ( 1.133000000000000000, -1.514000000000000000, 0.6349999999999995600 ) ) ;
#187 = CARTESIAN_POINT ( 'NONE',  ( 1.387000000000000000, 1.555301434917138500E-017, 0.1270000000000000000 ) ) ;
#188 = CARTESIAN_POINT ( 'NONE',  ( -1.387000000000000000, 1.260000000000000000, 0.1270000000000000000 ) ) ;
#189 = ADVANCED_FACE ( 'NONE', ( #134 ), #248, .T. ) ;
#190 = FACE_OUTER_BOUND ( 'NONE', #142, .T. ) ;
#191 = EDGE_CURVE ( 'NONE', #127, #380, #536, .T. ) ;
#192 = DIRECTION ( 'NONE',  ( 1.000000000000000000, 0.0000000000000000000, 0.0000000000000000000 ) ) ;
#193 = CARTESIAN_POINT ( 'NONE',  ( -1.132999999999999800, 1.006000000000000200, 0.1269999999999999700 ) ) ;
#194 = COLOUR_RGB ( '',0.7215686274509803800, 0.7215686274509803800, 0.7215686274509803800 ) ;
#195 = FACE_OUTER_BOUND ( 'NONE', #681, .T. ) ;
#196 = CARTESIAN_POINT ( 'NONE',  ( 1.133000000000000000, -1.006000000000000200, -0.3809999999999997300 ) ) ;
#197 = CARTESIAN_POINT ( 'NONE',  ( -1.387000000000000000, 0.0000000000000000000, 0.1270000000000000000 ) ) ;
#198 = VERTEX_POINT ( 'NONE', #430 ) ;
#199 = CLOSED_SHELL ( 'NONE', ( #638, #189 ) ) ;
#200 = CARTESIAN_POINT ( 'NONE',  ( -1.360009999999999900, 1.280000000000000000, 0.4829999999999999800 ) ) ;
#201 = CARTESIAN_POINT ( 'NONE',  ( 1.387000000000000000, -1.260000000000000000, 0.1270000000000000000 ) ) ;
#202 = CARTESIAN_POINT ( 'NONE',  ( -1.133000000000000200, 1.555301434917138800E-017, 0.1269999999999999700 ) ) ;
#203 = CARTESIAN_POINT ( 'NONE',  ( 1.387000000000000000, 1.260000000000000000, 0.1269999999999999700 ) ) ;
#204 =( NAMED_UNIT ( * ) PLANE_ANGLE_UNIT ( ) SI_UNIT ( $, .RADIAN. ) );
#205 = CARTESIAN_POINT ( 'NONE',  ( -1.600000000000000100, -1.600000000000000100, 0.4829999999999999800 ) ) ;
#206 = PRESENTATION_LAYER_ASSIGNMENT (  '', '', ( #63 ) ) ;
#207 = LINE ( 'NONE', #864, #375 ) ;
#208 = SURFACE_STYLE_USAGE ( .BOTH. , #737 ) ;
#209 = FILL_AREA_STYLE ('',( #665 ) ) ;
#210 = COLOUR_RGB ( '',0.7215686274509803800, 0.7215686274509803800, 0.7215686274509803800 ) ;
#211 = EDGE_LOOP ( 'NONE', ( #625, #401 ) ) ;
#212 = CARTESIAN_POINT ( 'NONE',  ( 0.1269999999999999700, -1.260000000000000000, 0.1269999999999999700 ) ) ;
#213 = CARTESIAN_POINT ( 'NONE',  ( -1.133000000000000200, 1.260000000000000000, 0.1269999999999999700 ) ) ;
#214 = CARTESIAN_POINT ( 'NONE',  ( 0.1269999999999999700, 1.514000000000000000, -0.3809999999999997300 ) ) ;
#215 = PRODUCT_DEFINITION ( 'UNKNOWN', '', #263, #778 ) ;
#216 = DIRECTION ( 'NONE',  ( -0.0000000000000000000, 0.0000000000000000000, -1.000000000000000000 ) ) ;
#217 = CARTESIAN_POINT ( 'NONE',  ( -1.280000000000000000, 1.280000000000000000, 0.4849999999999999900 ) ) ;
#218 = CARTESIAN_POINT ( 'NONE',  ( -1.600000000000000100, 1.600000000000000100, 0.4829999999999999800 ) ) ;
#219 = FILL_AREA_STYLE_COLOUR ( '', #767 ) ;
#220 = CIRCLE ( 'NONE', #529, 0.1270000000000000000 ) ;
#221 = MANIFOLD_SOLID_BREP ( 'Imported2', #461 ) ;
#222 = VECTOR ( 'NONE', #258, 1000.000000000000000 ) ;
#223 = CARTESIAN_POINT ( 'NONE',  ( 1.133000000000000000, 1.514000000000000000, 0.6349999999999996800 ) ) ;
#224 = DIRECTION ( 'NONE',  ( -1.000000000000000000, -0.0000000000000000000, -0.0000000000000000000 ) ) ;
#225 = DIRECTION ( 'NONE',  ( 0.0000000000000000000, -1.224646799147353200E-016, 1.000000000000000000 ) ) ;
#226 = MECHANICAL_DESIGN_GEOMETRIC_PRESENTATION_REPRESENTATION (  '', ( #28 ), #267 ) ;
#227 = CIRCLE ( 'NONE', #655, 0.1269999999999999500 ) ;
#228 = DIRECTION ( 'NONE',  ( 1.000000000000000000, 0.0000000000000000000, -0.0000000000000000000 ) ) ;
#229 = CARTESIAN_POINT ( 'NONE',  ( -1.133000000000000000, 1.260000000000000000, 0.1270000000000000000 ) ) ;
#230 = SURFACE_SIDE_STYLE ('',( #887 ) ) ;
#231 = ORIENTED_EDGE ( 'NONE', *, *, #5, .F. ) ;
#232 = ORIENTED_EDGE ( 'NONE', *, *, #246, .T. ) ;
#233 = PRESENTATION_STYLE_ASSIGNMENT (( #874 ) ) ;
#234 = DIRECTION ( 'NONE',  ( -1.000000000000000000, 0.0000000000000000000, 0.0000000000000000000 ) ) ;
#235 = CARTESIAN_POINT ( 'NONE',  ( 1.133000000000000000, 1.514000000000000000, -0.3809999999999997300 ) ) ;
#236 = LINE ( 'NONE', #301, #383 ) ;
#237 =( BOUNDED_SURFACE ( )  B_SPLINE_SURFACE ( 3, 3, ( 
 ( #355, #490, #846, #429 ),
 ( #498, #61, #223, #586 ),
 ( #292, #139, #365, #125 ),
 ( #649, #203, #711, #279 ) ),
 .UNSPECIFIED., .F., .F., .T. ) 
 B_SPLINE_SURFACE_WITH_KNOTS ( ( 4, 4 ),
 ( 4, 4 ),
 ( 0.0000000000000000000, 1.000000000000000000 ),
 ( 0.0000000000000000000, 1.000000000000000000 ),
 .UNSPECIFIED. ) 
 GEOMETRIC_REPRESENTATION_ITEM ( )  RATIONAL_B_SPLINE_SURFACE ( (
 ( 1.000000000000000000, 0.3333333333333334300, 0.3333333333333334300, 1.000000000000000000),
 ( 0.3333333333333333700, 0.1111111111111111600, 0.1111111111111111600, 0.3333333333333333700),
 ( 0.3333333333333333700, 0.1111111111111111600, 0.1111111111111111600, 0.3333333333333333700),
 ( 1.000000000000000000, 0.3333333333333334300, 0.3333333333333334300, 1.000000000000000000) ) ) 
 REPRESENTATION_ITEM ( '' )  SURFACE ( )  );
#238 = CARTESIAN_POINT ( 'NONE',  ( -1.387000000000000500, 1.514000000000000000, 0.6349999999999996800 ) ) ;
#239 = ORIENTED_EDGE ( 'NONE', *, *, #907, .F. ) ;
#240 = STYLED_ITEM ( 'NONE', ( #571 ), #487 ) ;
#241 = CARTESIAN_POINT ( 'NONE',  ( 0.1269999999999999700, -1.514000000000000000, 0.1269999999999999700 ) ) ;
#242 = EDGE_CURVE ( 'NONE', #911, #198, #14, .T. ) ;
#243 = CIRCLE ( 'NONE', #37, 0.08000999999999992800 ) ;
#244 = FILL_AREA_STYLE_COLOUR ( '', #590 ) ;
#245 = LINE ( 'NONE', #218, #432 ) ;
#246 = EDGE_CURVE ( 'NONE', #911, #198, #30, .T. ) ;
#247 = CARTESIAN_POINT ( 'NONE',  ( 1.600000000000000100, -1.600000000000000100, 0.2530000000000000000 ) ) ;
#248 =( BOUNDED_SURFACE ( )  B_SPLINE_SURFACE ( 3, 3, ( 
 ( #298, #666, #83, #669 ),
 ( #22, #460, #608, #568 ),
 ( #89, #308, #440, #241 ),
 ( #674, #159, #387, #873 ) ),
 .UNSPECIFIED., .F., .F., .F. ) 
 B_SPLINE_SURFACE_WITH_KNOTS ( ( 4, 4 ),
 ( 4, 4 ),
 ( 0.0000000000000000000, 1.000000000000000000 ),
 ( 0.0000000000000000000, 1.000000000000000000 ),
 .UNSPECIFIED. ) 
 GEOMETRIC_REPRESENTATION_ITEM ( )  RATIONAL_B_SPLINE_SURFACE ( (
 ( 1.000000000000000000, 0.3333333333333334300, 0.3333333333333334300, 1.000000000000000000),
 ( 0.3333333333333333700, 0.1111111111111111600, 0.1111111111111111600, 0.3333333333333333700),
 ( 0.3333333333333333700, 0.1111111111111111600, 0.1111111111111111600, 0.3333333333333333700),
 ( 1.000000000000000000, 0.3333333333333334300, 0.3333333333333334300, 1.000000000000000000) ) ) 
 REPRESENTATION_ITEM ( '' )  SURFACE ( )  );
#249 = ORIENTED_EDGE ( 'NONE', *, *, #191, .F. ) ;
#250 = CARTESIAN_POINT ( 'NONE',  ( -1.387000000000000000, 0.0000000000000000000, 0.1269999999999999700 ) ) ;
#251 = PRODUCT_DEFINITION_SHAPE ( 'NONE', 'NONE',  #215 ) ;
#252 = PRESENTATION_LAYER_ASSIGNMENT (  '', '', ( #97 ) ) ;
#253 =( NAMED_UNIT ( * ) PLANE_ANGLE_UNIT ( ) SI_UNIT ( $, .RADIAN. ) );
#254 =( NAMED_UNIT ( * ) PLANE_ANGLE_UNIT ( ) SI_UNIT ( $, .RADIAN. ) );
#255 = FACE_OUTER_BOUND ( 'NONE', #101, .T. ) ;
#256 = PRESENTATION_STYLE_ASSIGNMENT (( #208 ) ) ;
#257 = EDGE_CURVE ( 'NONE', #162, #154, #311, .T. ) ;
#258 = DIRECTION ( 'NONE',  ( -0.0000000000000000000, -1.000000000000000000, -0.0000000000000000000 ) ) ;
#259 = CARTESIAN_POINT ( 'NONE',  ( -1.387000000000000500, -1.514000000000000000, 0.6349999999999995600 ) ) ;
#260 = EDGE_LOOP ( 'NONE', ( #249, #472 ) ) ;
#261 = CARTESIAN_POINT ( 'NONE',  ( 1.387000000000000000, 0.2539999999999999500, 0.1270000000000000600 ) ) ;
#262 = AXIS2_PLACEMENT_3D ( 'NONE', #850, #522, #85 ) ;
#263 = PRODUCT_DEFINITION_FORMATION_WITH_SPECIFIED_SOURCE ( 'ANY', '', #809, .NOT_KNOWN. ) ;
#264 = CARTESIAN_POINT ( 'NONE',  ( 1.132999999999999800, -1.006000000000000200, 0.1270000000000000600 ) ) ;
#265 = ADVANCED_FACE ( 'NONE', ( #547 ), #651, .T. ) ;
#266 = CARTESIAN_POINT ( 'NONE',  ( -1.280000000000000000, 1.280000000000000000, 0.4849999999999999900 ) ) ;
#267 =( GEOMETRIC_REPRESENTATION_CONTEXT ( 3 ) GLOBAL_UNCERTAINTY_ASSIGNED_CONTEXT ( ( #408 ) ) GLOBAL_UNIT_ASSIGNED_CONTEXT ( ( #120, #644, #704 ) ) REPRESENTATION_CONTEXT ( 'NONE', 'WORKASPACE' ) );
#268 = EDGE_LOOP ( 'NONE', ( #741, #639, #84, #40 ) ) ;
#269 = CARTESIAN_POINT ( 'NONE',  ( -1.280000000000000000, 1.280000000000000000, 0.4829999999999999800 ) ) ;
#270 = CARTESIAN_POINT ( 'NONE',  ( -1.133000000000000200, 1.260000000000000000, 0.1269999999999999700 ) ) ;
#271 = ADVANCED_FACE ( 'NONE', ( #447 ), #841, .T. ) ;
#272 = CARTESIAN_POINT ( 'NONE',  ( 1.387000000000000000, -1.006000000000000200, 0.1269999999999999700 ) ) ;
#273 = CARTESIAN_POINT ( 'NONE',  ( 1.387000000000000000, -1.260000000000000000, 0.1269999999999999700 ) ) ;
#274 = CARTESIAN_POINT ( 'NONE',  ( -1.387000000000000000, 0.0000000000000000000, 0.1270000000000000000 ) ) ;
#275 = UNCERTAINTY_MEASURE_WITH_UNIT (LENGTH_MEASURE( 1.000000000000000100E-005 ), #124, 'distance_accuracy_value', 'NONE');
#276 = CARTESIAN_POINT ( 'NONE',  ( -1.133000000000000000, -1.555301434917138500E-017, 0.1270000000000000000 ) ) ;
#277 = VECTOR ( 'NONE', #366, 1000.000000000000000 ) ;
#278 = SURFACE_SIDE_STYLE ('',( #611 ) ) ;
#279 = CARTESIAN_POINT ( 'NONE',  ( 1.387000000000000000, 1.260000000000000000, 0.1270000000000000000 ) ) ;
#280 = CARTESIAN_POINT ( 'NONE',  ( 1.387000000000000000, 1.555301434917138500E-017, 0.1270000000000000000 ) ) ;
#281 = ORIENTED_EDGE ( 'NONE', *, *, #682, .F. ) ;
#282 = ORIENTED_EDGE ( 'NONE', *, *, #495, .T. ) ;
#283 = SURFACE_SIDE_STYLE ('',( #386 ) ) ;
#284 = CARTESIAN_POINT ( 'NONE',  ( 1.387000000000000000, 1.555301434917138800E-017, 0.1269999999999999700 ) ) ;
#285 = CARTESIAN_POINT ( 'NONE',  ( 0.1270000000000000000, -1.260000000000000000, 0.1270000000000000000 ) ) ;
#286 = CARTESIAN_POINT ( 'NONE',  ( -1.133000000000000200, 1.260000000000000000, 0.1269999999999999700 ) ) ;
#287 = CARTESIAN_POINT ( 'NONE',  ( 0.1269999999999999700, 1.006000000000000200, 0.1269999999999999700 ) ) ;
#288 = AXIS2_PLACEMENT_3D ( 'NONE', #10, #78, #593 ) ;
#289 = MANIFOLD_SOLID_BREP ( 'Imported7', #313 ) ;
#290 = EDGE_CURVE ( 'NONE', #184, #336, #866, .T. ) ;
#291 = DIRECTION ( 'NONE',  ( -1.000000000000000000, 0.0000000000000000000, 0.0000000000000000000 ) ) ;
#292 = CARTESIAN_POINT ( 'NONE',  ( 1.387000000000000000, 1.006000000000000200, 0.1269999999999999700 ) ) ;
#293 = PLANE ( 'NONE',  #262 ) ;
#294 = CARTESIAN_POINT ( 'NONE',  ( 1.600000000000000100, 1.600000000000000100, 0.4829999999999999800 ) ) ;
#295 = DIRECTION ( 'NONE',  ( 0.0000000000000000000, -1.224646799147353200E-016, 1.000000000000000000 ) ) ;
#296 = CARTESIAN_POINT ( 'NONE',  ( 1.133000000000000000, 0.0000000000000000000, 0.1270000000000000000 ) ) ;
#297 = FILL_AREA_STYLE ('',( #219 ) ) ;
#298 = CARTESIAN_POINT ( 'NONE',  ( -0.1270000000000000000, -1.260000000000000000, 0.1270000000000000000 ) ) ;
#299 =( NAMED_UNIT ( * ) SI_UNIT ( $, .STERADIAN. ) SOLID_ANGLE_UNIT ( ) );
#300 = CIRCLE ( 'NONE', #482, 0.1269999999999999500 ) ;
#301 = CARTESIAN_POINT ( 'NONE',  ( 1.600000000000000100, 1.600000000000000100, 0.4829999999999999800 ) ) ;
#302 = MECHANICAL_DESIGN_GEOMETRIC_PRESENTATION_REPRESENTATION (  '', ( #97 ), #352 ) ;
#303 = FACE_OUTER_BOUND ( 'NONE', #664, .T. ) ;
#304 = FACE_OUTER_BOUND ( 'NONE', #211, .T. ) ;
#305 = CARTESIAN_POINT ( 'NONE',  ( 1.133000000000000000, 1.006000000000000200, -0.3809999999999997800 ) ) ;
#306 = EDGE_LOOP ( 'NONE', ( #563, #582 ) ) ;
#307 = UNCERTAINTY_MEASURE_WITH_UNIT (LENGTH_MEASURE( 1.000000000000000100E-005 ), #801, 'distance_accuracy_value', 'NONE');
#308 = CARTESIAN_POINT ( 'NONE',  ( 0.1269999999999999700, -1.006000000000000200, -0.3809999999999997300 ) ) ;
#309 = CARTESIAN_POINT ( 'NONE',  ( -1.600000000000000100, 1.600000000000000100, 0.4829999999999999800 ) ) ;
#310 = FACE_OUTER_BOUND ( 'NONE', #268, .T. ) ;
#311 = LINE ( 'NONE', #327, #345 ) ;
#312 = PRODUCT_RELATED_PRODUCT_CATEGORY ( 'part', '', ( #809 ) ) ;
#313 = CLOSED_SHELL ( 'NONE', ( #560, #340 ) ) ;
#314 = VECTOR ( 'NONE', #224, 1000.000000000000000 ) ;
#315 = CARTESIAN_POINT ( 'NONE',  ( -0.1269999999999999700, 1.006000000000000200, 0.6349999999999995600 ) ) ;
#316 = AXIS2_PLACEMENT_3D ( 'NONE', #779, #591, #228 ) ;
#317 = MANIFOLD_SOLID_BREP ( 'Imported10', #103 ) ;
#318 = AXIS2_PLACEMENT_3D ( 'NONE', #217, #722, #794 ) ;
#319 = DIRECTION ( 'NONE',  ( 1.000000000000000000, 0.0000000000000000000, 0.0000000000000000000 ) ) ;
#320 = PRESENTATION_STYLE_ASSIGNMENT (( #543 ) ) ;
#321 = CARTESIAN_POINT ( 'NONE',  ( -1.133000000000000000, -1.260000000000000000, 0.1270000000000000000 ) ) ;
#322 = CARTESIAN_POINT ( 'NONE',  ( -1.132999999999999800, -0.2539999999999999500, 0.1269999999999999700 ) ) ;
#323 = EDGE_LOOP ( 'NONE', ( #731, #707 ) ) ;
#324 = SURFACE_SIDE_STYLE ('',( #728 ) ) ;
#325 = ORIENTED_EDGE ( 'NONE', *, *, #682, .T. ) ;
#326 = ORIENTED_EDGE ( 'NONE', *, *, #807, .F. ) ;
#327 = CARTESIAN_POINT ( 'NONE',  ( -1.600000000000000100, 1.600000000000000100, 0.2530000000000000000 ) ) ;
#328 = PRESENTATION_LAYER_ASSIGNMENT (  '', '', ( #179 ) ) ;
#329 = CARTESIAN_POINT ( 'NONE',  ( -0.1270000000000000000, 1.260000000000000000, 0.1270000000000000000 ) ) ;
#330 = CARTESIAN_POINT ( 'NONE',  ( -1.387000000000000000, -1.006000000000000200, 0.1270000000000000600 ) ) ;
#331 = CARTESIAN_POINT ( 'NONE',  ( 1.387000000000000500, 0.2539999999999998400, 0.6349999999999999000 ) ) ;
#332 = PRESENTATION_LAYER_ASSIGNMENT (  '', '', ( #240 ) ) ;
#333 = CIRCLE ( 'NONE', #876, 0.1269999999999999500 ) ;
#334 = EDGE_CURVE ( 'NONE', #121, #606, #207, .T. ) ;
#335 = CARTESIAN_POINT ( 'NONE',  ( 1.387000000000000000, -1.514000000000000000, 0.1269999999999999700 ) ) ;
#336 = VERTEX_POINT ( 'NONE', #150 ) ;
#337 = ADVANCED_FACE ( 'NONE', ( #393 ), #916, .T. ) ;
#338 = ORIENTED_EDGE ( 'NONE', *, *, #185, .T. ) ;
#339 = DIRECTION ( 'NONE',  ( 0.0000000000000000000, 0.0000000000000000000, 1.000000000000000000 ) ) ;
#340 = ADVANCED_FACE ( 'NONE', ( #168 ), #346, .T. ) ;
#341 = DIRECTION ( 'NONE',  ( 0.0000000000000000000, -1.224646799147353200E-016, 1.000000000000000000 ) ) ;
#342 = CARTESIAN_POINT ( 'NONE',  ( -1.133000000000000000, 1.260000000000000000, 0.1270000000000000000 ) ) ;
#343 = VECTOR ( 'NONE', #173, 1000.000000000000000 ) ;
#344 = ADVANCED_FACE ( '$', ( #303 ), #62, .F. ) ;
#345 = VECTOR ( 'NONE', #826, 1000.000000000000000 ) ;
#346 =( BOUNDED_SURFACE ( )  B_SPLINE_SURFACE ( 3, 3, ( 
 ( #197, #250, #147, #274 ),
 ( #775, #350, #845, #425 ),
 ( #910, #494, #569, #122 ),
 ( #646, #202, #705, #276 ) ),
 .UNSPECIFIED., .F., .F., .F. ) 
 B_SPLINE_SURFACE_WITH_KNOTS ( ( 4, 4 ),
 ( 4, 4 ),
 ( 0.0000000000000000000, 1.000000000000000000 ),
 ( 0.0000000000000000000, 1.000000000000000000 ),
 .UNSPECIFIED. ) 
 GEOMETRIC_REPRESENTATION_ITEM ( )  RATIONAL_B_SPLINE_SURFACE ( (
 ( 1.000000000000000000, 0.3333333333333334300, 0.3333333333333334300, 1.000000000000000000),
 ( 0.3333333333333333700, 0.1111111111111111600, 0.1111111111111111600, 0.3333333333333333700),
 ( 0.3333333333333333700, 0.1111111111111111600, 0.1111111111111111600, 0.3333333333333333700),
 ( 1.000000000000000000, 0.3333333333333334300, 0.3333333333333334300, 1.000000000000000000) ) ) 
 REPRESENTATION_ITEM ( '' )  SURFACE ( )  );
#347 = CARTESIAN_POINT ( 'NONE',  ( 1.387000000000000000, -1.260000000000000000, 0.1269999999999999700 ) ) ;
#348 = DIRECTION ( 'NONE',  ( 0.0000000000000000000, 0.0000000000000000000, 1.000000000000000000 ) ) ;
#349 = CLOSED_SHELL ( 'NONE', ( #836, #696 ) ) ;
#350 = CARTESIAN_POINT ( 'NONE',  ( -1.387000000000000500, 0.2539999999999999500, -0.3809999999999997800 ) ) ;
#351 = ORIENTED_EDGE ( 'NONE', *, *, #570, .F. ) ;
#352 =( GEOMETRIC_REPRESENTATION_CONTEXT ( 3 ) GLOBAL_UNCERTAINTY_ASSIGNED_CONTEXT ( ( #16 ) ) GLOBAL_UNIT_ASSIGNED_CONTEXT ( ( #138, #7, #789 ) ) REPRESENTATION_CONTEXT ( 'NONE', 'WORKASPACE' ) );
#353 = ORIENTED_EDGE ( 'NONE', *, *, #257, .F. ) ;
#354 = CARTESIAN_POINT ( 'NONE',  ( 1.387000000000000000, -1.260000000000000000, 0.1270000000000000000 ) ) ;
#355 = CARTESIAN_POINT ( 'NONE',  ( 1.133000000000000000, 1.260000000000000000, 0.1270000000000000000 ) ) ;
#356 = CARTESIAN_POINT ( 'NONE',  ( 0.1270000000000000000, -1.260000000000000000, 0.1270000000000000000 ) ) ;
#357 = ORIENTED_EDGE ( 'NONE', *, *, #90, .T. ) ;
#358 = CARTESIAN_POINT ( 'NONE',  ( 0.1269999999999999700, 1.260000000000000000, 0.1269999999999999700 ) ) ;
#359 = FILL_AREA_STYLE_COLOUR ( '', #880 ) ;
#360 = DIRECTION ( 'NONE',  ( 0.0000000000000000000, -0.0000000000000000000, -1.000000000000000000 ) ) ;
#361 = CARTESIAN_POINT ( 'NONE',  ( -0.1269999999999999700, -1.514000000000000000, 0.1269999999999999700 ) ) ;
#362 = CARTESIAN_POINT ( 'NONE',  ( -0.1269999999999999700, 1.260000000000000000, 0.1269999999999999700 ) ) ;
#363 = VECTOR ( 'NONE', #144, 1000.000000000000000 ) ;
#364 = DIRECTION ( 'NONE',  ( 1.000000000000000000, 0.0000000000000000000, -0.0000000000000000000 ) ) ;
#365 = CARTESIAN_POINT ( 'NONE',  ( 1.387000000000000500, 1.514000000000000000, 0.6349999999999996800 ) ) ;
#366 = DIRECTION ( 'NONE',  ( 0.0000000000000000000, -0.0000000000000000000, 1.000000000000000000 ) ) ;
#367 = CARTESIAN_POINT ( 'NONE',  ( 0.1269999999999999700, 1.260000000000000000, 0.1269999999999999700 ) ) ;
#368 = EDGE_LOOP ( 'NONE', ( #617, #604, #684, #751 ) ) ;
#369 = CARTESIAN_POINT ( 'NONE',  ( 1.260000000000000000, 1.260000000000000000, 0.1270000000000000000 ) ) ;
#370 = DIRECTION ( 'NONE',  ( 0.0000000000000000000, 1.000000000000000000, -0.0000000000000000000 ) ) ;
#371 = DIRECTION ( 'NONE',  ( 0.0000000000000000000, 0.0000000000000000000, -1.000000000000000000 ) ) ;
#372 = CARTESIAN_POINT ( 'NONE',  ( 1.133000000000000200, 0.0000000000000000000, 0.1269999999999999700 ) ) ;
#373 = FACE_OUTER_BOUND ( 'NONE', #703, .T. ) ;
#374 = SURFACE_SIDE_STYLE ('',( #471 ) ) ;
#375 = VECTOR ( 'NONE', #713, 1000.000000000000000 ) ;
#376 = VERTEX_POINT ( 'NONE', #574 ) ;
#377 = CARTESIAN_POINT ( 'NONE',  ( -1.133000000000000000, 1.006000000000000200, 0.6349999999999995600 ) ) ;
#378 = CARTESIAN_POINT ( 'NONE',  ( 1.260000000000000000, -1.260000000000000000, 0.1270000000000000000 ) ) ;
#379 = ORIENTED_EDGE ( 'NONE', *, *, #49, .T. ) ;
#380 = VERTEX_POINT ( 'NONE', #280 ) ;
#381 =( GEOMETRIC_REPRESENTATION_CONTEXT ( 3 ) GLOBAL_UNCERTAINTY_ASSIGNED_CONTEXT ( ( #592 ) ) GLOBAL_UNIT_ASSIGNED_CONTEXT ( ( #130, #204, #863 ) ) REPRESENTATION_CONTEXT ( 'NONE', 'WORKASPACE' ) );
#382 = CARTESIAN_POINT ( 'NONE',  ( 1.387000000000000000, 1.514000000000000000, 0.1269999999999999700 ) ) ;
#383 = VECTOR ( 'NONE', #804, 1000.000000000000000 ) ;
#384 = PRESENTATION_STYLE_ASSIGNMENT (( #583 ) ) ;
#385 = MECHANICAL_DESIGN_GEOMETRIC_PRESENTATION_REPRESENTATION (  '', ( #179 ), #433 ) ;
#386 = SURFACE_STYLE_FILL_AREA ( #209 ) ;
#387 = CARTESIAN_POINT ( 'NONE',  ( 0.1269999999999999700, -1.260000000000000000, 0.1269999999999999700 ) ) ;
#388 = VERTEX_POINT ( 'NONE', #205 ) ;
#389 = MECHANICAL_DESIGN_GEOMETRIC_PRESENTATION_REPRESENTATION (  '', ( #240 ), #442 ) ;
#390 = CARTESIAN_POINT ( 'NONE',  ( -0.1270000000000000000, 1.260000000000000000, 0.1270000000000000000 ) ) ;
#391 = FILL_AREA_STYLE_COLOUR ( '', #556 ) ;
#392 = COLOUR_RGB ( '',0.1921568627450980200, 0.1921568627450980200, 0.1921568627450980200 ) ;
#393 = FACE_OUTER_BOUND ( 'NONE', #802, .T. ) ;
#394 = PRESENTATION_STYLE_ASSIGNMENT (( #862 ) ) ;
#395 = EDGE_CURVE ( 'NONE', #599, #906, #739, .T. ) ;
#396 = CARTESIAN_POINT ( 'NONE',  ( 1.387000000000000000, -1.555301434917138500E-017, 0.1270000000000000000 ) ) ;
#397 = CARTESIAN_POINT ( 'NONE',  ( -1.387000000000000000, 0.0000000000000000000, 0.1270000000000000000 ) ) ;
#398 = EDGE_LOOP ( 'NONE', ( #770, #232 ) ) ;
#399 = CARTESIAN_POINT ( 'NONE',  ( -1.132999999999999800, -1.514000000000000000, 0.1269999999999999700 ) ) ;
#400 = CARTESIAN_POINT ( 'NONE',  ( -1.132999999999999800, 0.2539999999999999500, 0.1270000000000000600 ) ) ;
#401 = ORIENTED_EDGE ( 'NONE', *, *, #875, .T. ) ;
#402 = CARTESIAN_POINT ( 'NONE',  ( 1.600000000000000100, -1.600000000000000100, 0.4829999999999999800 ) ) ;
#403 = DIRECTION ( 'NONE',  ( -0.0000000000000000000, -1.000000000000000000, -0.0000000000000000000 ) ) ;
#404 = CARTESIAN_POINT ( 'NONE',  ( 0.0000000000000000000, 1.260000000000000000, 0.1270000000000000000 ) ) ;
#405 = AXIS2_PLACEMENT_3D ( 'NONE', #803, #149, #234 ) ;
#406 = CARTESIAN_POINT ( 'NONE',  ( -0.1269999999999999700, 1.260000000000000000, 0.1269999999999999700 ) ) ;
#407 = CARTESIAN_POINT ( 'NONE',  ( -1.133000000000000000, -1.514000000000000000, 0.6349999999999995600 ) ) ;
#408 = UNCERTAINTY_MEASURE_WITH_UNIT (LENGTH_MEASURE( 1.000000000000000100E-005 ), #120, 'distance_accuracy_value', 'NONE');
#409 = ORIENTED_EDGE ( 'NONE', *, *, #495, .F. ) ;
#410 = CARTESIAN_POINT ( 'NONE',  ( 1.132999999999999800, -0.2539999999999999500, 0.1269999999999999700 ) ) ;
#411 =( GEOMETRIC_REPRESENTATION_CONTEXT ( 3 ) GLOBAL_UNCERTAINTY_ASSIGNED_CONTEXT ( ( #80 ) ) GLOBAL_UNIT_ASSIGNED_CONTEXT ( ( #680, #254, #754 ) ) REPRESENTATION_CONTEXT ( 'NONE', 'WORKASPACE' ) );
#412 = PRODUCT_CONTEXT ( 'NONE', #878, 'mechanical' ) ;
#413 = CARTESIAN_POINT ( 'NONE',  ( 1.387000000000000500, -1.514000000000000000, 0.6349999999999995600 ) ) ;
#414 = LINE ( 'NONE', #888, #222 ) ;
#415 = CARTESIAN_POINT ( 'NONE',  ( -1.387000000000000500, 1.006000000000000200, -0.3809999999999997800 ) ) ;
#416 = ADVANCED_FACE ( 'NONE', ( #825 ), #859, .T. ) ;
#417 = VERTEX_POINT ( 'NONE', #851 ) ;
#418 =( BOUNDED_SURFACE ( )  B_SPLINE_SURFACE ( 3, 3, ( 
 ( #603, #140, #870, #672 ),
 ( #456, #600, #238, #157 ),
 ( #805, #377, #732, #499 ),
 ( #791, #286, #213, #657 ) ),
 .UNSPECIFIED., .F., .F., .F. ) 
 B_SPLINE_SURFACE_WITH_KNOTS ( ( 4, 4 ),
 ( 4, 4 ),
 ( 0.0000000000000000000, 1.000000000000000000 ),
 ( 0.0000000000000000000, 1.000000000000000000 ),
 .UNSPECIFIED. ) 
 GEOMETRIC_REPRESENTATION_ITEM ( )  RATIONAL_B_SPLINE_SURFACE ( (
 ( 1.000000000000000000, 0.3333333333333334300, 0.3333333333333334300, 1.000000000000000000),
 ( 0.3333333333333333700, 0.1111111111111111600, 0.1111111111111111600, 0.3333333333333333700),
 ( 0.3333333333333333700, 0.1111111111111111600, 0.1111111111111111600, 0.3333333333333333700),
 ( 1.000000000000000000, 0.3333333333333334300, 0.3333333333333334300, 1.000000000000000000) ) ) 
 REPRESENTATION_ITEM ( '' )  SURFACE ( )  );
#419 = CARTESIAN_POINT ( 'NONE',  ( 0.1269999999999999700, 1.006000000000000200, 0.6349999999999995600 ) ) ;
#420 = ORIENTED_EDGE ( 'NONE', *, *, #426, .T. ) ;
#421 = ORIENTED_EDGE ( 'NONE', *, *, #504, .F. ) ;
#422 = ADVANCED_FACE ( 'NONE', ( #118 ), #475, .T. ) ;
#423 = CARTESIAN_POINT ( 'NONE',  ( 1.387000000000000000, -1.260000000000000000, 0.1270000000000000000 ) ) ;
#424 = FILL_AREA_STYLE_COLOUR ( '', #899 ) ;
#425 = CARTESIAN_POINT ( 'NONE',  ( -1.387000000000000000, -0.2539999999999999500, 0.1269999999999999700 ) ) ;
#426 = EDGE_CURVE ( 'NONE', #434, #782, #227, .T. ) ;
#427 = SURFACE_STYLE_FILL_AREA ( #759 ) ;
#428 =( NAMED_UNIT ( * ) PLANE_ANGLE_UNIT ( ) SI_UNIT ( $, .RADIAN. ) );
#429 = CARTESIAN_POINT ( 'NONE',  ( 1.133000000000000000, 1.260000000000000000, 0.1270000000000000000 ) ) ;
#430 = CARTESIAN_POINT ( 'NONE',  ( 0.1270000000000000000, 1.260000000000000000, 0.1270000000000000000 ) ) ;
#431 = DIRECTION ( 'NONE',  ( 0.0000000000000000000, 0.0000000000000000000, -1.000000000000000000 ) ) ;
#432 = VECTOR ( 'NONE', #370, 1000.000000000000000 ) ;
#433 =( GEOMETRIC_REPRESENTATION_CONTEXT ( 3 ) GLOBAL_UNCERTAINTY_ASSIGNED_CONTEXT ( ( #275 ) ) GLOBAL_UNIT_ASSIGNED_CONTEXT ( ( #124, #572, #64 ) ) REPRESENTATION_CONTEXT ( 'NONE', 'WORKASPACE' ) );
#434 = VERTEX_POINT ( 'NONE', #724 ) ;
#435 = PLANE ( 'NONE',  #525 ) ;
#436 = CARTESIAN_POINT ( 'NONE',  ( -0.1269999999999999700, -1.006000000000000200, 0.6349999999999996800 ) ) ;
#437 = CARTESIAN_POINT ( 'NONE',  ( -0.1270000000000000000, 1.260000000000000000, 0.1270000000000000000 ) ) ;
#438 = VERTEX_POINT ( 'NONE', #585 ) ;
#439 = DIRECTION ( 'NONE',  ( 0.0000000000000000000, -1.224646799147353200E-016, 1.000000000000000000 ) ) ;
#440 = CARTESIAN_POINT ( 'NONE',  ( 0.1269999999999999700, -1.514000000000000000, -0.3809999999999997800 ) ) ;
#441 = CARTESIAN_POINT ( 'NONE',  ( 0.1270000000000000000, 1.260000000000000000, 0.1270000000000000000 ) ) ;
#442 =( GEOMETRIC_REPRESENTATION_CONTEXT ( 3 ) GLOBAL_UNCERTAINTY_ASSIGNED_CONTEXT ( ( #307 ) ) GLOBAL_UNIT_ASSIGNED_CONTEXT ( ( #801, #454, #520 ) ) REPRESENTATION_CONTEXT ( 'NONE', 'WORKASPACE' ) );
#443 = VECTOR ( 'NONE', #685, 1000.000000000000000 ) ;
#444 = LINE ( 'NONE', #793, #166 ) ;
#445 = FILL_AREA_STYLE_COLOUR ( '', #392 ) ;
#446 = CARTESIAN_POINT ( 'NONE',  ( 0.0000000000000000000, -1.260000000000000000, 0.1270000000000000000 ) ) ;
#447 = FACE_OUTER_BOUND ( 'NONE', #67, .T. ) ;
#448 = DIRECTION ( 'NONE',  ( 1.000000000000000000, 0.0000000000000000000, 0.0000000000000000000 ) ) ;
#449 = DIRECTION ( 'NONE',  ( -1.000000000000000000, 0.0000000000000000000, 0.0000000000000000000 ) ) ;
#450 = CARTESIAN_POINT ( 'NONE',  ( 1.132999999999999800, 0.2539999999999999500, 0.1269999999999999700 ) ) ;
#451 = DIRECTION ( 'NONE',  ( 0.0000000000000000000, 0.0000000000000000000, 1.000000000000000000 ) ) ;
#452 = EDGE_CURVE ( 'NONE', #735, #54, #31, .T. ) ;
#453 = VERTEX_POINT ( 'NONE', #294 ) ;
#454 =( NAMED_UNIT ( * ) PLANE_ANGLE_UNIT ( ) SI_UNIT ( $, .RADIAN. ) );
#455 =( BOUNDED_SURFACE ( )  B_SPLINE_SURFACE ( 3, 3, ( 
 ( #50, #856, #641, #697 ),
 ( #491, #196, #773, #58 ),
 ( #272, #566, #700, #908 ),
 ( #423, #347, #843, #354 ) ),
 .UNSPECIFIED., .F., .F., .F. ) 
 B_SPLINE_SURFACE_WITH_KNOTS ( ( 4, 4 ),
 ( 4, 4 ),
 ( 0.0000000000000000000, 1.000000000000000000 ),
 ( 0.0000000000000000000, 1.000000000000000000 ),
 .UNSPECIFIED. ) 
 GEOMETRIC_REPRESENTATION_ITEM ( )  RATIONAL_B_SPLINE_SURFACE ( (
 ( 1.000000000000000000, 0.3333333333333334300, 0.3333333333333334300, 1.000000000000000000),
 ( 0.3333333333333333700, 0.1111111111111111600, 0.1111111111111111600, 0.3333333333333333700),
 ( 0.3333333333333333700, 0.1111111111111111600, 0.1111111111111111600, 0.3333333333333333700),
 ( 1.000000000000000000, 0.3333333333333334300, 0.3333333333333334300, 1.000000000000000000) ) ) 
 REPRESENTATION_ITEM ( '' )  SURFACE ( )  );
#456 = CARTESIAN_POINT ( 'NONE',  ( -1.387000000000000000, 1.006000000000000200, 0.1269999999999999700 ) ) ;
#457 = DIRECTION ( 'NONE',  ( -1.000000000000000000, 0.0000000000000000000, 0.0000000000000000000 ) ) ;
#458 = STYLED_ITEM ( 'NONE', ( #320 ), #790 ) ;
#459 = CARTESIAN_POINT ( 'NONE',  ( 1.387000000000000500, 1.006000000000000200, -0.3809999999999997800 ) ) ;
#460 = CARTESIAN_POINT ( 'NONE',  ( -0.1269999999999999700, -1.006000000000000200, -0.3809999999999997300 ) ) ;
#461 = CLOSED_SHELL ( 'NONE', ( #723, #422 ) ) ;
#462 = MANIFOLD_SOLID_BREP ( 'Imported6', #86 ) ;
#463 =( GEOMETRIC_REPRESENTATION_CONTEXT ( 3 ) GLOBAL_UNCERTAINTY_ASSIGNED_CONTEXT ( ( #808 ) ) GLOBAL_UNIT_ASSIGNED_CONTEXT ( ( #919, #502, #576 ) ) REPRESENTATION_CONTEXT ( 'NONE', 'WORKASPACE' ) );
#464 = CARTESIAN_POINT ( 'NONE',  ( -1.260000000000000000, 0.0000000000000000000, 0.1270000000000000000 ) ) ;
#465 = SURFACE_STYLE_FILL_AREA ( #898 ) ;
#466 = ORIENTED_EDGE ( 'NONE', *, *, #426, .F. ) ;
#467 = CARTESIAN_POINT ( 'NONE',  ( -0.1269999999999999700, 1.514000000000000000, 0.6349999999999996800 ) ) ;
#468 = AXIS2_PLACEMENT_3D ( 'NONE', #702, #126, #650 ) ;
#469 = CARTESIAN_POINT ( 'NONE',  ( -1.133000000000000200, -1.555301434917138800E-017, 0.1270000000000000000 ) ) ;
#470 =( NAMED_UNIT ( * ) SI_UNIT ( $, .STERADIAN. ) SOLID_ANGLE_UNIT ( ) );
#471 = SURFACE_STYLE_FILL_AREA ( #297 ) ;
#472 = ORIENTED_EDGE ( 'NONE', *, *, #688, .T. ) ;
#473 = DIRECTION ( 'NONE',  ( -1.000000000000000000, 0.0000000000000000000, 0.0000000000000000000 ) ) ;
#474 = DIRECTION ( 'NONE',  ( -1.000000000000000000, 0.0000000000000000000, 0.0000000000000000000 ) ) ;
#475 =( BOUNDED_SURFACE ( )  B_SPLINE_SURFACE ( 3, 3, ( 
 ( #500, #131, #362, #437 ),
 ( #3, #507, #581, #135 ),
 ( #658, #214, #719, #287 ),
 ( #792, #367, #857, #441 ) ),
 .UNSPECIFIED., .F., .F., .T. ) 
 B_SPLINE_SURFACE_WITH_KNOTS ( ( 4, 4 ),
 ( 4, 4 ),
 ( 0.0000000000000000000, 1.000000000000000000 ),
 ( 0.0000000000000000000, 1.000000000000000000 ),
 .UNSPECIFIED. ) 
 GEOMETRIC_REPRESENTATION_ITEM ( )  RATIONAL_B_SPLINE_SURFACE ( (
 ( 1.000000000000000000, 0.3333333333333334300, 0.3333333333333334300, 1.000000000000000000),
 ( 0.3333333333333333700, 0.1111111111111111600, 0.1111111111111111600, 0.3333333333333333700),
 ( 0.3333333333333333700, 0.1111111111111111600, 0.1111111111111111600, 0.3333333333333333700),
 ( 1.000000000000000000, 0.3333333333333334300, 0.3333333333333334300, 1.000000000000000000) ) ) 
 REPRESENTATION_ITEM ( '' )  SURFACE ( )  );
#476 = VERTEX_POINT ( 'NONE', #513 ) ;
#477 = EDGE_LOOP ( 'NONE', ( #421, #17, #884, #326 ) ) ;
#478 = AXIS2_PLACEMENT_3D ( 'NONE', #464, #514, #609 ) ;
#479 = CARTESIAN_POINT ( 'NONE',  ( -1.133000000000000000, -1.006000000000000200, 0.6349999999999996800 ) ) ;
#480 = CARTESIAN_POINT ( 'NONE',  ( 1.387000000000000000, -0.2539999999999999500, 0.1269999999999999700 ) ) ;
#481 = COLOUR_RGB ( '',0.7215686274509803800, 0.7215686274509803800, 0.7215686274509803800 ) ;
#482 = AXIS2_PLACEMENT_3D ( 'NONE', #378, #867, #457 ) ;
#483 = PLANE ( 'NONE',  #918 ) ;
#484 = CARTESIAN_POINT ( 'NONE',  ( -1.387000000000000000, 1.260000000000000000, 0.1269999999999999700 ) ) ;
#485 = LINE ( 'NONE', #736, #594 ) ;
#486 = ADVANCED_FACE ( 'NONE', ( #176 ), #518, .T. ) ;
#487 = MANIFOLD_SOLID_BREP ( 'Imported3', #111 ) ;
#488 = CARTESIAN_POINT ( 'NONE',  ( -1.387000000000000000, 1.006000000000000200, 0.1269999999999999700 ) ) ;
#489 = CARTESIAN_POINT ( 'NONE',  ( 0.1269999999999999700, 1.514000000000000000, 0.1270000000000000600 ) ) ;
#490 = CARTESIAN_POINT ( 'NONE',  ( 1.133000000000000200, 1.260000000000000000, 0.1269999999999999700 ) ) ;
#491 = CARTESIAN_POINT ( 'NONE',  ( 1.132999999999999800, -1.006000000000000200, 0.1269999999999999700 ) ) ;
#492 = SURFACE_SIDE_STYLE ('',( #11 ) ) ;
#493 = FILL_AREA_STYLE_COLOUR ( '', #210 ) ;
#494 = CARTESIAN_POINT ( 'NONE',  ( -1.133000000000000000, 0.2539999999999999500, -0.3809999999999997800 ) ) ;
#495 = EDGE_CURVE ( 'NONE', #434, #782, #300, .T. ) ;
#496 = AXIS2_PLACEMENT_3D ( 'NONE', #247, #364, #216 ) ;
#497 = ORIENTED_EDGE ( 'NONE', *, *, #452, .F. ) ;
#498 = CARTESIAN_POINT ( 'NONE',  ( 1.132999999999999800, 1.006000000000000200, 0.1269999999999999700 ) ) ;
#499 = CARTESIAN_POINT ( 'NONE',  ( -1.132999999999999800, 1.514000000000000000, 0.1270000000000000600 ) ) ;
#500 = CARTESIAN_POINT ( 'NONE',  ( -0.1270000000000000000, 1.260000000000000000, 0.1270000000000000000 ) ) ;
#501 = EDGE_LOOP ( 'NONE', ( #607, #772 ) ) ;
#502 =( NAMED_UNIT ( * ) PLANE_ANGLE_UNIT ( ) SI_UNIT ( $, .RADIAN. ) );
#503 = DIRECTION ( 'NONE',  ( 0.0000000000000000000, 1.000000000000000000, 0.0000000000000000000 ) ) ;
#504 = EDGE_CURVE ( 'NONE', #92, #453, #236, .T. ) ;
#505 = CARTESIAN_POINT ( 'NONE',  ( 1.387000000000000000, -1.260000000000000000, 0.1270000000000000000 ) ) ;
#506 = CARTESIAN_POINT ( 'NONE',  ( 0.1269999999999999700, -1.514000000000000000, 0.1269999999999999700 ) ) ;
#507 = CARTESIAN_POINT ( 'NONE',  ( -0.1269999999999999700, 1.514000000000000000, -0.3809999999999997300 ) ) ;
#508 =( NAMED_UNIT ( * ) SI_UNIT ( $, .STERADIAN. ) SOLID_ANGLE_UNIT ( ) );
#509 = ORIENTED_EDGE ( 'NONE', *, *, #185, .F. ) ;
#510 = LINE ( 'NONE', #861, #314 ) ;
#511 = DIRECTION ( 'NONE',  ( 0.0000000000000000000, -1.224646799147353200E-016, 1.000000000000000000 ) ) ;
#512 = DIRECTION ( 'NONE',  ( 0.0000000000000000000, 0.0000000000000000000, -1.000000000000000000 ) ) ;
#513 = CARTESIAN_POINT ( 'NONE',  ( -1.360009999999999900, 1.280000000000000000, 0.4829999999999999800 ) ) ;
#514 = DIRECTION ( 'NONE',  ( 0.0000000000000000000, -1.224646799147353200E-016, 1.000000000000000000 ) ) ;
#515 = AXIS2_PLACEMENT_3D ( 'NONE', #141, #431, #921 ) ;
#516 = CARTESIAN_POINT ( 'NONE',  ( 1.133000000000000000, -0.2539999999999998900, -0.3809999999999997800 ) ) ;
#517 = CARTESIAN_POINT ( 'NONE',  ( -1.600000000000000100, 1.600000000000000100, 0.2530000000000000000 ) ) ;
#518 = PLANE ( 'NONE',  #288 ) ;
#519 = UNCERTAINTY_MEASURE_WITH_UNIT (LENGTH_MEASURE( 1.000000000000000100E-005 ), #853, 'distance_accuracy_value', 'NONE');
#520 =( NAMED_UNIT ( * ) SI_UNIT ( $, .STERADIAN. ) SOLID_ANGLE_UNIT ( ) );
#521 = CLOSED_SHELL ( 'NONE', ( #633, #555 ) ) ;
#522 = DIRECTION ( 'NONE',  ( 0.0000000000000000000, -0.0000000000000000000, 1.000000000000000000 ) ) ;
#523 = CARTESIAN_POINT ( 'NONE',  ( 1.133000000000000000, 1.260000000000000000, 0.1270000000000000000 ) ) ;
#524 = CARTESIAN_POINT ( 'NONE',  ( 1.260000000000000000, 1.260000000000000000, 0.1270000000000000000 ) ) ;
#525 = AXIS2_PLACEMENT_3D ( 'NONE', #710, #1, #360 ) ;
#526 = SURFACE_STYLE_FILL_AREA ( #143 ) ;
#527 = DIRECTION ( 'NONE',  ( 1.000000000000000000, -0.0000000000000000000, 0.0000000000000000000 ) ) ;
#528 = CYLINDRICAL_SURFACE ( 'NONE', #82, 0.08000999999999992800 ) ;
#529 = AXIS2_PLACEMENT_3D ( 'NONE', #46, #554, #113 ) ;
#530 = SURFACE_STYLE_USAGE ( .BOTH. , #815 ) ;
#531 = ORIENTED_EDGE ( 'NONE', *, *, #907, .T. ) ;
#532 = APPLICATION_PROTOCOL_DEFINITION ( 'draft international standard', 'automotive_design', 1998, #878 ) ;
#533 = ORIENTED_EDGE ( 'NONE', *, *, #334, .F. ) ;
#534 = DIRECTION ( 'NONE',  ( 0.0000000000000000000, 0.0000000000000000000, 1.000000000000000000 ) ) ;
#535 =( NAMED_UNIT ( * ) PLANE_ANGLE_UNIT ( ) SI_UNIT ( $, .RADIAN. ) );
#536 = CIRCLE ( 'NONE', #771, 0.1269999999999999500 ) ;
#537 = ORIENTED_EDGE ( 'NONE', *, *, #605, .F. ) ;
#538 = CARTESIAN_POINT ( 'NONE',  ( -1.133000000000000000, 1.555301434917138500E-017, 0.1270000000000000000 ) ) ;
#539 = SURFACE_STYLE_FILL_AREA ( #812 ) ;
#540 = ORIENTED_EDGE ( 'NONE', *, *, #605, .T. ) ;
#541 = PRESENTATION_LAYER_ASSIGNMENT (  '', '', ( #458 ) ) ;
#542 = ORIENTED_EDGE ( 'NONE', *, *, #42, .T. ) ;
#543 = SURFACE_STYLE_USAGE ( .BOTH. , #324 ) ;
#544 = UNCERTAINTY_MEASURE_WITH_UNIT (LENGTH_MEASURE( 1.000000000000000100E-005 ), #610, 'distance_accuracy_value', 'NONE');
#545 = CARTESIAN_POINT ( 'NONE',  ( -1.600000000000000100, 1.600000000000000100, 0.2530000000000000000 ) ) ;
#546 = CARTESIAN_POINT ( 'NONE',  ( -1.387000000000000000, -1.260000000000000000, 0.1269999999999999700 ) ) ;
#547 = FACE_OUTER_BOUND ( 'NONE', #810, .T. ) ;
#548 = AXIS2_PLACEMENT_3D ( 'NONE', #524, #20, #580 ) ;
#549 = CARTESIAN_POINT ( 'NONE',  ( 1.133000000000000000, 0.0000000000000000000, 0.1270000000000000000 ) ) ;
#550 = CARTESIAN_POINT ( 'NONE',  ( -1.133000000000000000, -1.260000000000000000, 0.1270000000000000000 ) ) ;
#551 = LINE ( 'NONE', #200, #443 ) ;
#552 = CARTESIAN_POINT ( 'NONE',  ( 1.133000000000000200, -1.260000000000000000, 0.1269999999999999700 ) ) ;
#553 = EDGE_LOOP ( 'NONE', ( #281, #708 ) ) ;
#554 = DIRECTION ( 'NONE',  ( 0.0000000000000000000, 0.0000000000000000000, -1.000000000000000000 ) ) ;
#555 = ADVANCED_FACE ( 'NONE', ( #155 ), #128, .T. ) ;
#556 = COLOUR_RGB ( '',0.7215686274509803800, 0.7215686274509803800, 0.7215686274509803800 ) ;
#557 = DIRECTION ( 'NONE',  ( -1.000000000000000000, 0.0000000000000000000, 0.0000000000000000000 ) ) ;
#558 = CARTESIAN_POINT ( 'NONE',  ( -1.133000000000000000, 1.514000000000000000, -0.3809999999999997300 ) ) ;
#559 = AXIS2_PLACEMENT_3D ( 'NONE', #446, #511, #74 ) ;
#560 = ADVANCED_FACE ( 'NONE', ( #744 ), #890, .T. ) ;
#561 = APPLICATION_CONTEXT ( 'automotive_design' ) ;
#562 = CARTESIAN_POINT ( 'NONE',  ( -1.387000000000000000, 0.0000000000000000000, 0.1270000000000000000 ) ) ;
#563 = ORIENTED_EDGE ( 'NONE', *, *, #49, .F. ) ;
#564 = EDGE_LOOP ( 'NONE', ( #351, #325 ) ) ;
#565 = VERTEX_POINT ( 'NONE', #835 ) ;
#566 = CARTESIAN_POINT ( 'NONE',  ( 1.387000000000000500, -1.006000000000000200, -0.3809999999999997300 ) ) ;
#567 = SURFACE_STYLE_USAGE ( .BOTH. , #492 ) ;
#568 = CARTESIAN_POINT ( 'NONE',  ( -0.1269999999999999700, -1.514000000000000000, 0.1269999999999999700 ) ) ;
#569 = CARTESIAN_POINT ( 'NONE',  ( -1.133000000000000000, -0.2539999999999998900, -0.3809999999999997800 ) ) ;
#570 = EDGE_CURVE ( 'NONE', #376, #33, #220, .T. ) ;
#571 = PRESENTATION_STYLE_ASSIGNMENT (( #730 ) ) ;
#572 =( NAMED_UNIT ( * ) PLANE_ANGLE_UNIT ( ) SI_UNIT ( $, .RADIAN. ) );
#573 = DIRECTION ( 'NONE',  ( -0.0000000000000000000, -0.0000000000000000000, -1.000000000000000000 ) ) ;
#574 = CARTESIAN_POINT ( 'NONE',  ( -0.1270000000000000000, -1.260000000000000000, 0.1270000000000000000 ) ) ;
#575 = CARTESIAN_POINT ( 'NONE',  ( -1.387000000000000000, -1.260000000000000000, 0.1270000000000000000 ) ) ;
#576 =( NAMED_UNIT ( * ) SI_UNIT ( $, .STERADIAN. ) SOLID_ANGLE_UNIT ( ) );
#577 = ADVANCED_FACE ( 'NONE', ( #645 ), #578, .T. ) ;
#578 =( BOUNDED_SURFACE ( )  B_SPLINE_SURFACE ( 3, 3, ( 
 ( #820, #484, #635, #188 ),
 ( #695, #764, #415, #488 ),
 ( #51, #558, #637, #193 ),
 ( #698, #270, #769, #342 ) ),
 .UNSPECIFIED., .F., .F., .T. ) 
 B_SPLINE_SURFACE_WITH_KNOTS ( ( 4, 4 ),
 ( 4, 4 ),
 ( 0.0000000000000000000, 1.000000000000000000 ),
 ( 0.0000000000000000000, 1.000000000000000000 ),
 .UNSPECIFIED. ) 
 GEOMETRIC_REPRESENTATION_ITEM ( )  RATIONAL_B_SPLINE_SURFACE ( (
 ( 1.000000000000000000, 0.3333333333333334300, 0.3333333333333334300, 1.000000000000000000),
 ( 0.3333333333333333700, 0.1111111111111111600, 0.1111111111111111600, 0.3333333333333333700),
 ( 0.3333333333333333700, 0.1111111111111111600, 0.1111111111111111600, 0.3333333333333333700),
 ( 1.000000000000000000, 0.3333333333333334300, 0.3333333333333334300, 1.000000000000000000) ) ) 
 REPRESENTATION_ITEM ( '' )  SURFACE ( )  );
#579 = CARTESIAN_POINT ( 'NONE',  ( 0.1269999999999999700, -1.006000000000000200, 0.6349999999999996800 ) ) ;
#580 = DIRECTION ( 'NONE',  ( -1.000000000000000000, 0.0000000000000000000, 0.0000000000000000000 ) ) ;
#581 = CARTESIAN_POINT ( 'NONE',  ( -0.1269999999999999700, 1.006000000000000200, -0.3809999999999997800 ) ) ;
#582 = ORIENTED_EDGE ( 'NONE', *, *, #740, .T. ) ;
#583 = SURFACE_STYLE_USAGE ( .BOTH. , #717 ) ;
#584 = CARTESIAN_POINT ( 'NONE',  ( 1.133000000000000000, 0.0000000000000000000, 0.1270000000000000000 ) ) ;
#585 = CARTESIAN_POINT ( 'NONE',  ( 1.133000000000000000, 1.260000000000000000, 0.1270000000000000000 ) ) ;
#586 = CARTESIAN_POINT ( 'NONE',  ( 1.132999999999999800, 1.514000000000000000, 0.1270000000000000600 ) ) ;
#587 = CIRCLE ( 'NONE', #761, 0.08000999999999992800 ) ;
#588 = CIRCLE ( 'NONE', #780, 0.1269999999999999500 ) ;
#589 = CARTESIAN_POINT ( 'NONE',  ( -1.600000000000000100, -1.600000000000000100, 0.2530000000000000000 ) ) ;
#590 = COLOUR_RGB ( '',0.7215686274509803800, 0.7215686274509803800, 0.7215686274509803800 ) ;
#591 = DIRECTION ( 'NONE',  ( 0.0000000000000000000, -0.0000000000000000000, 1.000000000000000000 ) ) ;
#592 = UNCERTAINTY_MEASURE_WITH_UNIT (LENGTH_MEASURE( 1.000000000000000100E-005 ), #130, 'distance_accuracy_value', 'NONE');
#593 = DIRECTION ( 'NONE',  ( -1.000000000000000000, 0.0000000000000000000, -0.0000000000000000000 ) ) ;
#594 = VECTOR ( 'NONE', #573, 1000.000000000000000 ) ;
#595 = AXIS2_PLACEMENT_3D ( 'NONE', #266, #339, #838 ) ;
#596 = FILL_AREA_STYLE ('',( #244 ) ) ;
#597 = CARTESIAN_POINT ( 'NONE',  ( 1.133000000000000200, 1.260000000000000000, 0.1269999999999999700 ) ) ;
#598 = ORIENTED_EDGE ( 'NONE', *, *, #881, .F. ) ;
#599 = VERTEX_POINT ( 'NONE', #562 ) ;
#600 = CARTESIAN_POINT ( 'NONE',  ( -1.387000000000000500, 1.006000000000000200, 0.6349999999999995600 ) ) ;
#601 = CARTESIAN_POINT ( 'NONE',  ( 1.133000000000000200, 1.260000000000000000, 0.1269999999999999700 ) ) ;
#602 = MECHANICAL_DESIGN_GEOMETRIC_PRESENTATION_REPRESENTATION (  '', ( #458 ), #647 ) ;
#603 = CARTESIAN_POINT ( 'NONE',  ( -1.387000000000000000, 1.260000000000000000, 0.1270000000000000000 ) ) ;
#604 = ORIENTED_EDGE ( 'NONE', *, *, #787, .F. ) ;
#605 = EDGE_CURVE ( 'NONE', #476, #618, #587, .T. ) ;
#606 = VERTEX_POINT ( 'NONE', #55 ) ;
#607 = ORIENTED_EDGE ( 'NONE', *, *, #688, .F. ) ;
#608 = CARTESIAN_POINT ( 'NONE',  ( -0.1269999999999999700, -1.514000000000000000, -0.3809999999999997800 ) ) ;
#609 = DIRECTION ( 'NONE',  ( -1.000000000000000000, 0.0000000000000000000, 0.0000000000000000000 ) ) ;
#610 =( LENGTH_UNIT ( ) NAMED_UNIT ( * ) SI_UNIT ( .MILLI., .METRE. ) );
#611 = SURFACE_STYLE_FILL_AREA ( #913 ) ;
#612 = CYLINDRICAL_SURFACE ( 'NONE', #56, 0.08000999999999992800 ) ;
#613 = PLANE ( 'NONE',  #496 ) ;
#614 = CARTESIAN_POINT ( 'NONE',  ( 1.387000000000000000, 1.260000000000000000, 0.1269999999999999700 ) ) ;
#615 = SURFACE_SIDE_STYLE ('',( #427 ) ) ;
#616 = CARTESIAN_POINT ( 'NONE',  ( -1.387000000000000000, -0.2539999999999999500, 0.1269999999999999700 ) ) ;
#617 = ORIENTED_EDGE ( 'NONE', *, *, #146, .T. ) ;
#618 = VERTEX_POINT ( 'NONE', #701 ) ;
#619 = CARTESIAN_POINT ( 'NONE',  ( -1.280000000000000000, 1.280000000000000000, 0.4829999999999999800 ) ) ;
#620 =( BOUNDED_SURFACE ( )  B_SPLINE_SURFACE ( 3, 3, ( 
 ( #180, #622, #104, #549 ),
 ( #410, #106, #690, #893 ),
 ( #480, #628, #331, #261 ),
 ( #757, #112, #634, #187 ) ),
 .UNSPECIFIED., .F., .F., .T. ) 
 B_SPLINE_SURFACE_WITH_KNOTS ( ( 4, 4 ),
 ( 4, 4 ),
 ( 0.0000000000000000000, 1.000000000000000000 ),
 ( 0.0000000000000000000, 1.000000000000000000 ),
 .UNSPECIFIED. ) 
 GEOMETRIC_REPRESENTATION_ITEM ( )  RATIONAL_B_SPLINE_SURFACE ( (
 ( 1.000000000000000000, 0.3333333333333334300, 0.3333333333333334300, 1.000000000000000000),
 ( 0.3333333333333333700, 0.1111111111111111600, 0.1111111111111111600, 0.3333333333333333700),
 ( 0.3333333333333333700, 0.1111111111111111600, 0.1111111111111111600, 0.3333333333333333700),
 ( 1.000000000000000000, 0.3333333333333334300, 0.3333333333333334300, 1.000000000000000000) ) ) 
 REPRESENTATION_ITEM ( '' )  SURFACE ( )  );
#621 = DIRECTION ( 'NONE',  ( 1.000000000000000000, 0.0000000000000000000, 0.0000000000000000000 ) ) ;
#622 = CARTESIAN_POINT ( 'NONE',  ( 1.133000000000000200, 0.0000000000000000000, 0.1269999999999999700 ) ) ;
#623 = CARTESIAN_POINT ( 'NONE',  ( -1.387000000000000000, -1.260000000000000000, 0.1269999999999999700 ) ) ;
#624 = ORIENTED_EDGE ( 'NONE', *, *, #787, .T. ) ;
#625 = ORIENTED_EDGE ( 'NONE', *, *, #102, .F. ) ;
#626 = MECHANICAL_DESIGN_GEOMETRIC_PRESENTATION_REPRESENTATION (  '', ( #34 ), #411 ) ;
#627 =( GEOMETRIC_REPRESENTATION_CONTEXT ( 3 ) GLOBAL_UNCERTAINTY_ASSIGNED_CONTEXT ( ( #869 ) ) GLOBAL_UNIT_ASSIGNED_CONTEXT ( ( #60, #428, #833 ) ) REPRESENTATION_CONTEXT ( 'NONE', 'WORKASPACE' ) );
#628 = CARTESIAN_POINT ( 'NONE',  ( 1.387000000000000500, -0.2539999999999999500, 0.6349999999999996800 ) ) ;
#629 = CARTESIAN_POINT ( 'NONE',  ( -1.133000000000000200, -1.260000000000000000, 0.1269999999999999700 ) ) ;
#630 = MANIFOLD_SOLID_BREP ( 'Imported5', #349 ) ;
#631 = CARTESIAN_POINT ( 'NONE',  ( 1.132999999999999800, -1.514000000000000000, 0.1269999999999999700 ) ) ;
#632 = COLOUR_RGB ( '',0.7215686274509803800, 0.7215686274509803800, 0.7215686274509803800 ) ;
#633 = ADVANCED_FACE ( 'NONE', ( #156 ), #237, .T. ) ;
#634 = CARTESIAN_POINT ( 'NONE',  ( 1.387000000000000000, 1.555301434917138800E-017, 0.1270000000000000000 ) ) ;
#635 = CARTESIAN_POINT ( 'NONE',  ( -1.387000000000000000, 1.260000000000000000, 0.1269999999999999700 ) ) ;
#636 = DIRECTION ( 'NONE',  ( 0.0000000000000000000, 0.0000000000000000000, 1.000000000000000000 ) ) ;
#637 = CARTESIAN_POINT ( 'NONE',  ( -1.133000000000000000, 1.006000000000000200, -0.3809999999999997800 ) ) ;
#638 = ADVANCED_FACE ( 'NONE', ( #132 ), #68, .T. ) ;
#639 = ORIENTED_EDGE ( 'NONE', *, *, #797, .T. ) ;
#640 =( GEOMETRIC_REPRESENTATION_CONTEXT ( 3 ) GLOBAL_UNCERTAINTY_ASSIGNED_CONTEXT ( ( #519 ) ) GLOBAL_UNIT_ASSIGNED_CONTEXT ( ( #853, #70, #299 ) ) REPRESENTATION_CONTEXT ( 'NONE', 'WORKASPACE' ) );
#641 = CARTESIAN_POINT ( 'NONE',  ( 1.133000000000000200, -1.260000000000000000, 0.1269999999999999700 ) ) ;
#642 = CARTESIAN_POINT ( 'NONE',  ( 1.387000000000000500, 0.2539999999999999500, -0.3809999999999997800 ) ) ;
#643 = CARTESIAN_POINT ( 'NONE',  ( 0.1269999999999999700, 1.260000000000000000, 0.1269999999999999700 ) ) ;
#644 =( NAMED_UNIT ( * ) PLANE_ANGLE_UNIT ( ) SI_UNIT ( $, .RADIAN. ) );
#645 = FACE_OUTER_BOUND ( 'NONE', #323, .T. ) ;
#646 = CARTESIAN_POINT ( 'NONE',  ( -1.133000000000000000, 1.555301434917138500E-017, 0.1270000000000000000 ) ) ;
#647 =( GEOMETRIC_REPRESENTATION_CONTEXT ( 3 ) GLOBAL_UNCERTAINTY_ASSIGNED_CONTEXT ( ( #777 ) ) GLOBAL_UNIT_ASSIGNED_CONTEXT ( ( #753, #253, #470 ) ) REPRESENTATION_CONTEXT ( 'NONE', 'WORKASPACE' ) );
#648 = SURFACE_STYLE_USAGE ( .BOTH. , #278 ) ;
#649 = CARTESIAN_POINT ( 'NONE',  ( 1.387000000000000000, 1.260000000000000000, 0.1270000000000000000 ) ) ;
#650 = DIRECTION ( 'NONE',  ( 1.000000000000000000, 0.0000000000000000000, -0.0000000000000000000 ) ) ;
#651 =( BOUNDED_SURFACE ( )  B_SPLINE_SURFACE ( 3, 3, ( 
 ( #38, #546, #623, #181 ),
 ( #686, #259, #756, #330 ),
 ( #830, #407, #479, #39 ),
 ( #550, #107, #629, #183 ) ),
 .UNSPECIFIED., .F., .F., .F. ) 
 B_SPLINE_SURFACE_WITH_KNOTS ( ( 4, 4 ),
 ( 4, 4 ),
 ( 0.0000000000000000000, 1.000000000000000000 ),
 ( 0.0000000000000000000, 1.000000000000000000 ),
 .UNSPECIFIED. ) 
 GEOMETRIC_REPRESENTATION_ITEM ( )  RATIONAL_B_SPLINE_SURFACE ( (
 ( 1.000000000000000000, 0.3333333333333334300, 0.3333333333333334300, 1.000000000000000000),
 ( 0.3333333333333333700, 0.1111111111111111600, 0.1111111111111111600, 0.3333333333333333700),
 ( 0.3333333333333333700, 0.1111111111111111600, 0.1111111111111111600, 0.3333333333333333700),
 ( 1.000000000000000000, 0.3333333333333334300, 0.3333333333333334300, 1.000000000000000000) ) ) 
 REPRESENTATION_ITEM ( '' )  SURFACE ( )  );
#652 = ORIENTED_EDGE ( 'NONE', *, *, #257, .T. ) ;
#653 = CARTESIAN_POINT ( 'NONE',  ( -0.1270000000000000000, -1.260000000000000000, 0.1270000000000000000 ) ) ;
#654 = ORIENTED_EDGE ( 'NONE', *, *, #832, .T. ) ;
#655 = AXIS2_PLACEMENT_3D ( 'NONE', #796, #371, #449 ) ;
#656 = CARTESIAN_POINT ( 'NONE',  ( 0.1270000000000000000, -1.260000000000000000, 0.1270000000000000000 ) ) ;
#657 = CARTESIAN_POINT ( 'NONE',  ( -1.133000000000000000, 1.260000000000000000, 0.1270000000000000000 ) ) ;
#658 = CARTESIAN_POINT ( 'NONE',  ( 0.1269999999999999700, 1.514000000000000000, 0.1269999999999999700 ) ) ;
#659 = CIRCLE ( 'NONE', #842, 0.1269999999999999500 ) ;
#660 = CARTESIAN_POINT ( 'NONE',  ( 1.133000000000000200, 0.0000000000000000000, 0.1269999999999999700 ) ) ;
#661 = LINE ( 'NONE', #920, #277 ) ;
#662 = CARTESIAN_POINT ( 'NONE',  ( -1.280000000000000000, 1.280000000000000000, 0.4829999999999999800 ) ) ;
#663 = CARTESIAN_POINT ( 'NONE',  ( -1.260000000000000000, -1.260000000000000000, 0.1270000000000000000 ) ) ;
#664 = EDGE_LOOP ( 'NONE', ( #598, #537 ) ) ;
#665 = FILL_AREA_STYLE_COLOUR ( '', #481 ) ;
#666 = CARTESIAN_POINT ( 'NONE',  ( -0.1269999999999999700, -1.260000000000000000, 0.1269999999999999700 ) ) ;
#667 = FILL_AREA_STYLE ('',( #145 ) ) ;
#668 = CIRCLE ( 'NONE', #478, 0.1269999999999999500 ) ;
#669 = CARTESIAN_POINT ( 'NONE',  ( -0.1270000000000000000, -1.260000000000000000, 0.1270000000000000000 ) ) ;
#670 = CARTESIAN_POINT ( 'NONE',  ( 1.132999999999999800, 1.514000000000000000, 0.1269999999999999700 ) ) ;
#671 = CIRCLE ( 'NONE', #405, 0.1269999999999999500 ) ;
#672 = CARTESIAN_POINT ( 'NONE',  ( -1.387000000000000000, 1.260000000000000000, 0.1270000000000000000 ) ) ;
#673 = ORIENTED_EDGE ( 'NONE', *, *, #290, .T. ) ;
#674 = CARTESIAN_POINT ( 'NONE',  ( 0.1270000000000000000, -1.260000000000000000, 0.1270000000000000000 ) ) ;
#675 = CARTESIAN_POINT ( 'NONE',  ( -1.387000000000000000, -1.260000000000000000, 0.1269999999999999700 ) ) ;
#676 = CARTESIAN_POINT ( 'NONE',  ( 1.387000000000000000, 1.260000000000000000, 0.1270000000000000000 ) ) ;
#677 = EDGE_CURVE ( 'NONE', #336, #184, #716, .T. ) ;
#678 = CARTESIAN_POINT ( 'NONE',  ( -1.387000000000000500, 0.2539999999999998400, 0.6349999999999999000 ) ) ;
#679 = FILL_AREA_STYLE ('',( #445 ) ) ;
#680 =( LENGTH_UNIT ( ) NAMED_UNIT ( * ) SI_UNIT ( .MILLI., .METRE. ) );
#681 = EDGE_LOOP ( 'NONE', ( #6, #540, #868, #811 ) ) ;
#682 = EDGE_CURVE ( 'NONE', #376, #33, #891, .T. ) ;
#683 = DIRECTION ( 'NONE',  ( 0.0000000000000000000, -1.224646799147353200E-016, 1.000000000000000000 ) ) ;
#684 = ORIENTED_EDGE ( 'NONE', *, *, #137, .F. ) ;
#685 = DIRECTION ( 'NONE',  ( 0.0000000000000000000, 0.0000000000000000000, 1.000000000000000000 ) ) ;
#686 = CARTESIAN_POINT ( 'NONE',  ( -1.387000000000000000, -1.514000000000000000, 0.1269999999999999700 ) ) ;
#687 = AXIS2_PLACEMENT_3D ( 'NONE', #799, #503, #66 ) ;
#688 = EDGE_CURVE ( 'NONE', #127, #380, #872, .T. ) ;
#689 = AXIS2_PLACEMENT_3D ( 'NONE', #404, #889, #474 ) ;
#690 = CARTESIAN_POINT ( 'NONE',  ( 1.133000000000000000, 0.2539999999999998400, 0.6349999999999999000 ) ) ;
#691 = CARTESIAN_POINT ( 'NONE',  ( -1.133000000000000000, -0.2539999999999999500, 0.6349999999999996800 ) ) ;
#692 = FACE_OUTER_BOUND ( 'NONE', #501, .T. ) ;
#693 = CARTESIAN_POINT ( 'NONE',  ( 1.133000000000000000, -1.006000000000000200, 0.6349999999999996800 ) ) ;
#694 = CARTESIAN_POINT ( 'NONE',  ( 0.1269999999999999700, 1.006000000000000200, 0.1269999999999999700 ) ) ;
#695 = CARTESIAN_POINT ( 'NONE',  ( -1.387000000000000000, 1.514000000000000000, 0.1269999999999999700 ) ) ;
#696 = ADVANCED_FACE ( 'NONE', ( #692 ), #831, .T. ) ;
#697 = CARTESIAN_POINT ( 'NONE',  ( 1.133000000000000000, -1.260000000000000000, 0.1270000000000000000 ) ) ;
#698 = CARTESIAN_POINT ( 'NONE',  ( -1.133000000000000000, 1.260000000000000000, 0.1270000000000000000 ) ) ;
#699 = AXIS2_PLACEMENT_3D ( 'NONE', #725, #295, #798 ) ;
#700 = CARTESIAN_POINT ( 'NONE',  ( 1.387000000000000500, -1.514000000000000000, -0.3809999999999997800 ) ) ;
#701 = CARTESIAN_POINT ( 'NONE',  ( -1.199990000000000100, 1.280000000000000000, 0.4829999999999999800 ) ) ;
#702 = CARTESIAN_POINT ( 'NONE',  ( -1.280000000000000000, 1.280000000000000000, 0.4829999999999999800 ) ) ;
#703 = EDGE_LOOP ( 'NONE', ( #497, #542 ) ) ;
#704 =( NAMED_UNIT ( * ) SI_UNIT ( $, .STERADIAN. ) SOLID_ANGLE_UNIT ( ) );
#705 = CARTESIAN_POINT ( 'NONE',  ( -1.133000000000000200, -1.555301434917138800E-017, 0.1269999999999999700 ) ) ;
#706 = ADVANCED_BREP_SHAPE_REPRESENTATION ( 'MICROFJ-30035-TSV-TR', ( #47, #221, #487, #790, #630, #462, #289, #900, #747, #317, #161 ), #627 ) ;
#707 = ORIENTED_EDGE ( 'NONE', *, *, #102, .T. ) ;
#708 = ORIENTED_EDGE ( 'NONE', *, *, #570, .T. ) ;
#709 = STYLED_ITEM ( 'NONE', ( #256 ), #47 ) ;
#710 = CARTESIAN_POINT ( 'NONE',  ( -1.600000000000000100, -1.600000000000000100, 0.2530000000000000000 ) ) ;
#711 = CARTESIAN_POINT ( 'NONE',  ( 1.387000000000000000, 1.260000000000000000, 0.1269999999999999700 ) ) ;
#712 = ADVANCED_FACE ( 'NONE', ( #310 ), #612, .T. ) ;
#713 = DIRECTION ( 'NONE',  ( -0.0000000000000000000, 0.0000000000000000000, 1.000000000000000000 ) ) ;
#714 = CARTESIAN_POINT ( 'NONE',  ( -1.133000000000000000, 1.555301434917138500E-017, 0.1270000000000000000 ) ) ;
#715 = CARTESIAN_POINT ( 'NONE',  ( -0.1269999999999999700, -1.260000000000000000, 0.1269999999999999700 ) ) ;
#716 = CIRCLE ( 'NONE', #318, 0.08000999999999992800 ) ;
#717 = SURFACE_SIDE_STYLE ('',( #526 ) ) ;
#718 = CARTESIAN_POINT ( 'NONE',  ( 0.1269999999999999700, -1.260000000000000000, 0.1269999999999999700 ) ) ;
#719 = CARTESIAN_POINT ( 'NONE',  ( 0.1269999999999999700, 1.006000000000000200, -0.3809999999999997800 ) ) ;
#720 = VECTOR ( 'NONE', #527, 1000.000000000000000 ) ;
#721 = CARTESIAN_POINT ( 'NONE',  ( -1.199990000000000100, 1.280000000000000000, 0.4829999999999999800 ) ) ;
#722 = DIRECTION ( 'NONE',  ( 0.0000000000000000000, 0.0000000000000000000, 1.000000000000000000 ) ) ;
#723 = ADVANCED_FACE ( 'NONE', ( #108 ), #171, .T. ) ;
#724 = CARTESIAN_POINT ( 'NONE',  ( 1.133000000000000000, -1.260000000000000000, 0.1270000000000000000 ) ) ;
#725 = CARTESIAN_POINT ( 'NONE',  ( 1.260000000000000000, 0.0000000000000000000, 0.1270000000000000000 ) ) ;
#726 = CARTESIAN_POINT ( 'NONE',  ( -1.600000000000000100, -1.600000000000000100, 0.2530000000000000000 ) ) ;
#727 = DIRECTION ( 'NONE',  ( -1.000000000000000000, 0.0000000000000000000, 0.0000000000000000000 ) ) ;
#728 = SURFACE_STYLE_FILL_AREA ( #679 ) ;
#729 = CARTESIAN_POINT ( 'NONE',  ( -1.600000000000000100, 1.600000000000000100, 0.2530000000000000000 ) ) ;
#730 = SURFACE_STYLE_USAGE ( .BOTH. , #230 ) ;
#731 = ORIENTED_EDGE ( 'NONE', *, *, #875, .F. ) ;
#732 = CARTESIAN_POINT ( 'NONE',  ( -1.133000000000000000, 1.514000000000000000, 0.6349999999999996800 ) ) ;
#733 = CARTESIAN_POINT ( 'NONE',  ( 1.387000000000000000, 1.260000000000000000, 0.1270000000000000000 ) ) ;
#734 = CLOSED_SHELL ( 'NONE', ( #57, #577 ) ) ;
#735 = VERTEX_POINT ( 'NONE', #746 ) ;
#736 = CARTESIAN_POINT ( 'NONE',  ( -1.600000000000000100, 1.600000000000000100, 0.2530000000000000000 ) ) ;
#737 = SURFACE_SIDE_STYLE ('',( #539 ) ) ;
#738 = UNCERTAINTY_MEASURE_WITH_UNIT (LENGTH_MEASURE( 1.000000000000000100E-005 ), #15, 'distance_accuracy_value', 'NONE');
#739 = CIRCLE ( 'NONE', #515, 0.1269999999999999500 ) ;
#740 = EDGE_CURVE ( 'NONE', #438, #417, #659, .T. ) ;
#741 = ORIENTED_EDGE ( 'NONE', *, *, #881, .T. ) ;
#742 = CARTESIAN_POINT ( 'NONE',  ( -1.387000000000000500, -1.006000000000000200, -0.3809999999999997300 ) ) ;
#743 = CARTESIAN_POINT ( 'NONE',  ( -0.1269999999999999700, 1.006000000000000200, 0.1269999999999999700 ) ) ;
#744 = FACE_OUTER_BOUND ( 'NONE', #174, .T. ) ;
#745 = FACE_OUTER_BOUND ( 'NONE', #368, .T. ) ;
#746 = CARTESIAN_POINT ( 'NONE',  ( -1.387000000000000000, -1.260000000000000000, 0.1270000000000000000 ) ) ;
#747 = MANIFOLD_SOLID_BREP ( 'Imported9', #199 ) ;
#748 = CIRCLE ( 'NONE', #548, 0.1269999999999999500 ) ;
#749 = CARTESIAN_POINT ( 'NONE',  ( -0.1269999999999999700, 1.514000000000000000, 0.1270000000000000600 ) ) ;
#750 = CARTESIAN_POINT ( 'NONE',  ( -1.387000000000000000, 0.2539999999999999500, 0.1270000000000000600 ) ) ;
#751 = ORIENTED_EDGE ( 'NONE', *, *, #334, .T. ) ;
#752 = ORIENTED_EDGE ( 'NONE', *, *, #42, .F. ) ;
#753 =( LENGTH_UNIT ( ) NAMED_UNIT ( * ) SI_UNIT ( .MILLI., .METRE. ) );
#754 =( NAMED_UNIT ( * ) SI_UNIT ( $, .STERADIAN. ) SOLID_ANGLE_UNIT ( ) );
#755 = DIRECTION ( 'NONE',  ( -1.000000000000000000, 0.0000000000000000000, 0.0000000000000000000 ) ) ;
#756 = CARTESIAN_POINT ( 'NONE',  ( -1.387000000000000500, -1.006000000000000200, 0.6349999999999996800 ) ) ;
#757 = CARTESIAN_POINT ( 'NONE',  ( 1.387000000000000000, -1.555301434917138500E-017, 0.1270000000000000000 ) ) ;
#758 = EDGE_LOOP ( 'NONE', ( #409, #420 ) ) ;
#759 = FILL_AREA_STYLE ('',( #391 ) ) ;
#760 = CARTESIAN_POINT ( 'NONE',  ( -0.1269999999999999700, -1.260000000000000000, 0.1269999999999999700 ) ) ;
#761 = AXIS2_PLACEMENT_3D ( 'NONE', #774, #348, #844 ) ;
#762 = PRESENTATION_STYLE_ASSIGNMENT (( #567 ) ) ;
#763 = FACE_OUTER_BOUND ( 'NONE', #260, .T. ) ;
#764 = CARTESIAN_POINT ( 'NONE',  ( -1.387000000000000500, 1.514000000000000000, -0.3809999999999997300 ) ) ;
#765 = ADVANCED_FACE ( 'NONE', ( #255 ), #613, .T. ) ;
#766 = SURFACE_STYLE_FILL_AREA ( #596 ) ;
#767 = COLOUR_RGB ( '',0.7215686274509803800, 0.7215686274509803800, 0.7215686274509803800 ) ;
#768 = FILL_AREA_STYLE_COLOUR ( '', #165 ) ;
#769 = CARTESIAN_POINT ( 'NONE',  ( -1.133000000000000200, 1.260000000000000000, 0.1269999999999999700 ) ) ;
#770 = ORIENTED_EDGE ( 'NONE', *, *, #242, .F. ) ;
#771 = AXIS2_PLACEMENT_3D ( 'NONE', #65, #19, #915 ) ;
#772 = ORIENTED_EDGE ( 'NONE', *, *, #191, .T. ) ;
#773 = CARTESIAN_POINT ( 'NONE',  ( 1.133000000000000000, -1.514000000000000000, -0.3809999999999997800 ) ) ;
#774 = CARTESIAN_POINT ( 'NONE',  ( -1.280000000000000000, 1.280000000000000000, 0.4829999999999999800 ) ) ;
#775 = CARTESIAN_POINT ( 'NONE',  ( -1.387000000000000000, 0.2539999999999999500, 0.1269999999999999700 ) ) ;
#776 = VERTEX_POINT ( 'NONE', #72 ) ;
#777 = UNCERTAINTY_MEASURE_WITH_UNIT (LENGTH_MEASURE( 1.000000000000000100E-005 ), #753, 'distance_accuracy_value', 'NONE');
#778 = PRODUCT_DEFINITION_CONTEXT ( 'detailed design', #561, 'design' ) ;
#779 = CARTESIAN_POINT ( 'NONE',  ( -1.280000000000000000, 1.280000000000000000, 0.4849999999999999900 ) ) ;
#780 = AXIS2_PLACEMENT_3D ( 'NONE', #115, #341, #557 ) ;
#781 =( NAMED_UNIT ( * ) PLANE_ANGLE_UNIT ( ) SI_UNIT ( $, .RADIAN. ) );
#782 = VERTEX_POINT ( 'NONE', #505 ) ;
#783 = CARTESIAN_POINT ( 'NONE',  ( -0.1270000000000000000, -1.260000000000000000, 0.1270000000000000000 ) ) ;
#784 = SURFACE_STYLE_USAGE ( .BOTH. , #283 ) ;
#785 = AXIS2_PLACEMENT_3D ( 'NONE', #663, #225, #727 ) ;
#786 = ORIENTED_EDGE ( 'NONE', *, *, #5, .T. ) ;
#787 = EDGE_CURVE ( 'NONE', #162, #388, #444, .T. ) ;
#788 = EDGE_CURVE ( 'NONE', #618, #184, #902, .T. ) ;
#789 =( NAMED_UNIT ( * ) SI_UNIT ( $, .STERADIAN. ) SOLID_ANGLE_UNIT ( ) );
#790 = MANIFOLD_SOLID_BREP ( 'Imported4', #24 ) ;
#791 = CARTESIAN_POINT ( 'NONE',  ( -1.133000000000000000, 1.260000000000000000, 0.1270000000000000000 ) ) ;
#792 = CARTESIAN_POINT ( 'NONE',  ( 0.1270000000000000000, 1.260000000000000000, 0.1270000000000000000 ) ) ;
#793 = CARTESIAN_POINT ( 'NONE',  ( -1.600000000000000100, -1.600000000000000100, 0.2530000000000000000 ) ) ;
#794 = DIRECTION ( 'NONE',  ( 1.000000000000000000, 0.0000000000000000000, 0.0000000000000000000 ) ) ;
#795 = VECTOR ( 'NONE', #403, 1000.000000000000000 ) ;
#796 = CARTESIAN_POINT ( 'NONE',  ( 1.260000000000000000, -1.260000000000000000, 0.1270000000000000000 ) ) ;
#797 = EDGE_CURVE ( 'NONE', #476, #336, #551, .T. ) ;
#798 = DIRECTION ( 'NONE',  ( -1.000000000000000000, 0.0000000000000000000, 0.0000000000000000000 ) ) ;
#799 = CARTESIAN_POINT ( 'NONE',  ( 1.600000000000000100, 1.600000000000000100, 0.2530000000000000000 ) ) ;
#800 = EDGE_LOOP ( 'NONE', ( #239, #821 ) ) ;
#801 =( LENGTH_UNIT ( ) NAMED_UNIT ( * ) SI_UNIT ( .MILLI., .METRE. ) );
#802 = EDGE_LOOP ( 'NONE', ( #673, #94 ) ) ;
#803 = CARTESIAN_POINT ( 'NONE',  ( -1.260000000000000000, -1.260000000000000000, 0.1270000000000000000 ) ) ;
#804 = DIRECTION ( 'NONE',  ( 1.000000000000000000, 0.0000000000000000000, -0.0000000000000000000 ) ) ;
#805 = CARTESIAN_POINT ( 'NONE',  ( -1.132999999999999800, 1.006000000000000200, 0.1269999999999999700 ) ) ;
#806 = CARTESIAN_POINT ( 'NONE',  ( 1.132999999999999800, 1.006000000000000200, 0.1269999999999999700 ) ) ;
#807 = EDGE_CURVE ( 'NONE', #453, #606, #45, .T. ) ;
#808 = UNCERTAINTY_MEASURE_WITH_UNIT (LENGTH_MEASURE( 1.000000000000000100E-005 ), #919, 'distance_accuracy_value', 'NONE');
#809 = PRODUCT ( 'MICROFJ-30035-TSV-TR', 'MICROFJ-30035-TSV-TR', '', ( #412 ) ) ;
#810 = EDGE_LOOP ( 'NONE', ( #752, #153 ) ) ;
#811 = ORIENTED_EDGE ( 'NONE', *, *, #677, .F. ) ;
#812 = FILL_AREA_STYLE ('',( #493 ) ) ;
#813 = MECHANICAL_DESIGN_GEOMETRIC_PRESENTATION_REPRESENTATION (  '', ( #709 ), #381 ) ;
#814 = STYLED_ITEM ( 'NONE', ( #233 ), #706 ) ;
#815 = SURFACE_SIDE_STYLE ('',( #766 ) ) ;
#816 = CARTESIAN_POINT ( 'NONE',  ( -1.387000000000000000, -1.006000000000000200, 0.1269999999999999700 ) ) ;
#817 = PRESENTATION_STYLE_ASSIGNMENT (( #530 ) ) ;
#818 = CARTESIAN_POINT ( 'NONE',  ( 0.0000000000000000000, 0.0000000000000000000, 0.0000000000000000000 ) ) ;
#819 = DIRECTION ( 'NONE',  ( 0.0000000000000000000, 0.0000000000000000000, 1.000000000000000000 ) ) ;
#820 = CARTESIAN_POINT ( 'NONE',  ( -1.387000000000000000, 1.260000000000000000, 0.1270000000000000000 ) ) ;
#821 = ORIENTED_EDGE ( 'NONE', *, *, #395, .T. ) ;
#822 = CARTESIAN_POINT ( 'NONE',  ( -1.133000000000000200, -1.260000000000000000, 0.1269999999999999700 ) ) ;
#823 = CARTESIAN_POINT ( 'NONE',  ( -1.133000000000000000, 0.2539999999999998400, 0.6349999999999999000 ) ) ;
#824 = DIRECTION ( 'NONE',  ( 0.0000000000000000000, 0.0000000000000000000, 1.000000000000000000 ) ) ;
#825 = FACE_OUTER_BOUND ( 'NONE', #87, .T. ) ;
#826 = DIRECTION ( 'NONE',  ( 0.0000000000000000000, 1.000000000000000000, 0.0000000000000000000 ) ) ;
#827 = EDGE_LOOP ( 'NONE', ( #886, #652, #338, #654 ) ) ;
#828 = ORIENTED_EDGE ( 'NONE', *, *, #807, .T. ) ;
#829 = ORIENTED_EDGE ( 'NONE', *, *, #832, .F. ) ;
#830 = CARTESIAN_POINT ( 'NONE',  ( -1.132999999999999800, -1.514000000000000000, 0.1269999999999999700 ) ) ;
#831 =( BOUNDED_SURFACE ( )  B_SPLINE_SURFACE ( 3, 3, ( 
 ( #584, #660, #372, #860 ),
 ( #450, #13, #516, #76 ),
 ( #44, #642, #129, #8 ),
 ( #98, #284, #182, #396 ) ),
 .UNSPECIFIED., .F., .F., .T. ) 
 B_SPLINE_SURFACE_WITH_KNOTS ( ( 4, 4 ),
 ( 4, 4 ),
 ( 0.0000000000000000000, 1.000000000000000000 ),
 ( 0.0000000000000000000, 1.000000000000000000 ),
 .UNSPECIFIED. ) 
 GEOMETRIC_REPRESENTATION_ITEM ( )  RATIONAL_B_SPLINE_SURFACE ( (
 ( 1.000000000000000000, 0.3333333333333334300, 0.3333333333333334300, 1.000000000000000000),
 ( 0.3333333333333333700, 0.1111111111111111600, 0.1111111111111111600, 0.3333333333333333700),
 ( 0.3333333333333333700, 0.1111111111111111600, 0.1111111111111111600, 0.3333333333333333700),
 ( 1.000000000000000000, 0.3333333333333334300, 0.3333333333333334300, 1.000000000000000000) ) ) 
 REPRESENTATION_ITEM ( '' )  SURFACE ( )  );
#832 = EDGE_CURVE ( 'NONE', #565, #121, #414, .T. ) ;
#833 =( NAMED_UNIT ( * ) SI_UNIT ( $, .STERADIAN. ) SOLID_ANGLE_UNIT ( ) );
#834 = CARTESIAN_POINT ( 'NONE',  ( -1.133000000000000000, -1.260000000000000000, 0.1270000000000000000 ) ) ;
#835 = CARTESIAN_POINT ( 'NONE',  ( 1.600000000000000100, 1.600000000000000100, 0.2530000000000000000 ) ) ;
#836 = ADVANCED_FACE ( 'NONE', ( #763 ), #620, .T. ) ;
#837 = APPLICATION_PROTOCOL_DEFINITION ( 'draft international standard', 'automotive_design', 1998, #561 ) ;
#838 = DIRECTION ( 'NONE',  ( 1.000000000000000000, 0.0000000000000000000, 0.0000000000000000000 ) ) ;
#839 = CARTESIAN_POINT ( 'NONE',  ( -1.387000000000000000, -1.260000000000000000, 0.1269999999999999700 ) ) ;
#840 = ADVANCED_FACE ( 'NONE', ( #190 ), #483, .T. ) ;
#841 =( BOUNDED_SURFACE ( )  B_SPLINE_SURFACE ( 3, 3, ( 
 ( #894, #105, #552, #110 ),
 ( #631, #186, #693, #264 ),
 ( #335, #413, #896, #914 ),
 ( #201, #59, #273, #100 ) ),
 .UNSPECIFIED., .F., .F., .F. ) 
 B_SPLINE_SURFACE_WITH_KNOTS ( ( 4, 4 ),
 ( 4, 4 ),
 ( 0.0000000000000000000, 1.000000000000000000 ),
 ( 0.0000000000000000000, 1.000000000000000000 ),
 .UNSPECIFIED. ) 
 GEOMETRIC_REPRESENTATION_ITEM ( )  RATIONAL_B_SPLINE_SURFACE ( (
 ( 1.000000000000000000, 0.3333333333333334300, 0.3333333333333334300, 1.000000000000000000),
 ( 0.3333333333333333700, 0.1111111111111111600, 0.1111111111111111600, 0.3333333333333333700),
 ( 0.3333333333333333700, 0.1111111111111111600, 0.1111111111111111600, 0.3333333333333333700),
 ( 1.000000000000000000, 0.3333333333333334300, 0.3333333333333334300, 1.000000000000000000) ) ) 
 REPRESENTATION_ITEM ( '' )  SURFACE ( )  );
#842 = AXIS2_PLACEMENT_3D ( 'NONE', #369, #439, #291 ) ;
#843 = CARTESIAN_POINT ( 'NONE',  ( 1.387000000000000000, -1.260000000000000000, 0.1269999999999999700 ) ) ;
#844 = DIRECTION ( 'NONE',  ( 1.000000000000000000, 0.0000000000000000000, 0.0000000000000000000 ) ) ;
#845 = CARTESIAN_POINT ( 'NONE',  ( -1.387000000000000500, -0.2539999999999998900, -0.3809999999999997800 ) ) ;
#846 = CARTESIAN_POINT ( 'NONE',  ( 1.133000000000000200, 1.260000000000000000, 0.1269999999999999700 ) ) ;
#847 = ORIENTED_EDGE ( 'NONE', *, *, #242, .T. ) ;
#848 = CARTESIAN_POINT ( 'NONE',  ( 0.1270000000000000000, 1.260000000000000000, 0.1270000000000000000 ) ) ;
#849 = SURFACE_STYLE_USAGE ( .BOTH. , #116 ) ;
#850 = CARTESIAN_POINT ( 'NONE',  ( -1.600000000000000100, -1.600000000000000100, 0.4829999999999999800 ) ) ;
#851 = CARTESIAN_POINT ( 'NONE',  ( 1.387000000000000000, 1.260000000000000000, 0.1270000000000000000 ) ) ;
#852 = CARTESIAN_POINT ( 'NONE',  ( -0.1269999999999999700, -1.514000000000000000, 0.6349999999999995600 ) ) ;
#853 =( LENGTH_UNIT ( ) NAMED_UNIT ( * ) SI_UNIT ( .MILLI., .METRE. ) );
#854 = PRESENTATION_LAYER_ASSIGNMENT (  '', '', ( #709 ) ) ;
#855 = PRESENTATION_LAYER_ASSIGNMENT (  '', '', ( #814 ) ) ;
#856 = CARTESIAN_POINT ( 'NONE',  ( 1.133000000000000200, -1.260000000000000000, 0.1269999999999999700 ) ) ;
#857 = CARTESIAN_POINT ( 'NONE',  ( 0.1269999999999999700, 1.260000000000000000, 0.1269999999999999700 ) ) ;
#858 = CARTESIAN_POINT ( 'NONE',  ( -1.260000000000000000, 1.260000000000000000, 0.1270000000000000000 ) ) ;
#859 = PLANE ( 'NONE',  #687 ) ;
#860 = CARTESIAN_POINT ( 'NONE',  ( 1.133000000000000000, 0.0000000000000000000, 0.1270000000000000000 ) ) ;
#861 = CARTESIAN_POINT ( 'NONE',  ( -1.600000000000000100, -1.600000000000000100, 0.4829999999999999800 ) ) ;
#862 = SURFACE_STYLE_USAGE ( .BOTH. , #374 ) ;
#863 =( NAMED_UNIT ( * ) SI_UNIT ( $, .STERADIAN. ) SOLID_ANGLE_UNIT ( ) );
#864 = CARTESIAN_POINT ( 'NONE',  ( 1.600000000000000100, -1.600000000000000100, 0.2530000000000000000 ) ) ;
#865 = STYLED_ITEM ( 'NONE', ( #167 ), #289 ) ;
#866 = CIRCLE ( 'NONE', #595, 0.08000999999999992800 ) ;
#867 = DIRECTION ( 'NONE',  ( 0.0000000000000000000, -1.224646799147353200E-016, 1.000000000000000000 ) ) ;
#868 = ORIENTED_EDGE ( 'NONE', *, *, #788, .T. ) ;
#869 = UNCERTAINTY_MEASURE_WITH_UNIT (LENGTH_MEASURE( 1.000000000000000100E-005 ), #60, 'distance_accuracy_value', 'NONE');
#870 = CARTESIAN_POINT ( 'NONE',  ( -1.387000000000000000, 1.260000000000000000, 0.1269999999999999700 ) ) ;
#871 = CARTESIAN_POINT ( 'NONE',  ( 1.387000000000000500, 1.514000000000000000, -0.3809999999999997300 ) ) ;
#872 = CIRCLE ( 'NONE', #699, 0.1269999999999999500 ) ;
#873 = CARTESIAN_POINT ( 'NONE',  ( 0.1270000000000000000, -1.260000000000000000, 0.1270000000000000000 ) ) ;
#874 = SURFACE_STYLE_USAGE ( .BOTH. , #615 ) ;
#875 = EDGE_CURVE ( 'NONE', #776, #170, #588, .T. ) ;
#876 = AXIS2_PLACEMENT_3D ( 'NONE', #858, #512, #9 ) ;
#877 = CARTESIAN_POINT ( 'NONE',  ( -1.387000000000000000, -1.514000000000000000, 0.1269999999999999700 ) ) ;
#878 = APPLICATION_CONTEXT ( 'automotive_design' ) ;
#879 =( NAMED_UNIT ( * ) SI_UNIT ( $, .STERADIAN. ) SOLID_ANGLE_UNIT ( ) );
#880 = COLOUR_RGB ( '',0.5843137254901961100, 0.5843137254901961100, 0.5843137254901961100 ) ;
#881 = EDGE_CURVE ( 'NONE', #618, #476, #243, .T. ) ;
#882 = CARTESIAN_POINT ( 'NONE',  ( -1.133000000000000000, -1.514000000000000000, -0.3809999999999997800 ) ) ;
#883 = CARTESIAN_POINT ( 'NONE',  ( -1.133000000000000000, -1.555301434917138500E-017, 0.1270000000000000000 ) ) ;
#884 = ORIENTED_EDGE ( 'NONE', *, *, #146, .F. ) ;
#885 = ORIENTED_EDGE ( 'NONE', *, *, #504, .T. ) ;
#886 = ORIENTED_EDGE ( 'NONE', *, *, #137, .T. ) ;
#887 = SURFACE_STYLE_FILL_AREA ( #667 ) ;
#888 = CARTESIAN_POINT ( 'NONE',  ( 1.600000000000000100, 1.600000000000000100, 0.2530000000000000000 ) ) ;
#889 = DIRECTION ( 'NONE',  ( 0.0000000000000000000, 0.0000000000000000000, -1.000000000000000000 ) ) ;
#890 =( BOUNDED_SURFACE ( )  B_SPLINE_SURFACE ( 3, 3, ( 
 ( #397, #148, #32, #95 ),
 ( #616, #169, #678, #750 ),
 ( #322, #691, #823, #400 ),
 ( #883, #469, #36, #538 ) ),
 .UNSPECIFIED., .F., .F., .T. ) 
 B_SPLINE_SURFACE_WITH_KNOTS ( ( 4, 4 ),
 ( 4, 4 ),
 ( 0.0000000000000000000, 1.000000000000000000 ),
 ( 0.0000000000000000000, 1.000000000000000000 ),
 .UNSPECIFIED. ) 
 GEOMETRIC_REPRESENTATION_ITEM ( )  RATIONAL_B_SPLINE_SURFACE ( (
 ( 1.000000000000000000, 0.3333333333333334300, 0.3333333333333334300, 1.000000000000000000),
 ( 0.3333333333333333700, 0.1111111111111111600, 0.1111111111111111600, 0.3333333333333333700),
 ( 0.3333333333333333700, 0.1111111111111111600, 0.1111111111111111600, 0.3333333333333333700),
 ( 1.000000000000000000, 0.3333333333333334300, 0.3333333333333334300, 1.000000000000000000) ) ) 
 REPRESENTATION_ITEM ( '' )  SURFACE ( )  );
#891 = CIRCLE ( 'NONE', #559, 0.1270000000000000000 ) ;
#892 = MECHANICAL_DESIGN_GEOMETRIC_PRESENTATION_REPRESENTATION (  '', ( #814 ), #26 ) ;
#893 = CARTESIAN_POINT ( 'NONE',  ( 1.132999999999999800, 0.2539999999999999500, 0.1270000000000000600 ) ) ;
#894 = CARTESIAN_POINT ( 'NONE',  ( 1.133000000000000000, -1.260000000000000000, 0.1270000000000000000 ) ) ;
#895 = LINE ( 'NONE', #729, #720 ) ;
#896 = CARTESIAN_POINT ( 'NONE',  ( 1.387000000000000500, -1.006000000000000200, 0.6349999999999996800 ) ) ;
#897 = ADVANCED_FACE ( 'NONE', ( #12 ), #455, .T. ) ;
#898 = FILL_AREA_STYLE ('',( #359 ) ) ;
#899 = COLOUR_RGB ( '',0.7215686274509803800, 0.7215686274509803800, 0.7215686274509803800 ) ;
#900 = MANIFOLD_SOLID_BREP ( 'Imported8', #734 ) ;
#901 = PRESENTATION_STYLE_ASSIGNMENT (( #648 ) ) ;
#902 = LINE ( 'NONE', #721, #343 ) ;
#903 = ADVANCED_FACE ( 'NONE', ( #745 ), #435, .T. ) ;
#904 = CARTESIAN_POINT ( 'NONE',  ( 0.1269999999999999700, 1.514000000000000000, 0.6349999999999996800 ) ) ;
#905 = ADVANCED_FACE ( 'NONE', ( #373 ), #99, .T. ) ;
#906 = VERTEX_POINT ( 'NONE', #714 ) ;
#907 = EDGE_CURVE ( 'NONE', #599, #906, #668, .T. ) ;
#908 = CARTESIAN_POINT ( 'NONE',  ( 1.387000000000000000, -1.514000000000000000, 0.1269999999999999700 ) ) ;
#909 = FILL_AREA_STYLE ('',( #424 ) ) ;
#910 = CARTESIAN_POINT ( 'NONE',  ( -1.132999999999999800, 0.2539999999999999500, 0.1269999999999999700 ) ) ;
#911 = VERTEX_POINT ( 'NONE', #390 ) ;
#912 = ORIENTED_EDGE ( 'NONE', *, *, #395, .F. ) ;
#913 = FILL_AREA_STYLE ('',( #768 ) ) ;
#914 = CARTESIAN_POINT ( 'NONE',  ( 1.387000000000000000, -1.006000000000000200, 0.1270000000000000600 ) ) ;
#915 = DIRECTION ( 'NONE',  ( -1.000000000000000000, 0.0000000000000000000, 0.0000000000000000000 ) ) ;
#916 = PLANE ( 'NONE',  #316 ) ;
#917 = PRESENTATION_LAYER_ASSIGNMENT (  '', '', ( #34 ) ) ;
#918 = AXIS2_PLACEMENT_3D ( 'NONE', #545, #473, #824 ) ;
#919 =( LENGTH_UNIT ( ) NAMED_UNIT ( * ) SI_UNIT ( .MILLI., .METRE. ) );
#920 = CARTESIAN_POINT ( 'NONE',  ( 1.600000000000000100, 1.600000000000000100, 0.2530000000000000000 ) ) ;
#921 = DIRECTION ( 'NONE',  ( -1.000000000000000000, 0.0000000000000000000, 0.0000000000000000000 ) ) ;
ENDSEC;
END-ISO-10303-21;
